<?xml version="1.0" encoding="UTF-8"?>
<svg xmlns="http://www.w3.org/2000/svg" width="61" height="60" viewBox="0 0 61 60" fill="none">
  <path d="M32.71 51.2899C33.33 51.3299 33.94 51.3799 34.56 51.4299C34.83 51.4499 35.03 51.5599 35.26 51.6399C35.34 51.6699 35.39 51.7499 35.49 51.7399C36.46 51.6399 37.43 51.5099 38.37 51.3899C38.7 51.3499 39.1 51.2899 39.33 51.3899C40.6 51.9099 42.25 51.8699 43.86 51.6099C44 51.5899 44.2 51.4999 44.26 51.5399C45.05 52.0999 46.11 51.6099 47.01 51.6299C47.13 51.6299 47.13 51.6299 47.16 51.6399L47.24 51.6699C47.29 51.6899 47.35 51.7199 47.4 51.7399C47.51 51.7999 47.62 51.8599 47.73 51.8899C47.82 51.9199 47.94 51.9099 48.02 51.7699C48.28 51.3399 48.47 51.3499 48.69 51.6299C48.81 51.7799 48.99 51.6799 49.14 51.6799H49.68L49.95 51.6699H49.98L51.63 50.0199V49.9999V49.9399V49.8099C51.63 49.7399 51.63 49.6699 51.58 49.6099C51.45 49.4199 51.44 49.2499 51.67 49.0499C51.92 48.8399 51.95 48.5499 51.69 48.3399C51.39 48.0899 51.8 47.9299 52 47.7299C52.05 47.6799 52.19 47.6099 52.14 47.5899C51.58 47.4199 51.91 47.1999 51.85 47.0099C51.78 46.7999 51.65 46.5999 51.62 46.3899C51.6 46.2899 51.81 46.1799 51.82 46.0799C51.85 45.5599 51.97 45.0399 51.79 44.5299C51.71 44.2999 51.87 44.0899 51.81 43.8699C51.77 43.7099 51.53 43.5599 51.51 43.4099C51.48 43.1999 51.55 42.9799 51.6 42.7699C51.61 42.7199 51.78 42.6599 51.75 42.6199C51.46 42.1699 51.98 41.7299 51.87 41.2799C51.76 40.8299 51.87 40.3699 51.87 39.9199C51.87 39.1199 51.91 38.3199 51.81 37.5199C51.78 37.2799 51.75 37.0399 51.81 36.7899C51.86 36.5699 51.5 36.3399 51.47 36.1099C51.44 35.9199 51.62 35.7199 51.69 35.5199C51.75 35.3299 51.8 35.1499 51.81 34.9599C51.83 34.3999 51.81 33.8299 51.86 33.2699C51.86 33.1399 52.04 33.0099 52.13 32.8699C52.15 32.8399 52.21 32.7999 52.18 32.7799C51.5 32.2099 52 31.6199 51.87 31.0399C51.81 30.7899 51.81 30.5299 51.92 30.2799C52.01 30.0899 51.96 29.9299 51.78 29.7399C51.57 29.5099 51.94 29.2299 52.07 28.9699C52.1 28.9099 52.18 28.8499 52.16 28.7999C52.09 28.6699 51.92 28.5399 51.87 28.4099L51.78 28.1499C51.78 28.1499 51.75 28.0699 51.74 28.0099L51.69 27.7699C51.62 27.4499 51.51 27.1399 51.38 26.8599C51.28 26.6199 51.37 26.2799 51.22 26.0299C50.82 25.3099 50.13 24.7599 49.35 24.4599C48.99 24.3099 48.6 24.2299 48.21 24.1999L47.5 24.1699L46.28 24.1299C46.11 24.1299 45.94 24.2299 45.77 24.1999C45.65 24.1799 45.54 23.9999 45.42 23.9399C45.37 23.9099 45.31 23.9699 45.25 24.0099C45.18 24.0499 45.1 24.1699 45.03 24.1499C44.81 24.0899 44.6 23.9399 44.38 23.9199C44.26 23.9199 44.13 24.1799 44 24.1899C43.42 24.2199 42.84 24.2699 42.26 24.1599C42.05 24.1199 41.85 24.1099 41.64 24.1599C41.15 24.2499 40.65 24.0799 40.16 24.0199C40.12 24.0199 40.06 24.0399 40.03 24.1199C39.85 24.5299 39.69 24.2599 39.52 24.0799C39.45 23.9999 39.36 24.0299 39.28 24.0499C39.18 24.0699 39.06 24.2599 38.99 24.1399C38.77 23.7399 38.58 24.0399 38.41 24.3299C38.25 24.5999 38.14 24.7099 37.98 24.3799C37.91 24.2399 37.82 24.2399 37.73 24.2299C37.38 24.1999 37.03 24.2099 36.67 24.1799C36.59 24.1799 36.51 24.0199 36.41 23.9199C36.33 24.1799 36.25 24.4199 36.16 24.5199C36.06 24.6199 36.01 24.5699 35.73 24.2899C35.64 24.1899 35.49 24.2399 35.37 24.2599C34.12 24.4499 33.04 25.2899 32.48 26.3999C32.32 26.7099 32.04 26.9899 31.87 27.3399C31.82 27.4399 31.77 27.5499 31.77 27.6699C31.79 27.8199 31.81 28.0399 31.85 28.1199L31.96 28.3699C32.03 28.5399 32.09 28.6999 32.09 28.8699C32.13 29.7199 32.09 30.5799 32.09 31.4399C32.09 31.6399 32.11 31.8399 32.09 32.0399C32.09 32.1099 32 32.1899 31.95 32.2699C31.91 32.3199 31.77 32.3999 31.81 32.4199C32.49 32.6899 32.09 33.1499 32.14 33.5199C32.23 34.2999 32.01 35.1599 32.2 35.9099C32.32 36.3899 32.01 36.9999 32.2 37.4599C32.24 37.5599 32.02 37.7599 31.94 37.9199C31.91 37.9799 31.88 38.0799 31.96 38.0699C32.41 38.0499 32.2 38.2399 31.99 38.3899C32.08 38.5199 32.22 38.5999 32.21 38.7299C32.17 39.1699 32.07 39.6499 32.04 40.0999C32.04 40.2199 32.26 40.2499 32.24 40.3799C32.2 40.6099 32.03 40.8899 31.98 41.1299C31.96 41.2199 32.1 41.2499 32.17 41.2999C32.22 41.3299 32.37 41.3399 32.32 41.3899C31.75 41.9299 32.54 41.8099 32.32 42.1799C32.02 42.7199 32.49 42.8399 32.35 43.2899C32.3 43.4499 32.18 43.6599 32.12 43.8299C32.1 43.8999 32.16 43.9299 32.19 43.9799C32.24 44.0699 32.34 44.1399 32.32 44.2599C32.3 44.4399 32.15 44.6999 32.16 44.8599C32.17 45.0199 32.36 45.0599 32.4 45.1999C32.42 45.2799 32.32 45.4399 32.27 45.5699C32.25 45.6199 32.17 45.7299 32.2 45.7299C32.46 45.7699 32.5 45.8899 32.49 46.1699C32.49 46.8299 32.46 47.5299 32.54 48.1299C32.62 48.7699 32.7 49.4099 32.73 50.0799C32.75 50.4599 32.63 50.9799 32.66 51.3399C32.66 51.3499 32.66 51.3599 32.66 51.3799L35.52 48.5199L35.58 47.2999C35.2 47.2999 35.23 46.0499 35.68 45.2799L35.7 44.8499C35.46 44.8699 35.4 44.6899 35.4 44.4399C35.4 44.3199 35.41 44.1799 35.42 44.0499C35.42 43.9899 35.43 43.9599 35.42 43.9299C35.38 43.8399 35.31 43.7599 35.28 43.6599C35.23 43.4799 35.16 43.3199 35.18 43.0999C35.21 42.8199 35.55 42.3399 35.37 42.2299C35.19 42.1099 35.6 41.7099 35.51 41.5699C35.45 41.4699 35.36 41.3899 35.31 41.2799C35.27 41.1899 35.27 41.0799 35.29 40.9499C35.31 40.8099 35.46 40.5899 35.39 40.5099C35.22 40.3099 35.3 39.9999 35.46 39.6499C35.58 39.3899 35.41 39.2499 35.36 39.0599C35.34 38.9599 35.2 38.8999 35.3 38.7599C35.51 38.4599 35.42 38.3099 35.3 38.1499C35.22 38.0199 35.41 37.7799 35.48 37.5899C35.52 37.4899 35.64 37.3499 35.58 37.2999C35.31 37.0899 35.56 36.6999 35.49 36.4299C35.41 36.0699 35.37 35.6999 35.37 35.3099C35.37 34.9899 35.57 34.6299 35.59 34.3199C35.61 34.0499 35.51 33.7999 35.47 33.5399C35.47 33.4999 35.42 33.4599 35.47 33.4099C35.92 33.1099 35.59 32.9699 35.49 32.7599C35.43 32.6299 35.52 32.4699 35.53 32.3299L35.57 31.9599L35.65 31.5099C35.67 31.4099 35.79 31.2899 35.65 31.2299C35.24 31.0399 35.49 30.7899 35.67 30.5499C35.75 30.4299 35.71 30.3099 35.66 30.1999C35.55 29.9399 35.43 29.6799 35.57 29.3799C35.72 29.0699 35.5 28.7599 35.48 28.4399C35.48 28.2699 35.61 28.0199 35.61 28.0499C35.61 28.0199 35.46 27.9399 35.5 27.8999C35.54 27.8599 35.66 27.8699 35.73 27.8999C35.8 27.9199 35.82 27.9499 35.79 27.8099C35.77 27.6699 35.84 27.7099 35.88 27.7599C35.88 27.7599 35.9 27.7799 35.91 27.7899C35.91 27.7899 35.91 27.7899 35.92 27.7899H36C36.11 27.7799 36.22 27.7399 36.33 27.6399C36.44 27.5399 36.58 27.8699 36.7 27.8399C37.12 27.7599 37.54 27.5799 37.96 27.4999C38.07 27.4799 38.19 27.6699 38.31 27.7599C38.39 27.8099 38.46 27.8999 38.54 27.8899C38.99 27.8299 39.44 27.6899 39.88 27.6699C40.15 27.6599 40.42 27.8699 40.69 27.8599C40.95 27.8599 41.2 27.6899 41.46 27.5999C41.48 27.5999 41.51 27.5399 41.53 27.5699C41.82 28.0699 42.1 27.8199 42.41 27.5699C42.64 27.3899 42.9 27.7099 43.15 27.7999C43.23 27.8299 43.3 27.8699 43.38 27.8699C43.8 27.8899 44.22 27.9399 44.64 27.8899C45 27.8499 45.36 27.6799 45.72 27.5899C45.79 27.5699 45.87 27.6699 45.94 27.6699C46.13 27.6699 46.32 27.6599 46.5 27.6699C46.63 27.6699 46.75 27.6999 46.88 27.7099C47.09 27.7399 47.3 27.8099 47.51 27.7999C47.63 27.7999 47.74 27.6199 47.86 27.5999C48 27.5799 48.01 27.4999 48.12 27.4799C48.2 27.4599 48.29 27.5099 48.24 27.6699C48.19 27.8199 48.25 27.7899 48.35 27.7899C48.45 27.7899 48.57 27.8199 48.5 27.9099C48.46 27.9599 48.42 27.9999 48.37 28.0399C48.35 28.0699 48.33 28.0399 48.31 28.1099L48.24 28.3099C48.24 28.3099 48.22 28.3299 48.23 28.3299C48.76 28.5899 48 28.8299 48.08 29.0799C48.11 29.1599 48.03 29.2599 48.15 29.3099C48.76 29.5699 48.26 29.8299 48.23 30.0999C48.21 30.2599 48.32 30.4299 48.38 30.5899C48.39 30.6199 48.49 30.6499 48.48 30.6799C48.4 30.9199 48.27 31.1599 48.21 31.4099C48.15 31.6099 48.16 31.8099 48.14 32.0099C48.12 32.1899 48.06 32.3799 48.09 32.5599C48.12 32.7799 48.25 32.9899 48.29 33.2099C48.33 33.4099 48.29 33.6099 48.29 33.8099V34.1099C48.29 34.1899 48.29 34.2599 48.31 34.3399L48.36 34.6699C48.39 34.8699 48.61 35.0899 48.39 35.2499C48.08 35.4799 48.54 35.6099 48.71 35.7899C48.78 35.8599 48.91 35.9299 48.87 35.9999C48.75 36.2299 48.62 36.4599 48.42 36.6799C48.22 36.8999 48.42 37.1099 48.42 37.3199C48.44 37.6699 48.25 38.0299 48.23 38.3799C48.21 38.7099 48.34 39.0399 48.32 39.3699C48.3 39.6999 48.12 40.0199 48.1 40.3499C48.09 40.5699 48.25 40.7899 48.33 41.0099C48.34 41.0499 48.37 41.0899 48.34 41.1199C48.06 41.4899 48.01 41.8599 48.44 42.2299C48.6 42.3699 48.35 42.5499 48.36 42.6999C48.36 42.8999 48.5 43.0999 48.49 43.2999C48.48 43.4399 48.3 43.5799 48.19 43.7199C48.17 43.7399 48.11 43.7599 48.12 43.7899C48.2 43.9999 48.31 44.2199 48.38 44.4299C48.4 44.5099 48.3 44.5799 48.28 44.6599C48.25 44.7999 48.22 44.9399 48.22 45.0799C48.22 45.2699 48.22 45.4699 48.32 45.6599C48.43 45.8699 47.87 46.0799 48.39 46.2799C48.46 46.3099 48.5 46.3599 48.48 46.3899C48.38 46.6299 48.24 46.8699 48.16 47.1199C48.12 47.2499 48.12 47.3799 48.16 47.5099C48.25 47.7999 48.45 48.0899 48.48 48.3799C48.5 48.6099 48.3 48.8499 48.29 49.0799C48.29 49.2499 48.48 49.4299 48.5 49.5999L48.53 49.8799V50.0199L48.55 50.0899C51.28 47.3599 49.31 49.3299 49.91 48.7299H49.89H49.86C49.68 48.7299 49.51 48.7199 49.34 48.6399C49.08 48.5299 48.83 48.6699 48.57 48.6799C48.42 48.6799 48.29 48.4699 48.15 48.4699C47.96 48.4699 47.75 48.6399 47.56 48.6299C46.57 48.5899 45.56 48.5399 44.56 48.4999C43.85 48.4699 43.18 48.3899 42.46 48.4499C41.86 48.4999 41.17 48.7599 40.54 48.8299C40.17 48.8699 39.89 48.7299 39.55 48.7199C38.84 48.6899 38.17 48.4899 37.39 48.7399C36.37 49.0699 35.68 49.0199 35.03 48.9799L32.63 51.3799L32.71 51.2899Z" fill="#001B38"></path>
  <path d="M34 48.18C34 48.18 33.96 48.16 33.93 48.13C33.93 48.12 33.91 48 33.9 47.92C33.9 47.89 33.9 47.8 33.89 47.82C33.86 48.01 33.83 48.22 33.8 48.4C33.79 48.46 33.78 48.54 33.77 48.45C33.72 47.93 33.66 48.06 33.61 48.36C33.61 48.39 33.6 48.48 33.6 48.44C33.57 47.88 33.54 48.4 33.5 48.38C33.47 48.36 33.45 48.18 33.42 48.12C33.41 48.1 33.4 48.11 33.39 48.25C33.37 48.69 33.34 48.68 33.31 48.39C33.3 48.24 33.28 48.34 33.26 48.34C33.22 48.34 33.18 48.35 33.14 48.36C33.14 48.36 33.12 48.36 33.12 48.41C33.1 48.54 33.08 48.55 33.05 48.32C33.02 48.07 32.99 48.04 32.96 48.3C32.93 48.6 32.91 48.19 32.89 47.99C32.89 47.94 32.87 47.8 32.87 47.85C32.85 48.41 32.82 48.08 32.8 48.14C32.77 48.21 32.75 48.34 32.72 48.37C32.71 48.39 32.69 48.18 32.68 48.17C32.62 48.14 32.55 48.02 32.49 48.2C32.46 48.28 32.44 48.12 32.41 48.18C32.39 48.22 32.37 48.46 32.35 48.48C32.32 48.51 32.3 48.44 32.27 48.39C32.27 48.38 32.26 48.21 32.25 48.24C32.2 48.53 32.14 48.01 32.09 48.12C32.03 48.23 31.98 48.12 31.92 48.12C31.82 48.12 31.73 48.08 31.63 48.18C31.6 48.21 31.57 48.24 31.54 48.18C31.51 48.13 31.48 48.49 31.46 48.52C31.44 48.55 31.41 48.37 31.39 48.3C31.37 48.24 31.34 48.19 31.32 48.18C31.25 48.16 31.18 48.18 31.11 48.13C31.09 48.13 31.08 47.95 31.06 47.86C31.06 47.84 31.06 47.78 31.05 47.81C30.98 48.49 30.91 47.99 30.84 48.12C30.81 48.18 30.78 48.18 30.75 48.07C30.73 47.98 30.71 48.03 30.68 48.21C30.65 48.42 30.62 48.05 30.59 47.92C30.59 47.89 30.58 47.81 30.57 47.83C30.55 47.9 30.54 48.07 30.52 48.12C30.48 48.25 30.43 48.37 30.39 48.41C30.37 48.43 30.35 48.2 30.34 48.19C30.29 48.15 30.23 48.16 30.18 48.15C30.08 48.12 29.98 48.08 29.88 48.06C29.86 48.06 29.84 48.16 29.82 48.13C29.81 48.11 29.79 47.93 29.78 47.87C29.78 47.84 29.77 47.9 29.76 47.94C29.76 47.98 29.74 48.1 29.73 48.08C29.7 48.02 29.68 47.87 29.65 47.85C29.63 47.85 29.62 48.11 29.6 48.12C29.53 48.15 29.46 48.2 29.39 48.09C29.36 48.05 29.34 48.04 29.31 48.09C29.25 48.18 29.19 48.01 29.13 47.95C29.13 47.95 29.12 47.97 29.11 48.05C29.09 48.46 29.07 48.19 29.05 48.01C29.05 47.93 29.03 47.96 29.02 47.98C29.01 48 28.99 48.19 28.99 48.07C28.96 47.67 28.94 47.97 28.92 48.26C28.9 48.53 28.89 48.64 28.87 48.31C28.87 48.17 28.85 48.17 28.84 48.16C28.8 48.13 28.75 48.14 28.71 48.11C28.71 48.11 28.69 47.95 28.68 47.85C28.66 48.38 28.64 48.8 28.61 48.21C28.61 48.11 28.6 48.15 28.59 48.15C28.51 48.15 28.43 48.18 28.35 48.15C28.33 48.15 28.31 47.96 28.28 47.86C28.28 47.83 28.27 47.79 28.26 47.81C28.22 47.92 28.18 48.13 28.15 48.15C28.05 48.19 27.95 48.15 27.86 48.14C27.84 48.14 27.81 48.16 27.79 48.14C27.79 48.14 27.77 48.05 27.77 47.99C27.77 47.95 27.76 47.81 27.76 47.85C27.72 48.53 27.67 48.13 27.63 48.17C27.54 48.25 27.45 48.01 27.36 48.2C27.3 48.32 27.24 47.99 27.18 48.16C27.17 48.2 27.15 47.96 27.14 47.88C27.14 47.85 27.12 47.82 27.12 47.9C27.1 48.37 27.09 48.15 27.08 47.92C27.06 48.01 27.05 48.16 27.03 48.14C26.98 48.09 26.93 47.96 26.88 47.92C26.87 47.91 26.85 48.15 26.84 48.13C26.82 48.08 26.79 47.89 26.77 47.82C26.77 47.79 26.75 47.94 26.74 48.02C26.74 48.07 26.72 48.23 26.72 48.18C26.69 47.54 26.66 48.41 26.63 48.16C26.59 47.8 26.55 48.32 26.5 48.16C26.49 48.1 26.47 47.95 26.45 47.88C26.45 47.85 26.44 47.92 26.43 47.95C26.42 48 26.4 48.11 26.39 48.09C26.37 48.06 26.35 47.87 26.33 47.88C26.31 47.89 26.29 48.1 26.27 48.14C26.26 48.17 26.25 48.04 26.24 47.97C26.24 47.94 26.24 47.84 26.23 47.88C26.19 48.49 26.14 48.04 26.09 48.17C26.07 48.24 26.04 48.31 26.02 48.32C26.01 48.32 25.99 48.14 25.98 48.17V52.23H26.03C26.04 51.69 26.09 51.69 26.11 52.23H26.13C26.14 51.61 26.17 51.89 26.19 51.83C26.21 51.77 26.22 51.69 26.24 51.65C26.27 51.58 26.29 51.49 26.32 51.51C26.35 51.54 26.39 51.92 26.42 51.7C26.45 51.48 26.47 51.95 26.5 51.84C26.52 51.76 26.54 51.65 26.55 51.6C26.56 51.55 26.58 51.55 26.59 51.56C26.61 51.58 26.62 51.75 26.64 51.66C26.68 51.46 26.71 51.54 26.75 51.71C26.78 51.83 26.81 51.64 26.83 51.58C26.84 51.55 26.86 51.4 26.87 51.5C26.9 51.72 26.92 51.62 26.95 51.5C26.97 51.41 26.99 51.61 27.01 51.68C27.02 51.72 27.03 51.85 27.04 51.78C27.08 51.49 27.12 51.74 27.16 51.67C27.21 51.57 27.26 51.53 27.31 51.52C27.35 51.52 27.39 51.71 27.43 51.73C27.46 51.75 27.5 51.64 27.53 51.59C27.53 51.59 27.54 51.53 27.55 51.59C27.58 52.04 27.61 51.7 27.63 51.6C27.65 51.54 27.67 51.62 27.69 51.64C27.71 51.65 27.72 51.66 27.74 51.68C27.76 51.7 27.78 51.73 27.8 51.76C27.81 51.77 27.83 51.89 27.84 51.76C27.87 51.35 27.9 51.6 27.93 51.77C27.94 51.85 27.96 51.8 27.98 51.76C28.02 51.65 28.05 51.53 28.09 51.67C28.13 51.81 28.17 51.59 28.21 51.58C28.23 51.58 28.26 51.71 28.28 51.71C28.31 51.71 28.33 51.54 28.36 51.56C28.42 51.6 28.48 51.98 28.53 51.71C28.58 51.45 28.64 51.95 28.69 51.58C28.7 51.48 28.72 51.81 28.74 51.78C28.79 51.7 28.84 51.52 28.89 51.44C28.9 51.42 28.92 51.61 28.93 51.7C28.93 51.75 28.95 51.84 28.96 51.83C29.01 51.77 29.07 51.63 29.12 51.61C29.15 51.6 29.19 51.81 29.22 51.8C29.25 51.8 29.28 51.63 29.31 51.54C29.31 51.54 29.31 51.48 29.31 51.51C29.35 52.01 29.38 51.76 29.42 51.51C29.45 51.33 29.48 51.65 29.51 51.74C29.51 51.77 29.53 51.81 29.54 51.81C29.59 51.83 29.64 51.88 29.69 51.83C29.73 51.79 29.78 51.62 29.82 51.53C29.82 51.51 29.84 51.61 29.85 51.61C29.87 51.61 29.9 51.6 29.92 51.61C29.94 51.61 29.95 51.64 29.97 51.65C30 51.68 30.02 51.75 30.05 51.74C30.06 51.74 30.08 51.56 30.09 51.54C30.15 51.48 30.21 51.2 30.26 51.5C30.31 51.79 30.36 51.23 30.41 51.41C30.44 51.52 30.47 51.59 30.51 51.69C30.51 51.69 30.51 51.71 30.51 51.7C30.54 51.17 30.57 51.93 30.6 51.85C30.6 51.82 30.62 51.9 30.63 51.78C30.66 51.17 30.69 51.67 30.73 51.7C30.75 51.72 30.77 51.61 30.79 51.55C30.79 51.54 30.79 51.44 30.8 51.45C30.83 51.53 30.86 51.66 30.89 51.72C30.91 51.78 30.94 51.77 30.96 51.79C30.98 51.81 31 51.87 31.03 51.84C31.06 51.81 31.08 51.68 31.11 51.64C31.13 51.6 31.16 51.64 31.18 51.64C31.19 51.64 31.2 51.64 31.22 51.64C31.22 51.64 31.24 51.63 31.25 51.62L31.29 51.57C31.29 51.57 31.34 51.32 31.36 51.54C31.39 51.85 31.4 51.39 31.43 51.22C31.43 51.15 31.45 51.02 31.46 51.06C31.49 51.18 31.52 51.31 31.54 51.51C31.57 51.71 31.59 51.51 31.62 51.51C31.66 51.49 31.71 51.68 31.75 51.7C31.79 51.72 31.83 51.59 31.87 51.61C31.91 51.63 31.95 51.81 31.99 51.83C32.02 51.84 32.04 51.68 32.07 51.6C32.07 51.59 32.07 51.56 32.08 51.59C32.13 51.87 32.17 51.92 32.22 51.49C32.24 51.33 32.26 51.58 32.28 51.57C32.3 51.57 32.33 51.43 32.35 51.44C32.37 51.45 32.38 51.63 32.4 51.74C32.4 51.76 32.4 51.82 32.4 51.81C32.43 51.73 32.45 51.62 32.48 51.55C32.48 51.53 32.5 51.63 32.51 51.65C32.53 51.68 32.54 51.71 32.56 51.71C32.58 51.71 32.61 51.71 32.63 51.61C32.66 51.5 32.68 52.06 32.71 51.54C32.71 51.47 32.71 51.43 32.72 51.45C32.75 51.55 32.78 51.68 32.81 51.77C32.83 51.81 32.84 51.81 32.86 51.77C32.9 51.68 32.93 51.48 32.97 51.45C33 51.43 33.03 51.63 33.06 51.64C33.08 51.64 33.1 51.45 33.12 51.43C33.17 51.4 33.21 51.32 33.26 51.47C33.29 51.58 33.33 51.44 33.36 51.43C33.38 51.43 33.4 51.64 33.42 51.64C33.45 51.64 33.47 51.48 33.5 51.49C33.55 51.51 33.59 51.61 33.64 51.68C33.67 51.73 33.7 51.85 33.73 51.81C33.75 51.78 33.78 51.52 33.8 51.46C33.81 51.42 33.83 51.6 33.84 51.64C33.87 51.71 33.9 52.03 33.93 51.75C33.96 51.39 33.99 51.47 34.02 51.6V48.2L34 48.18Z" fill="#001B38"></path>
  <path d="M27.2901 51.29C27.3401 50.67 27.3901 50.05 27.4401 49.42C27.4701 49.15 27.5801 48.94 27.6601 48.71C27.6901 48.63 27.7701 48.57 27.7601 48.48C27.6701 47.5 27.5301 46.52 27.4101 45.58C27.3701 45.24 27.3101 44.85 27.4101 44.62C27.9401 43.31 27.9001 41.63 27.6201 40.03C27.6001 39.89 27.5001 39.7 27.5501 39.64C28.1201 38.8 27.6101 37.77 27.6301 36.86C27.6301 36.74 27.6301 36.74 27.6401 36.72L27.6701 36.66C27.6701 36.66 27.7201 36.58 27.7401 36.54C27.7901 36.46 27.8601 36.37 27.8901 36.29C27.9101 36.22 27.9001 36.14 27.7601 36.08C27.3201 35.87 27.3201 35.64 27.5501 35.31C27.6601 35.12 27.5101 34.93 27.4501 34.76C27.2901 34.34 27.0501 33.95 26.7501 33.62C26.6901 33.55 26.6201 33.49 26.5301 33.46C26.2601 33.38 26.1001 33.27 26.0001 32.92C25.9001 32.55 25.4901 32.34 25.1401 32.49C24.7301 32.69 24.6401 32.25 24.3601 32.02C24.3001 31.97 24.1901 31.82 24.1601 31.87C23.9901 32.14 23.9601 32.2 23.8801 32.2C23.8101 32.2 23.7301 32.13 23.6601 32.16C23.5101 32.23 23.3601 32.36 23.2101 32.39C23.1401 32.41 23.0601 32.2 22.9801 32.19C22.6001 32.16 22.2201 32.04 21.8401 32.22C21.6701 32.3 21.5101 32.14 21.3501 32.2C21.2401 32.24 21.1201 32.48 21.0101 32.5C20.8501 32.53 20.6901 32.46 20.5401 32.41C20.5001 32.4 20.4601 32.23 20.4301 32.26C20.1001 32.55 19.7801 32.03 19.4501 32.14C19.1201 32.25 18.7801 32.14 18.4501 32.14C17.8601 32.14 17.2801 32.1 16.6901 32.2C16.5101 32.23 16.3401 32.26 16.1601 32.2C16.0001 32.15 15.8301 32.51 15.6601 32.54C15.5201 32.57 15.3701 32.39 15.2301 32.32C15.0901 32.26 14.9601 32.21 14.8201 32.2C14.4101 32.18 13.9901 32.2 13.5801 32.15C13.4801 32.15 13.3901 31.97 13.2901 31.88C13.2701 31.86 13.2401 31.8 13.2201 31.83C12.7801 32.51 12.4301 32 11.8801 32.15C11.5301 32.22 11.1801 32.28 10.8101 32.28C10.5201 32.28 10.3101 32.42 10.1601 32.72C10.0101 33.05 9.49009 32.96 9.11009 33.16C9.03009 33.2 8.91009 33.21 8.87009 33.29C8.79009 33.49 8.82009 33.74 8.76009 33.92C8.60009 34.41 8.53009 34.9 8.49009 35.36C8.48009 35.55 8.23009 35.72 8.21009 35.93C8.16009 36.33 8.18009 36.59 8.17009 36.93L8.08009 38.72C8.08009 38.85 8.18009 38.97 8.15009 39.1C8.13009 39.19 7.95009 39.27 7.89009 39.36C7.86009 39.4 7.92009 39.44 7.96009 39.48C8.00009 39.53 8.12009 39.59 8.10009 39.64C8.04009 39.8 7.89009 39.96 7.87009 40.11C7.87009 40.2 8.13009 40.29 8.14009 40.38C8.17009 40.8 8.22009 41.23 8.11009 41.65C8.07009 41.8 8.06009 41.95 8.11009 42.1C8.20009 42.46 8.03009 42.82 7.97009 43.19C7.97009 43.22 7.99009 43.26 8.07009 43.29C8.48009 43.42 8.21009 43.54 8.03009 43.66C7.95009 43.71 7.98009 43.78 8.00009 43.84C8.02009 43.91 8.21009 44 8.09009 44.05C7.69009 44.21 7.99009 44.35 8.28009 44.48C8.55009 44.6 8.66009 44.68 8.33009 44.79C8.19009 44.84 8.19009 44.91 8.18009 44.97C8.15009 45.23 8.16009 45.49 8.13009 45.74C8.13009 45.8 7.97009 45.86 7.87009 45.93C8.40009 46.04 8.82009 46.17 8.23009 46.35C8.13009 46.38 8.17009 46.44 8.17009 46.48C8.17009 46.95 8.20009 47.43 8.17009 47.9C8.17009 48.03 7.98009 48.16 7.88009 48.3C7.85009 48.34 7.81009 48.38 7.83009 48.42C7.94009 48.65 8.15009 48.88 8.17009 49.11C8.18009 49.26 8.18009 49.41 8.19009 49.56V49.89V49.97V50.01C9.02009 50.85 6.33009 48.17 10.0501 51.88H10.0701H10.2501L10.9701 51.9C11.1201 51.9 11.2701 51.88 11.4201 51.9C11.4701 51.9 11.5301 51.99 11.5901 52.05C11.6301 52.09 11.6801 52.23 11.7001 52.19C11.9301 51.51 12.2501 51.91 12.5401 51.87C13.1301 51.78 13.7701 52.01 14.3301 51.82C14.6901 51.7 15.1501 52.02 15.4901 51.84C15.5701 51.8 15.7201 52.03 15.8401 52.1C15.8901 52.13 15.9601 52.16 15.9601 52.08C15.9401 51.62 16.0801 51.84 16.2001 52.05C16.3001 51.96 16.3501 51.82 16.4501 51.83C16.7801 51.87 17.1501 51.98 17.4901 52.02C17.5801 52.02 17.6001 51.79 17.6901 51.82C17.8601 51.86 18.0901 52.04 18.2701 52.1C18.3401 52.12 18.3501 51.98 18.3901 51.91C18.4101 51.86 18.4101 51.71 18.4501 51.76C18.8901 52.35 18.7601 51.54 19.0501 51.76C19.4701 52.08 19.5401 51.59 19.8801 51.73C20.0101 51.78 20.1701 51.91 20.3001 51.97C20.3601 51.99 20.3701 51.93 20.4101 51.9C20.4801 51.85 20.5201 51.75 20.6101 51.76C20.7501 51.78 20.9601 51.94 21.0801 51.93C21.2001 51.92 21.2201 51.73 21.3201 51.68C21.3801 51.66 21.5101 51.76 21.6101 51.81C21.6501 51.83 21.7401 51.92 21.7401 51.88C21.7501 51.61 21.8201 51.57 22.0601 51.58C22.7301 51.57 23.4501 51.6 24.0601 51.51C24.7201 51.42 25.3701 51.33 26.0501 51.29C26.4301 51.27 26.9601 51.38 27.3201 51.34C27.3201 51.34 27.3501 51.34 27.3601 51.34L24.5001 48.48L23.3101 48.39C23.3101 48.77 22.0801 48.72 21.3501 48.25L20.9301 48.22C20.9401 48.47 20.7601 48.52 20.5201 48.52C20.4001 48.52 20.2701 48.5 20.1401 48.49C20.0901 48.49 20.0701 48.48 20.0501 48.49C19.9901 48.53 19.9501 48.61 19.8801 48.64C19.7601 48.69 19.6501 48.77 19.4901 48.74C19.2901 48.71 18.9101 48.36 18.8501 48.55C18.7801 48.74 18.4601 48.31 18.3701 48.41C18.3101 48.48 18.2601 48.57 18.1801 48.62C18.1201 48.66 18.0401 48.66 17.9501 48.65C17.8501 48.63 17.6801 48.47 17.6301 48.55C17.5001 48.73 17.2701 48.64 17.0101 48.48C16.8201 48.36 16.7301 48.54 16.5901 48.59C16.5201 48.61 16.4801 48.75 16.3801 48.66C16.1601 48.45 16.0601 48.54 15.9401 48.66C15.8501 48.75 15.6701 48.55 15.5301 48.48C15.4601 48.44 15.3501 48.31 15.3201 48.38C15.1801 48.66 14.8901 48.41 14.7001 48.47C14.4501 48.56 14.1801 48.6 13.9001 48.6C13.6701 48.6 13.4101 48.4 13.1901 48.38C13.0001 48.36 12.8201 48.46 12.6301 48.51C12.6001 48.51 12.5701 48.56 12.5401 48.51C12.3301 48.06 12.2201 48.39 12.0801 48.49C11.9901 48.55 11.8701 48.46 11.7701 48.45L11.5101 48.41L11.1901 48.33C11.1201 48.31 11.0401 48.2 10.9901 48.33C10.8401 48.74 10.6701 48.49 10.5001 48.32C10.4201 48.24 10.3301 48.29 10.2501 48.33L10.1001 48.41H10.0801L11.7301 50.06V50.05L11.7101 50.01L11.6801 49.93C11.6501 49.82 11.6601 49.72 11.7301 49.61C11.8701 49.37 11.6501 49.12 11.6401 48.88C11.6401 48.74 11.7701 48.6 11.7701 48.46C11.7701 48.31 11.6001 48.15 11.6201 48C11.6601 47.66 12.0401 47.3 11.7701 46.97C11.5101 46.64 12.0101 46.32 11.6401 46C11.5401 45.92 11.8701 45.82 11.8401 45.73C11.7601 45.42 11.5801 45.12 11.5001 44.81C11.4801 44.73 11.6701 44.64 11.7501 44.55C11.8001 44.49 11.8901 44.44 11.8801 44.38C11.8201 44.05 11.6801 43.72 11.6601 43.4C11.6501 43.2 11.8601 43.01 11.8501 42.81C11.8501 42.62 11.6801 42.43 11.5901 42.24C11.5901 42.22 11.5301 42.2 11.5601 42.19C12.0601 41.97 11.8101 41.77 11.5601 41.55C11.3801 41.38 11.7001 41.19 11.7901 41.01C11.8201 40.95 11.8601 40.9 11.8601 40.84C11.8801 40.53 11.9301 40.22 11.8801 39.92C11.8401 39.66 11.6701 39.39 11.5801 39.13C11.5601 39.08 11.6601 39.02 11.6601 38.97C11.6601 38.83 11.6501 38.69 11.6601 38.56C11.6601 38.47 11.6901 38.38 11.7001 38.28C11.7301 38.13 11.8001 37.97 11.7901 37.82C11.7901 37.73 11.6101 37.65 11.5901 37.56C11.5301 37.22 11.2501 36.86 11.5501 36.53C11.7001 36.37 11.6301 36.21 11.5501 36.08C11.4701 36.04 11.3801 35.97 11.4801 35.94C11.6001 35.91 11.6901 35.9 11.7801 35.92C11.7801 35.92 11.8001 35.92 11.7901 35.92C11.3701 35.59 12.0201 36 11.9501 35.96C11.9401 35.94 11.9901 35.99 11.9201 35.89C11.5801 35.38 11.9401 35.75 11.9501 35.78C11.9701 35.79 11.9501 35.68 11.9701 35.61C11.9701 35.6 11.9601 35.5 11.9701 35.51C12.0601 35.59 12.0001 35.71 12.2401 35.77C12.3901 35.83 12.5301 35.82 12.6801 35.84C12.8101 35.86 12.9501 35.92 13.0801 35.89C13.2401 35.86 13.4001 35.73 13.5501 35.69C13.7001 35.65 13.8401 35.69 13.9901 35.69H14.2101C14.2701 35.69 14.3201 35.69 14.3801 35.67L14.6201 35.62C14.7601 35.59 14.9301 35.37 15.0501 35.59C15.2201 35.9 15.3201 35.44 15.4401 35.27C15.4901 35.2 15.5501 35.07 15.5901 35.11C15.7601 35.23 15.9201 35.36 16.0901 35.56C16.2501 35.76 16.4001 35.56 16.5601 35.56C16.8201 35.54 17.0801 35.73 17.3401 35.75C17.5801 35.77 17.8201 35.64 18.0601 35.66C18.3001 35.68 18.5401 35.86 18.7801 35.88C18.9401 35.89 19.1001 35.73 19.2701 35.65C19.3001 35.64 19.3301 35.61 19.3501 35.64C19.6201 35.92 19.8901 35.97 20.1601 35.54C20.2601 35.38 20.3901 35.63 20.5101 35.62C20.6601 35.62 20.8001 35.48 20.9501 35.49C21.0501 35.5 21.1501 35.68 21.2601 35.79C21.2801 35.81 21.2901 35.87 21.3101 35.86C21.4701 35.78 21.6201 35.67 21.7801 35.6C21.8401 35.58 21.8901 35.68 21.9501 35.7C22.0501 35.73 22.1601 35.76 22.2601 35.76C22.4001 35.76 22.5501 35.76 22.6801 35.66C22.8301 35.55 22.9901 36.11 23.1301 35.59C23.1501 35.52 23.1901 35.48 23.2101 35.5C23.3901 35.6 23.5601 35.74 23.7401 35.82C23.8401 35.86 23.9301 35.86 24.0301 35.82C24.1301 35.73 24.1501 35.54 24.2401 35.53C24.3001 35.53 24.2601 35.73 24.2701 35.75C24.2801 35.76 24.4301 35.62 24.4701 35.64C24.5501 35.67 24.6801 35.72 24.5801 35.85C24.4901 35.94 24.6401 35.94 24.6601 36C24.6601 36.05 24.4601 36.04 24.4601 36.18C24.4601 36.32 24.6201 36.46 24.6101 36.6C24.5601 37.57 24.5101 38.56 24.4601 39.55C24.4301 40.25 24.3401 40.92 24.4001 41.63C24.4501 42.21 24.7101 42.89 24.7901 43.51C24.8301 43.88 24.6901 44.15 24.6801 44.49C24.6501 45.2 24.4501 45.85 24.7201 46.62C25.0501 47.63 25.0201 48.32 24.9701 48.96L27.3701 51.36L27.2901 51.29Z" fill="#001B38"></path>
  <path d="M18 21C19.6569 21 21 19.6569 21 18C21 16.3431 19.6569 15 18 15C16.3431 15 15 16.3431 15 18C15 19.6569 16.3431 21 18 21Z" fill="#001B38"></path>
  <path d="M18 13.1799C17.05 13.1699 16.1 13.4499 15.29 13.9599C14.94 14.1899 14.53 14.3699 14.19 14.6499C14.06 14.7499 13.89 14.8299 13.82 14.9399C13.15 16.1599 13.09 17.5699 13.46 18.7299C13.59 19.1499 13.81 19.6099 13.9 19.9799C14.13 21.0599 14.95 22.0399 16.02 22.4899C17.09 22.9599 18.33 22.9099 19.34 22.4399C19.51 22.3599 19.71 22.1799 19.81 22.1799C20.52 22.1799 21.14 21.7399 21.55 21.1999C21.97 20.6499 22.19 19.9999 22.39 19.3799C22.44 19.1999 22.43 19.2499 22.44 19.2399H22.46C22.46 19.2399 22.51 19.2599 22.53 19.2599C22.58 19.2699 22.64 19.2899 22.67 19.2899C22.69 19.2899 22.68 19.2899 22.55 19.2499C22.13 19.1299 22.14 19.1299 22.41 19.1999C22.56 19.2399 22.46 19.1999 22.46 19.1999C22.46 19.1999 22.46 19.1899 22.44 19.1799C22.43 19.1799 22.42 19.1799 22.39 19.1599C22.27 19.1199 22.25 19.1199 22.48 19.1799C22.72 19.2399 22.75 19.2399 22.51 19.1799C22.22 19.0999 22.62 19.1999 22.82 19.2499C22.87 19.2599 23.01 19.2999 22.96 19.2799C22.42 19.1399 22.74 19.2199 22.68 19.1999C22.61 19.1799 22.51 19.1499 22.46 19.1299C22.49 19.1299 22.63 19.1699 22.65 19.1799C22.68 19.1799 22.8 19.1999 22.63 19.1499C22.55 19.1299 22.71 19.1599 22.65 19.1499C22.6 19.1399 22.4 19.0799 22.36 19.0699C22.33 19.0599 22.4 19.0699 22.45 19.0799C22.47 19.0799 22.57 19.1099 22.6 19.1099C22.32 19.0299 22.83 19.1499 22.72 19.1199C22.62 19.0899 22.72 19.1099 22.72 19.0999C22.72 19.0899 22.77 19.0899 22.67 19.0499C22.64 19.0399 22.62 19.0299 22.67 19.0399C22.72 19.0399 22.37 18.9699 22.34 18.9599C22.31 18.9599 22.49 18.9899 22.56 18.9999C22.61 18.9999 22.65 19.0099 22.68 19.0199C22.71 19.0199 22.69 19.0099 22.73 19.0099C22.77 19.0099 22.91 19.0399 23 19.0599C23.02 19.0599 23.08 19.0799 23.05 19.0599C22.39 18.9099 22.88 19.0099 22.75 18.9699C22.69 18.9499 22.7 18.9499 22.8 18.9699C22.88 18.9799 22.84 18.9699 22.66 18.9299C22.45 18.8799 22.82 18.9599 22.94 18.9799C22.97 18.9799 23.05 18.9999 23.02 18.9899C22.95 18.9699 22.79 18.9399 22.74 18.9299C22.63 18.8999 22.53 18.8799 22.46 18.8599C22.5 18.8599 22.64 18.8899 22.68 18.8999C22.72 18.8999 22.71 18.8999 22.72 18.8899C22.75 18.8899 22.79 18.8799 22.81 18.8699C22.81 18.8699 22.72 18.8499 22.75 18.8499C22.79 18.8499 22.94 18.8799 23.01 18.8899C23.04 18.8899 22.98 18.8899 22.94 18.8799C22.9 18.8799 22.83 18.8599 22.8 18.8499C22.86 18.8499 22.98 18.8699 23.03 18.8799C23 18.8799 22.8 18.8299 22.77 18.8299C22.74 18.8199 22.69 18.7999 22.81 18.8099C22.85 18.8099 22.86 18.8099 22.82 18.8099C22.74 18.7899 22.9 18.8099 22.96 18.8099C22.95 18.8099 22.93 18.8099 22.86 18.7899C22.46 18.7199 22.73 18.7599 22.91 18.7899C22.99 18.7999 22.96 18.7899 22.94 18.7899C22.92 18.7899 22.73 18.7499 22.85 18.7699C23.25 18.8299 22.95 18.7699 22.66 18.7299C22.39 18.6799 22.29 18.6699 22.61 18.7199C22.72 18.7399 22.73 18.7399 22.75 18.7399C22.78 18.7399 22.77 18.7399 22.81 18.7399C22.83 18.7399 22.97 18.7599 23.07 18.7799C22.55 18.6999 22.13 18.6299 22.72 18.7199C22.82 18.7399 22.78 18.7199 22.78 18.7199C22.78 18.7199 22.76 18.6999 22.79 18.6899C22.84 18.6899 22.98 18.7099 23.08 18.7199C23.11 18.7199 23.15 18.7199 23.13 18.7199C23.02 18.6999 22.87 18.6699 22.8 18.6599C22.76 18.6399 22.8 18.6399 22.82 18.6299C22.84 18.6299 22.91 18.6399 22.97 18.6499C23.01 18.6499 23.15 18.6699 23.11 18.6699C22.43 18.5699 22.84 18.6199 22.8 18.6099C22.72 18.5899 22.96 18.6099 22.78 18.5699C22.66 18.5499 22.99 18.5799 22.82 18.5499C22.87 18.5499 23.02 18.5699 23.1 18.5799C23.13 18.5799 23.16 18.5799 23.08 18.5799C22.61 18.5199 22.84 18.5499 23.06 18.5799C22.97 18.5699 22.87 18.5499 22.84 18.5499C22.91 18.5499 23 18.5499 23.06 18.5499C23.03 18.5499 22.89 18.5299 22.86 18.5199C22.92 18.5199 23.09 18.5399 23.17 18.5499C23.14 18.5499 23.04 18.5299 22.97 18.5199C22.92 18.5199 22.76 18.4999 22.81 18.4999C23.45 18.5699 22.58 18.4699 22.83 18.4999C23.19 18.5299 22.67 18.4699 22.83 18.4899C22.9 18.4899 23.04 18.5099 23.11 18.5099C23.14 18.5099 23.07 18.5099 23.04 18.5099C22.99 18.5099 22.88 18.4899 22.9 18.4899C22.94 18.4899 23.07 18.4999 23.11 18.4999C23.07 18.4999 22.9 18.4699 22.85 18.4699C22.82 18.4699 22.95 18.4699 23.02 18.4799C23.05 18.4799 23.15 18.4899 23.11 18.4799C22.96 18.4599 22.88 18.4499 22.83 18.4499C22.81 18.4499 22.8 18.4499 22.79 18.4499C22.79 18.4499 22.79 18.4499 22.79 18.3699C22.89 17.3999 22.73 16.3299 22.16 15.5199C21.56 14.6499 20.7 14.0099 19.74 13.6399C19.21 13.4299 18.65 13.1299 18.06 13.1499C18.06 13.1499 18.01 13.1499 18 13.1499V17.1999C18.12 17.1999 18.22 17.2299 18.33 17.2699C18.49 17.0299 18.71 17.0099 18.84 17.1299C18.97 17.2499 18.95 17.4899 18.72 17.6599C18.74 17.6999 18.75 17.7299 18.76 17.7699C19.07 17.7299 19.18 17.8199 19.2 17.9299C19.22 17.9799 19.2 18.0399 19.19 18.0899C19.19 18.0999 19.18 18.0899 19.19 18.0899C19.25 18.0899 19.33 18.0999 19.37 18.1099C19.44 18.1099 19.53 18.1299 19.51 18.1299C19.48 18.1299 19.1 18.0899 19.32 18.1099C19.54 18.1299 19.07 18.0899 19.18 18.0999C19.26 18.0999 19.36 18.1199 19.42 18.1299C19.47 18.1299 19.47 18.1299 19.46 18.1299C19.44 18.1299 19.27 18.1099 19.36 18.1299C19.56 18.1499 19.47 18.1499 19.31 18.1299C19.19 18.1199 19.38 18.1299 19.44 18.1499C19.47 18.1499 19.62 18.1699 19.52 18.1599C19.4 18.1499 19.3 18.1399 19.52 18.1599C19.61 18.1699 19.41 18.1499 19.34 18.1399C19.3 18.1399 19.17 18.1199 19.24 18.1299C19.53 18.1699 19.28 18.1299 19.35 18.1499C19.41 18.1499 19.45 18.1699 19.5 18.1699C19.44 18.1699 19.35 18.1499 19.29 18.1499C19.33 18.1499 19.38 18.1599 19.43 18.1699C18.98 18.1099 19.32 18.1599 19.42 18.1699C19.48 18.1699 19.4 18.1699 19.38 18.1699H19.34L19.26 18.1599C19.25 18.1599 19.13 18.1399 19.26 18.1599C19.67 18.2199 19.42 18.1799 19.25 18.1599C19.17 18.1499 19.22 18.1599 19.26 18.1599C19.37 18.1799 19.49 18.1899 19.35 18.1799C19.21 18.1599 19.43 18.1899 19.44 18.1999C19.41 18.1999 19.35 18.1899 19.32 18.1799C19.36 18.1799 19.43 18.1999 19.46 18.1999C19.42 18.1999 19.04 18.1399 19.31 18.1799C19.57 18.2199 19.07 18.1499 19.44 18.2099C19.53 18.2299 19.21 18.1799 19.24 18.1799C19.34 18.1999 19.48 18.2199 19.58 18.2399C19.54 18.2399 19.41 18.2099 19.33 18.1999C19.28 18.1999 19.22 18.1799 19.2 18.1799C19.27 18.1899 19.35 18.2099 19.41 18.2199C19.36 18.2199 19.27 18.1999 19.22 18.1899C19.28 18.1999 19.39 18.2199 19.47 18.2399C19.47 18.2399 19.52 18.2399 19.5 18.2399C19.26 18.1999 19 18.1599 19.5 18.2399C19.68 18.2699 19.37 18.2199 19.28 18.1999C19.25 18.1999 19.22 18.1999 19.21 18.1899C19.19 18.1899 19.14 18.1899 19.19 18.1899C19.27 18.2099 19.39 18.2299 19.49 18.2499C19.47 18.2499 19.43 18.2399 19.41 18.2399H19.37C19.37 18.2399 19.31 18.2199 19.28 18.2199C19.31 18.2199 19.44 18.2499 19.47 18.2599C19.53 18.2699 19.8 18.3299 19.51 18.2699C19.22 18.2199 19.78 18.3299 19.6 18.2899C19.5 18.2699 19.42 18.2599 19.33 18.2399C19.33 18.2399 19.31 18.2399 19.32 18.2399C19.84 18.3499 19.09 18.1999 19.18 18.2099C19.21 18.2099 19.13 18.2099 19.25 18.2299C19.85 18.3599 19.36 18.2499 19.33 18.2499C19.37 18.2499 19.43 18.2699 19.48 18.2799C19.49 18.2799 19.57 18.2999 19.58 18.2999C19.49 18.2799 19.39 18.2599 19.31 18.2499C19.28 18.2499 19.26 18.2499 19.24 18.2399C19.22 18.2399 19.16 18.2299 19.19 18.2399C19.24 18.2499 19.33 18.2699 19.39 18.2899H19.41H19.46C19.46 18.2899 19.7 18.3599 19.49 18.3099C19.18 18.2399 19.64 18.3499 19.8 18.3799C19.86 18.3899 19.93 18.4099 19.96 18.4199C19.84 18.3899 19.71 18.3599 19.52 18.3199C19.47 18.3099 19.39 18.2899 19.34 18.2799L19.42 18.2999C19.36 18.2899 19.26 18.2699 19.21 18.2499C19.26 18.2599 19.35 18.2899 19.43 18.3099C19.44 18.3099 19.47 18.3099 19.44 18.3099C19.16 18.2399 19.12 18.2299 19.54 18.3399C19.69 18.3799 19.45 18.3199 19.46 18.3199C19.49 18.3199 19.55 18.3399 19.58 18.3499C19.54 18.3499 19.39 18.2999 19.29 18.2799C19.27 18.2799 19.23 18.2599 19.22 18.2599C19.3 18.2799 19.4 18.3099 19.47 18.3299C19.45 18.3299 19.4 18.3099 19.37 18.3099C19.35 18.3099 19.33 18.3099 19.31 18.2999C19.34 18.2999 19.35 18.3099 19.4 18.3299C19.51 18.3599 18.97 18.2199 19.47 18.3499C19.54 18.3699 19.57 18.3799 19.56 18.3699C19.46 18.3499 19.34 18.3099 19.25 18.2899C19.21 18.2899 19.21 18.2799 19.25 18.2899C19.34 18.3199 19.49 18.3599 19.56 18.3699C19.51 18.3599 19.42 18.3399 19.38 18.3199C19.42 18.3299 19.54 18.3599 19.58 18.3799C19.61 18.3799 19.69 18.4099 19.54 18.3799C19.43 18.3499 19.56 18.3799 19.57 18.3899C19.53 18.3899 19.4 18.3499 19.37 18.3399C19.41 18.3499 19.48 18.3699 19.52 18.3799H19.51C19.51 18.3799 19.45 18.5099 19.43 18.5599C19.36 18.6899 19.26 18.8099 19.15 18.9099C18.93 19.1099 18.66 19.2299 18.39 19.2599C18.03 19.2999 17.72 19.1299 17.45 19.0099C17.22 18.9199 16.83 18.8699 16.62 18.5799C16.51 18.4099 16.64 18.1599 16.68 17.9899C16.76 17.5599 17.18 17.4299 17.15 17.0799C17.15 16.5399 17.7 16.3999 18.06 16.5399V13.1399L18 13.1799Z" fill="#001B38"></path>
  <path d="M23.5201 18.06C23.8601 17.89 24.1801 17.69 24.5201 17.53C25.1001 17.27 25.6801 16.97 26.2901 16.79C27.0401 16.57 27.9601 16.67 28.5501 16.24C29.1301 15.82 29.7501 16.11 30.2701 15.81C30.6301 15.61 30.9901 15.37 31.3601 15.19C31.6701 15.04 32.0001 14.92 32.3301 14.83C32.7401 14.71 33.2101 14.75 33.5401 14.51C34.1801 14.04 34.9201 13.83 35.7101 13.81C36.4101 13.8 37.0501 13.34 37.7101 13.06C38.0101 12.93 38.3101 12.67 38.6201 12.68C39.0301 12.68 39.3901 12.58 39.7301 12.42C39.9701 12.31 40.2101 12.19 40.4601 12.06C40.5501 12.01 40.6701 11.97 40.8001 11.93C41.7201 11.66 42.2201 10.66 41.9201 9.74998C41.6301 8.88998 40.7201 8.39998 39.8401 8.63998C39.4101 8.75998 38.9401 8.87998 38.5801 8.97998C38.1801 9.08998 37.8601 9.17998 37.6101 9.24998C37.3101 9.33998 37.0701 9.66998 36.7701 9.74998C36.2201 9.87998 35.6401 9.86998 35.0901 9.97998C34.8801 10.02 34.7001 10.24 34.5101 10.39C34.3901 10.48 34.2301 10.71 34.1601 10.67C33.2901 10.29 32.9001 11.33 32.1701 11.31C31.1201 11.28 30.3501 12.09 29.3601 12.24C29.0001 12.3 28.6301 12.26 28.2601 12.31C28.1001 12.33 27.9601 12.46 27.8201 12.53C27.5301 12.68 27.2601 12.88 26.9601 12.97C26.5301 13.08 26.0601 13.04 25.6501 13.19C25.2401 13.34 24.9001 13.67 24.5001 13.85C24.2701 13.95 23.9901 13.91 23.7301 13.93C23.6301 13.93 23.4701 13.88 23.4201 13.93C22.8301 14.62 22.0001 14.74 21.2101 14.96C20.9201 15.04 20.6401 15.13 20.3701 15.26C20.1601 15.36 19.7101 15.51 19.2401 15.67C18.2501 16 17.7101 17.07 18.0401 18.07C18.3801 19.09 19.5101 19.63 20.5201 19.24C21.1301 19.01 21.7201 18.85 21.9701 19L22.4101 18.85C22.4201 18.78 22.4401 18.72 22.4701 18.67C22.6401 18.17 23.1701 18.24 23.5501 18.05L23.5201 18.06Z" fill="#001B38"></path>
  <path d="M42 13C43.6569 13 45 11.6569 45 10C45 8.34315 43.6569 7 42 7C40.3431 7 39 8.34315 39 10C39 11.6569 40.3431 13 42 13Z" fill="#001B38"></path>
  <path d="M42 5.18011C41.05 5.17011 40.1 5.45011 39.29 5.96011C38.94 6.19011 38.53 6.37011 38.19 6.65011C38.06 6.75011 37.89 6.83011 37.82 6.94011C37.15 8.16011 37.09 9.57011 37.46 10.7301C37.59 11.1501 37.81 11.6101 37.9 11.9801C38.13 13.0601 38.95 14.0401 40.02 14.4901C41.09 14.9601 42.33 14.9101 43.34 14.4401C43.51 14.3601 43.71 14.1801 43.81 14.1801C44.52 14.1801 45.14 13.7401 45.55 13.2001C45.97 12.6501 46.19 12.0001 46.39 11.3801C46.44 11.2001 46.43 11.2501 46.44 11.2401H46.46C46.46 11.2401 46.51 11.2601 46.53 11.2601C46.58 11.2701 46.64 11.2901 46.67 11.2901C46.69 11.2901 46.68 11.2901 46.55 11.2501C46.13 11.1301 46.14 11.1301 46.41 11.2001C46.56 11.2401 46.46 11.2001 46.46 11.2001C46.46 11.2001 46.46 11.1901 46.44 11.1801C46.43 11.1801 46.42 11.1801 46.39 11.1601C46.27 11.1201 46.25 11.1201 46.48 11.1801C46.72 11.2401 46.75 11.2401 46.51 11.1801C46.22 11.1001 46.62 11.2001 46.82 11.2501C46.87 11.2601 47.01 11.3001 46.96 11.2801C46.42 11.1401 46.74 11.2201 46.68 11.2001C46.61 11.1801 46.51 11.1501 46.46 11.1301C46.49 11.1301 46.63 11.1701 46.65 11.1801C46.68 11.1801 46.8 11.2001 46.63 11.1501C46.55 11.1301 46.71 11.1601 46.65 11.1501C46.6 11.1401 46.4 11.0801 46.36 11.0701C46.33 11.0601 46.4 11.0701 46.45 11.0801C46.47 11.0801 46.57 11.1101 46.6 11.1101C46.32 11.0301 46.83 11.1501 46.72 11.1201C46.62 11.0901 46.72 11.1101 46.72 11.1001C46.72 11.0901 46.77 11.0901 46.67 11.0501C46.64 11.0401 46.62 11.0301 46.67 11.0401C46.72 11.0401 46.37 10.9701 46.34 10.9501C46.31 10.9501 46.49 10.9801 46.56 10.9901C46.61 10.9901 46.65 11.0001 46.68 11.0101C46.71 11.0101 46.69 11.0001 46.73 11.0001C46.77 11.0001 46.91 11.0301 47 11.0501C47.02 11.0501 47.08 11.0701 47.05 11.0501C46.39 10.9001 46.88 11.0001 46.75 10.9601C46.69 10.9401 46.7 10.9401 46.8 10.9601C46.88 10.9701 46.84 10.9601 46.66 10.9201C46.45 10.8701 46.82 10.9501 46.94 10.9701C46.97 10.9701 47.05 10.9901 47.02 10.9801C46.95 10.9601 46.79 10.9301 46.74 10.9201C46.63 10.8901 46.53 10.8701 46.46 10.8501C46.5 10.8501 46.64 10.8801 46.68 10.8901C46.72 10.8901 46.71 10.8901 46.72 10.8801C46.75 10.8801 46.79 10.8701 46.81 10.8601C46.81 10.8601 46.72 10.8401 46.75 10.8401C46.79 10.8401 46.94 10.8701 47.01 10.8801C47.04 10.8801 46.98 10.8801 46.94 10.8701C46.9 10.8701 46.83 10.8501 46.8 10.8401C46.86 10.8401 46.98 10.8601 47.03 10.8701C47 10.8701 46.8 10.8201 46.77 10.8201C46.74 10.8101 46.69 10.7901 46.81 10.8001C46.85 10.8001 46.86 10.8001 46.82 10.8001C46.74 10.7801 46.9 10.8001 46.96 10.8001C46.95 10.8001 46.93 10.8001 46.86 10.7801C46.46 10.7101 46.73 10.7501 46.91 10.7801C46.99 10.7901 46.96 10.7801 46.94 10.7801C46.92 10.7801 46.73 10.7401 46.85 10.7601C47.25 10.8201 46.95 10.7601 46.66 10.7201C46.39 10.6701 46.29 10.6601 46.61 10.7101C46.72 10.7301 46.73 10.7301 46.75 10.7301C46.78 10.7301 46.77 10.7301 46.81 10.7301C46.83 10.7301 46.97 10.7501 47.07 10.7701C46.55 10.6901 46.13 10.6201 46.72 10.7101C46.82 10.7301 46.78 10.7101 46.78 10.7101C46.78 10.7101 46.76 10.6901 46.79 10.6801C46.84 10.6801 46.98 10.7001 47.08 10.7101C47.11 10.7101 47.15 10.7101 47.13 10.7101C47.02 10.6901 46.87 10.6601 46.8 10.6501C46.76 10.6301 46.8 10.6301 46.82 10.6201C46.84 10.6201 46.91 10.6301 46.97 10.6401C47.01 10.6401 47.15 10.6601 47.11 10.6601C46.43 10.5601 46.84 10.6101 46.8 10.6001C46.72 10.5801 46.96 10.6001 46.78 10.5601C46.66 10.5401 46.99 10.5701 46.82 10.5401C46.87 10.5401 47.02 10.5601 47.1 10.5701C47.13 10.5701 47.16 10.5701 47.08 10.5701C46.61 10.5101 46.84 10.5401 47.06 10.5701C46.97 10.5601 46.87 10.5401 46.84 10.5401C46.91 10.5401 47 10.5401 47.06 10.5401C47.03 10.5401 46.89 10.5201 46.86 10.5101C46.92 10.5101 47.09 10.5301 47.17 10.5401C47.14 10.5401 47.04 10.5201 46.97 10.5101C46.92 10.5101 46.76 10.4901 46.81 10.4901C47.45 10.5601 46.58 10.4601 46.83 10.4901C47.19 10.5201 46.67 10.4601 46.83 10.4801C46.9 10.4801 47.04 10.5001 47.11 10.5001C47.14 10.5001 47.07 10.5001 47.04 10.5001C46.99 10.5001 46.88 10.4801 46.9 10.4801C46.94 10.4801 47.07 10.4901 47.11 10.4901C47.07 10.4901 46.9 10.4601 46.85 10.4601C46.82 10.4601 46.95 10.4601 47.02 10.4701C47.05 10.4701 47.15 10.4801 47.11 10.4701C46.96 10.4501 46.88 10.4401 46.83 10.4401C46.81 10.4401 46.8 10.4401 46.79 10.4401C46.79 10.4401 46.79 10.4401 46.79 10.3601C46.89 9.39011 46.73 8.32011 46.16 7.51011C45.56 6.64011 44.7 6.00011 43.74 5.63011C43.21 5.42011 42.65 5.12011 42.06 5.14011C42.06 5.14011 42.01 5.14011 42 5.14011V9.19011C42.12 9.19011 42.22 9.22011 42.33 9.26011C42.49 9.02011 42.71 9.00011 42.84 9.12011C42.97 9.24011 42.95 9.48011 42.72 9.65011C42.74 9.69011 42.75 9.72011 42.76 9.76011C43.07 9.72011 43.18 9.81011 43.2 9.92011C43.22 9.97011 43.2 10.0301 43.19 10.0801C43.19 10.0901 43.18 10.0801 43.19 10.0801C43.25 10.0801 43.33 10.0901 43.37 10.1001C43.44 10.1001 43.53 10.1201 43.51 10.1201C43.48 10.1201 43.1 10.0801 43.32 10.1001C43.54 10.1201 43.07 10.0801 43.18 10.0901C43.26 10.0901 43.36 10.1101 43.42 10.1201C43.47 10.1201 43.47 10.1201 43.46 10.1201C43.44 10.1201 43.27 10.1001 43.36 10.1201C43.56 10.1401 43.47 10.1301 43.31 10.1201C43.19 10.1101 43.38 10.1201 43.44 10.1401C43.47 10.1401 43.62 10.1601 43.52 10.1401C43.4 10.1301 43.3 10.1201 43.52 10.1401C43.61 10.1501 43.41 10.1301 43.34 10.1201C43.3 10.1201 43.17 10.1001 43.24 10.1101C43.53 10.1501 43.28 10.1101 43.35 10.1301C43.41 10.1301 43.45 10.1501 43.5 10.1501C43.44 10.1501 43.35 10.1301 43.29 10.1301C43.33 10.1301 43.38 10.1401 43.43 10.1501C42.98 10.0901 43.32 10.1401 43.42 10.1501C43.48 10.1501 43.4 10.1501 43.38 10.1501H43.34L43.26 10.1401C43.25 10.1401 43.13 10.1201 43.26 10.1401C43.67 10.2001 43.42 10.1601 43.25 10.1401C43.17 10.1301 43.22 10.1401 43.26 10.1401C43.37 10.1601 43.49 10.1701 43.35 10.1601C43.21 10.1401 43.43 10.1701 43.44 10.1801C43.41 10.1801 43.35 10.1701 43.32 10.1601C43.36 10.1601 43.43 10.1801 43.46 10.1801C43.42 10.1801 43.04 10.1201 43.31 10.1601C43.57 10.2001 43.07 10.1301 43.44 10.1901C43.53 10.2101 43.21 10.1601 43.24 10.1601C43.34 10.1801 43.48 10.2001 43.58 10.2201C43.54 10.2201 43.41 10.1901 43.33 10.1801C43.28 10.1801 43.22 10.1601 43.2 10.1601C43.27 10.1701 43.35 10.1901 43.41 10.2001C43.36 10.2001 43.27 10.1801 43.22 10.1701C43.28 10.1801 43.39 10.2001 43.47 10.2201C43.47 10.2201 43.52 10.2201 43.5 10.2201C43.26 10.1801 43 10.1401 43.5 10.2201C43.68 10.2501 43.37 10.2001 43.28 10.1801C43.25 10.1801 43.22 10.1801 43.21 10.1701C43.19 10.1701 43.14 10.1701 43.19 10.1701C43.27 10.1901 43.39 10.2101 43.49 10.2301C43.47 10.2301 43.43 10.2201 43.41 10.2201H43.37C43.37 10.2201 43.31 10.2001 43.28 10.2001C43.31 10.2001 43.44 10.2301 43.47 10.2401C43.53 10.2501 43.8 10.3101 43.51 10.2501C43.22 10.2001 43.78 10.3101 43.6 10.2701C43.5 10.2501 43.42 10.2401 43.33 10.2201C43.33 10.2201 43.31 10.2201 43.32 10.2201C43.84 10.3301 43.09 10.1801 43.18 10.1901C43.21 10.1901 43.13 10.1901 43.25 10.2101C43.85 10.3401 43.36 10.2301 43.33 10.2301C43.37 10.2301 43.43 10.2501 43.48 10.2601C43.49 10.2601 43.57 10.2801 43.58 10.2801C43.49 10.2601 43.39 10.2401 43.31 10.2301C43.28 10.2301 43.26 10.2301 43.24 10.2201C43.22 10.2201 43.16 10.2101 43.19 10.2201C43.24 10.2301 43.33 10.2501 43.39 10.2701H43.41L43.46 10.2901C43.49 10.2901 43.7 10.3501 43.49 10.2901C43.18 10.2201 43.64 10.3301 43.8 10.3601C43.86 10.3701 43.93 10.3901 43.96 10.4001C43.84 10.3701 43.71 10.3401 43.52 10.3001C43.47 10.2901 43.39 10.2701 43.34 10.2601L43.42 10.2801C43.36 10.2701 43.26 10.2501 43.21 10.2301C43.26 10.2401 43.35 10.2701 43.43 10.2901C43.44 10.2901 43.47 10.2901 43.44 10.2901C43.16 10.2201 43.12 10.2101 43.54 10.3201C43.69 10.3601 43.45 10.3001 43.46 10.3001C43.49 10.3001 43.55 10.3201 43.58 10.3301C43.54 10.3301 43.39 10.2801 43.29 10.2601C43.27 10.2601 43.23 10.2401 43.22 10.2401C43.3 10.2601 43.4 10.2901 43.47 10.3101C43.45 10.3101 43.4 10.2901 43.37 10.2901C43.35 10.2901 43.33 10.2901 43.31 10.2801C43.34 10.2801 43.35 10.2901 43.4 10.3101C43.51 10.3401 42.97 10.2001 43.47 10.3301C43.54 10.3501 43.57 10.3601 43.56 10.3501C43.46 10.3301 43.34 10.2901 43.25 10.2701C43.21 10.2701 43.21 10.2601 43.25 10.2701C43.34 10.3001 43.49 10.3401 43.56 10.3501C43.51 10.3401 43.42 10.3201 43.38 10.3001C43.42 10.3101 43.54 10.3401 43.58 10.3601C43.61 10.3601 43.69 10.3901 43.54 10.3601C43.43 10.3301 43.56 10.3601 43.57 10.3701C43.53 10.3701 43.4 10.3301 43.37 10.3201C43.41 10.3301 43.48 10.3501 43.52 10.3601H43.51C43.51 10.3601 43.45 10.4901 43.43 10.5401C43.36 10.6701 43.26 10.7901 43.15 10.8901C42.93 11.0901 42.66 11.2101 42.39 11.2401C42.03 11.2801 41.72 11.1101 41.45 10.9901C41.22 10.9001 40.83 10.8501 40.62 10.5601C40.51 10.3901 40.64 10.1401 40.68 9.97011C40.76 9.54011 41.18 9.41011 41.15 9.06011C41.15 8.52011 41.7 8.38011 42.06 8.52011V5.18011H42Z" fill="#001B38"></path>
</svg>
