<?xml version="1.0" encoding="UTF-8"?>
<svg xmlns="http://www.w3.org/2000/svg" width="61" height="60" viewBox="0 0 61 60" fill="none">
  <path d="M38.9101 30.18C38.9101 30.18 38.8601 30.07 38.8601 30C38.8601 29.93 38.8801 29.87 38.9101 29.82L39.2301 29.36C39.9601 28.32 40.3001 26.83 39.6701 25.42C39.4001 24.81 39.0701 24.22 38.7001 23.67C37.8201 22.38 36.3501 21.9 35.0501 22.05L34.5101 22.11C34.5101 22.11 34.4801 22.11 34.4501 22.1C34.4301 22.08 34.3901 22.05 34.3701 21.99L34.1501 21.47C33.6601 20.31 32.5601 19.19 30.9701 19.04C30.6501 19.01 30.3201 18.99 29.9901 18.99C29.6601 18.99 29.3301 19.01 29.0101 19.04C27.4301 19.19 26.3301 20.31 25.8401 21.47L25.6201 21.99C25.5901 22.05 25.5601 22.08 25.5301 22.1C25.5001 22.11 25.4901 22.12 25.4701 22.11L24.9301 22.05C23.6301 21.9 22.1601 22.38 21.2801 23.67C20.9101 24.22 20.5801 24.8 20.3101 25.42C19.6901 26.83 20.0201 28.32 20.7501 29.36L21.0701 29.82C21.0701 29.82 21.1201 29.93 21.1201 30C21.1201 30.07 21.1001 30.13 21.0701 30.18L20.7501 30.64C20.0201 31.68 19.6801 33.17 20.3101 34.58C20.5801 35.19 20.9101 35.78 21.2801 36.33C22.1601 37.62 23.6301 38.1 24.9301 37.95L25.4701 37.89C25.4701 37.89 25.5001 37.89 25.5301 37.9C25.5501 37.92 25.5901 37.95 25.6201 38.01L25.8401 38.53C26.3301 39.69 27.4301 40.81 29.0101 40.96C29.3301 40.99 29.6601 41.01 29.9901 41.01C30.3201 41.01 30.6501 40.99 30.9701 40.96C32.5501 40.81 33.6501 39.69 34.1401 38.53L34.3601 38.01C34.3801 37.95 34.4201 37.92 34.4401 37.9C34.4701 37.89 34.4801 37.88 34.5001 37.89L35.0401 37.95C36.3401 38.1 37.8101 37.62 38.6901 36.33C39.0601 35.78 39.3901 35.2 39.6601 34.58C40.2801 33.17 39.9501 31.68 39.2201 30.64L38.9001 30.18H38.9101ZM30.0001 34C27.7901 34 26.0001 32.21 26.0001 30C26.0001 27.79 27.7901 26 30.0001 26C32.2101 26 34.0001 27.79 34.0001 30C34.0001 32.21 32.2101 34 30.0001 34Z" fill="#001B38"></path>
  <path d="M33.0503 28.1C33.0503 28.1 33.0803 28.16 33.1103 28.17C33.1503 28.18 33.1903 28.2 33.2403 28.22C33.1603 28.31 33.2003 28.38 33.2403 28.45L33.2803 28.53C33.3203 28.6 33.3603 28.67 33.4503 28.71C33.4503 28.71 33.4503 28.72 33.4603 28.73V28.75C33.4303 28.79 33.4103 28.82 33.4303 28.86C33.4403 28.9 33.4803 28.92 33.5203 28.94L33.6003 28.98C33.6003 28.98 33.6703 28.97 33.6903 29V29.02L33.6303 29.07C33.5603 29.13 33.5203 29.22 33.5503 29.28C33.5803 29.34 33.5803 29.39 33.5703 29.46C33.5703 29.47 33.5703 29.49 33.5703 29.51C33.6203 29.63 33.6203 29.75 33.6303 29.87C33.6303 29.93 33.6503 29.98 33.7003 30.02C33.7003 30.02 33.7003 30.04 33.7103 30.05C33.7003 30.05 33.6903 30.07 33.6703 30.07C33.5903 30.1 33.5703 30.16 33.5803 30.23C33.5803 30.26 33.5903 30.29 33.6003 30.32C33.6103 30.35 33.6103 30.39 33.6003 30.42C33.5703 30.51 33.5703 30.6 33.5703 30.7L33.5403 30.72C33.4503 30.8 33.4603 30.87 33.5603 30.95C33.5703 30.95 33.5803 30.96 33.5903 30.97C33.5903 30.97 33.6003 30.99 33.6103 31L33.5603 31.08H33.5303C33.4503 31.07 33.4403 31.07 33.4103 31.12C33.3903 31.15 33.3803 31.18 33.3703 31.22C33.3403 31.32 33.2903 31.42 33.2203 31.5C33.2003 31.52 33.1903 31.54 33.1803 31.57C33.1503 31.64 33.1003 31.71 33.0803 31.79C33.0603 31.88 33.0103 31.94 32.9703 32.02V32.04C32.9603 32.06 32.9503 32.09 32.9303 32.11C32.8503 32.2 32.7703 32.28 32.7003 32.36C32.6503 32.42 32.6003 32.48 32.5303 32.52C32.5303 32.52 32.5203 32.52 32.5103 32.54C32.4703 32.6 32.4103 32.63 32.3603 32.67C32.3003 32.72 32.2503 32.79 32.2803 32.9C32.2803 32.91 32.2803 32.93 32.2803 32.95C32.1503 32.89 32.1303 32.89 32.0403 32.95L31.9303 33.02C31.8603 33.07 31.7903 33.1 31.7403 33.19C31.6603 33.17 31.5903 33.19 31.5203 33.23C31.4403 33.27 31.3703 33.32 31.2803 33.35C31.2503 33.36 31.2203 33.37 31.1903 33.38C31.0703 33.4 30.9603 33.44 30.8403 33.49C30.8003 33.51 30.7603 33.53 30.7203 33.53C30.6103 33.53 30.5103 33.58 30.4003 33.59C30.3703 33.59 30.3203 33.61 30.3103 33.63C30.2703 33.69 30.2103 33.72 30.1503 33.73C30.1203 33.73 30.0903 33.77 30.0903 33.81C30.0803 33.9 30.0503 33.98 30.0103 34.05C29.9803 34.13 29.9803 34.19 30.0303 34.24C30.0503 34.26 30.0603 34.28 30.0703 34.29C30.0903 34.3 30.1103 34.32 30.1303 34.32C30.2303 34.32 30.3303 34.32 30.4303 34.32C30.4303 34.32 30.4503 34.32 30.4603 34.31C30.4903 34.29 30.5303 34.29 30.5603 34.29C30.6503 34.29 30.7403 34.29 30.8103 34.24C30.8503 34.21 30.9003 34.2 30.9503 34.2C31.0403 34.18 31.1403 34.16 31.2303 34.14C31.3203 34.11 31.4103 34.06 31.5003 34.03C31.5403 34.01 31.5903 34 31.6303 34C31.7103 34 31.7603 33.95 31.8103 33.9C31.8503 33.86 31.8703 33.82 31.8603 33.76C31.8603 33.73 31.8403 33.7 31.8603 33.67C31.9003 33.67 31.9003 33.7 31.9203 33.72L31.9703 33.78C32.1603 33.7 32.3203 33.59 32.4203 33.41H32.5303C32.5303 33.41 32.5903 33.32 32.6503 33.29C32.6803 33.29 32.6903 33.24 32.7103 33.22C32.7403 33.22 32.7603 33.22 32.7803 33.22C32.7903 33.21 32.8003 33.2 32.8103 33.2C32.8303 33.12 32.8803 33.09 32.9503 33.07C32.9803 33.06 33.0203 33.04 33.0403 33.01C33.1203 32.93 33.2003 32.86 33.2703 32.77C33.3503 32.67 33.4103 32.54 33.5003 32.44C33.5303 32.41 33.5303 32.38 33.5203 32.34L33.5003 32.29C33.5603 32.27 33.627 32.2233 33.7003 32.15C33.7003 32.15 33.6903 32.09 33.6903 32.06C33.6903 32.04 33.6903 32.01 33.7103 32C33.8003 31.94 33.7703 31.88 33.7103 31.82C33.7103 31.82 33.7103 31.82 33.7103 31.8C33.7303 31.77 33.7703 31.74 33.8103 31.72C33.8503 31.69 33.8903 31.67 33.9103 31.63C33.9503 31.58 33.9703 31.52 33.9103 31.45C33.9103 31.45 33.9103 31.43 33.9003 31.41L34.0003 31.36C34.0003 31.28 34.0003 31.2 33.9903 31.13C34.0203 31.11 34.0403 31.1 34.0603 31.08C34.1303 31.05 34.1503 30.99 34.1403 30.92C34.1403 30.87 34.1403 30.82 34.1403 30.77C34.1403 30.74 34.1503 30.71 34.1403 30.69C34.1203 30.59 34.1603 30.52 34.2303 30.44C34.2503 30.41 34.2703 30.38 34.2703 30.34C34.2703 30.23 34.2703 30.13 34.2803 30.02C34.2803 29.94 34.2503 29.86 34.2303 29.78C34.2303 29.75 34.2003 29.72 34.1603 29.72C34.1303 29.72 34.1003 29.72 34.0803 29.7C34.0703 29.7 34.0603 29.68 34.0403 29.66C34.0803 29.64 34.1103 29.63 34.1303 29.61C34.1603 29.59 34.1703 29.56 34.1903 29.53C34.2203 29.49 34.2303 29.44 34.2103 29.4C34.1903 29.34 34.1703 29.27 34.1403 29.21C34.0803 29.2 34.0303 29.19 33.9803 29.18C33.9703 29.18 33.9503 29.16 33.9403 29.15C33.9403 29.12 33.9603 29.11 33.9803 29.1L34.1003 29.07C34.1003 29.07 34.1503 29.05 34.1303 29.02C34.0903 29 34.0403 28.98 33.9903 28.96C33.9403 28.94 33.8903 28.92 33.8303 28.89C33.8603 28.87 33.8903 28.85 33.9103 28.84L33.9903 28.8C33.9903 28.8 34.0603 28.72 34.0403 28.67C34.0403 28.65 34.0203 28.63 34.0003 28.61C33.9703 28.56 33.9403 28.52 33.9103 28.47C33.8803 28.43 33.8703 28.39 33.8703 28.34C33.8703 28.31 33.8703 28.27 33.8503 28.23C33.8103 28.15 33.7603 28.09 33.6603 28.1C33.6503 28.1 33.6403 28.1 33.6303 28.09C33.7003 27.97 33.7003 27.97 33.5703 27.92C33.5603 27.92 33.5503 27.9 33.5403 27.9C33.5603 27.86 33.5803 27.82 33.5903 27.79C33.5703 27.75 33.5503 27.72 33.5303 27.69C33.5103 27.65 33.4903 27.62 33.4403 27.61C33.4203 27.61 33.3903 27.6 33.3703 27.59C33.3703 27.59 33.3603 27.58 33.3503 27.57V27.49C33.3503 27.49 33.3003 27.46 33.2803 27.45C33.2803 27.44 33.2803 27.43 33.2803 27.43C33.3203 27.36 33.3003 27.3 33.2403 27.26C33.1703 27.23 33.1303 27.18 33.1003 27.11C33.0803 27.07 33.0603 27.03 33.0203 27.02C32.9603 26.99 32.9303 26.95 32.8903 26.91C32.8503 26.87 32.8203 26.83 32.7703 26.79C32.6703 26.71 32.5503 26.65 32.4103 26.69C32.4103 26.69 32.3903 26.69 32.3803 26.68L32.4103 26.61C32.4103 26.61 32.3903 26.55 32.3603 26.56L32.3103 26.58C32.2603 26.59 32.2103 26.62 32.1403 26.62C32.1503 26.59 32.1603 26.58 32.1703 26.56L32.2303 26.48C32.2303 26.48 32.2303 26.45 32.2303 26.44C32.2303 26.44 32.2003 26.43 32.1903 26.44C32.1603 26.45 32.1303 26.47 32.1003 26.48C32.0903 26.45 32.0703 26.44 32.0703 26.41C32.0703 26.33 32.0303 26.29 31.9703 26.26C31.9103 26.23 31.8403 26.2 31.7903 26.14C31.7503 26.09 31.6903 26.08 31.6303 26.13C31.6303 26.13 31.6103 26.13 31.6003 26.13L31.5903 26.12V26.09C31.5803 25.99 31.5203 25.96 31.4303 25.95C31.3903 25.95 31.3403 25.93 31.3003 25.91C31.2703 25.9 31.2403 25.88 31.2203 25.86C31.1603 25.83 31.1103 25.82 31.0503 25.86C31.0203 25.88 30.9903 25.89 30.9603 25.9C30.9603 25.9 30.9703 25.86 30.9703 25.85C30.9703 25.81 30.9403 25.78 30.9103 25.8C30.8903 25.81 30.8603 25.83 30.8403 25.85C30.8203 25.87 30.8003 25.9 30.7703 25.92C30.7503 25.9 30.7403 25.89 30.7203 25.87L30.6503 25.78C30.6503 25.78 30.5803 25.73 30.5403 25.74C30.5003 25.76 30.4703 25.75 30.4403 25.73C30.4203 25.72 30.3903 25.71 30.3603 25.71C30.3203 25.71 30.2903 25.71 30.2503 25.71C30.2003 25.7 30.1503 25.71 30.1103 25.74C30.1003 25.74 30.0903 25.73 30.0903 25.73C30.0603 25.69 30.0203 25.67 29.9703 25.69C29.9203 25.71 29.8903 25.75 29.8803 25.8C29.8803 25.82 29.8803 25.85 29.8703 25.87C29.8703 25.87 29.8503 25.89 29.8403 25.89C29.8403 25.89 29.8203 25.87 29.8103 25.86V25.74C29.7003 25.78 29.7003 25.78 29.6603 25.76C29.5703 25.7 29.4703 25.69 29.3703 25.7C29.3203 25.7 29.2803 25.7 29.2303 25.7C29.1903 25.7 29.1603 25.7 29.1303 25.73C29.0703 25.78 29.0003 25.82 28.9203 25.81C28.8503 25.81 28.8103 25.84 28.7903 25.91C28.7903 25.93 28.7803 25.96 28.7403 25.95L28.7103 25.92C28.7103 25.92 28.6803 25.88 28.6503 25.89C28.6403 25.89 28.6303 25.92 28.6303 25.94V26.04C28.6303 26.04 28.6303 26.08 28.6303 26.09C28.6303 26.11 28.5903 26.11 28.5903 26.09C28.5803 26.06 28.5603 26.03 28.5503 26C28.5403 25.96 28.5203 25.92 28.4803 25.9C28.4703 25.9 28.4503 25.9 28.4403 25.89C28.4103 25.92 28.3803 25.95 28.3603 25.98C28.3403 25.98 28.3303 25.98 28.3103 25.98C28.1903 25.95 28.1703 25.97 28.1203 26.07C28.1003 26.11 28.0803 26.15 28.0603 26.18C28.0403 26.21 28.0203 26.22 27.9803 26.22C27.9203 26.22 27.8703 26.21 27.8103 26.22C27.7803 26.22 27.7403 26.23 27.7203 26.25C27.6803 26.28 27.6403 26.3 27.5803 26.31C27.5103 26.32 27.4603 26.36 27.4503 26.44V26.5C27.4503 26.5 27.4303 26.55 27.3903 26.55C27.3803 26.54 27.3603 26.52 27.3403 26.51C27.3003 26.48 27.2703 26.48 27.2303 26.51C27.2003 26.53 27.1903 26.56 27.1903 26.6C27.1903 26.65 27.2103 26.7 27.1803 26.76C27.1603 26.75 27.1503 26.74 27.1303 26.73C27.0803 26.7 27.0403 26.71 27.0303 26.77C27.0303 26.81 27.0303 26.84 27.0303 26.88V26.93C26.9803 26.94 26.9503 26.86 26.8903 26.9C26.8903 26.93 26.9003 26.96 26.9103 26.99C26.9103 27.01 26.9103 27.04 26.8903 27.05C26.8503 27.04 26.8203 27.02 26.7803 27.01C26.7303 27.05 26.7303 27.13 26.6603 27.14C26.6103 27.15 26.5903 27.19 26.5903 27.24C26.5903 27.3 26.5703 27.34 26.5203 27.36C26.4403 27.38 26.4003 27.44 26.3703 27.51C26.3403 27.57 26.3203 27.62 26.2603 27.65C26.2303 27.67 26.2103 27.7 26.2203 27.73C26.2303 27.79 26.2103 27.84 26.1603 27.88C26.1103 27.92 26.0903 27.97 26.1103 28.04C26.0803 28.07 26.0403 28.1 26.0203 28.13C25.9903 28.19 25.9403 28.26 25.9403 28.33C25.9403 28.38 25.9303 28.42 25.8903 28.45C25.8403 28.49 25.8203 28.54 25.8003 28.6C25.8003 28.64 25.7603 28.67 25.7503 28.71C25.7303 28.75 25.7203 28.8 25.7503 28.84C25.7603 28.86 25.7703 28.88 25.7803 28.9C25.7503 28.94 25.7303 28.97 25.7103 29C25.7103 29.09 25.8003 29.11 25.8303 29.17C25.8103 29.17 25.8003 29.19 25.7903 29.19L25.7103 29.17C25.7103 29.17 25.6503 29.19 25.6603 29.22C25.6603 29.23 25.6603 29.25 25.6703 29.26C25.7003 29.3 25.6903 29.33 25.6703 29.36C25.6603 29.38 25.6503 29.4 25.6303 29.42C25.6103 29.45 25.6103 29.48 25.6303 29.51C25.6403 29.52 25.6503 29.54 25.6703 29.56C25.6503 29.6 25.6403 29.64 25.6103 29.68C25.5803 29.73 25.5603 29.78 25.5803 29.84C25.6003 29.88 25.5803 29.92 25.5703 29.96C25.5703 29.98 25.5503 30.01 25.5503 30.03C25.5203 30.14 25.5503 30.23 25.6403 30.3C25.6903 30.33 25.7303 30.36 25.7703 30.4C25.7703 30.4 25.7803 30.43 25.7803 30.44C25.7803 30.45 25.7603 30.46 25.7503 30.47C25.7003 30.47 25.6603 30.48 25.6003 30.49C25.6003 30.52 25.6003 30.54 25.6103 30.57C25.6503 30.69 25.6503 30.81 25.6303 30.94C25.6303 30.98 25.6303 31.02 25.6403 31.06C25.6503 31.11 25.6603 31.15 25.6803 31.19C25.7103 31.25 25.7303 31.31 25.7203 31.38C25.7203 31.44 25.7403 31.49 25.7903 31.53C25.8303 31.57 25.8603 31.61 25.8903 31.64C25.8903 31.72 25.8903 31.71 25.9103 31.77C25.9403 31.84 25.9803 31.9 26.0303 31.96C26.0503 31.98 26.0603 32.02 26.0803 32.04C26.1203 32.06 26.1503 32.01 26.1803 32C26.1803 32 26.2003 32 26.2103 32C26.2503 32.06 26.2603 32.11 26.2103 32.17C26.1803 32.2 26.1903 32.24 26.2103 32.27C26.2403 32.31 26.2803 32.34 26.3403 32.34C26.3403 32.34 26.3403 32.35 26.3603 32.36L26.3003 32.44C26.3003 32.44 26.3103 32.51 26.3203 32.54C26.3303 32.56 26.3503 32.59 26.3703 32.6C26.4203 32.63 26.4603 32.67 26.4903 32.72C26.5103 32.76 26.5503 32.78 26.5903 32.8C26.6403 32.83 26.6703 32.86 26.7003 32.91C26.7603 33.02 26.7603 33.02 26.8803 32.97C26.8803 32.97 26.8903 32.97 26.9103 32.98C26.9103 33.01 26.9003 33.05 26.8903 33.09C26.9503 33.12 26.9903 33.17 27.0203 33.22C27.0203 33.22 27.0403 33.22 27.0503 33.24C27.0803 33.24 27.1203 33.24 27.1703 33.23C27.1703 33.35 27.2503 33.4 27.3203 33.47C27.3903 33.54 27.4603 33.61 27.5403 33.66C27.5603 33.68 27.5903 33.68 27.6203 33.69C27.6703 33.69 27.7003 33.71 27.7303 33.75C27.7603 33.8 27.8103 33.84 27.8703 33.86C27.9103 33.87 27.9403 33.89 27.9703 33.91C28.0503 33.95 28.0503 33.95 28.1303 33.9C28.1603 33.94 28.1803 33.98 28.2203 34.01C28.2603 34.04 28.3003 34.07 28.3503 34.09C28.4103 34.12 28.4803 34.12 28.5103 34.2C28.5103 34.22 28.5503 34.22 28.5703 34.23L28.8503 34.3C28.8503 34.3 28.9003 34.33 28.9203 34.35C28.9403 34.37 28.9503 34.38 28.9703 34.4C29.0603 34.32 29.0803 34.31 29.1903 34.33C29.2203 34.33 29.2503 34.34 29.2703 34.35C29.3203 34.36 29.3703 34.37 29.4203 34.35C29.4503 34.33 29.4803 34.33 29.5103 34.32C29.5403 34.32 29.5803 34.32 29.6203 34.33C29.6203 34.29 29.6303 34.26 29.6403 34.22C29.6703 34.24 29.7003 34.25 29.7303 34.26C29.7703 34.27 29.8103 34.26 29.8203 34.22C29.8303 34.2 29.8403 34.18 29.8403 34.15L29.9003 33.89V33.82C29.9203 33.75 29.9003 33.69 29.8503 33.65C29.8203 33.63 29.8003 33.59 29.7803 33.56C29.7603 33.53 29.7403 33.51 29.7203 33.49C29.6603 33.42 29.5803 33.43 29.5003 33.42C29.3703 33.42 29.2403 33.42 29.1103 33.38C29.0703 33.37 29.0303 33.35 28.9903 33.31C28.9503 33.35 28.9203 33.35 28.8803 33.33C28.7903 33.28 28.6903 33.28 28.6003 33.25C28.5703 33.25 28.5303 33.24 28.5003 33.23C28.4703 33.23 28.4303 33.23 28.4003 33.24C28.3803 33.22 28.3803 33.19 28.3403 33.2C28.3203 33.22 28.3003 33.24 28.2803 33.27C28.2703 33.28 28.2503 33.29 28.2303 33.3C28.2203 33.27 28.2003 33.24 28.1903 33.22C28.2103 33.2 28.2303 33.18 28.2503 33.15C28.2303 33.13 28.2103 33.11 28.2003 33.1C28.1503 33.06 28.0903 33.04 28.0303 33C27.9803 32.96 27.9203 32.94 27.8603 32.94L27.8503 32.93V32.91C27.8303 32.83 27.7903 32.8 27.7103 32.79C27.6903 32.79 27.6603 32.79 27.6503 32.77C27.6203 32.74 27.5703 32.74 27.5303 32.73C27.5303 32.67 27.5103 32.64 27.4803 32.61C27.4503 32.58 27.4103 32.58 27.3603 32.61L27.2903 32.66C27.2903 32.66 27.2403 32.69 27.2203 32.7C27.2003 32.7 27.1703 32.72 27.1603 32.7C27.1803 32.62 27.2603 32.58 27.2903 32.5C27.2703 32.47 27.2503 32.45 27.2403 32.42C27.2303 32.34 27.1803 32.3 27.1303 32.24C27.1103 32.21 27.0903 32.18 27.0803 32.15C27.0603 32.1 27.0303 32.07 26.9903 32.03C26.9503 31.99 26.9003 31.98 26.8403 32C26.8203 32 26.7903 32.01 26.7803 31.99C26.8003 31.95 26.8203 31.92 26.8303 31.88C26.8503 31.84 26.8003 31.82 26.7903 31.79C26.7903 31.78 26.7803 31.76 26.7803 31.75C26.7803 31.73 26.7703 31.71 26.7503 31.7C26.7003 31.68 26.6803 31.64 26.6703 31.59C26.6703 31.56 26.6303 31.55 26.6003 31.56C26.5703 31.56 26.5303 31.6 26.4903 31.56C26.5003 31.52 26.5403 31.49 26.5703 31.45C26.5903 31.42 26.6003 31.4 26.6003 31.37C26.5803 31.25 26.5703 31.14 26.4603 31.06C26.4403 31.05 26.4403 31.03 26.4403 31.01C26.4403 30.99 26.4403 30.97 26.4403 30.95C26.4003 30.94 26.3703 30.93 26.3503 30.92C26.3203 30.91 26.2803 30.91 26.2803 30.87L26.3803 30.83C26.3803 30.78 26.3803 30.78 26.2903 30.72C26.3003 30.7 26.3203 30.68 26.3403 30.66C26.3703 30.63 26.3803 30.6 26.3803 30.56C26.3603 30.43 26.3403 30.3 26.3403 30.17C26.3403 30.06 26.3103 29.96 26.3203 29.85V29.69C26.3203 29.69 26.3403 29.6 26.3403 29.55C26.3403 29.49 26.3103 29.44 26.2303 29.41C26.2303 29.41 26.2303 29.4 26.2203 29.39L26.3303 29.36L26.3603 29.34C26.3603 29.33 26.3503 29.31 26.3403 29.3L26.2303 29.24L26.2203 29.22C26.2203 29.21 26.2303 29.2 26.2403 29.19L26.3503 29.17C26.3503 29.17 26.3903 29.15 26.4203 29.14C26.3903 29.12 26.3703 29.11 26.3603 29.09C26.3503 29.07 26.3303 29.06 26.3303 29.04C26.3303 29.02 26.3303 28.99 26.3503 28.98C26.3803 28.96 26.4003 28.99 26.4203 29.01C26.4203 29.01 26.4403 29.01 26.4503 29.02C26.4803 28.98 26.4603 28.93 26.4503 28.88C26.4503 28.83 26.3803 28.82 26.3403 28.77C26.3603 28.77 26.3703 28.75 26.3903 28.75C26.4203 28.75 26.4503 28.75 26.4703 28.76C26.5503 28.77 26.5703 28.76 26.6003 28.69C26.6303 28.61 26.6203 28.59 26.5803 28.48C26.6103 28.46 26.6603 28.51 26.6803 28.47C26.6703 28.45 26.6503 28.42 26.6503 28.4C26.6503 28.37 26.6503 28.35 26.6403 28.32C26.6103 28.31 26.5903 28.3 26.5703 28.29C26.6003 28.25 26.6403 28.26 26.6703 28.26C26.7103 28.26 26.7403 28.26 26.7603 28.22C26.8403 28.12 26.8403 28.12 26.8603 28L26.8903 27.98C26.9503 27.96 26.9503 27.95 26.9403 27.89C26.9403 27.87 26.9203 27.85 26.9503 27.83C26.9503 27.83 26.9703 27.83 26.9803 27.83C27.0703 27.83 27.0803 27.81 27.0703 27.72C27.0703 27.67 27.0603 27.61 27.0703 27.55C27.1003 27.55 27.1303 27.56 27.1503 27.57C27.2003 27.57 27.2203 27.56 27.2203 27.51C27.2203 27.48 27.1903 27.44 27.2203 27.42C27.2703 27.42 27.3103 27.43 27.3503 27.42C27.3903 27.4 27.4303 27.38 27.4703 27.35C27.5103 27.31 27.5403 27.26 27.5003 27.18C27.5003 27.18 27.5003 27.17 27.5003 27.15L27.5503 27.17C27.6303 27.21 27.6603 27.2 27.6903 27.13C27.6903 27.11 27.7103 27.08 27.7203 27.05C27.8303 27.07 27.9003 27.01 27.9703 26.96C28.0303 26.91 28.0903 26.87 28.1803 26.88C28.1903 26.84 28.2103 26.8 28.2203 26.77C28.2603 26.76 28.3103 26.76 28.3303 26.72C28.3303 26.71 28.3603 26.7 28.3803 26.7C28.4703 26.7 28.5403 26.65 28.6103 26.61C28.6503 26.58 28.6903 26.55 28.7503 26.56C28.7703 26.56 28.7903 26.54 28.8103 26.52C28.8303 26.49 28.8503 26.47 28.8903 26.48C28.9103 26.48 28.9303 26.48 28.9503 26.48C29.0303 26.44 29.1303 26.46 29.2003 26.41C29.2803 26.42 29.3403 26.4 29.4203 26.38C29.4603 26.38 29.4903 26.36 29.5203 26.31C29.5303 26.29 29.5503 26.27 29.5703 26.27C29.6203 26.27 29.6603 26.23 29.7003 26.22C29.7003 26.2 29.7003 26.19 29.7103 26.16C29.7203 26.2 29.7103 26.2 29.7003 26.22V26.3C29.7003 26.3 29.7003 26.37 29.7303 26.37C29.8103 26.37 29.8803 26.37 29.9303 26.28C29.9303 26.28 29.9403 26.28 29.9603 26.27C29.9903 26.29 30.0103 26.31 30.0403 26.34C30.0703 26.31 30.1003 26.29 30.1203 26.26C30.1203 26.26 30.1403 26.26 30.1403 26.27C30.1703 26.34 30.2103 26.36 30.2703 26.36C30.3003 26.36 30.3403 26.36 30.3703 26.36C30.4003 26.36 30.4303 26.36 30.4503 26.34C30.4903 26.31 30.5203 26.31 30.5603 26.31C30.5603 26.3 30.5703 26.29 30.5703 26.28C30.5703 26.26 30.5903 26.24 30.6003 26.24C30.6203 26.24 30.6403 26.25 30.6503 26.27C30.6603 26.29 30.6703 26.31 30.6703 26.33V26.4C30.7003 26.48 30.7503 26.5 30.8103 26.45L30.8603 26.4C30.8603 26.4 30.8903 26.38 30.9003 26.37C30.9003 26.39 30.9103 26.4 30.9103 26.42C30.9103 26.49 30.9403 26.52 30.9903 26.53C31.0103 26.53 31.0403 26.54 31.0703 26.55C31.1003 26.55 31.1403 26.56 31.1703 26.58C31.3003 26.63 31.3003 26.62 31.4403 26.58C31.4403 26.62 31.4503 26.66 31.4603 26.7C31.5003 26.72 31.5303 26.74 31.5703 26.75C31.5903 26.76 31.6203 26.77 31.6503 26.77C31.6903 26.77 31.7103 26.79 31.7403 26.82C31.7803 26.86 31.8303 26.88 31.8903 26.82C31.9003 26.82 31.9103 26.8 31.9203 26.8C31.9803 26.78 32.0403 26.76 32.0903 26.8C32.0703 26.85 32.0503 26.88 32.0403 26.92C32.0403 26.95 32.0303 26.98 32.0403 27C32.0803 27.04 32.1103 27.09 32.1903 27.08C32.2103 27.08 32.2303 27.08 32.2403 27.08C32.2603 27.12 32.2703 27.16 32.2903 27.18C32.3303 27.21 32.3903 27.23 32.4503 27.22C32.4603 27.22 32.4803 27.22 32.5003 27.22C32.5003 27.24 32.5003 27.26 32.4903 27.27C32.4403 27.34 32.4603 27.38 32.4903 27.43C32.5803 27.53 32.6603 27.62 32.7503 27.72C32.8003 27.77 32.8803 27.81 32.9003 27.89C32.9703 27.91 32.9703 27.97 32.9703 28.03L33.0503 28.1ZM26.3403 30.56C26.3403 30.56 26.2903 30.54 26.2703 30.53C26.3403 30.5 26.3703 30.52 26.3803 30.57C26.3703 30.57 26.3503 30.57 26.3403 30.57V30.56ZM29.7403 33.98H29.7603C29.7603 33.98 29.7503 34.05 29.7203 34.06C29.7203 34.06 29.7103 34.05 29.7003 34.04L29.7403 33.99V33.98ZM32.4903 33.24V33.22C32.5003 33.22 32.5103 33.22 32.5303 33.22C32.5303 33.22 32.5303 33.24 32.5303 33.25H32.4803L32.4903 33.24ZM33.7703 29.79C33.7703 29.79 33.7703 29.8 33.7603 29.81C33.7603 29.81 33.7503 29.81 33.7403 29.81V29.79H33.7703ZM31.8403 33.32V33.35V33.33V33.32ZM27.9503 26.37V26.35L27.9703 26.36H27.9603L27.9503 26.37ZM26.2203 29.65C26.2203 29.65 26.2103 29.65 26.2003 29.65C26.2003 29.65 26.1903 29.65 26.1803 29.64H26.2003H26.2203V29.65Z" fill="#001B38"></path>
  <path d="M25.0401 38.3499C25.1301 38.3599 25.2502 38.3299 25.2502 38.3099C25.2702 38.2899 25.3202 38.2299 25.3802 38.2399C25.3602 38.3099 25.3502 38.3599 25.3502 38.3899C25.3502 38.3899 25.3502 38.4299 25.3802 38.4899L25.4501 38.6599L25.5802 38.9399C25.7102 39.1899 25.8602 39.4099 26.0502 39.5499C26.0602 39.5499 26.0802 39.5899 26.1002 39.6099C26.1002 39.6299 26.1201 39.6499 26.1201 39.6699C26.1201 39.7499 26.1702 39.8499 26.2702 39.9599C26.3602 40.0699 26.4602 40.1299 26.5502 40.1699C26.6102 40.1999 26.6802 40.2199 26.7402 40.2499C26.8002 40.2699 26.8002 40.2099 26.8902 40.2799C26.9102 40.2999 26.9302 40.3199 26.9402 40.3299C26.9602 40.3699 26.9802 40.4199 26.9902 40.4599C27.0302 40.5999 27.2402 40.8199 27.4602 40.9099C27.6602 40.9899 27.8402 41.0699 28.0202 41.1699C28.0602 41.1899 28.1202 41.2099 28.1702 41.2199C28.5802 41.3199 29.0101 41.3699 29.4001 41.3799C29.5801 41.3799 29.7501 41.3799 29.8701 41.3299C29.8901 41.3299 29.9302 41.3299 29.9702 41.3199C30.0002 41.3299 30.0201 41.3399 30.0401 41.3599C30.1501 41.4399 30.3402 41.4399 30.5502 41.4199C30.6402 41.4099 30.7401 41.3899 30.8401 41.3799C30.9601 41.3699 31.0501 41.3599 31.1801 41.3399C31.5001 41.3199 31.8001 41.2299 32.0901 41.0899C32.1201 41.0899 32.1502 41.0899 32.1902 41.0799C32.5302 41.0099 32.7402 40.8499 32.8102 40.6599C32.8102 40.6399 32.8102 40.6199 32.8302 40.5999C32.8402 40.5799 32.8602 40.5499 32.8802 40.5299C32.9702 40.4799 33.0502 40.4199 33.1302 40.3699C33.1402 40.3699 33.1602 40.3699 33.1702 40.3699C33.2502 40.4099 33.2702 40.3999 33.4202 40.2799C33.5102 40.1999 33.5901 40.1199 33.6801 40.0299C33.9301 39.7599 34.1502 39.4599 34.3502 39.1599C34.4002 39.0799 34.4502 38.9999 34.4902 38.9199L34.6402 38.5999C34.6902 38.4899 34.7302 38.3899 34.7202 38.3999V38.3799C34.7502 38.2999 34.7202 38.3499 35.0602 38.3599H35.1402H35.4102C35.8002 38.3899 36.2002 38.3599 36.5802 38.2599C36.8402 38.1999 37.0901 38.1099 37.3401 38.0299C37.3601 38.0299 37.3902 38.0099 37.4102 37.9999C37.6102 37.8899 37.8102 37.7899 38.0002 37.6699C38.2402 37.5099 38.4402 37.3099 38.4702 37.1299C38.4702 37.1099 38.5002 37.0699 38.5202 37.0299C38.7502 36.9599 38.8201 36.9199 39.0401 36.6299C39.1301 36.5099 39.2002 36.4099 39.2802 36.2899C39.4202 36.0599 39.5702 35.8299 39.6402 35.5799C39.7902 35.4199 39.9002 35.2199 40.0002 34.9999C40.1202 34.7499 40.2302 34.4499 40.3102 34.1599L40.3902 33.8499C40.5002 33.4399 40.5002 32.9999 40.4402 32.5799C40.4102 32.4399 40.3902 32.2899 40.3602 32.1499C40.3002 31.7799 40.1601 31.4399 40.0101 31.1099C39.9601 31.0099 39.8902 30.8799 39.8302 30.8299C39.7002 30.7199 39.5802 30.5799 39.4602 30.4199C39.4002 30.3399 39.3301 30.2899 39.2901 30.2999C39.2001 30.3199 39.0802 30.2799 38.9602 30.2499C38.8402 30.2099 38.8002 30.2499 38.8302 30.4099C38.8302 30.4499 38.8302 30.4899 38.8502 30.5299C38.8602 30.5699 38.8802 30.6299 38.9102 30.6699C39.0602 30.8899 39.1801 31.0799 39.2901 31.2999C39.2901 31.3199 39.3102 31.3399 39.3302 31.3499C39.3902 31.4199 39.4102 31.4899 39.4402 31.5799C39.5002 31.7799 39.5502 31.9799 39.6402 32.1699C39.6902 32.2799 39.7002 32.3999 39.7202 32.5199C39.7402 32.7499 39.7502 32.9799 39.7402 33.2099C39.7202 33.4399 39.7101 33.6699 39.6501 33.8999C39.6301 34.0099 39.5801 34.1199 39.5401 34.1999C39.4501 34.3499 39.4102 34.4899 39.3602 34.6599C39.3202 34.7899 39.3101 34.8799 39.3401 34.9399C39.3601 34.9699 39.3902 34.9899 39.3602 35.0799C39.3102 35.1499 39.2901 35.1099 39.2601 35.1099H39.1702C38.9102 35.5599 38.6702 35.9899 38.4602 36.3999C38.4002 36.4399 38.3302 36.4699 38.2702 36.5099C38.2002 36.6399 38.1202 36.7399 37.9902 36.8299C37.9302 36.8699 37.8902 36.9399 37.8302 36.9899C37.7802 36.9999 37.7301 37.0099 37.7001 37.0199C37.6701 37.0399 37.6502 37.0599 37.6302 37.0699C37.5202 37.1899 37.3802 37.2699 37.2202 37.3099C37.1402 37.3299 37.0602 37.3599 36.9702 37.3899C36.7202 37.4799 36.4601 37.5399 36.2001 37.5899C35.8901 37.6499 35.5602 37.6799 35.2402 37.6399C35.1502 37.6399 35.0602 37.6399 34.9902 37.6599L34.8902 37.6899C34.7602 37.6499 34.6802 37.6099 34.5702 37.6099C34.5202 37.6099 34.4501 37.5899 34.3701 37.6299C34.3201 37.6999 34.2102 37.7499 34.1402 37.8799L34.1201 37.9299C34.1001 37.9999 34.0902 38.0899 34.0702 38.1599C34.0702 38.2099 34.0402 38.2899 34.0202 38.3199C33.8802 38.5199 33.8902 38.6199 33.9102 38.7399C33.9102 38.7399 33.9101 38.7599 33.9001 38.7799C33.8501 38.8699 33.7701 38.9399 33.7001 39.0099C33.6201 39.0899 33.5501 39.1599 33.4801 39.2299C33.3701 39.3499 33.2802 39.4599 33.2702 39.5799C33.2702 39.5999 33.2501 39.6299 33.2301 39.6599L33.0302 39.7499C32.9102 39.8899 32.7901 40.0299 32.6501 40.1499C32.5901 40.1699 32.5301 40.1799 32.4801 40.1899C32.3401 40.1999 32.2201 40.2699 32.0901 40.3599C32.0001 40.4299 31.8902 40.4699 31.7702 40.5199C31.7102 40.5399 31.6402 40.5499 31.5802 40.5799C31.3602 40.6799 31.1601 40.6799 30.9501 40.6399C30.8701 40.6199 30.7802 40.6099 30.6902 40.6099C30.4302 40.6099 30.1701 40.6599 29.9001 40.6399C29.7001 40.6199 29.4902 40.6399 29.2802 40.6599C29.1902 40.6599 29.1302 40.6799 29.1002 40.7199C29.0802 40.7499 29.0602 40.7699 29.0302 40.7899C29.0102 40.7999 28.9702 40.7999 28.9202 40.8099C28.8802 40.7699 28.8602 40.7299 28.8202 40.6999C28.7602 40.6599 28.7202 40.6299 28.6602 40.5999C28.5802 40.5499 28.4902 40.4999 28.3802 40.4799C28.2302 40.4399 28.0701 40.3899 27.9301 40.3499C27.8601 40.3699 27.7902 40.3999 27.7202 40.4099C27.7002 40.4099 27.6502 40.3999 27.6102 40.3799C27.5502 40.3499 27.5402 40.3099 27.5502 40.2899L27.6102 40.1799C27.6102 40.1799 27.6202 40.1299 27.5502 40.0799C27.4702 40.0799 27.3802 40.0599 27.3002 40.0399C27.2102 40.0199 27.1102 39.9999 27.0002 39.9699C27.0002 39.9199 27.0001 39.8899 27.0101 39.8599C27.0101 39.8299 27.0301 39.7999 27.0401 39.7699C27.0501 39.7099 27.0002 39.6099 26.9102 39.5199L26.7901 39.4099C26.7001 39.3199 26.6102 39.2199 26.5202 39.1199C26.4502 39.0399 26.3902 38.9499 26.3602 38.8399C26.3402 38.7699 26.3001 38.6799 26.2601 38.5999C26.1701 38.4099 26.0801 38.2299 25.9501 38.1899C25.9401 38.1899 25.9202 38.1499 25.8902 38.1199C25.8702 37.8399 25.8702 37.6999 25.5302 37.6899C25.5002 37.6899 25.4501 37.6899 25.4001 37.6999C25.3301 37.6699 25.2201 37.6499 25.1501 37.6199C25.0401 37.6299 24.9402 37.6499 24.8602 37.6499C24.7502 37.6499 24.6701 37.6699 24.5901 37.6999C24.5501 37.7199 24.5002 37.7299 24.4602 37.7399C24.4402 37.7399 24.4202 37.7399 24.3902 37.7399L24.2301 37.6899C24.1601 37.6899 24.1002 37.6899 24.0502 37.6999C24.0302 37.6999 24.0101 37.6999 24.0101 37.6899C23.9401 37.5999 23.8202 37.5699 23.6402 37.5499C23.4802 37.5399 23.3201 37.4799 23.1801 37.3999C23.0901 37.3599 23.0102 37.2999 22.9202 37.2799C22.7802 37.2399 22.6602 37.1699 22.5502 37.0799C22.4402 37.0099 22.3402 36.9199 22.2402 36.8399C21.9902 36.6499 21.7802 36.4499 21.5502 36.3199C21.5402 36.3199 21.5202 36.2899 21.5002 36.2599C21.5102 36.2299 21.5301 36.2099 21.5401 36.1799C21.5501 36.1399 21.5001 36.0599 21.4501 36.0299L21.3701 35.9899C21.2901 35.9399 21.2102 35.9199 21.1002 35.8099C21.1202 35.7799 21.1302 35.7599 21.1402 35.7599C21.1702 35.7499 21.2101 35.7399 21.2301 35.7299C21.2301 35.7299 21.2301 35.6899 21.2301 35.6699C21.2201 35.6499 21.1902 35.6099 21.1702 35.5999C21.1302 35.5699 21.0802 35.5499 21.0202 35.5099C21.0002 35.4499 20.9801 35.3899 20.9801 35.3599C20.9801 35.2399 20.9302 35.1099 20.8502 34.9499C20.7602 34.7899 20.6802 34.6199 20.6402 34.4399C20.6102 34.2999 20.5402 34.1699 20.4602 34.1199C20.4502 34.1199 20.4302 34.0799 20.4202 34.0599C20.4202 34.0399 20.4202 34.0299 20.4202 34.0199C20.4202 33.9999 20.4202 33.9899 20.4202 33.9799C20.4702 33.8499 20.4501 33.6999 20.4001 33.4899C20.3701 33.3899 20.3602 33.2799 20.3602 33.1699C20.3602 33.0899 20.3601 33.0199 20.3701 32.9399C20.3901 32.7899 20.3902 32.6599 20.3502 32.5399C20.3302 32.4899 20.3302 32.4099 20.3202 32.3399C20.3202 32.3399 20.3602 32.3599 20.3802 32.3399C20.4202 32.3299 20.4501 32.2399 20.4501 32.1699C20.4501 32.1199 20.4302 32.0699 20.4202 32.0299C20.4102 31.9899 20.3901 31.9399 20.3701 31.8799C20.4001 31.8199 20.4302 31.7799 20.4602 31.7399L20.6002 31.5699C20.6602 31.4999 20.7101 31.4199 20.7301 31.3199C20.7501 31.2299 20.7801 31.1599 20.8401 31.0899C20.8801 31.0499 20.9101 30.9799 20.9501 30.9299C21.0001 30.8599 21.0402 30.7799 21.1002 30.6999C21.1902 30.5899 21.2302 30.4899 21.2702 30.3799C21.3002 30.3399 21.3102 30.3299 21.3202 30.3199C21.4302 30.2299 21.5302 30.0699 21.4902 29.8699C21.4502 29.6999 21.3601 29.6299 21.2901 29.5999C21.2701 29.5999 21.2602 29.5899 21.2402 29.5899C21.2102 29.5899 21.1901 29.5899 21.1501 29.5899C21.1301 29.5899 21.1001 29.5599 21.0901 29.5299C21.0801 29.5099 21.0702 29.4699 21.0702 29.4599C21.0902 29.4199 21.1302 29.3999 21.1602 29.3699C20.9902 29.1799 20.9701 29.1699 20.9501 29.0899C20.8901 28.8799 20.7802 28.6599 20.6902 28.4399C20.6502 28.3399 20.6102 28.2299 20.5802 28.1299C20.5602 28.0399 20.5302 27.9599 20.4902 27.8899C20.4002 27.7399 20.3502 27.5599 20.3502 27.3699C20.3502 27.2099 20.3201 27.0899 20.2601 27.0099C20.2401 26.9799 20.2201 26.9499 20.2301 26.8699C20.2401 26.8599 20.2502 26.8399 20.2702 26.8199C20.2902 26.7999 20.3202 26.7799 20.3102 26.7099C20.3102 26.6799 20.2902 26.6499 20.2802 26.6299C20.2502 26.5999 20.2202 26.5899 20.1902 26.5699C20.1702 26.5499 20.1601 26.5199 20.1501 26.4899C20.1401 26.4599 20.1501 26.3799 20.1801 26.3699C20.2101 26.3699 20.2502 26.3599 20.2802 26.3699C20.3202 26.3799 20.3702 26.3699 20.4102 26.2999C20.4202 26.2799 20.4301 26.2499 20.4501 26.2199C20.4501 26.1299 20.4502 26.0399 20.4602 25.9599C20.4802 25.9199 20.5001 25.8999 20.5101 25.8699C20.6401 25.6699 20.6702 25.6299 20.6902 25.3999C20.6902 25.3099 20.7101 25.2299 20.7301 25.1399C20.7401 25.0699 20.7802 24.9899 20.8302 24.9299C20.9102 24.8299 21.0002 24.7299 21.0802 24.6399C21.1302 24.5799 21.1802 24.5099 21.2102 24.4499C21.2702 24.3299 21.3402 24.2399 21.4202 24.1399C21.5302 24.0199 21.6002 23.8699 21.6402 23.7499L21.6602 23.6499C21.6602 23.6499 21.6901 23.5599 21.7601 23.5099C21.7801 23.5099 21.8002 23.5099 21.8302 23.5199C21.8902 23.5199 21.9402 23.4899 22.0202 23.4099C22.0802 23.3499 22.1101 23.2999 22.1201 23.2399C22.1501 23.1599 22.1502 23.0999 22.2402 22.9799C22.2602 22.9799 22.2802 22.9899 22.3002 22.9999C22.3702 23.0199 22.4502 22.9799 22.5202 22.8899C22.5602 22.8299 22.5902 22.7799 22.6302 22.7199L22.6902 22.6399C22.8102 22.6099 22.7602 22.7199 22.9202 22.6399C22.9402 22.5999 22.9702 22.5599 23.0002 22.5199C23.0202 22.4899 23.0502 22.4499 23.1302 22.4399C23.1802 22.4599 23.2302 22.4799 23.2802 22.4999C23.4202 22.4499 23.5402 22.3699 23.6902 22.3799C23.8002 22.3799 23.9001 22.3599 23.9801 22.3099C24.0701 22.2499 24.1902 22.2399 24.3102 22.2599C24.4702 22.2999 24.6402 22.2999 24.8202 22.2999C24.9802 22.2999 25.0702 22.2999 25.3002 22.3599C25.4302 22.3999 25.5702 22.3799 25.6602 22.3599C25.7302 22.3299 25.7702 22.2599 25.8202 22.1899C25.8902 22.1499 25.9102 22.0599 25.9602 21.9999L26.0202 21.8899C26.1202 21.7099 26.1602 21.5999 26.1702 21.4699C26.2302 21.3699 26.2901 21.2999 26.3401 21.2199C26.4201 21.0599 26.5302 20.9199 26.6102 20.7599C26.6602 20.6699 26.7202 20.5699 26.8202 20.5099C26.9302 20.4299 27.0302 20.3399 27.1302 20.2299C27.2002 20.1699 27.2802 20.0999 27.3602 20.0499C27.4602 19.9799 27.5301 19.9199 27.5901 19.8399C27.6101 19.8099 27.6501 19.7699 27.6801 19.7299C27.7801 19.6999 27.8601 19.6599 27.9301 19.6399C28.1001 19.5299 28.0602 19.4499 28.1902 19.3499C28.2202 19.3499 28.2601 19.3499 28.2601 19.3599C28.2701 19.3899 28.2602 19.4199 28.2802 19.4399C28.2902 19.4699 28.3701 19.4599 28.4301 19.4399C28.4601 19.4299 28.4901 19.4099 28.5101 19.3999C28.5701 19.3499 28.6602 19.3299 28.7502 19.3299C28.8002 19.3299 28.8502 19.3299 28.9102 19.3299C28.9902 19.3299 29.0601 19.3199 29.1201 19.2899C29.1501 19.2799 29.1902 19.2599 29.2402 19.2399C29.3502 19.2499 29.4602 19.2599 29.5602 19.2799C29.6902 19.2999 29.8202 19.3099 29.9602 19.2799C30.0602 19.2499 30.1701 19.2799 30.2601 19.2899C30.3101 19.2999 30.3702 19.3099 30.4202 19.3199C30.6802 19.3699 30.9202 19.3499 31.1102 19.2799C31.2002 19.2499 31.3001 19.2099 31.4001 19.1999C31.4201 19.1999 31.4702 19.1999 31.4902 19.2099C31.5102 19.2099 31.5401 19.2399 31.5401 19.2499C31.5401 19.2999 31.5201 19.3399 31.5101 19.3899C31.5701 19.3999 31.6302 19.4299 31.6902 19.4399C31.9802 19.5099 32.2501 19.6399 32.4501 19.8299C32.5101 19.8899 32.6002 19.9499 32.6702 20.0099L32.9301 20.2099C33.0501 20.2999 33.1601 20.4099 33.2301 20.5399C33.3001 20.6499 33.3802 20.7399 33.4702 20.8299C33.5502 20.9099 33.6301 20.9899 33.7001 21.0799C33.7501 21.2299 33.7502 21.2399 33.8202 21.3699C33.8902 21.5299 33.9702 21.6799 34.0702 21.8799C34.1202 21.9999 34.1901 22.1399 34.2601 22.1999C34.3801 22.2799 34.3302 22.1699 34.3602 22.1499C34.3602 22.1499 34.3902 22.1699 34.4102 22.1699C34.5002 22.2599 34.6302 22.2299 34.7102 22.2599C34.7902 22.2599 34.8601 22.2799 34.9001 22.3099C34.9601 22.3499 35.0301 22.3499 35.1501 22.3299C35.2801 22.3199 35.3801 22.2799 35.4501 22.2399C35.4501 22.2399 35.4902 22.2399 35.5202 22.2399L35.6002 22.3299C35.6702 22.3499 35.7502 22.3599 35.8102 22.3799C35.8702 22.3799 35.9402 22.3999 35.9902 22.3999C36.1202 22.3799 36.2401 22.3999 36.3701 22.4399C36.4601 22.4599 36.5601 22.4699 36.6501 22.4899C36.7701 22.5099 36.8802 22.5499 36.9902 22.5999C37.2402 22.7399 37.2301 22.7399 37.4001 22.6999C37.4001 22.6999 37.4402 22.7099 37.4702 22.7199C37.4902 22.7699 37.5201 22.8199 37.5401 22.8699C37.6801 22.9299 37.7902 23.0299 37.8802 23.1299C37.8902 23.1399 37.9102 23.1499 37.9402 23.1699C38.0002 23.1899 38.0601 23.1999 38.1501 23.2399C38.2101 23.4199 38.3701 23.5999 38.4801 23.7899C38.6001 23.9999 38.7201 24.2099 38.8401 24.4099C38.8701 24.4699 38.9202 24.5299 38.9602 24.5699C39.0302 24.6499 39.0802 24.7299 39.1102 24.8299C39.1502 24.9699 39.2102 25.0999 39.2802 25.2299C39.3202 25.3099 39.3602 25.3999 39.3902 25.4799C39.4702 25.6799 39.4601 25.6699 39.5901 25.7599C39.5901 25.8599 39.6102 25.9599 39.6102 26.0499C39.6202 26.1699 39.6301 26.2799 39.6501 26.3899C39.6701 26.5399 39.7001 26.6799 39.6501 26.8099C39.6401 26.8399 39.6501 26.9099 39.6501 26.9599C39.6501 27.1699 39.6302 27.3799 39.5802 27.5899C39.5802 27.6499 39.5401 27.6999 39.5101 27.7499C39.4901 27.7899 39.4702 27.8199 39.4402 27.8599C39.4902 28.0499 39.4902 28.0999 39.3902 28.3299L39.3002 28.4999C39.2402 28.5999 39.1902 28.7099 39.1602 28.8099C39.1502 28.8699 39.1202 28.9399 39.0802 29.0099C39.0402 29.0799 38.9801 29.1499 38.9301 29.2199C38.9501 29.2499 38.9702 29.2799 38.9902 29.3199C38.9202 29.3899 38.8702 29.4399 38.8202 29.4999C38.7702 29.5299 38.6601 29.7599 38.7001 29.8399C38.7101 29.8899 38.7401 29.9099 38.7601 29.9299C38.8501 30.0099 38.9502 30.0399 39.0502 30.0399C39.0802 30.0399 39.1001 30.0399 39.1201 30.0199C39.1801 29.9799 39.2302 29.9399 39.2702 29.9299C39.2902 29.9299 39.2602 29.9299 39.2402 29.9199C39.2402 29.9199 39.2401 29.9199 39.2301 29.9199L39.3302 29.9899L39.3802 29.9599C39.4302 29.9299 39.4901 29.8799 39.5401 29.8399C39.7101 29.7099 39.8702 29.4799 40.0002 29.2199C40.2202 28.8099 40.3701 28.3599 40.4801 27.9099C40.5201 27.7499 40.5502 27.5999 40.6002 27.4399C40.5602 27.3499 40.5702 27.2299 40.5802 27.0799C40.6102 26.7299 40.5502 26.3799 40.4702 26.0399C40.4402 25.9199 40.4102 25.7999 40.3602 25.6999C40.3102 25.5999 40.2602 25.5099 40.2102 25.4299C40.1802 25.3499 40.2002 25.2799 40.1302 25.1899C40.1002 25.1899 40.0702 25.1799 40.0302 25.1699C40.0102 25.1699 39.9801 25.1399 39.9501 25.1199C39.9301 25.0299 39.9202 24.9599 39.9102 24.8899C39.9502 24.8899 39.9802 24.8999 40.0202 24.9099C39.9902 24.8299 39.9702 24.7599 39.9402 24.6999L39.6402 24.1399C39.5402 23.9599 39.4402 23.7999 39.3202 23.6899C39.3002 23.6599 39.3001 23.6499 39.2901 23.6399L39.2702 23.5799C39.2202 23.4099 39.1102 23.2399 38.9402 23.0999C38.8902 23.0599 38.8402 23.0199 38.8002 22.9699C38.7102 22.8399 38.5901 22.7899 38.4801 22.7099C38.4201 22.6099 38.3302 22.4999 38.2102 22.4099C38.0902 22.3199 37.9901 22.2799 37.9301 22.3099C37.9001 22.3199 37.8802 22.3499 37.8502 22.3599C37.8202 22.3699 37.7902 22.3899 37.7502 22.3899C37.7202 22.3899 37.6702 22.3899 37.6102 22.3499C37.5202 22.2299 37.6402 22.1899 37.5702 22.0599C37.4802 22.0099 37.3702 21.9699 37.3002 21.9199C37.1102 21.7999 36.8801 21.7199 36.6501 21.6699C36.5401 21.6399 36.4202 21.6099 36.3102 21.5899C36.1402 21.5499 35.9702 21.5399 35.8002 21.5399C35.6102 21.5399 35.4801 21.5799 35.4301 21.6499C35.4201 21.6699 35.3902 21.6999 35.3002 21.6999C35.2302 21.6699 35.1701 21.6399 35.0901 21.6199C35.0101 21.5899 34.8402 21.6399 34.8502 21.6399H34.8401H34.8202C34.8102 21.6399 34.7902 21.6399 34.7802 21.6399C34.7302 21.6199 34.7402 21.6399 34.6902 21.5099C34.6602 21.4199 34.6202 21.3799 34.5702 21.3599C34.5202 21.3399 34.5001 21.3999 34.4301 21.2899C34.4101 21.1799 34.4401 21.1299 34.4501 21.0499C34.4501 20.9899 34.4501 20.9199 34.4001 20.8399C34.2301 20.4899 34.0202 20.1499 33.7102 19.9199C33.6602 19.8899 33.6202 19.8399 33.5802 19.7899C33.5502 19.7399 33.5102 19.6999 33.4702 19.6599C33.3902 19.6299 33.3302 19.6099 33.2702 19.5899C33.2102 19.5699 33.1602 19.5899 33.0602 19.4999V19.3799C32.9202 19.2799 32.9301 19.2699 32.6801 19.1999C32.6401 19.1599 32.6102 19.1199 32.5702 19.0699C32.5102 18.9999 32.4302 18.9399 32.3102 18.8899C31.8902 18.7199 31.4302 18.6099 31.0002 18.5799C30.6502 18.5699 30.3102 18.5499 29.9602 18.5599L29.4402 18.5799C29.2902 18.5899 29.1502 18.5799 28.9902 18.6099C28.7702 18.6399 28.6302 18.7199 28.6102 18.8099C28.6102 18.8099 28.5701 18.8299 28.5401 18.8399C28.4901 18.8199 28.4402 18.7899 28.3802 18.7799C28.3602 18.7799 28.3101 18.7799 28.2901 18.7799C28.2501 18.7999 28.2001 18.8199 28.1801 18.8399C28.1401 18.8899 28.1302 18.9399 28.1002 18.9999C28.1002 18.9999 28.0702 19.0299 28.0502 19.0299C28.0202 19.0399 27.9702 19.0499 27.9602 19.0499C27.9002 19.0399 27.8602 19.0199 27.8002 19.0099C27.7702 19.0099 27.7102 19.0099 27.6402 19.0299C27.6102 19.0799 27.6102 19.1099 27.5802 19.1399C27.5602 19.1699 27.5201 19.2199 27.4801 19.2499C27.4201 19.2899 27.3402 19.3499 27.3002 19.3599C27.2202 19.3899 27.2602 19.3199 27.2802 19.2799C27.2802 19.2699 27.2802 19.2599 27.2802 19.2499C27.1302 19.3199 27.0402 19.4299 26.9402 19.5399C26.8302 19.6599 26.9102 19.6899 26.8502 19.7899C26.8102 19.8099 26.7602 19.8299 26.7402 19.8299C26.7002 19.8299 26.6802 19.8199 26.6402 19.8099C26.5402 19.7999 26.4802 19.8199 26.3202 20.0099C26.1302 20.2499 26.1101 20.2899 26.0101 20.5699C25.9401 20.6499 25.9401 20.5299 25.8401 20.6799C25.8301 20.7299 25.8202 20.7999 25.8102 20.8699C25.7902 20.9499 25.7702 21.0199 25.7502 21.0799C25.7802 21.0799 25.8002 21.0999 25.8302 21.0999C25.7602 21.2299 25.7102 21.2399 25.6702 21.2699C25.6102 21.2999 25.5702 21.3599 25.5302 21.4499C25.4702 21.5899 25.4702 21.5699 25.4602 21.5799C25.4402 21.6199 25.4402 21.6599 25.3802 21.6799H25.3701L25.3401 21.6499C25.2001 21.5899 25.1801 21.5899 25.0401 21.6199C24.9901 21.6299 24.9601 21.6499 24.8401 21.6299C24.8401 21.6299 24.8201 21.6099 24.7901 21.5999C24.5901 21.5299 24.5302 21.5299 24.3202 21.5999C24.1802 21.6499 24.0401 21.6999 23.9001 21.7499C23.8501 21.7299 23.8001 21.7099 23.7601 21.6999C23.6601 21.6799 23.5602 21.6999 23.4602 21.7499C23.3902 21.7899 23.3802 21.8499 23.2702 21.8799C23.1602 21.8799 23.0702 21.8699 22.9602 21.8799C22.8202 21.9099 22.6602 21.9699 22.5202 22.0499C22.3402 22.1399 22.1802 22.2699 22.1702 22.3799C22.1702 22.3799 22.1402 22.4099 22.1102 22.4399H22.0202C21.8702 22.4499 21.7902 22.5099 21.6402 22.6899C21.5902 22.7599 21.5502 22.8199 21.5002 22.8899C21.2602 23.0199 21.0502 23.2899 20.9102 23.5299C20.7802 23.7399 20.6602 23.9599 20.5002 24.1299C20.4702 24.2299 20.4501 24.3199 20.4301 24.4199C20.3601 24.5299 20.2802 24.6399 20.2502 24.7799C20.2402 24.8299 20.2002 24.8899 20.1702 24.9399C20.0202 25.1599 19.9102 25.4399 19.8502 25.7199C19.8102 25.8899 19.7902 26.0499 19.7402 26.2199C19.7202 26.2799 19.7102 26.3799 19.7202 26.4499C19.7302 26.5499 19.7202 26.6399 19.7102 26.7499C19.7102 26.8099 19.7001 26.8799 19.7001 26.9399C19.7201 27.2399 19.7102 27.5499 19.8002 27.8299C19.8302 28.0799 19.9101 28.3099 20.0101 28.5399C20.0601 28.6699 20.1202 28.7699 20.1902 28.8399C20.2202 28.8699 20.2701 28.9199 20.2901 28.9699C20.3601 29.1199 20.4602 29.2099 20.5502 29.3299C20.5702 29.3299 20.5902 29.3299 20.6302 29.3299C20.6102 29.3799 20.5802 29.3299 20.5502 29.3199C20.5202 29.3199 20.4801 29.3099 20.4501 29.3199C20.4001 29.3199 20.4102 29.3799 20.4602 29.4699C20.5202 29.5799 20.5801 29.6599 20.6501 29.7399C20.7101 29.8099 20.7902 29.8999 20.8202 29.8799H20.8401C20.8401 29.8799 20.8601 29.8899 20.8701 29.8999C20.8701 29.9299 20.8402 29.9599 20.8102 29.9799C20.8302 30.0099 20.8502 30.0299 20.8302 30.0899C20.8102 30.1099 20.7902 30.1299 20.7802 30.1399C20.6702 30.1799 20.5702 30.2799 20.4702 30.4499C20.4102 30.5499 20.3401 30.6499 20.2901 30.7499C20.2501 30.8299 20.2101 30.9299 20.2001 30.9899C20.1801 31.0999 20.1402 31.2099 20.1002 31.3299C20.1002 31.3499 20.1102 31.3599 20.1102 31.3699C20.1102 31.3999 20.1402 31.4299 20.1302 31.4399C20.1102 31.4899 20.0802 31.5499 20.0502 31.5899C20.0202 31.6299 19.9902 31.6499 19.9602 31.6799L19.8701 31.7499C19.7701 31.8399 19.7102 32.0399 19.7502 32.1899C19.7502 32.2399 19.7801 32.2699 19.7901 32.3099C19.7901 32.3499 19.8002 32.3799 19.8102 32.4199C19.7902 32.4499 19.7701 32.4799 19.7601 32.4899C19.6901 32.5299 19.6501 32.6699 19.6501 32.8399C19.6501 32.9299 19.6502 33.0199 19.6602 33.1199C19.6602 33.2399 19.6901 33.3599 19.7001 33.4699C19.7701 33.9399 19.7802 33.9499 19.9702 34.2699C19.9602 34.3599 19.9602 34.4499 19.9602 34.5299C20.0202 34.6799 20.0601 34.7899 20.1201 34.8999C20.1601 34.9799 20.2002 35.0599 20.2402 35.1299C20.3002 35.2199 20.3502 35.3199 20.3902 35.4199C20.4602 35.5899 20.5602 35.7299 20.6602 35.7599C20.6802 35.7599 20.7002 35.7699 20.7202 35.7899C20.8202 35.8699 20.9202 35.9499 21.0202 36.1099C21.0002 36.1599 20.9802 36.1999 20.9702 36.2599C20.9702 36.2999 20.9702 36.3699 21.0002 36.4099C21.0902 36.5599 21.2002 36.7499 21.3502 36.8399C21.3902 36.8699 21.4402 36.8899 21.4602 36.9099C21.5402 37.0299 21.6101 37.1299 21.6801 37.1899C21.8201 37.2999 21.9702 37.4099 22.1102 37.4399C22.1402 37.4399 22.1802 37.4699 22.2202 37.4899C22.2402 37.5199 22.2601 37.5499 22.2601 37.5599C22.2501 37.6499 22.3501 37.7499 22.5401 37.8499C22.9401 38.0599 23.3702 38.2099 23.8202 38.2699C24.0802 38.3099 24.3201 38.2699 24.5901 38.3099C24.6001 38.3099 24.6202 38.3099 24.6302 38.3099C24.8102 38.2599 24.9802 38.2699 25.1402 38.2899L25.0401 38.3499ZM31.9602 18.9699C31.9102 18.9699 31.8602 18.9799 31.8002 18.9899C31.7702 18.9099 31.8201 18.8899 32.0101 18.9499C31.9901 18.9499 31.9802 18.9699 31.9602 18.9699ZM39.1402 29.5299C39.1402 29.5299 39.1102 29.5699 39.1102 29.5799C39.0702 29.5999 39.0602 29.5199 39.1102 29.4599C39.1102 29.4499 39.1402 29.4399 39.1602 29.4299V29.5299H39.1402ZM38.2702 36.7499C38.2702 36.7499 38.2502 36.7899 38.2402 36.7999C38.2202 36.8199 38.1902 36.8299 38.1702 36.8399C38.1702 36.8299 38.1702 36.8099 38.1902 36.7799C38.2202 36.7799 38.2402 36.7599 38.2702 36.7499ZM29.5602 18.7399C29.5602 18.7399 29.5801 18.7399 29.5901 18.7399L29.5602 18.7599C29.5602 18.7599 29.5402 18.7599 29.5302 18.7599L29.5602 18.7399ZM29.1602 41.1899C29.1602 41.1899 29.2002 41.1999 29.2102 41.2099C29.2102 41.2099 29.1901 41.2199 29.1801 41.2299L29.1302 41.2099L29.1602 41.1899ZM39.4602 35.5399H39.4501V35.4999H39.4902L39.4602 35.5499V35.5399ZM21.3502 30.0599C21.3502 30.0599 21.3502 30.0699 21.3502 30.0799C21.3502 30.0999 21.3402 30.1199 21.3302 30.1399C21.3302 30.1399 21.3302 30.1299 21.3302 30.1199L21.3502 30.0599ZM20.9602 24.5999L20.9402 24.6399H20.9301C20.9301 24.6399 20.9301 24.6199 20.9301 24.6099H20.9501L20.9602 24.5999ZM29.1002 18.8499C29.1002 18.8499 29.1302 18.8599 29.1302 18.8699C29.1302 18.8699 29.1101 18.8799 29.0901 18.8899L29.0602 18.8699L29.1002 18.8499ZM19.7601 27.3099L19.7802 27.3499H19.7702C19.7702 27.3499 19.7702 27.3499 19.7702 27.3299V27.3099H19.7601ZM35.6102 21.7799H35.5901H35.6201H35.6102ZM39.6501 29.1599L39.6702 29.1399V29.1599H39.6501ZM20.8401 29.5799V29.5999C20.8401 29.5999 20.8402 29.5999 20.8302 29.5999V29.5799H20.8401ZM39.0502 36.2899H39.0401L39.0502 36.2799V36.2899Z" fill="#001B38"></path>
  <path d="M41.54 18.8C41.71 18.74 41.87 18.66 42.04 18.62C42.33 18.55 42.61 18.46 42.9 18.48C43.32 18.54 44.25 18.75 44.66 18.27C45.03 17.84 45.63 17.94 45.89 17.47C46.05 17.15 46.15 16.81 46.23 16.49C46.3 16.22 46.38 15.96 46.45 15.7C46.49 15.54 46.57 15.38 46.61 15.21C46.66 15.01 46.67 14.92 46.61 14.84C46.37 14.5 46.4 14.16 46.63 13.82C46.84 13.52 46.61 13.19 46.55 12.87C46.52 12.72 46.37 12.56 46.47 12.43C46.58 12.29 46.61 12.15 46.6 12.02L46.58 11.91L46.55 11.65C46.52 11.48 46.5 11.3 46.47 11.12C46.45 11.02 46.45 10.9 46.46 10.75C46.5 9.79 45.71 9 44.74 9C43.83 9 43.08 9.71 43.02 10.62C43 11.04 42.97 11.49 42.95 11.92C42.93 12.09 42.91 12.25 42.9 12.37C42.89 12.51 43.13 12.66 43.11 12.8C43.06 13.05 42.87 13.29 42.8 13.54C42.77 13.64 42.92 13.74 43 13.84C43.05 13.91 43.21 14 43.16 14.03C42.52 14.34 43.39 14.66 43.14 14.97C42.96 15.03 43 14.97 43.06 15.01C43.13 15.03 43.18 15.1 43.11 15.07C43.09 15.06 43.04 15.02 43 14.99C43 14.99 43.02 15.06 43.02 15.05C42.99 14.97 43.01 15.02 43 14.97V14.95V14.88C43 14.88 42.9 14.93 42.86 14.96C42.76 15.02 42.67 15.08 42.57 15.1C42.46 15.13 42.34 15 42.23 14.93C42.18 14.9 42.13 14.8 42.1 14.84C41.87 15.15 41.63 15.18 41.39 15.16L41.03 15.11C40.75 15.1 40.42 15.09 40.13 15.13C39.9 15.16 39.43 15.16 38.92 15.16C37.87 15.16 37.02 16.01 37.02 17.06C37.02 18.11 37.92 19 39 18.95C39.65 18.92 40.26 18.96 40.45 19.18H40.91C41.03 19.02 41.06 18.93 41.1 18.86C41.15 18.8 41.2 18.77 41.25 18.77C41.35 18.76 41.47 18.81 41.57 18.77L41.54 18.8Z" fill="#001B38"></path>
  <path d="M26.9201 51.2599C27.0401 51.2399 27.1801 51.2599 27.3001 51.2799C28.0801 51.4399 28.8701 51.4399 29.6601 51.5099C29.9001 51.5299 30.1301 51.5099 30.3701 51.4799L30.8801 51.4399C31.3501 51.3999 31.8201 51.3999 32.2801 51.3099C33.0301 51.0999 33.8101 51.2099 34.5501 50.9899C34.5901 50.9799 34.6301 50.9899 34.6701 50.9899C34.9701 51.0399 35.2201 50.9299 35.4301 50.7299C35.5601 50.6099 35.6801 50.5299 35.8701 50.5299C35.9701 50.5299 36.0901 50.5099 36.1701 50.4499C36.3701 50.3299 36.5601 50.2899 36.7801 50.3199C37.0101 50.3399 37.2301 50.2899 37.4701 50.2099C37.7401 50.1199 37.9901 50.0299 38.2401 49.8899C38.4901 49.7399 38.7701 49.6199 39.0401 49.4899C39.2501 49.3799 39.4801 49.2999 39.6601 49.1599C39.9101 48.9499 40.1701 48.8699 40.4701 48.8199C40.7501 48.7799 41.0001 48.6599 41.2101 48.4599C41.9401 47.8299 42.7901 47.3599 43.5101 46.7099C43.6301 46.6099 43.8001 46.5199 43.9501 46.4699C44.1801 46.3899 44.3501 46.2399 44.5001 46.0399C44.8101 45.6099 45.2101 45.2999 45.6701 45.0499C45.7501 45.0099 45.8101 44.9599 45.8901 44.9099C46.0601 44.7999 46.1701 44.6499 46.2101 44.4499C46.2301 44.3099 46.2701 44.1199 46.3601 44.0599C46.7901 43.7799 46.9501 43.2699 47.2901 42.9099C47.4801 42.6999 47.6301 42.4599 47.6701 42.1799C47.7001 42.0099 47.7701 41.8599 47.9201 41.7599C48.1201 41.6299 48.2501 41.4499 48.3601 41.2299C48.4301 41.0799 48.5601 40.9499 48.6801 40.8399C49.1601 40.4399 49.4701 39.9299 49.5901 39.3099C49.6101 39.1999 49.6301 39.0999 49.6701 38.9999L49.9201 38.4099C50.0901 37.9199 50.2801 37.4299 50.4001 36.9399C50.4801 36.6299 50.4901 36.3199 50.6901 36.0499C50.7401 35.9799 50.7301 35.8399 50.7301 35.7399C50.7301 35.6299 50.7001 35.4999 50.7501 35.4299C50.9501 35.1099 51.0001 34.7499 51.1101 34.3999C51.2501 33.8199 51.3701 33.2199 51.4901 32.6299C51.6101 32.0099 51.5901 31.3799 51.6601 30.7599C51.6801 30.5199 51.7101 30.2899 51.6001 30.0699C51.5701 30.0099 51.5501 29.8899 51.5801 29.8299C51.7101 29.5599 51.5501 29.2199 51.7301 28.9599C51.7101 28.5999 51.7101 28.2499 51.8601 27.9099C51.9001 27.8099 51.8301 27.6499 51.8201 27.5199L51.7701 26.9399C51.7701 26.8499 51.7901 26.7399 51.7501 26.6799C51.5301 26.3199 51.6401 26.0199 51.7701 25.6999C51.7801 25.6699 51.7601 25.6199 51.7401 25.5499C51.6801 25.5199 51.6201 25.4599 51.5501 25.4399C51.4101 25.3899 51.3101 25.2999 51.2501 25.1499C51.0401 24.6799 51.0201 24.1299 50.7501 23.6899C50.8201 23.3299 50.5701 23.1299 50.3701 22.9199C50.1901 22.7199 49.9901 22.5199 49.7901 22.3499C49.7001 22.2699 49.5801 22.2099 49.4701 22.1999C49.2801 22.1799 49.0901 22.1999 48.9001 22.2299C48.6201 22.2799 48.3501 22.3599 48.0701 22.4099C47.7701 22.4599 47.5601 22.6199 47.3701 22.8599C46.7401 23.6699 46.8401 24.6699 47.2001 25.4899C47.2501 25.5999 47.3301 25.7099 47.3301 25.8299C47.3301 25.9899 47.3601 26.1099 47.4601 26.2199C47.5801 26.3699 47.6401 26.5399 47.5801 26.7299C47.4501 27.1599 47.5201 27.5199 47.7801 27.8899C47.8601 27.9999 47.8801 28.1599 47.9101 28.2999C48.0301 28.8799 48.0501 29.4799 48.2601 30.0599C48.2901 30.1599 48.2601 30.2799 48.2601 30.3799C48.2201 30.9099 48.1701 31.4399 48.1401 31.9699C48.0601 32.5099 48.0101 33.0599 47.8101 33.5699C47.7701 33.6899 47.7501 33.8199 47.7401 33.9399C47.7301 34.3699 47.6501 34.7999 47.5301 35.2199C47.4701 35.4499 47.4501 35.6899 47.3901 35.9099C47.3501 36.0699 47.3001 36.2299 47.2401 36.3799C47.0301 36.8299 46.7401 37.2299 46.5701 37.6999C46.5501 37.7699 46.5101 37.8399 46.4601 37.8899C46.1201 38.2099 46.0701 38.6699 45.9001 39.0599C45.7301 39.5099 45.4801 39.8999 45.1701 40.2599C44.9801 40.4499 44.8301 40.6799 44.6901 40.9199C44.6301 41.0199 44.6501 41.1699 44.6701 41.2999C44.6901 41.3999 44.7501 41.4999 44.8101 41.6099C44.3101 41.4899 44.3301 41.4999 44.0201 41.8199C43.6701 42.1699 43.2901 42.4899 43.0001 42.8999C42.9101 43.0399 42.7401 43.1099 42.6601 43.2499C42.5801 43.3799 42.5801 43.5499 42.5401 43.7099C42.3201 43.6799 42.1601 43.6899 42.0001 43.8299C41.6801 44.1399 41.2601 44.2899 40.9601 44.6299C40.8901 44.7099 40.7801 44.7499 40.6901 44.8199C40.3001 45.1499 39.8601 45.4199 39.4301 45.6899L38.6701 46.1799L37.8701 46.5999C37.8701 46.5999 37.8001 46.6299 37.7701 46.6399C37.3301 46.7499 36.9801 47.0099 36.6001 47.2199C36.4901 47.2899 36.4001 47.3399 36.2501 47.3399C36.0501 47.3399 35.9901 47.4199 35.9701 47.6099C35.9601 47.7799 35.9501 47.9399 35.9301 48.1199C35.7201 48.0699 35.7201 47.8799 35.6301 47.7699C35.5001 47.5999 35.3501 47.5299 35.1501 47.5699C35.0401 47.5999 34.9501 47.6499 34.8401 47.6799C34.4201 47.7899 34.0001 47.9999 33.5601 47.9999C33.1301 47.9699 32.7201 48.0099 32.3101 48.0199C31.8101 48.0399 31.8101 48.0399 31.4401 48.3799C31.2801 48.2799 31.1201 48.2399 30.9301 48.2999C30.7201 48.3699 30.5001 48.3999 30.2801 48.4099C29.5801 48.4099 28.9001 48.2399 28.2101 48.2399L26.7001 48.0599C26.2701 48.0199 25.8801 47.8699 25.5101 47.6899C25.4001 47.6299 25.2701 47.5899 25.1501 47.5799C24.8801 47.5599 24.5901 47.5799 24.3801 47.3599C24.3201 47.2999 24.2101 47.2999 24.1201 47.2699C23.9001 47.1899 23.6601 47.1399 23.4501 47.0399C22.9801 46.8399 22.5701 46.5399 22.1401 46.2699C21.9701 46.1599 21.8001 46.0099 21.6101 46.0099C21.2501 46.0099 21.0001 45.8199 20.7201 45.6499C20.4001 45.4399 20.0501 45.2899 19.7201 45.0899C19.4001 44.8799 19.0901 44.6599 18.7901 44.4099C18.6001 44.2499 18.3501 44.1499 18.1501 43.9799C17.9901 43.8599 17.8301 43.7299 17.7001 43.5799C17.1701 43.0399 16.6501 42.5099 16.1201 41.9699C15.9201 41.7799 15.7401 41.5799 15.6301 41.3199C15.4701 40.9899 15.3301 40.6499 14.9601 40.4699C14.8701 40.4199 14.7901 40.3199 14.7401 40.2299C14.5801 39.9299 14.3101 39.6799 14.2401 39.3199C14.2201 39.2199 14.1201 39.1399 14.0601 39.0499C13.9001 38.8199 13.7801 38.5799 13.6701 38.3299C13.5701 38.1199 13.4701 37.8999 13.3501 37.6899C13.2601 37.5299 13.1901 37.3599 13.1901 37.1799C13.1901 37.0399 13.2001 36.8499 13.1301 36.7599C12.9201 36.4899 12.8101 36.1999 12.7701 35.8599C12.7601 35.7399 12.6901 35.6199 12.6101 35.5099C12.3101 34.9799 12.3301 34.3399 12.0901 33.7899C12.1301 33.3199 11.9901 32.8899 11.8901 32.4399C11.7401 31.8899 11.7601 31.3199 11.7301 30.7599C11.6801 30.1299 11.6301 29.5199 11.6101 28.8999C11.6101 28.7399 11.5501 28.5699 11.5101 28.4099C11.4701 28.2599 11.4001 28.1099 11.3701 27.9599C11.8301 27.8499 11.8501 27.8499 11.9301 27.4499C11.9801 27.1999 12.0001 26.9399 12.0601 26.6899C12.1301 26.3799 12.2101 26.0899 12.2401 25.7799C12.2701 25.5299 12.2701 25.2499 12.3901 25.0299C12.5501 24.6899 12.6101 24.3399 12.7601 23.9999C12.8301 23.8399 12.8401 23.6499 12.8501 23.4599C12.8601 23.2999 12.8501 23.1299 12.8501 22.9899C13.0001 22.7899 13.2001 22.6599 13.3201 22.4799C13.4901 22.2399 13.6201 21.9799 13.7401 21.7099C13.9201 21.2399 14.2001 20.8199 14.4301 20.3699C14.6601 19.9199 14.9301 19.4899 15.2301 19.0799C15.3201 18.9499 15.4401 18.8199 15.5701 18.7199C15.9401 18.4099 16.2701 18.0799 16.5201 17.6699C16.6901 17.4099 16.8501 17.1499 17.0601 16.9399C17.2801 16.7299 17.5001 16.5299 17.7501 16.3399C18.1101 16.0599 18.4101 15.6899 18.8601 15.5499C18.8801 15.5499 18.8901 15.5299 18.9101 15.5199C19.2701 15.2399 19.6001 14.9199 19.9801 14.6599C20.1601 14.5299 20.3401 14.4199 20.5501 14.3399C21.0001 14.1699 21.4201 13.9599 21.7901 13.6499C21.8401 13.5999 21.9101 13.5599 21.9701 13.5299C22.3201 13.3799 22.6601 13.1899 23.0301 13.0699L24.1301 12.7099C24.7501 12.4899 25.4301 12.5599 26.0401 12.2799C26.2601 12.1799 26.4601 12.0499 26.6901 11.9899C26.9301 11.9299 27.2001 11.9199 27.4501 11.8799C27.5601 11.8599 27.6601 11.8099 27.7701 11.7999C28.1501 11.7299 28.5401 11.7699 28.9301 11.7599C29.5501 11.7599 30.1701 11.7499 30.7901 11.8099L31.7101 11.8999C31.8001 11.9099 31.8901 11.9199 31.9801 11.8999C32.3301 11.8099 32.6701 11.8799 33.0101 11.9599L34.4501 12.2899C34.9101 12.3799 35.3901 12.4199 35.7901 12.7299C35.9001 12.8199 36.0601 12.8399 36.2001 12.8799C36.6701 13.0299 37.1301 13.1899 37.5901 13.3699C37.6801 13.3999 37.7601 13.4399 37.8301 13.4999C38.2601 13.8599 38.7701 14.0399 39.2701 14.2699C39.5701 14.4099 39.8901 14.5299 40.1401 14.7399C40.5301 15.0499 41.0001 15.2399 41.3701 15.5699C41.4501 15.6399 41.6401 15.7399 41.7101 15.6799C41.9001 15.4899 42.2101 15.7199 42.4201 15.8999C42.6101 16.0599 42.8101 16.0699 43.0301 15.9899C43.3901 15.8599 43.7201 15.7199 44.0501 15.5099C44.3801 15.2999 44.5001 15.0199 44.5201 14.6499C44.5301 14.3799 44.4601 14.1399 44.1901 14.0099C44.0901 13.9599 44.0001 13.8999 43.9201 13.8199C43.8801 13.7799 43.8501 13.7399 43.8201 13.6899C43.7701 13.6199 43.7301 13.5499 43.6801 13.4799C43.5001 13.2199 43.3601 13.0999 43.1401 12.9699C42.6101 12.6999 42.1601 12.2599 41.5701 12.1099C41.4401 12.0699 41.3201 11.9499 41.2001 11.8699C40.9701 11.7199 40.7501 11.5399 40.5101 11.4099C39.9901 11.1099 39.4501 10.8499 38.9101 10.5999C38.6501 10.4899 38.4101 10.3699 38.2001 10.1799C38.1001 10.0899 37.9401 10.0299 37.8001 9.98988C37.3001 9.85988 36.8001 9.78988 36.3001 9.69988C36.2001 9.68988 36.1001 9.62988 36.0001 9.60988C35.5701 9.47988 35.1401 9.35988 34.7001 9.28988C34.3601 9.24988 34.0401 9.17988 33.7101 9.05988C33.4901 8.98988 33.2601 8.90988 33.0301 8.89988C32.4801 8.89988 31.9301 8.68988 31.3801 8.80988C31.2801 8.82988 31.1701 8.80988 31.0701 8.76988C30.3501 8.54988 29.5901 8.61988 28.8501 8.68988C27.8701 8.71988 26.9301 9.04988 25.9301 9.00988C25.8001 9.00988 25.6701 9.02988 25.5501 9.07988C25.0301 9.27988 24.5101 9.47988 24.0101 9.69988C23.7901 9.78988 23.5901 9.84988 23.3501 9.86988C22.6801 9.94988 22.0301 10.1899 21.4201 10.4999C21.3501 10.5399 21.2801 10.5999 21.2301 10.6699C21.0801 10.8899 20.8801 10.9499 20.6301 10.9799C20.3801 11.0099 20.1301 11.0799 19.9101 11.2199C19.2201 11.7399 18.4701 12.1099 17.6701 12.4199C17.6101 12.4399 17.5401 12.4599 17.5001 12.5099C17.1001 12.9799 16.5301 13.2099 16.0901 13.6199C15.7401 13.9399 15.4701 14.3299 15.2101 14.7199C15.1501 14.8199 15.0401 14.9399 14.9501 14.9699C14.6101 15.0899 14.4001 15.3599 14.2201 15.6499C14.0201 15.9899 13.7501 16.2399 13.4401 16.4899C13.2001 16.6899 12.9601 16.9099 12.9001 17.2599C12.8801 17.3499 12.7901 17.4399 12.7401 17.5299C12.5401 17.8999 12.1901 18.1199 11.9201 18.3899C11.9001 18.4699 11.8801 18.5299 11.8701 18.5899C11.7901 19.1299 11.5801 19.5899 11.1901 19.9999C11.0901 20.1099 11.0001 20.2399 10.9501 20.3699C10.8201 20.7099 10.7201 21.0499 10.5401 21.3699C10.4701 21.4899 10.4801 21.6499 10.4801 21.7999C10.4801 21.9199 10.5101 22.0399 10.5401 22.1999C10.2501 22.2299 10.1201 22.4099 10.0201 22.6799C9.8901 23.0199 9.83011 23.3799 9.72011 23.7199C9.65011 23.9899 9.5801 24.2499 9.6401 24.5099C9.5301 24.6099 9.40011 24.6699 9.36011 24.7699C9.23011 25.0999 9.22011 25.4799 8.98011 25.7699C8.96011 25.7899 8.98011 25.8499 8.98011 25.8999C8.96011 26.5399 9.03011 27.1699 8.80011 27.7899C8.75011 27.9299 8.7901 28.0899 8.7801 28.2399C8.7801 28.9799 8.6701 29.7299 8.7401 30.5299C8.8301 30.5999 8.96011 30.7199 9.11011 30.8499C9.02011 30.9499 8.9501 31.0399 8.8901 31.0999C8.8901 31.3799 8.8901 31.6299 8.8901 31.8699C8.8701 32.2799 8.9801 32.6699 8.8901 33.0699C9.0201 33.7399 9.0701 34.4299 9.1801 35.0999C9.1901 35.1999 9.2201 35.3199 9.2701 35.4099C9.4901 35.7699 9.5101 36.1799 9.6401 36.5699C9.7001 36.7499 9.77011 36.9399 9.86011 37.0999C9.97011 37.2899 10.0501 37.4599 10.0301 37.6899C10.0201 37.8199 10.1001 37.9799 10.1701 38.0999C10.2401 38.2299 10.3401 38.3399 10.4501 38.4399C10.6401 38.6299 10.7701 38.8199 10.7701 39.0999C10.7701 39.5399 10.9601 39.9299 11.2701 40.2399C11.4501 40.4099 11.5701 40.5999 11.6701 40.8099L11.9101 41.3299C12.1201 41.7899 12.4301 42.1199 12.9601 42.0299C12.9701 42.0299 12.9901 42.0499 13.0201 42.0799C12.9601 42.2099 12.9101 42.3399 12.8601 42.4499C13.0301 42.6399 13.2401 42.7699 13.2901 42.9499C13.4201 43.4299 13.7401 43.8199 13.9701 44.2399C14.1701 44.5999 14.4001 44.9099 14.7801 45.0999C15.0101 45.2099 15.2301 45.4199 15.4501 45.5999C15.5501 45.6799 15.6401 45.7899 15.7501 45.8399C16.2401 46.0399 16.4201 46.6099 16.9201 46.7999C16.9801 46.8199 17.0101 46.9299 17.0501 47.0099C17.2701 47.4399 17.5901 47.7499 18.0801 47.9099C19.0801 48.1799 19.8601 48.7799 20.7201 49.3099C20.9101 49.4399 21.1201 49.5599 21.3201 49.6799C21.5401 49.8199 21.7801 49.9299 21.9901 50.0599C22.2201 50.2099 22.4601 50.3099 22.7101 50.2999C23.2801 50.2799 23.7701 50.6199 24.3301 50.6399C24.5601 50.7899 24.8201 50.7799 25.0701 50.7099C25.6601 51.1399 26.2801 51.2799 26.9401 51.1899L26.9201 51.2599ZM17.2101 46.2899C17.2101 46.2899 17.1201 46.3299 17.0701 46.3499C17.0701 46.3099 17.0601 46.2499 17.0801 46.2199C17.1101 46.1899 17.1701 46.1899 17.2301 46.1699C17.2301 46.2199 17.2301 46.2699 17.2101 46.2799V46.2899ZM13.7401 17.2299C13.7401 17.2299 13.7701 17.1499 13.7901 17.1499C13.8201 17.1499 13.8601 17.1699 13.8801 17.1999C13.8901 17.2199 13.8801 17.2699 13.8701 17.3299C13.8201 17.2999 13.7801 17.2699 13.7401 17.2399V17.2299ZM36.4701 10.4599C36.4701 10.4599 36.4701 10.3899 36.4901 10.3599C36.4901 10.3599 36.5301 10.3599 36.5401 10.3599V10.4599H36.4701ZM33.6601 48.6099C33.6601 48.6099 33.6701 48.5899 33.6801 48.5799C33.6801 48.5999 33.6901 48.6099 33.7001 48.6399C33.6801 48.6299 33.6601 48.6199 33.6601 48.6099Z" fill="#001B38"></path>
</svg>
