<?xml version="1.0" encoding="UTF-8"?>
<svg xmlns="http://www.w3.org/2000/svg" width="232" height="72" viewBox="0 0 232 72" fill="none">
  <path fill-rule="evenodd" clip-rule="evenodd" d="M117.7 36.118C117.7 36.4383 117.966 36.6918 118.285 36.6918H122.995C123.394 36.6918 123.753 36.5984 124.085 36.4249C124.418 36.2381 124.711 35.9846 124.964 35.6644C125.221 35.327 125.419 34.9479 125.549 34.5435C125.843 33.6305 125.829 32.6457 125.509 31.7415C125.354 31.3361 125.128 30.9612 124.844 30.634C124.585 30.3298 124.268 30.0804 123.913 29.9001C123.574 29.7285 123.201 29.6372 122.822 29.6332H118.165C118.105 29.6315 118.044 29.6419 117.988 29.6639C117.932 29.6859 117.88 29.719 117.837 29.7613C117.793 29.8036 117.759 29.8542 117.735 29.9102C117.712 29.9661 117.7 30.0262 117.7 30.0869V36.118ZM113.469 47.2596V26.3775C113.469 26.124 113.682 25.9238 113.935 25.9238H123.101C124.099 25.9238 125.017 26.124 125.868 26.551C127.545 27.3663 128.842 28.8008 129.487 30.5539C129.906 31.602 130.077 32.7338 129.984 33.8593C129.892 34.9849 129.539 36.0735 128.955 37.0387C128.373 38.0055 127.535 38.7909 126.533 39.3071C126.477 39.336 126.427 39.3766 126.387 39.4263C126.347 39.4759 126.317 39.5335 126.301 39.5952C126.285 39.6569 126.282 39.7214 126.292 39.7844C126.302 39.8474 126.325 39.9076 126.36 39.9609L130.631 47.0328C130.674 47.1016 130.697 47.1807 130.699 47.2618C130.701 47.3429 130.682 47.4231 130.642 47.4939C130.603 47.5648 130.545 47.6238 130.475 47.6647C130.406 47.7056 130.326 47.727 130.245 47.7266H126.72C126.594 47.7286 126.471 47.6975 126.361 47.6367C126.251 47.5758 126.159 47.4872 126.094 47.3797L122.103 40.7882C122.033 40.6743 121.935 40.5803 121.819 40.5149C121.702 40.4496 121.571 40.415 121.438 40.4146H118.152C118.032 40.4146 117.917 40.4624 117.832 40.5474C117.747 40.6325 117.7 40.7479 117.7 40.8682V47.273C117.7 47.5132 117.5 47.7266 117.247 47.7266H113.921C113.861 47.7267 113.801 47.7145 113.745 47.6909C113.689 47.6673 113.639 47.6326 113.597 47.5891C113.554 47.5455 113.521 47.4939 113.499 47.4373C113.478 47.3808 113.467 47.3203 113.469 47.2596ZM148.95 38.8534L146.489 31.8215C146.46 31.746 146.409 31.6811 146.343 31.6353C146.276 31.5895 146.197 31.5649 146.117 31.5649C146.036 31.5649 145.957 31.5895 145.891 31.6353C145.824 31.6811 145.773 31.746 145.744 31.8215L143.177 38.8667C143.158 38.9224 143.152 38.9818 143.161 39.04C143.169 39.0982 143.191 39.1536 143.224 39.2017C143.258 39.2498 143.303 39.2893 143.355 39.3168C143.406 39.3444 143.464 39.3594 143.522 39.3604H148.591C148.857 39.3604 149.03 39.0936 148.95 38.8534ZM144.653 25.9639H147.58C147.82 25.9639 148.046 26.124 148.126 26.3508L155.948 46.9661C155.983 47.054 155.995 47.149 155.985 47.2429C155.975 47.3368 155.942 47.4268 155.89 47.5054C155.838 47.584 155.768 47.6487 155.685 47.6942C155.602 47.7397 155.51 47.7646 155.416 47.7667H152.316C152.197 47.7657 152.081 47.7281 151.983 47.6589C151.886 47.5897 151.812 47.4923 151.771 47.3797L150.041 42.7096C149.998 42.5973 149.921 42.5013 149.821 42.4344C149.721 42.3676 149.603 42.3332 149.483 42.336H142.698C142.578 42.337 142.462 42.3746 142.364 42.4437C142.267 42.5129 142.193 42.6103 142.152 42.7229L140.436 47.3931C140.393 47.5032 140.318 47.5977 140.221 47.6644C140.123 47.7311 140.008 47.7667 139.89 47.7667H136.804C136.709 47.7667 136.615 47.7434 136.531 47.6988C136.446 47.6542 136.374 47.5897 136.32 47.5108C136.267 47.4319 136.233 47.3411 136.222 47.2461C136.211 47.1512 136.224 47.0551 136.259 46.9661L144.108 26.3508C144.149 26.2382 144.223 26.1408 144.32 26.0716C144.418 26.0025 144.534 25.9648 144.653 25.9639ZM166.033 34.9839V47.2063C166.029 47.3561 165.967 47.4986 165.86 47.6034C165.754 47.7081 165.61 47.7667 165.461 47.7667H162.374C162.225 47.7667 162.081 47.7081 161.974 47.6034C161.867 47.4986 161.805 47.3561 161.802 47.2063V26.5243C161.802 26.2174 162.068 25.9639 162.374 25.9639H164.676C164.942 25.9639 165.181 26.0973 165.341 26.2841L175.718 39.4005C175.957 39.694 176.423 39.5339 176.423 39.1603V26.5643C176.423 26.2574 176.676 26.0039 176.982 26.0039H180.068C180.388 26.0039 180.64 26.2574 180.64 26.5643V47.2063C180.637 47.3561 180.575 47.4986 180.468 47.6034C180.361 47.7081 180.218 47.7667 180.068 47.7667H177.594C177.473 47.7652 177.355 47.737 177.247 47.6839C177.138 47.6308 177.043 47.5543 176.968 47.4598L166.764 34.717C166.71 34.6506 166.637 34.6027 166.554 34.58C166.472 34.5572 166.384 34.5607 166.304 34.59C166.224 34.6194 166.154 34.673 166.106 34.7436C166.057 34.8141 166.032 34.8981 166.033 34.9839Z" fill="#001B38"></path>
  <path fill-rule="evenodd" clip-rule="evenodd" d="M186.921 36.7208C186.921 35.3864 187.16 34.0655 187.639 32.7712C188.112 31.4865 188.826 30.3044 189.741 29.2886C190.687 28.2413 191.831 27.3932 193.107 26.7934C194.438 26.1663 195.941 25.8594 197.631 25.8594C199.639 25.8594 201.369 26.2864 202.832 27.167C204.163 27.9676 205.187 28.995 205.906 30.2493C205.962 30.3458 205.979 30.4602 205.955 30.5692C205.93 30.6782 205.865 30.7738 205.773 30.8364L203.258 32.571C203.207 32.6041 203.15 32.6263 203.09 32.6362C203.03 32.646 202.969 32.6433 202.91 32.6283C202.852 32.6132 202.797 32.5862 202.749 32.5488C202.701 32.5113 202.662 32.4644 202.633 32.4109C202.139 31.5138 201.394 30.781 200.491 30.3027C200.029 30.0609 199.537 29.8814 199.027 29.7689C198.534 29.6567 198.03 29.5985 197.524 29.5955C196.607 29.5709 195.697 29.7693 194.872 30.1735C194.047 30.5778 193.332 31.176 192.788 31.9172C192.257 32.618 191.856 33.409 191.604 34.2523C191.343 35.0903 191.208 35.9629 191.205 36.8408C191.205 37.8016 191.364 38.7222 191.67 39.6162C191.958 40.4724 192.4 41.2683 192.974 41.9646C193.533 42.6318 194.211 43.1922 194.996 43.5925C195.781 43.9928 196.646 44.2063 197.577 44.2063C198.07 44.2063 198.575 44.1529 199.107 44.0195C200.195 43.7754 201.189 43.219 201.968 42.4183C202.274 42.0981 202.54 41.7245 202.753 41.3108C202.78 41.2581 202.818 41.2115 202.865 41.174C202.911 41.1365 202.964 41.1088 203.021 41.0925C203.079 41.0763 203.139 41.0719 203.198 41.0796C203.257 41.0873 203.313 41.107 203.365 41.1374L206.052 42.6852C206.148 42.7412 206.219 42.8316 206.251 42.938C206.283 43.0444 206.274 43.1591 206.225 43.2589C205.892 43.9261 205.453 44.5265 204.921 45.0603C204.271 45.6856 203.537 46.2157 202.739 46.6348C201.923 47.0708 201.056 47.4025 200.158 47.6222C199.275 47.8417 198.368 47.9537 197.458 47.9557C195.98 47.9725 194.52 47.6339 193.2 46.9684C191.939 46.3348 190.81 45.4652 189.874 44.4065C188.943 43.3446 188.209 42.1246 187.706 40.8038C187.192 39.504 186.926 38.119 186.921 36.7208Z" fill="#001B38"></path>
  <path fill-rule="evenodd" clip-rule="evenodd" d="M231.063 26.3938V47.3426C231.063 47.5828 230.877 47.7696 230.664 47.7696H227.284C227.176 47.7663 227.073 47.7216 226.997 47.6448C226.92 47.5679 226.875 47.4646 226.872 47.356V38.883C226.872 38.7733 226.829 38.6681 226.751 38.5905C226.674 38.513 226.569 38.4694 226.46 38.4694H217.426C217.317 38.4694 217.212 38.513 217.135 38.5905C217.057 38.6681 217.014 38.7733 217.014 38.883V47.356C217.014 47.5828 216.828 47.7696 216.588 47.7696H213.196C213.087 47.7663 212.984 47.7216 212.908 47.6448C212.831 47.5679 212.787 47.4646 212.783 47.356V26.3938C212.783 26.1536 212.969 25.9668 213.196 25.9668H216.588C216.828 25.9668 217.014 26.1536 217.014 26.3938V34.3597C217.014 34.5999 217.2 34.7867 217.426 34.7867H226.46C226.686 34.7867 226.872 34.5999 226.872 34.3597V26.3938C226.872 26.1536 227.058 25.9668 227.284 25.9668H230.65C230.877 25.9668 231.063 26.1536 231.063 26.3938Z" fill="#001B38"></path>
  <path fill-rule="evenodd" clip-rule="evenodd" d="M102.014 42.4037C101.881 42.7506 101.681 43.0709 101.442 43.311C101.194 43.5698 100.895 43.7743 100.564 43.9115C100.219 44.0589 99.8475 44.1316 99.473 44.125H93.6325C93.5161 44.125 93.4044 44.0786 93.3221 43.996C93.2398 43.9134 93.1935 43.8014 93.1935 43.6847V38.8277C93.1935 38.5875 93.3931 38.4007 93.6325 38.4007H99.6991C100.058 38.4007 100.404 38.4808 100.697 38.6276C101.016 38.7877 101.269 38.9878 101.495 39.2547C101.856 39.687 102.095 40.2078 102.188 40.7636C102.282 41.3193 102.226 41.89 102.027 42.417M93.6059 29.5542H98.9009C99.5395 29.5542 100.178 29.7677 100.63 30.208C101.149 30.7017 101.415 31.4089 101.415 32.2895C101.415 33.1435 101.149 33.824 100.657 34.3177C100.418 34.5571 100.134 34.7455 99.8205 34.8716C99.5073 34.9977 99.1718 35.0589 98.8344 35.0516H93.6193C93.5134 35.0516 93.4119 35.0094 93.337 34.9343C93.2622 34.8593 93.2201 34.7575 93.2201 34.6513V29.9545C93.2201 29.8483 93.2622 29.7465 93.337 29.6714C93.4119 29.5964 93.5134 29.5542 93.6193 29.5542M105.42 38.5342C104.711 37.6172 103.734 36.9454 102.626 36.6127C102.608 36.6127 102.591 36.6057 102.579 36.5932C102.566 36.5807 102.559 36.5637 102.559 36.546C102.559 36.5283 102.566 36.5114 102.579 36.4989C102.591 36.4863 102.608 36.4793 102.626 36.4793C103.539 36.0551 104.297 35.3553 104.795 34.4778C105.224 33.7254 105.486 32.8883 105.562 32.0244C105.638 31.1604 105.526 30.2903 105.234 29.4741C105.007 28.8285 104.669 28.2279 104.236 27.6995C103.807 27.1734 103.277 26.738 102.679 26.4185C102.047 26.0906 101.342 25.9255 100.63 25.9382H89.362C89.2561 25.9382 89.1546 25.9803 89.0798 26.0554C89.0049 26.1305 88.9629 26.2323 88.9629 26.3385V47.2873C88.9629 47.5408 89.1624 47.741 89.4019 47.741H99.473C100.386 47.7444 101.295 47.6187 102.174 47.3674C102.975 47.1452 103.732 46.784 104.409 46.2999C105.061 45.8196 105.566 45.2325 105.925 44.5386C106.298 43.8448 106.484 43.0308 106.484 42.1102C106.484 40.6824 106.112 39.4949 105.393 38.5342" fill="#001B38"></path>
  <path fill-rule="evenodd" clip-rule="evenodd" d="M48.2652 35.8009L38.1941 45.8884C37.9281 46.1553 37.4624 45.9551 37.4624 45.5682V42.7394C37.4624 42.2857 37.6487 41.8321 37.968 41.5118L50.8727 28.5422C50.9472 28.4678 51.0062 28.3795 51.0465 28.2821C51.0868 28.1848 51.1075 28.0805 51.1075 27.9751C51.1075 27.8698 51.0868 27.7654 51.0465 27.6681C51.0062 27.5708 50.9472 27.4824 50.8727 27.408L49.3827 25.8736C49.3097 25.7993 49.2227 25.7404 49.1268 25.7002C49.0308 25.6599 48.9279 25.6392 48.8239 25.6392C48.72 25.6392 48.617 25.6599 48.5211 25.7002C48.4252 25.7404 48.3382 25.7993 48.2652 25.8736L38.3538 35.8009C38.278 35.8704 38.1839 35.9165 38.0826 35.9335C37.9814 35.9506 37.8774 35.9379 37.7832 35.897C37.6889 35.8561 37.6085 35.7887 37.5516 35.703C37.4947 35.6173 37.4637 35.5169 37.4624 35.414V15.0389C37.4624 14.8265 37.3783 14.6229 37.2286 14.4728C37.0789 14.3226 36.8759 14.2383 36.6642 14.2383H34.5356C34.3285 14.2452 34.1322 14.3326 33.9883 14.482C33.8443 14.6314 33.7638 14.8311 33.7639 15.0389V24.7261C33.7639 25.1263 33.3116 25.2998 33.0455 25.0329L27.3648 19.2687C27.2927 19.1928 27.206 19.1324 27.11 19.0911C27.0139 19.0498 26.9105 19.0285 26.806 19.0285C26.7015 19.0285 26.5981 19.0498 26.502 19.0911C26.406 19.1324 26.3193 19.1928 26.2472 19.2687L24.7439 20.8031C24.6695 20.8775 24.6104 20.9659 24.5702 21.0632C24.5299 21.1605 24.5091 21.2649 24.5091 21.3702C24.5091 21.4756 24.5299 21.5799 24.5702 21.6772C24.6104 21.7746 24.6695 21.8629 24.7439 21.9373L33.0322 30.3702C33.4846 30.8372 33.7506 31.4777 33.7506 32.1315V40.1908C33.7506 40.6178 33.2185 40.8447 32.9258 40.5378L19.8215 27.1945C19.7494 27.1187 19.6627 27.0582 19.5667 27.0169C19.4706 26.9757 19.3672 26.9544 19.2627 26.9544C19.1582 26.9544 19.0548 26.9757 18.9587 27.0169C18.8627 27.0582 18.776 27.1187 18.7039 27.1945L17.2006 28.729C17.1262 28.8034 17.0671 28.8918 17.0268 28.9891C16.9866 29.0864 16.9658 29.1907 16.9658 29.2961C16.9658 29.4015 16.9866 29.5058 17.0268 29.6031C17.0671 29.7004 17.1262 29.7888 17.2006 29.8632L33.0455 45.9951C33.4979 46.4488 33.7506 47.0626 33.7506 47.7031V58.0574C33.7506 58.4977 34.0965 58.858 34.5356 58.858H36.6775C36.8869 58.8545 37.0865 58.7686 37.2334 58.6188C37.3802 58.4691 37.4625 58.2674 37.4624 58.0574V52.8669C37.4624 52.2798 37.6886 51.7194 38.101 51.2924L50.8727 38.4696C50.9472 38.3952 51.0062 38.3068 51.0465 38.2095C51.0868 38.1122 51.1075 38.0078 51.1075 37.9025C51.1075 37.7971 51.0868 37.6928 51.0465 37.5955C51.0062 37.4982 50.9472 37.4098 50.8727 37.3354L49.3827 35.8009C49.3097 35.7267 49.2227 35.6677 49.1268 35.6275C49.0308 35.5873 48.9279 35.5666 48.8239 35.5666C48.72 35.5666 48.617 35.5873 48.5211 35.6275C48.4252 35.6677 48.3382 35.7267 48.2652 35.8009Z" fill="#001B38"></path>
  <path fill-rule="evenodd" clip-rule="evenodd" d="M35.3617 3.46924C17.7474 3.46924 3.4191 18.0534 3.4191 35.9733C3.4191 53.9066 17.7607 68.5041 35.375 68.5041C52.9894 68.5041 67.3443 53.9066 67.3443 35.9733C67.3443 18.04 52.9894 3.46924 35.3617 3.46924ZM35.3617 72C15.8582 71.9867 0 55.828 0 35.9733C0 16.1453 15.8715 0 35.3617 0C54.8653 0 70.7368 16.1453 70.7368 35.9867C70.7368 55.8414 54.8653 71.9867 35.3617 71.9867" fill="#001B38"></path>
</svg>
