<?xml version="1.0" encoding="UTF-8"?>
<svg xmlns="http://www.w3.org/2000/svg" width="290" height="64" viewBox="0 0 290 64" fill="none">
  <path fill-rule="evenodd" clip-rule="evenodd" d="M29.7252 0.0663184C29.2384 0.0969006 28.5215 0.157782 28.1321 0.201531C27.7427 0.245281 27.0258 0.346514 26.539 0.426438C26.0522 0.506433 25.2397 0.664866 24.7335 0.778558C24.2273 0.89225 23.3678 1.11418 22.8237 1.2717C22.2796 1.42921 21.4401 1.70091 20.9583 1.87555C20.4766 2.0502 19.7428 2.33754 19.3279 2.51417C18.9131 2.69072 18.1329 3.05573 17.5943 3.32516C17.0557 3.5946 16.2751 4.01078 15.8596 4.24999C15.4441 4.4892 14.75 4.91728 14.3171 5.20129C13.8842 5.48524 13.2132 5.95332 12.8261 6.24144C12.4389 6.5295 11.7257 7.09562 11.2412 7.49949C10.7568 7.90329 9.88162 8.71237 9.2965 9.2974C8.71138 9.88243 7.9142 10.7433 7.52492 11.2106C7.13571 11.6778 6.62359 12.3149 6.38703 12.6264C6.1504 12.9379 5.68706 13.5932 5.35726 14.0827C5.02753 14.5723 4.53898 15.3527 4.27162 15.8171C4.00434 16.2815 3.57081 17.0916 3.30827 17.6172C3.0458 18.1429 2.65234 18.9945 2.43405 19.5097C2.21576 20.0249 1.84787 21.0176 1.61662 21.7157C1.38531 22.4139 1.06839 23.5055 0.912266 24.1417C0.756144 24.7777 0.550246 25.7601 0.454661 26.3247C0.359005 26.8892 0.247843 27.6379 0.207485 27.9883C0.167198 28.3387 0.0968896 29.1829 0.0513627 29.8643C0.00130444 30.6118 -0.0137768 31.6928 0.0132703 32.5898C0.03791 33.4074 0.104678 34.5274 0.161604 35.0784C0.218531 35.6295 0.33125 36.4737 0.412108 36.9544C0.492966 37.4351 0.640167 38.1947 0.739151 38.6425C0.838205 39.0903 1.0104 39.7911 1.12185 40.1999C1.23336 40.6088 1.43402 41.2777 1.56777 41.6866C1.70152 42.0954 2.01036 42.9367 2.254 43.5562C2.49763 44.1756 2.97804 45.2428 3.32158 45.9277C3.66512 46.6126 4.15671 47.5234 4.41408 47.9517C4.67138 48.38 5.13862 49.1098 5.45242 49.5735C5.76615 50.0373 6.29704 50.77 6.63222 51.2017C6.96734 51.6336 7.47805 52.2576 7.76714 52.5885C8.05616 52.9195 8.63045 53.5353 9.04331 53.957C9.45609 54.3787 10.1762 55.0666 10.6435 55.4857C11.1108 55.9047 11.8755 56.5436 12.3428 56.9054C12.8101 57.2673 13.6385 57.8573 14.1837 58.2167C14.7289 58.576 15.5095 59.0615 15.9184 59.2956C16.3273 59.5296 17.1406 59.9606 17.7258 60.2533C18.311 60.546 19.3147 60.9928 19.9562 61.2461C20.5976 61.4994 21.4819 61.8218 21.9212 61.9626C22.3605 62.1034 23.1252 62.3274 23.6205 62.4603C24.1158 62.5932 24.9194 62.7821 25.4061 62.8799C25.8929 62.9777 26.7372 63.1216 27.2824 63.1998C27.8276 63.2779 28.7982 63.3797 29.4393 63.426C30.1828 63.4798 31.2983 63.4946 32.5193 63.467C33.5722 63.4432 34.816 63.3773 35.2833 63.3206C35.7506 63.2638 36.5312 63.1521 37.018 63.0724C37.5047 62.9928 38.2002 62.8623 38.5633 62.7825C38.9265 62.7028 39.5726 62.5426 39.9991 62.4267C40.4256 62.3107 41.1321 62.1012 41.5691 61.9612C42.0061 61.8212 42.8885 61.4994 43.53 61.2461C44.1715 60.9928 45.1751 60.546 45.7603 60.2533C46.3455 59.9606 47.1588 59.5296 47.5677 59.2956C47.9766 59.0615 48.7572 58.5755 49.3024 58.2156C49.8476 57.8556 50.676 57.2656 51.1433 56.9044C51.6106 56.5432 52.3912 55.8887 52.878 55.4498C53.3648 55.0111 54.0852 54.3232 54.479 53.9211C54.8728 53.5192 55.4584 52.888 55.7803 52.5185C56.1022 52.1491 56.6894 51.4164 57.0851 50.8903C57.4808 50.3643 58.0134 49.6153 58.2686 49.2259C58.5237 48.8366 58.8862 48.2631 59.0741 47.9517C59.262 47.6402 59.6637 46.9075 59.9668 46.3234C60.2697 45.7394 60.682 44.8793 60.8828 44.4121C61.0837 43.9448 61.4022 43.1325 61.5905 42.6069C61.7789 42.0812 62.0119 41.3963 62.1083 41.0848C62.2047 40.7733 62.3629 40.2159 62.46 39.846C62.557 39.4761 62.7028 38.8708 62.7839 38.5009C62.865 38.131 63.0101 37.3346 63.1064 36.7311C63.2026 36.1276 63.3216 35.2197 63.3706 34.7135C63.4198 34.2074 63.4594 32.8694 63.4589 31.7403C63.4582 30.6111 63.4177 29.2732 63.3686 28.767C63.3196 28.2608 63.1871 27.2843 63.0743 26.5969C62.9615 25.9095 62.7425 24.8264 62.5879 24.19C62.4332 23.5536 62.1137 22.4509 61.8779 21.7396C61.642 21.0284 61.27 20.0249 61.0511 19.5097C60.8323 18.9945 60.4523 18.171 60.2068 17.6799C59.9612 17.1887 59.5455 16.4083 59.283 15.9455C59.0205 15.4827 58.5286 14.69 58.19 14.1838C57.8514 13.6777 57.3435 12.9609 57.0612 12.591C56.7789 12.2211 56.2087 11.5203 55.794 11.0336C55.3793 10.5469 54.6565 9.7664 54.188 9.29917C53.7193 8.83194 52.97 8.13485 52.5228 7.75009C52.0756 7.36534 51.3386 6.76948 50.885 6.426C50.4313 6.08244 49.6507 5.53267 49.1503 5.20427C48.6498 4.87579 47.8932 4.40828 47.469 4.16525C47.0446 3.92222 46.1525 3.46016 45.4865 3.13834C44.8203 2.81659 43.8293 2.37818 43.2841 2.16417C42.7389 1.95017 41.8786 1.64562 41.3724 1.4874C40.8661 1.32918 40.0059 1.08771 39.4607 0.950866C38.9155 0.813954 38.0305 0.621683 37.494 0.523494C36.9576 0.425376 36.1292 0.297809 35.6531 0.240184C35.1771 0.182488 34.2619 0.102776 33.6194 0.0629912C32.9768 0.023206 32.0369 -0.00482764 31.5307 0.000694146C31.0244 0.00621593 30.2119 0.035807 29.7252 0.0663184ZM34.8938 13.6913C35.6532 13.7483 36.6728 13.8622 37.1596 13.9445C37.6463 14.0268 38.3152 14.1735 38.646 14.2704C38.9767 14.3673 39.3977 14.5229 39.5817 14.6161C39.7656 14.7093 40.0288 14.8981 40.1664 15.0357C40.3899 15.2592 40.4165 15.3258 40.4165 15.662C40.4165 15.9991 40.3897 16.0657 40.1576 16.3047C40.0152 16.4513 39.7 16.6604 39.4572 16.7693C39.2144 16.8782 38.7697 17.0348 38.469 17.1173C38.1683 17.1998 37.3922 17.3471 36.7444 17.4446C36.0965 17.5421 35.0089 17.6518 34.3274 17.6882C33.6459 17.7248 32.467 17.7544 31.7077 17.7542C30.9483 17.7539 29.8172 17.7245 29.1941 17.6888C28.5711 17.6531 27.5993 17.5581 27.0346 17.4777C26.47 17.3973 25.6814 17.2507 25.2821 17.1519C24.8829 17.053 24.3872 16.8975 24.1807 16.8061C23.9741 16.7148 23.7021 16.5534 23.5764 16.4477C23.4506 16.3419 23.3011 16.1652 23.2441 16.0549C23.1871 15.9446 23.1406 15.7493 23.1409 15.6209C23.1411 15.4924 23.1976 15.3021 23.2663 15.1978C23.3351 15.0936 23.4703 14.9467 23.5668 14.8713C23.6633 14.7959 23.8697 14.6696 24.0255 14.5906C24.1812 14.5117 24.5795 14.3668 24.9105 14.2687C25.2415 14.1706 25.9106 14.0243 26.3974 13.9436C26.8842 13.8629 27.5214 13.7795 27.8135 13.7584C28.1055 13.7372 28.5038 13.7005 28.6985 13.6769C28.8932 13.6532 29.6738 13.6131 30.4332 13.5878C31.1926 13.5624 32.1962 13.552 32.6635 13.5647C33.1308 13.5773 34.1345 13.6343 34.8938 13.6913ZM30.504 14.6869C30.2898 14.7016 29.5798 14.7461 28.9261 14.7856C28.2726 14.8252 27.2689 14.9357 26.6958 15.0311C26.1228 15.1266 25.4434 15.2662 25.1861 15.3412C24.9288 15.4163 24.6441 15.5174 24.5535 15.5659L24.3888 15.654L24.632 15.7778C24.7657 15.8458 25.1958 15.9839 25.5877 16.0847C25.9797 16.1854 26.5851 16.3012 26.933 16.342C27.281 16.3828 27.7568 16.4497 27.9905 16.4907C28.2241 16.5317 29.6904 16.5822 31.2489 16.6029C33.6044 16.634 34.2495 16.6207 35.0723 16.524C35.6167 16.46 36.3311 16.3762 36.6598 16.3376C36.9886 16.2991 37.578 16.1852 37.9697 16.0846C38.3614 15.9839 38.7694 15.8567 38.8766 15.8018C38.9837 15.7471 39.0713 15.6732 39.0713 15.6378C39.0713 15.6023 38.8084 15.4909 38.4871 15.3903C38.1658 15.2897 37.4251 15.1271 36.841 15.0292C36.2568 14.9311 35.3169 14.8219 34.7522 14.7864C34.1876 14.7509 33.0884 14.708 32.3095 14.691C31.5307 14.674 30.7182 14.6721 30.504 14.6869ZM92.6698 17.7667C92.2998 17.7992 91.6785 17.8943 91.2891 17.9778C90.8997 18.0614 90.3102 18.2175 89.9792 18.3247C89.6482 18.432 89.0906 18.6444 88.7402 18.7967C88.3897 18.949 87.7988 19.2528 87.4272 19.4719C87.0555 19.6909 86.4979 20.058 86.1881 20.2877C85.8783 20.5174 85.3307 20.9851 84.9713 21.3272C84.6118 21.6692 84.0808 22.2407 83.7913 22.5971C83.5018 22.9536 83.0841 23.5319 82.863 23.8823C82.642 24.2328 82.2909 24.8699 82.0829 25.2982C81.8749 25.7265 81.5602 26.5107 81.3835 27.0409C81.2068 27.5711 80.9757 28.4472 80.8701 28.9877C80.6927 29.8954 80.6777 30.1084 80.6748 31.7757C80.6722 33.2313 80.6968 33.7179 80.8013 34.2888C80.8727 34.6781 81.0067 35.289 81.0992 35.6463C81.1915 36.0036 81.3511 36.5451 81.4536 36.8498C81.5561 37.1544 81.8402 37.8188 82.0847 38.3263C82.3293 38.8339 82.7531 39.5825 83.0266 39.99C83.3 40.3974 83.7904 41.0329 84.1163 41.4021C84.4422 41.7713 84.9787 42.3063 85.3084 42.591C85.6382 42.8757 86.2175 43.317 86.5957 43.5718C86.974 43.8265 87.6431 44.217 88.0826 44.4397C88.5221 44.6624 89.28 44.9762 89.7668 45.1372C90.2536 45.2982 91.0183 45.5035 91.4661 45.5934C92.1895 45.7388 92.4739 45.7566 94.015 45.7529C95.618 45.749 95.821 45.734 96.688 45.5556C97.2041 45.4494 98.0166 45.2336 98.4935 45.0759C98.9705 44.9182 99.7443 44.6042 100.213 44.378C100.682 44.1518 101.399 43.7437 101.807 43.4711C102.215 43.1984 102.819 42.7448 103.15 42.4631C103.48 42.1814 104.029 41.677 104.37 41.3423L104.99 40.7337L104.335 40.0724C103.975 39.7086 103.559 39.3144 103.412 39.1963L103.145 38.9816L102.386 39.7146C101.968 40.1178 101.324 40.6727 100.954 40.9478C100.584 41.2228 100.073 41.5775 99.8179 41.736C99.5631 41.8945 99.0876 42.1585 98.7612 42.3226C98.4348 42.4866 97.8416 42.7277 97.4429 42.8582C97.0442 42.9889 96.3567 43.1513 95.9152 43.2192C95.3976 43.2989 94.7102 43.3422 93.9796 43.3413C93.2152 43.3403 92.628 43.2999 92.1741 43.217C91.8042 43.1494 91.167 42.9832 90.7581 42.8478C90.3492 42.7123 89.7003 42.4427 89.316 42.2487C88.9317 42.0546 88.3787 41.7309 88.0871 41.5294C87.7954 41.3279 87.2967 40.9356 86.9789 40.6577C86.6611 40.38 86.1583 39.8527 85.8615 39.4861C85.5649 39.1194 85.1883 38.6124 85.0247 38.3593C84.8611 38.1063 84.5755 37.5806 84.39 37.1913C84.2045 36.8019 83.9695 36.2444 83.8678 35.9524C83.7661 35.6604 83.6039 35.1029 83.5073 34.7135C83.4108 34.3242 83.2941 33.6552 83.2478 33.2269C83.1956 32.7425 83.1796 31.9799 83.2056 31.2093C83.2341 30.3668 83.2948 29.7463 83.3953 29.27C83.4766 28.8848 83.6392 28.2636 83.7566 27.8896C83.874 27.5156 84.1903 26.7636 84.4596 26.2185C84.7738 25.5821 85.1491 24.9611 85.5082 24.4836C85.8157 24.0745 86.3866 23.4332 86.777 23.0586C87.1674 22.684 87.8024 22.1674 88.1882 21.9106C88.574 21.6538 89.1695 21.3126 89.5116 21.1523C89.8536 20.992 90.3616 20.7826 90.6405 20.6867C90.9193 20.5909 91.4502 20.446 91.8201 20.3646C92.3131 20.2562 92.8332 20.2081 93.7672 20.1848C94.8346 20.1581 95.1912 20.1773 95.9621 20.3027C96.4684 20.3851 97.1853 20.5504 97.5552 20.67C97.9252 20.7897 98.4828 21.0029 98.7943 21.1438C99.1058 21.2848 99.5406 21.5042 99.7604 21.6314C99.9803 21.7587 100.416 22.0527 100.729 22.2846C101.042 22.5166 101.559 22.9391 101.878 23.2236C102.197 23.508 102.594 23.8595 102.76 24.0047L103.061 24.2687L103.76 23.5516C104.144 23.1573 104.53 22.77 104.618 22.6909C104.705 22.6118 104.777 22.5081 104.777 22.4603C104.777 22.4126 104.546 22.1595 104.264 21.898C103.982 21.6363 103.432 21.1657 103.043 20.852C102.653 20.5384 102.026 20.0796 101.649 19.8326C101.273 19.5855 100.635 19.2273 100.233 19.0365C99.8313 18.8456 99.1788 18.5778 98.7834 18.4413C98.3879 18.3048 97.6711 18.1124 97.1903 18.0139C96.7095 17.9153 95.9053 17.8017 95.4031 17.7614C94.9009 17.721 94.2318 17.6924 93.9163 17.6978C93.6006 17.7031 93.0397 17.7341 92.6698 17.7667ZM122.751 18.9446C122.517 19.441 122.235 20.0383 122.125 20.2719C122.015 20.5056 121.56 21.4772 121.113 22.4311C120.666 23.385 119.711 25.4238 118.99 26.9618C118.269 28.4998 117.568 29.997 117.432 30.289C117.297 30.581 116.573 32.1261 115.824 33.7224C115.075 35.3188 114.118 37.3576 113.698 38.2531C113.278 39.1487 112.553 40.6937 112.087 41.6866C111.621 42.6794 111.045 43.9112 110.805 44.4238C110.566 44.9364 110.371 45.3745 110.371 45.3972C110.371 45.4199 110.971 45.4385 111.704 45.4385H113.038L113.576 44.2882C113.873 43.6555 114.502 42.3095 114.975 41.2972C115.448 40.2849 116.036 39.0266 116.282 38.5009C116.528 37.9753 116.967 37.0355 117.258 36.4125C117.549 35.7896 117.986 34.8498 118.231 34.3242C118.475 33.7985 118.862 32.975 119.09 32.4941C119.318 32.0133 119.504 31.6109 119.504 31.6C119.504 31.5891 119.691 31.1862 119.919 30.7045C120.147 30.2229 120.756 28.921 121.273 27.8113C121.79 26.7016 122.48 25.2203 122.807 24.5195C123.134 23.8186 123.568 22.8884 123.772 22.4523L124.142 21.6593L124.39 22.1691C124.526 22.4495 124.874 23.1727 125.162 23.7762C125.451 24.3797 126.195 25.9406 126.816 27.245C127.437 28.5493 128.066 29.8714 128.214 30.1828C128.362 30.4943 128.93 31.6851 129.476 32.8291L130.469 34.909L130.305 35.2715C130.215 35.4707 129.867 36.2206 129.531 36.9378C129.196 37.655 128.921 38.2524 128.921 38.2652C128.921 38.2781 129.618 38.2885 130.47 38.2885C131.626 38.2885 132.037 38.311 132.088 38.377C132.125 38.4257 132.513 39.2238 132.95 40.1507C133.387 41.0775 133.836 42.0332 133.948 42.2744C134.059 42.5157 134.437 43.3183 134.786 44.0581L135.422 45.4031L136.703 45.4225C137.408 45.433 137.984 45.4165 137.984 45.3857C137.984 45.3549 137.216 43.6897 136.277 41.6852C135.338 39.6807 134.354 37.5788 134.091 37.0143C133.827 36.4497 132.903 34.4746 132.037 32.6252C131.17 30.7757 130.095 28.4821 129.648 27.5281C129.201 26.5742 128.5 25.077 128.09 24.2009C127.681 23.3249 127.242 22.3851 127.115 22.1125C126.988 21.84 126.584 20.9799 126.217 20.2012C125.849 19.4224 125.474 18.618 125.381 18.4137L125.214 18.042H124.196H123.177L122.751 18.9446ZM143.365 31.7369V45.4385H144.64H145.914V39.8106V34.1826H150.012H154.11L155.846 36.4656C156.8 37.7213 158.273 39.6566 159.119 40.7663C159.965 41.8759 161.107 43.3803 161.658 44.1091L162.659 45.4345L164.235 45.4365C165.101 45.4376 165.81 45.4147 165.809 45.3855C165.809 45.3562 165.577 45.0297 165.292 44.6598C165.008 44.2899 164.238 43.2865 163.581 42.4299C162.924 41.5733 162.191 40.6176 161.952 40.3061C161.712 39.9946 160.52 38.4398 159.301 36.851C158.083 35.2622 157.097 33.9523 157.111 33.9401C157.125 33.928 157.392 33.8626 157.703 33.7949C158.015 33.7273 158.601 33.5615 159.007 33.4265C159.413 33.2915 160.018 33.043 160.352 32.8743C160.687 32.7055 161.187 32.4071 161.465 32.2111C161.743 32.015 162.163 31.6756 162.4 31.4567C162.636 31.2378 162.987 30.8457 163.179 30.5854C163.372 30.3251 163.632 29.9209 163.759 29.6873C163.885 29.4537 164.081 28.9918 164.193 28.6608C164.306 28.3299 164.445 27.7724 164.502 27.4219C164.559 27.0715 164.606 26.4663 164.606 26.0769C164.606 25.6875 164.557 25.0687 164.498 24.7016C164.438 24.3346 164.308 23.793 164.208 23.4982C164.108 23.2033 163.882 22.6913 163.705 22.3603C163.529 22.0294 163.229 21.5628 163.04 21.3236C162.85 21.0844 162.506 20.7145 162.276 20.5016C162.046 20.2887 161.634 19.9652 161.359 19.7828C161.085 19.6003 160.564 19.3129 160.202 19.1441C159.84 18.9752 159.279 18.7535 158.954 18.6514C158.63 18.5491 157.977 18.38 157.503 18.2755L156.641 18.0853L150.003 18.0603L143.365 18.0353V31.7369ZM170.2 18.1042C170.2 18.1392 170.409 18.6731 170.664 19.2907C170.919 19.9082 171.252 20.7162 171.403 21.0861C171.555 21.4559 171.922 22.3479 172.218 23.0682C172.515 23.7885 172.96 24.8717 173.209 25.4752C173.458 26.0787 173.824 26.9706 174.023 27.4573C174.223 27.944 174.589 28.836 174.838 29.4395C175.087 30.043 175.567 31.2058 175.904 32.0234C176.241 32.8411 176.706 33.972 176.938 34.5366C177.17 35.1011 177.563 36.0568 177.81 36.6603C178.058 37.2638 178.424 38.1558 178.624 38.6425C178.824 39.1292 179.191 40.0212 179.44 40.6247C179.688 41.2282 180.134 42.3113 180.43 43.0316C180.727 43.7519 181.068 44.5881 181.188 44.8899L181.407 45.4385H183.828H186.248L186.4 45.1023C186.483 44.9174 186.713 44.3678 186.911 43.8811C187.109 43.3944 187.395 42.6936 187.547 42.3237C187.699 41.9538 188.065 41.0618 188.361 40.3415C188.658 39.6212 189.044 38.6814 189.219 38.2531C189.394 37.8249 189.661 37.1718 189.813 36.8019C189.964 36.432 190.325 35.556 190.614 34.8551C190.903 34.1543 191.579 32.5137 192.115 31.2093C192.652 29.905 193.161 28.6626 193.247 28.4484C193.333 28.2343 193.842 26.9919 194.378 25.6875C194.914 24.3832 195.51 22.9337 195.702 22.4665C195.895 21.9993 196.222 21.2029 196.43 20.6967C196.638 20.1905 196.954 19.4171 197.134 18.978C197.313 18.5388 197.459 18.1486 197.459 18.1108C197.459 18.0673 196.312 18.042 194.343 18.042H191.226L191.159 18.2013C191.122 18.2889 190.976 18.6632 190.834 19.0331C190.692 19.403 190.371 20.2312 190.12 20.8737C189.868 21.5161 189.538 22.3603 189.386 22.7497C189.233 23.139 188.762 24.3496 188.338 25.4398C187.915 26.53 187.321 28.0591 187.018 28.8378C186.715 29.6165 186.04 31.3527 185.518 32.696C184.996 34.0392 184.438 35.4728 184.279 35.8816C184.12 36.2904 183.966 36.6505 183.938 36.6817C183.909 36.713 183.787 36.49 183.667 36.1862C183.547 35.8824 183.243 35.1082 182.991 34.4658C182.74 33.8233 182.423 33.011 182.286 32.6606C182.149 32.3101 181.633 30.9881 181.139 29.7227C180.645 28.4573 180.098 27.0556 179.923 26.6078C179.749 26.1601 179.387 25.2362 179.119 24.5549C178.851 23.8735 178.39 22.6948 178.094 21.9356C177.798 21.1763 177.424 20.2206 177.264 19.8118C177.104 19.403 176.885 18.8455 176.777 18.5729L176.581 18.0774L173.39 18.059C171.536 18.0483 170.2 18.0672 170.2 18.1042ZM208.518 18.8738C208.324 19.3313 207.618 20.9639 206.95 22.5019C206.282 24.0399 205.478 25.8875 205.164 26.6078C204.849 27.3281 204.226 28.7617 203.779 29.7935C203.332 30.8253 202.696 32.2907 202.365 33.0499C202.035 33.8092 201.628 34.7489 201.461 35.1383C201.294 35.5276 200.928 36.3718 200.647 37.0143C200.366 37.6567 199.769 39.0266 199.321 40.0583C198.872 41.0901 198.369 42.2529 198.203 42.6423C198.037 43.0316 197.706 43.7927 197.467 44.3335C197.229 44.8745 197.035 45.3443 197.035 45.3777C197.035 45.4112 198.368 45.4385 199.997 45.4385H202.959L203.049 45.2439C203.099 45.1368 203.753 43.6156 204.503 41.8635C205.254 40.1114 206.33 37.5948 206.896 36.271C207.462 34.9472 208.003 33.6729 208.1 33.4393C208.197 33.2057 208.982 31.375 209.845 29.3711C210.709 27.3672 211.423 25.7193 211.433 25.7092C211.443 25.6992 211.685 26.2556 211.971 26.9458C212.256 27.636 212.926 29.2519 213.46 30.5368C213.993 31.8217 214.471 32.9764 214.52 33.1028C214.604 33.3143 214.59 33.3822 214.346 33.9523C214.201 34.2931 213.719 35.4102 213.276 36.4347C212.833 37.4593 212.47 38.311 212.47 38.3274C212.47 38.3438 213.43 38.3657 214.604 38.376L216.737 38.3947L217.827 41.014C218.426 42.4547 218.978 43.7767 219.053 43.9519C219.128 44.1271 219.298 44.5253 219.431 44.8368L219.673 45.4031L222.762 45.4216C224.461 45.4317 225.852 45.4187 225.852 45.3925C225.852 45.3664 225.594 44.7529 225.279 44.0291C224.964 43.3052 224.502 42.2431 224.253 41.6689C224.003 41.0946 223.594 40.1548 223.344 39.5805C223.095 39.0062 222.572 37.8036 222.182 36.9081C221.793 36.0126 221.198 34.6427 220.859 33.864C220.521 33.0853 220.036 31.9703 219.782 31.3863C219.529 30.8023 219.165 29.9661 218.975 29.528C218.785 29.09 218.473 28.3733 218.282 27.9352C218.091 27.4972 217.657 26.5017 217.319 25.7229C216.981 24.9442 216.503 23.8452 216.258 23.2806C216.012 22.716 215.41 21.3337 214.92 20.2087C214.429 19.0837 214.027 18.1359 214.027 18.1026C214.027 18.0693 212.868 18.042 211.45 18.042H208.872L208.518 18.8738ZM231.445 31.7403V45.4385H234.313H237.18L237.198 36.8569L237.216 28.2753L241.499 33.8259C243.855 36.8787 246.006 39.6671 246.279 40.0222C246.551 40.3773 247.602 41.7416 248.614 43.0541L250.454 45.4404L252.827 45.4218L255.2 45.4031L255.218 31.7226L255.236 18.042H252.333H249.429V26.3601C249.429 30.935 249.405 34.6764 249.376 34.6743C249.347 34.6722 248.909 34.1245 248.403 33.4573C247.896 32.79 247.14 31.7962 246.722 31.2488C246.303 30.7015 245.793 30.0356 245.589 29.7691C245.384 29.5026 245.025 29.0363 244.792 28.7329C244.558 28.4294 244.032 27.7426 243.623 27.2067C243.215 26.6707 242.275 25.4427 241.535 24.4779C240.795 23.513 239.383 21.6702 238.398 20.3828L236.606 18.042H234.026H231.445V31.7403ZM272.888 18.413C272.803 18.6177 272.489 19.3428 272.191 20.0242C271.892 20.7055 271.074 22.5851 270.372 24.2009C269.67 25.8167 268.873 27.6485 268.601 28.2715C268.329 28.8944 268.011 29.6271 267.894 29.8997C267.777 30.1722 267.481 30.8571 267.236 31.4217C266.99 31.9863 266.408 33.3242 265.941 34.395C265.475 35.4657 264.886 36.8196 264.632 37.4036C264.378 37.9877 263.894 39.1026 263.555 39.8814C263.217 40.6601 262.628 42.014 262.246 42.89C261.864 43.7661 261.469 44.681 261.367 44.9232C261.266 45.1654 261.183 45.3804 261.183 45.401C261.183 45.4216 262.516 45.4385 264.145 45.4385H267.108L267.197 45.2439C267.247 45.1368 267.606 44.3006 267.996 43.3856C268.387 42.4706 269.947 38.823 271.463 35.2799C272.98 31.7367 274.511 28.1529 274.867 27.3158C275.222 26.4786 275.532 25.7699 275.555 25.7408C275.579 25.7116 275.912 26.4443 276.296 27.369C276.68 28.2936 277.326 29.8466 277.733 30.82C278.139 31.7934 278.533 32.7527 278.609 32.9519C278.743 33.3089 278.743 33.3186 278.61 33.6245C278.535 33.7952 278.057 34.9008 277.546 36.0813C277.036 37.2619 276.618 38.257 276.618 38.2926C276.618 38.3298 277.523 38.3652 278.749 38.376L280.881 38.3947L281.872 40.7663C282.416 42.0706 282.939 43.3209 283.033 43.5449C283.126 43.7688 283.279 44.135 283.371 44.359C283.464 44.5829 283.606 44.9174 283.687 45.1023L283.835 45.4385H286.917C288.613 45.4385 290 45.4248 290 45.408C290 45.3912 289.797 44.9053 289.548 44.3284C289.3 43.7514 288.866 42.7538 288.585 42.1113C288.304 41.4689 287.874 40.4813 287.63 39.9168C287.385 39.3522 286.811 38.0302 286.354 36.9789C285.896 35.9276 285.369 34.7171 285.183 34.2888C284.997 33.8605 284.575 32.8889 284.245 32.1296C283.915 31.3704 283.271 29.8891 282.813 28.8378C282.356 27.7865 281.767 26.4326 281.505 25.8291C281.243 25.2256 280.564 23.6647 279.997 22.3603C279.429 21.056 278.778 19.5587 278.55 19.0331L278.134 18.0774L275.588 18.0591L273.042 18.0406L272.888 18.413ZM156.897 20.6786C157.232 20.7415 157.742 20.8635 158.03 20.9497C158.317 21.0359 158.808 21.2297 159.119 21.3803C159.431 21.5309 159.901 21.8162 160.165 22.0142C160.429 22.2123 160.792 22.5544 160.973 22.7744C161.153 22.9944 161.421 23.4293 161.569 23.7408C161.717 24.0522 161.888 24.5527 161.948 24.8528C162.008 25.1528 162.057 25.7263 162.056 26.127C162.056 26.5279 162.007 27.0612 161.948 27.3126C161.888 27.564 161.755 27.9622 161.652 28.1975C161.548 28.4329 161.346 28.8006 161.203 29.0148C161.059 29.2289 160.771 29.5649 160.562 29.7615C160.352 29.958 160.028 30.2239 159.84 30.3524C159.652 30.4809 159.206 30.724 158.849 30.8926C158.491 31.0613 157.928 31.2685 157.597 31.3532C157.266 31.4378 156.74 31.5556 156.429 31.615C155.966 31.703 154.95 31.7286 150.888 31.7543L145.914 31.7858V26.1493V20.5129L151.101 20.5386C155.498 20.5604 156.38 20.5817 156.897 20.6786ZM35.1771 21.7237C36.9872 21.7739 37.8392 21.8253 38.2216 21.9071C38.5137 21.9696 38.9067 22.1037 39.0951 22.2051C39.2833 22.3064 39.6816 22.6476 39.9801 22.963C40.2785 23.2786 40.7299 23.8302 40.983 24.1889C41.2361 24.5476 41.6138 25.1189 41.8221 25.4584C42.0306 25.7978 42.2676 26.2033 42.3489 26.3594L42.4966 26.6432L42.5516 26.3348C42.5819 26.1652 42.6435 25.982 42.6886 25.9277C42.7437 25.8613 42.9236 25.8296 43.2396 25.8303C43.4978 25.831 43.9267 25.8777 44.1929 25.9341C44.459 25.9905 44.8521 26.1168 45.0663 26.2149C45.2805 26.313 45.5786 26.4905 45.7288 26.6094C45.879 26.7283 46.0674 26.9317 46.1475 27.0613C46.2277 27.191 46.2933 27.3841 46.2933 27.4904C46.2933 27.6115 46.2181 27.7539 46.0922 27.8715C45.9816 27.9748 45.671 28.1301 45.4018 28.2166C45.1328 28.3032 44.594 28.4125 44.2045 28.4595C43.8151 28.5066 43.4847 28.5538 43.4702 28.5644C43.4558 28.5749 43.5478 28.7682 43.6747 28.9938C43.8015 29.2195 44.1392 29.7545 44.4251 30.1828C44.711 30.6111 45.1528 31.2323 45.4069 31.5632C45.6611 31.8941 45.9213 32.275 45.9852 32.4097C46.0491 32.5443 46.143 32.8122 46.1939 33.005C46.2678 33.2852 46.278 34.3859 46.2447 38.4944C46.2108 42.6751 46.1846 43.6697 46.1047 43.828L46.0064 44.0227H43.9428C42.1219 44.0227 41.8639 44.0089 41.7497 43.9055C41.6524 43.8175 41.6202 43.6856 41.6202 43.3746V42.9608H31.7077H21.7951V43.3623C21.7951 43.6365 21.758 43.8048 21.678 43.8932C21.5696 44.0129 21.4073 44.0227 19.5235 44.0227C17.788 44.0227 17.4702 44.0066 17.3778 43.9142C17.3181 43.8546 17.2537 43.7033 17.2347 43.578C17.2156 43.4527 17.1847 41.1107 17.1658 38.3735C17.1372 34.2094 17.1482 33.3334 17.2328 33.0088C17.2883 32.7954 17.3953 32.5004 17.4704 32.3531C17.5456 32.2059 17.7535 31.8962 17.9326 31.6651C18.1116 31.4339 18.4609 30.958 18.7086 30.6076C18.9563 30.2572 19.338 29.6747 19.5566 29.3132C19.7753 28.9516 19.9542 28.6321 19.9542 28.603C19.9542 28.5741 19.6303 28.5116 19.2344 28.4642C18.8384 28.4169 18.2916 28.3064 18.0193 28.2187C17.747 28.1311 17.4338 27.9748 17.3232 27.8715C17.1916 27.7487 17.1221 27.6127 17.1221 27.4783C17.1221 27.361 17.2141 27.1478 17.3366 26.9813C17.4545 26.8209 17.7174 26.5793 17.9207 26.4445C18.124 26.3097 18.5134 26.1296 18.786 26.0441C19.0738 25.954 19.5667 25.8723 19.9617 25.8493C20.4679 25.8198 20.656 25.8325 20.697 25.8989C20.7274 25.948 20.7888 26.1315 20.8336 26.3068L20.9148 26.6256L21.2926 25.9619C21.5003 25.5969 21.8629 25.0115 22.0984 24.6611C22.3339 24.3106 22.6923 23.8169 22.8949 23.5638C23.0974 23.3107 23.4576 22.9191 23.6952 22.6937C23.9329 22.4682 24.2955 22.2079 24.5012 22.1153C24.7068 22.0227 25.1141 21.9101 25.4061 21.865C25.6982 21.82 26.8452 21.7587 27.9551 21.729C29.0649 21.6992 30.5784 21.6701 31.3183 21.6643C32.0582 21.6586 33.7946 21.6852 35.1771 21.7237ZM26.3062 22.9218C25.4229 22.9462 24.8141 22.9916 24.7839 23.0353C24.7562 23.0754 24.5716 23.3461 24.3737 23.6368C24.1759 23.9277 23.8339 24.4879 23.6138 24.8819C23.3937 25.276 22.9892 26.0564 22.715 26.6163C22.4144 27.2299 22.2241 27.7046 22.2358 27.8113L22.2554 27.9883H31.7077H41.16L41.1818 27.835C41.1938 27.7507 41.0006 27.2569 40.7525 26.7377C40.5043 26.2186 40.1168 25.4592 39.8913 25.0504C39.6657 24.6416 39.2891 24.0152 39.0542 23.6585L38.6273 23.0099L38.159 22.9699C37.9014 22.9479 36.7825 22.9094 35.6727 22.8845L33.6548 22.8392L33.6782 23.2615C33.6961 23.5827 33.6737 23.7118 33.5847 23.8007C33.4822 23.9032 33.2505 23.9177 31.7162 23.9177C30.3848 23.9177 29.9343 23.8955 29.838 23.8251C29.7344 23.7495 29.7158 23.6521 29.7359 23.2941L29.7606 22.8556L28.7693 22.8685C28.2241 22.8755 27.1157 22.8995 26.3062 22.9218ZM18.8922 32.2801C18.7559 32.3169 18.5458 32.4568 18.4254 32.5911C18.264 32.7711 18.1757 32.9756 18.0891 33.3694C18.0246 33.6631 17.9717 34.1053 17.9717 34.3521C17.9717 34.6997 18.005 34.8429 18.1196 34.9886C18.2009 35.0919 18.3531 35.2208 18.4577 35.2749C18.5624 35.329 19.0773 35.4547 19.6021 35.5543C20.1268 35.6539 21.0916 35.8037 21.746 35.8871C22.4005 35.9705 22.957 36.0177 22.9828 35.992C23.0085 35.9663 22.9757 35.684 22.9097 35.3648C22.8439 35.0456 22.6778 34.5572 22.5407 34.2797C22.4036 34.0021 22.169 33.6643 22.0192 33.529C21.8695 33.3938 21.4249 33.1007 21.0312 32.8779C20.6375 32.655 20.1542 32.4114 19.9571 32.3366C19.76 32.2617 19.4955 32.2033 19.3693 32.2068C19.2432 32.2103 19.0285 32.2433 18.8922 32.2801ZM42.951 32.589C42.612 32.7601 42.104 33.0532 41.8222 33.2405C41.502 33.4532 41.2238 33.7072 41.0804 33.9179C40.9542 34.1032 40.7867 34.4267 40.7081 34.6367C40.6295 34.8467 40.5208 35.2365 40.4664 35.5032C40.3813 35.9206 40.3815 35.9911 40.4679 36.0117C40.5232 36.0248 41.0997 35.9666 41.7492 35.8825C42.3987 35.7983 43.3424 35.6498 43.8464 35.5526C44.3504 35.4552 44.8494 35.3308 44.9553 35.2761C45.0612 35.2213 45.2144 35.0919 45.2958 34.9886C45.4095 34.8439 45.4433 34.7008 45.4424 34.3677C45.4417 34.1296 45.3962 33.7225 45.3412 33.4631C45.2861 33.2036 45.1896 32.8916 45.1266 32.7697C45.0635 32.6478 44.9099 32.4859 44.7852 32.41C44.6156 32.3065 44.4339 32.2725 44.0629 32.2748C43.6211 32.2775 43.5004 32.3116 42.951 32.589ZM27.57 34.7516L24.5299 34.801L24.3599 34.9987C24.2139 35.1682 24.1965 35.2414 24.2372 35.5128C24.2634 35.6869 24.3174 35.9009 24.3573 35.9885C24.4203 36.1268 24.5013 36.1537 24.9711 36.1926C25.2688 36.2172 26.4523 36.2693 27.6011 36.3083C28.7498 36.3473 30.6616 36.3776 31.8493 36.3756C33.037 36.3736 34.8691 36.3421 35.9205 36.3056C36.9719 36.2691 38.0916 36.2189 38.4085 36.1942C38.9351 36.1532 38.9918 36.134 39.066 35.9711C39.1107 35.873 39.1655 35.6594 39.1879 35.4963C39.2215 35.2512 39.1995 35.166 39.0611 35.0051L38.8936 34.8105L35.637 34.747C33.8458 34.7121 31.982 34.6877 31.4953 34.6928C31.0085 34.6979 29.2421 34.7244 27.57 34.7516Z" fill="#001B38"></path>
</svg>
