<?xml version="1.0" encoding="UTF-8"?>
<svg xmlns="http://www.w3.org/2000/svg" width="230" height="56" viewBox="0 0 230 56" fill="none">
  <path fill-rule="evenodd" clip-rule="evenodd" d="M0 41.1635L8.23958 34.8535C12.6199 40.5691 17.2608 43.1989 22.4472 43.1989C27.6335 43.1989 32.1197 40.5935 36.2965 34.9268L44.6501 41.0902C38.6251 49.2646 31.1264 53.5798 22.439 53.5798C13.7516 53.5798 6.22854 49.2972 0 41.1635Z" fill="#001B38"></path>
  <path fill-rule="evenodd" clip-rule="evenodd" d="M22.4233 13.7272L7.75159 26.3716L0.977539 18.5065L22.4477 0L43.755 18.5228L36.9484 26.3553L22.4233 13.7272Z" fill="#001B38"></path>
  <path d="M100.918 10.6738H92.6133V45.2768H100.918V10.6738Z" fill="#001B38"></path>
  <path fill-rule="evenodd" clip-rule="evenodd" d="M75.8249 45.4327C70.9316 45.4327 66.8525 43.8451 63.5388 40.6697C60.2332 37.4537 58.5967 33.3258 58.5967 28.2941C58.5967 23.2624 60.2739 19.0449 63.5795 15.78C66.934 12.4744 71.013 10.8379 75.8656 10.8379C81.8499 10.8379 87.1503 13.4189 90.236 17.4572L84.838 23.124C82.257 20.3558 79.4399 18.9553 76.403 18.9553C73.822 18.9553 71.6888 19.8184 69.922 21.5852C68.196 23.352 67.3411 25.5747 67.3411 28.2534C67.3411 30.9321 68.2041 33.0164 69.922 34.7832C71.6888 36.5092 73.822 37.3641 76.3623 37.3641C79.6679 37.3641 82.5745 35.9149 84.9764 33.0571L90.5943 38.4552C89.0555 40.4988 86.9711 42.176 84.382 43.4868C81.801 44.7977 78.9432 45.4327 75.8168 45.4327H75.8249Z" fill="#001B38"></path>
  <path fill-rule="evenodd" clip-rule="evenodd" d="M113.376 13.4419C113.376 15.9252 111.365 17.9444 108.874 17.9444C106.382 17.9444 104.371 15.9333 104.371 13.4419C104.371 10.9505 106.382 8.93945 108.874 8.93945C111.365 8.93945 113.376 10.9505 113.376 13.4419ZM113.026 20.0206H104.721V45.2848H113.026V20.0124V20.0206Z" fill="#001B38"></path>
  <path fill-rule="evenodd" clip-rule="evenodd" d="M129.081 45.4799C125.14 45.4799 121.965 44.2586 119.474 41.8079C117.023 39.3572 115.802 36.2307 115.802 32.3796C115.802 28.5285 117.023 25.3939 119.523 22.9513C122.014 20.5006 125.238 19.2793 129.228 19.2793C134.439 19.2793 139.022 21.8196 141.147 26.5744L134.756 29.9289C133.486 27.7957 131.719 26.7128 129.407 26.7128C127.73 26.7128 126.37 27.2583 125.279 28.3412C124.237 29.4322 123.691 30.7919 123.691 32.3796C123.691 35.6852 126.093 38.1359 129.309 38.1359C131.621 38.1359 133.755 36.8658 134.658 34.9199L141.05 38.7303C138.876 42.8989 134.39 45.488 129.081 45.488V45.4799Z" fill="#001B38"></path>
  <path fill-rule="evenodd" clip-rule="evenodd" d="M151.439 10.6738H143.134V45.2768H151.439V36.4673L152.416 35.5636L160.004 45.285H169.668L158.001 30.3528L169.082 20.0207H158.937L151.439 27.0064V10.6738Z" fill="#001B38"></path>
  <path fill-rule="evenodd" clip-rule="evenodd" d="M171.167 32.201V10.6738H179.822V31.7206C179.822 35.4821 182.012 37.2978 185.187 37.2978C188.363 37.2978 190.553 35.3926 190.553 31.7206V10.6738H199.208V32.201C199.208 42.0852 192.271 45.7979 185.195 45.7979C178.12 45.7979 171.183 42.0771 171.183 32.201H171.167Z" fill="#001B38"></path>
  <path fill-rule="evenodd" clip-rule="evenodd" d="M217.885 45.9702C224.577 45.9702 230 40.0836 230 32.821C230 25.5585 224.577 19.6719 217.885 19.6719C215.157 19.6719 212.641 20.6489 210.614 22.3017V20.022H202.651V55.6671H210.614V43.3485C212.641 45.0013 215.157 45.9783 217.885 45.9783V45.9702ZM210.614 32.8292V32.8047C210.614 29.5643 213.179 26.9344 216.322 26.9344C219.464 26.9344 222.029 29.5724 222.029 32.821C222.029 36.0696 219.473 38.7076 216.322 38.7076C213.171 38.7076 210.622 36.0778 210.614 32.8373V32.8292Z" fill="#001B38"></path>
</svg>
