<?xml version="1.0" encoding="UTF-8"?>
<svg xmlns="http://www.w3.org/2000/svg" width="387" height="56" viewBox="0 0 387 56" fill="none">
  <path d="M24.1537 0.439152C17.4105 1.24644 12.4243 3.24091 8.38784 6.80248C5.39613 9.41429 1.78708 14.7329 0.837327 17.9146C-0.919711 23.708 0.267477 34.5352 2.73683 35.6749C3.30668 35.9123 4.30392 37.0995 4.92125 38.3342C6.72578 41.7058 10.4298 45.1249 14.4188 47.0719C19.2625 49.3988 21.067 49.8262 26.1007 49.8262C36.9753 49.8262 45.2382 44.0802 48.6573 34.1078C49.8444 30.6412 50.1769 23.6605 49.1796 22.6633C48.7522 22.2359 48.6098 22.9007 48.6098 25.75C48.6098 31.9709 46.4253 36.9096 41.7716 41.1834C39.5397 43.2729 36.8329 44.745 36.1206 44.2701C35.9306 44.1277 37.0703 42.798 38.7324 41.2784C43.0537 37.2895 44.8583 34.0603 45.1907 29.739C45.4281 25.56 44.8583 25.8925 43.4336 30.7362C42.5789 33.6329 41.9615 34.6777 39.8721 36.8146C38.5424 38.2392 37.0228 39.3789 36.5479 39.3789C35.8356 39.3789 35.9781 39.094 37.2128 37.6694C38.5424 36.1498 39.5871 34.2028 39.5871 33.3005C39.5871 33.1106 38.8748 34.0603 37.9726 35.3425C35.2183 39.4264 31.8467 41.2784 27.0979 41.2784C19.5474 41.2784 12.9941 34.7251 12.9941 27.1746C12.9941 23.4706 13.7539 21.5711 16.2708 18.8168C18.8826 16.0151 22.2542 14.5429 26.2906 14.5429C30.0896 14.4955 32.5115 15.5877 36.263 18.9593C37.7826 20.3364 39.4922 21.4761 40.3944 21.6186C42.2939 21.9985 44.8583 21.1437 46.0929 19.7666C49.3696 16.205 48.7522 13.0708 43.6711 7.13489C41.4392 4.47559 40.2045 3.52584 37.6402 2.33865C34.6484 0.961514 30.1371 -0.130699 27.9527 0.0117645C27.4303 0.0592499 25.7208 0.249203 24.1537 0.439152Z" fill="#001B38"></path>
  <path d="M137.411 24.8962V44.6035H141.21H145.009V24.8962V5.18887H141.21H137.411V24.8962Z" fill="#001B38"></path>
  <path d="M82.4197 6.66013C77.196 7.51491 72.0199 11.1714 69.2656 15.8252C65.0392 23.0908 66.1314 33.3006 71.8299 39.474C77.6234 45.7898 88.3556 47.3569 96.6184 43.178C98.5179 42.1808 102.269 38.7617 102.269 38.0019C102.269 37.527 96.8559 33.2057 96.2385 33.2057C96.0486 33.2057 95.3363 33.7755 94.7189 34.4403C90.54 38.8092 82.2297 38.9042 78.1933 34.5353C74.9641 31.0687 74.1568 24.373 76.5312 19.8617C79.9978 13.2134 88.4506 11.8838 94.339 17.1074L96.5709 19.0544L99.4202 16.5375C100.987 15.2079 102.269 13.9257 102.269 13.7358C102.269 12.881 98.1855 9.36692 95.9536 8.3222C93.5792 7.1825 88.593 6.09029 86.1237 6.18526C85.4589 6.23275 83.7968 6.4227 82.4197 6.66013Z" fill="#001B38"></path>
  <path d="M154.032 11.5997V16.111H151.658H149.283V19.4351V22.7593H151.658H154.032V30.7372C154.032 38.0502 154.127 38.8575 155.124 40.8045C156.644 43.8437 158.448 44.6035 163.862 44.6035H168.278V41.2794V37.9553H165.524C164.004 37.9553 162.532 37.7178 162.2 37.3854C161.82 37.0055 161.63 34.6311 161.63 29.7874V22.8067L164.859 22.6643L168.041 22.5218L168.183 19.2927L168.326 16.111H164.954H161.63V11.5997V7.08838H157.831H154.032V11.5997Z" fill="#001B38"></path>
  <path d="M276.076 9.27207C275.553 10.4593 275.126 11.5515 275.126 11.6464C275.126 11.7889 273.891 15.1605 272.324 19.102C266.056 35.3902 262.779 43.9854 262.779 44.2704C262.779 44.4603 264.679 44.6028 267.006 44.6028H271.232L272.087 42.3234C272.562 41.0887 273.274 39.1417 273.749 37.9545L274.556 35.8176L282.392 35.6751L290.227 35.5802L291.842 39.949L293.456 44.3653L297.873 44.5078C303.049 44.6503 302.906 45.695 299.06 35.8176C297.635 32.1611 294.596 24.2306 292.269 18.2472L288.09 7.32508L282.534 7.18262L277.026 7.04015L276.076 9.27207ZM285.098 21.8563C286.381 25.3703 287.473 28.362 287.473 28.552C287.473 28.7894 285.241 28.9319 282.487 28.9319C278.593 28.9319 277.5 28.7894 277.5 28.2671C277.5 27.7447 279.068 23.3284 281.727 16.3952C282.059 15.6354 282.392 15.113 282.487 15.2555C282.629 15.398 283.769 18.3422 285.098 21.8563Z" fill="#001B38"></path>
  <path d="M234.762 15.1127C230.488 16.015 227.117 18.6743 224.932 22.9007C223.792 25.0851 223.65 25.8924 223.603 30.1188C223.603 34.3927 223.745 35.1525 224.932 37.5743C226.499 40.756 228.731 42.8454 232.388 44.555C235.949 46.1696 241.885 46.2645 245.494 44.65C248.344 43.4153 251.098 40.8035 250.623 39.8062C250.48 39.4263 249.388 38.3341 248.249 37.2894L246.159 35.4374L244.972 36.7195C241.268 40.7085 234.192 39.9962 231.96 35.3899C231.39 34.2977 230.963 33.253 230.963 33.063C230.963 32.8731 235.617 32.6831 241.315 32.6356L251.62 32.4932L251.763 30.3562C252 27.222 250.623 22.8057 248.628 20.1464C245.637 16.2049 239.701 14.068 234.762 15.1127ZM240.888 22.1884C241.79 22.6158 242.93 23.7555 243.405 24.6577L244.26 26.3198L240.935 26.4622C239.131 26.5572 236.092 26.5572 234.287 26.4622L230.963 26.3198L231.818 24.7052C233.48 21.6185 237.564 20.4788 240.888 22.1884Z" fill="#001B38"></path>
  <path d="M319.003 16.016C317.436 17.0133 315.489 19.4351 315.489 20.3849C315.489 20.6698 315.299 20.7648 315.014 20.6223C314.777 20.4799 314.539 19.3876 314.539 18.2005V16.111H310.74H306.941V30.3573V44.6035H310.74H314.539V35.6759C314.539 25.2761 314.872 23.5191 317.104 22.4268C319.241 21.4296 321.805 21.9045 323.087 23.5665C323.989 24.7062 324.037 25.4186 324.037 34.6786V44.6035H327.836H331.635V35.3434C331.635 24.8962 331.967 23.3291 334.437 22.3319C336.431 21.4771 338.948 22.0469 340.183 23.5665C341.085 24.7062 341.132 25.4186 341.132 34.6786V44.6035H344.931H348.73V33.7764C348.73 23.4241 348.683 22.9017 347.591 20.5748C344.267 13.4042 333.914 13.4042 331.16 20.6223L330.59 22.0469L329.64 20.005C327.741 16.016 322.28 13.9741 319.003 16.016Z" fill="#001B38"></path>
  <path d="M369.625 15.8731C367.441 16.5854 365.304 18.2474 363.832 20.3844C363.024 21.5716 363.024 21.5716 363.024 18.8173L362.977 16.1105H359.178H355.379V36.0552V56H359.178H362.977V47.9271C362.977 43.4633 363.119 39.8542 363.357 39.8542C363.547 39.8542 364.022 40.4716 364.449 41.2314C366.301 44.413 372.522 46.36 377.081 45.1254C383.729 43.3208 388.098 34.4882 386.246 26.5103C384.251 17.82 377.413 13.4987 369.625 15.8731ZM374.374 22.9012C377.176 24.3733 378.41 26.7952 378.363 30.6417C378.315 34.2982 376.938 36.7201 374.184 38.0022C371.62 39.1894 369.815 39.1419 367.251 37.8123C364.354 36.3402 363.214 34.2982 363.214 30.3567C363.214 26.4153 364.354 24.3733 367.251 22.8537C369.91 21.5241 371.81 21.5241 374.374 22.9012Z" fill="#001B38"></path>
  <path d="M105.217 27.1761C105.359 37.9558 105.407 38.2882 106.546 40.5676C108.208 43.7967 111.77 45.7437 115.474 45.4588C118.371 45.2214 120.033 44.1766 121.742 41.5173L122.93 39.7128L123.072 42.1822L123.214 44.604H127.013H130.765V30.3578V16.1115H126.966H123.167V25.609C123.167 36.2462 122.882 37.4809 120.27 38.3832C118.323 39.048 116.851 39.048 115.332 38.3357C112.957 37.2909 112.72 36.0088 112.72 25.609V16.1115H108.873H105.074L105.217 27.1761Z" fill="#001B38"></path>
  <path d="M173.026 26.1299C173.026 31.7334 173.264 37.0045 173.549 38.1442C175.496 45.8372 185.706 48.1641 189.694 41.8008L191.072 39.6638V42.1332V44.6025H194.871H198.67V30.3563V16.11H194.871H191.072V25.56C191.072 30.7836 190.882 35.5799 190.597 36.2447C189.362 39.5214 182.999 39.7113 181.337 36.4821C180.767 35.4374 180.624 33.063 180.624 25.6075V16.11H176.825H173.026V26.1299Z" fill="#001B38"></path>
  <path d="M205.556 16.7277C205.413 17.0601 205.366 23.376 205.413 30.8315L205.556 44.3655L209.212 44.5079L212.869 44.6504L213.011 35.3903C213.154 26.4627 213.201 26.0828 214.246 25.038C215.101 24.1833 216.003 23.8983 218.757 23.7084L222.176 23.471L222.319 19.7669L222.461 16.1104H220.657C218.045 16.1104 215.718 17.535 214.341 19.9569L213.154 22.0463L213.011 19.0546L212.869 16.1104H209.307C206.885 16.1104 205.698 16.3003 205.556 16.7277Z" fill="#001B38"></path>
</svg>
