<?xml version="1.0" encoding="UTF-8"?>
<svg xmlns="http://www.w3.org/2000/svg" width="312" height="61" viewBox="0 0 312 61" fill="none">
  <path d="M8.921 5.53784C4.13665 8.60607 0.132353 11.1803 0.00234345 11.3103C-0.231674 11.5443 17.1376 22.6211 17.7356 22.6211C17.9697 22.6211 22.052 20.1249 26.8103 17.0827C33.9088 12.5324 35.4169 11.4663 35.1309 11.2063C34.8709 10.9462 22.884 3.24968 18.5417 0.545477L17.6316 -0.000562668L8.921 5.53784Z" fill="#001B38"></path>
  <path d="M44.9595 5.61682C40.1232 8.71104 36.1709 11.3372 36.1709 11.4412C36.1969 11.5973 47.6117 18.9298 52.9161 22.206L53.9042 22.8301L62.7448 17.1617C69.8434 12.6373 71.5335 11.4412 71.2735 11.2072C71.0915 11.0252 67.1912 8.50303 62.6148 5.61682C58.0385 2.7046 54.1902 0.260424 54.0342 0.156416C53.9042 0.0524082 49.8219 2.49659 44.9595 5.61682Z" fill="#001B38"></path>
  <path d="M214.336 29.1489V49.8464L217.768 49.7684L221.226 49.6904L221.382 48.5203C221.486 47.8703 221.642 46.6742 221.72 45.8421L221.928 44.334L222.917 45.8941C225.179 49.4044 229.391 51.0945 234.097 50.3924C237.062 49.9764 239.116 48.9103 241.066 46.8562C242.808 44.984 243.744 43.2159 244.55 40.2517C245.278 37.5735 245.356 30.839 244.68 28.1608C243.094 21.7643 238.57 18.0981 232.277 18.0981C228.065 18.0981 225.127 19.5542 223.151 22.5704L222.137 24.1565V16.33V8.47738H218.236H214.336V29.1489ZM232.043 25.2486C235.501 26.4707 237.218 30.007 236.88 35.2333C236.646 39.2376 235.397 41.6038 232.849 42.8259C231.029 43.736 227.935 43.71 226.167 42.7739C223.437 41.3958 222.085 38.4316 222.085 33.9852C222.111 29.4089 223.775 26.4447 226.999 25.2486C228.325 24.7806 230.665 24.7806 232.043 25.2486Z" fill="#001B38"></path>
  <path d="M86.1465 30.4212V49.5586H95.0651C105.024 49.5586 106.246 49.4026 109.574 47.7125C111.706 46.6464 114.411 43.9422 115.477 41.888C117.141 38.5598 117.427 37.1557 117.557 31.5653C117.687 25.4288 117.349 23.2707 115.737 19.9164C113.839 15.9381 110.276 13.1559 105.648 11.9598C104.296 11.6218 102.138 11.5178 95.0651 11.4138L86.1465 11.2838V30.4212ZM103.88 19.0584C105.726 19.8904 106.714 20.7485 107.65 22.3086C108.846 24.3107 109.288 26.4429 109.288 30.5772C109.288 37.0777 107.988 40.0419 104.426 41.81C102.736 42.6421 102.632 42.6681 98.4454 42.7461L94.2071 42.8501V30.5772V18.3043L98.4454 18.4083C102.06 18.4863 102.84 18.5903 103.88 19.0584Z" fill="#001B38"></path>
  <path d="M154.688 18.5123C149.384 19.7864 145.535 23.6867 144.131 29.1731C143.481 31.6693 143.429 36.6617 144.001 39.4699C145.119 44.9303 148.604 48.4925 154.272 50.0006C156.612 50.5987 161.865 50.6247 164.101 50.0006C169.483 48.5445 172.941 45.0863 174.294 39.7819C174.944 37.3117 174.996 32.1373 174.424 29.4331C173.253 23.9727 169.457 19.9945 163.997 18.6164C161.579 17.9923 157.028 17.9403 154.688 18.5123ZM162.489 25.5849C164.725 26.7289 166.051 28.9391 166.519 32.2673C167.065 36.2196 166.077 39.9119 163.997 41.758C162.515 43.0321 161.423 43.4222 159.082 43.4222C156.56 43.4482 155.026 42.7981 153.622 41.16C152.166 39.4439 151.594 37.1817 151.724 33.6194C151.828 31.1493 151.932 30.4732 152.556 29.1471C153.57 26.885 154.766 25.7669 156.872 25.0908C158.068 24.7008 161.319 24.9868 162.489 25.5849Z" fill="#001B38"></path>
  <path d="M193.405 18.4354C190.726 19.3195 188.724 20.9316 187.398 23.1937L186.644 24.4678L186.28 21.6596L185.942 18.8774H182.588H179.234V27.38C179.234 32.0864 179.156 41.4471 179.052 48.1816L178.896 60.4805H182.952H187.034V52.7579V45.0353L187.788 46.2314C191.116 51.4838 200.555 52.0559 205.573 47.2715C206.9 46.0234 208.33 43.5792 209.032 41.4211C209.968 38.5609 210.202 32.9445 209.552 29.4082C208.616 24.4938 206.172 20.9576 202.401 19.1894C200.581 18.3054 200.269 18.2534 197.461 18.1754C195.459 18.1234 194.107 18.2274 193.405 18.4354ZM196.551 25.2479C199.255 26.0539 201.049 28.4981 201.621 32.1384C202.193 35.9867 201.335 39.6789 199.411 41.6291C196.837 44.1773 191.974 44.2553 189.426 41.7851C186.982 39.3929 186.124 34.5046 187.424 30.1622C188.62 26.1059 192.495 24.0258 196.551 25.2479Z" fill="#001B38"></path>
  <path d="M259.32 18.6944C258.253 19.0324 256.719 19.6305 255.939 20.0465C252.923 21.6846 250.323 25.1949 249.283 29.0171C248.633 31.3573 248.633 37.5458 249.257 39.9379C250.687 45.3723 254.041 48.6486 259.476 50.0007C261.92 50.5987 266.912 50.5987 269.2 50.0007C274.531 48.5966 278.067 45.1383 279.497 39.9119C280.147 37.5978 280.173 31.4093 279.523 29.0171C278.067 23.5307 274.245 19.7605 268.914 18.4864C266.34 17.8883 261.738 17.9923 259.32 18.6944ZM267.926 25.6889C269.46 26.599 270.084 27.301 270.942 29.1472C271.618 30.6293 271.67 30.8893 271.67 34.3475C271.67 37.4938 271.592 38.1438 271.124 39.1839C269.928 41.7581 267.926 43.1882 265.092 43.4742C261.894 43.8122 259.008 42.2001 257.733 39.3399C257.161 38.1178 257.109 37.6238 257.109 34.2175C257.109 30.8373 257.161 30.3172 257.707 29.1472C258.644 27.119 260.152 25.7409 262.18 25.0909C262.544 24.9608 263.714 24.9088 264.806 24.9608C266.366 25.0129 267.016 25.1689 267.926 25.6889Z" fill="#001B38"></path>
  <path d="M137.422 18.6421C133.808 19.2401 131.442 21.1383 130.142 24.4925L129.648 25.7146L129.206 22.6204C128.946 20.9302 128.712 19.3701 128.66 19.1881C128.582 18.9541 127.697 18.8761 125.409 18.8761H122.289V34.3472V49.8184H126.319H130.35V41.1597C130.35 33.9572 130.428 32.2671 130.766 31.071C131.364 29.0948 132.04 28.2628 133.704 27.5087C134.926 26.9367 135.602 26.8327 138.462 26.7287L141.79 26.5987V22.4904V18.3561L140.308 18.3821C139.476 18.4081 138.176 18.5121 137.422 18.6421Z" fill="#001B38"></path>
  <path d="M280.173 19.3181C281.785 21.1903 290.522 33.5412 290.418 33.8272C290.366 34.0092 287.817 37.5195 284.801 41.6278C281.759 45.7621 279.237 49.2723 279.159 49.4543C279.055 49.7664 279.887 49.8184 283.683 49.8184H288.337L291.822 44.644C295.228 39.5736 295.306 39.4696 295.722 40.0156C295.956 40.3277 297.568 42.6678 299.336 45.216L302.508 49.8184H306.929C309.347 49.8184 311.323 49.7144 311.323 49.5843C311.323 49.4023 301.26 35.2573 300.142 33.8272C300.012 33.6712 302.17 30.5509 305.369 26.2866L310.829 19.0061L306.461 18.9281C304.069 18.9021 301.962 18.9281 301.806 18.9801C301.65 19.0321 300.246 20.9562 298.712 23.2184C297.178 25.4806 295.774 27.4827 295.618 27.6647C295.358 27.9248 294.682 27.0667 292.264 23.4264L289.221 18.8761H284.489C280.017 18.8761 279.809 18.9021 280.173 19.3181Z" fill="#001B38"></path>
  <path d="M8.71265 28.6267C3.9543 31.6689 0.0280156 34.2691 0.00201372 34.3991C-0.0239882 34.5811 8.32262 40.0415 15.8372 44.7739L17.6833 45.918L26.498 40.3276C31.3603 37.2333 35.3386 34.6331 35.3646 34.5291C35.4426 34.3471 18.4374 23.4263 17.7353 23.1923C17.5273 23.1403 13.471 25.5845 8.71265 28.6267Z" fill="#001B38"></path>
  <path d="M44.8553 28.705C38.1468 32.9693 36.0666 34.4254 36.3007 34.6334C36.4827 34.7894 40.461 37.3896 45.1673 40.4318C52.9679 45.4502 53.7479 45.8662 54.294 45.5802C55.5421 44.9041 71.5853 34.6074 71.5853 34.4774C71.5853 34.3734 57.6482 25.4287 54.684 23.6346L53.7219 23.0625L44.8553 28.705Z" fill="#001B38"></path>
  <path d="M26.6282 43.9948C21.8439 47.037 17.8916 49.6112 17.8396 49.6632C17.7096 49.7932 35.3129 61 35.6509 61C35.8069 61 39.9152 58.4778 44.8036 55.3576C52.4741 50.4952 53.5922 49.6892 53.2022 49.4292C50.732 47.739 36.0409 38.5344 35.7289 38.4823C35.4949 38.4563 31.4126 40.9265 26.6282 43.9948Z" fill="#001B38"></path>
</svg>
