<?xml version="1.0" encoding="UTF-8"?>
<svg xmlns="http://www.w3.org/2000/svg" width="285" height="59" viewBox="0 0 285 59" fill="none">
  <path fill-rule="evenodd" clip-rule="evenodd" d="M15.6052 0.194108C14.97 0.293278 14.0792 0.470954 13.6257 0.588777C13.1722 0.706601 12.2468 1.04638 11.5691 1.34389C10.8915 1.6414 10.0154 2.06546 9.6224 2.28607C9.22952 2.50683 8.45367 3.02428 7.89834 3.43613C7.34315 3.84784 6.49048 4.58645 6.00353 5.07733C5.51658 5.56809 4.87281 6.26925 4.57293 6.63547C4.27305 7.00169 3.62833 7.98118 3.14018 8.81225C2.65216 9.64332 1.98737 11.0322 1.66301 11.8987C1.33864 12.7652 0.978415 13.8063 0.862398 14.2123C0.746381 14.6182 0.559577 15.4938 0.447173 16.1581C0.334903 16.8224 0.174192 18.1811 0.0900226 19.1775C0.00250818 20.2127 -0.0253251 21.708 0.0248552 22.6666C0.0732959 23.5891 0.203229 25.0385 0.313492 25.8872C0.423755 26.736 0.626752 27.9483 0.764447 28.5813C0.902141 29.2143 1.29662 30.6636 1.64079 31.802C1.9851 32.9404 2.59583 34.6267 2.9978 35.5493C3.39978 36.4719 3.89596 37.5589 4.1003 37.9648C4.30477 38.3707 4.73524 39.186 5.05707 39.7764C5.37889 40.3669 6.06174 41.4841 6.57465 42.259C7.08743 43.034 7.79745 44.0489 8.15232 44.5145C8.5072 44.98 9.02345 45.6389 9.29964 45.9787C9.57584 46.3184 10.2432 47.085 10.7828 47.682C11.3225 48.279 12.4064 49.3629 13.1915 50.0907C13.9766 50.8184 15.1852 51.8372 15.8773 52.3547C16.5694 52.8721 17.6533 53.6322 18.2859 54.0437C18.9186 54.455 20.3141 55.2277 21.3872 55.7607C22.5668 56.3466 24.1016 56.9731 25.2694 57.3454C26.3318 57.684 27.6338 58.0515 28.1627 58.1621C28.6918 58.2728 29.6846 58.4224 30.3691 58.4948C31.0534 58.5671 32.1339 58.6272 32.7701 58.6286C33.4062 58.6298 34.5504 58.5672 35.3126 58.4895C36.0748 58.4118 37.1379 58.2578 37.6751 58.1472C38.2123 58.0368 39.5371 57.6562 40.619 57.3018C41.7712 56.9243 43.39 56.2548 44.5265 55.6858C45.5936 55.1514 46.6474 54.5779 46.8682 54.4112C47.089 54.2444 47.4581 54.0106 47.6884 53.8917C47.9187 53.7728 48.7316 53.21 49.4948 52.641C50.2581 52.0721 51.2635 51.2697 51.7289 50.858C52.1943 50.4463 53.2107 49.4754 53.9877 48.7004C54.7646 47.9254 55.8644 46.7177 56.4316 46.0165C56.999 45.3153 57.8254 44.2284 58.2681 43.601C58.7109 42.9736 59.4663 41.821 59.9468 41.0397C60.4272 40.2583 61.1642 38.9298 61.5847 38.0875C62.005 37.245 62.6655 35.7707 63.0525 34.8112C63.4393 33.8517 63.8523 32.7647 63.97 32.3957C64.0878 32.0267 64.3315 31.151 64.5116 30.4499C64.6917 29.7487 64.9118 28.8429 65.0007 28.4369C65.0895 28.031 65.2425 27.3063 65.3407 26.8266C65.4388 26.3469 65.595 24.9122 65.6877 23.6385C65.8231 21.7798 65.8234 20.9056 65.6888 19.2101C65.5966 18.0481 65.4383 16.7049 65.3368 16.2252C65.2355 15.7454 65.0321 14.9 64.8849 14.3465C64.7379 13.7929 64.4551 12.8569 64.2568 12.2664C64.0585 11.676 63.565 10.5588 63.1602 9.78382C62.7553 9.00885 62.0771 7.89167 61.6529 7.30121C61.2289 6.71076 60.4329 5.76709 59.8842 5.20415C59.3354 4.6412 58.4248 3.83817 57.8605 3.41975C57.2963 3.00133 56.3987 2.4247 55.8659 2.13846C55.333 1.85209 54.3828 1.40589 53.7543 1.14676C53.1258 0.887628 52.0118 0.54892 51.2787 0.394193C50.4677 0.222826 49.16 0.080982 47.9387 0.0315982C46.6914 -0.018725 45.3996 0.0118701 44.5265 0.112382C43.7537 0.201488 42.5494 0.397279 41.8502 0.547443C41.151 0.697608 39.7299 1.13978 38.6922 1.52989C37.6544 1.92013 36.0286 2.64357 35.0792 3.13754C34.1298 3.63151 33.2957 4.091 33.2259 4.15877C33.1559 4.2264 33.0273 4.28183 32.9398 4.28183C32.8524 4.28183 31.9462 3.83213 30.9259 3.28261C29.9057 2.73308 28.1914 1.95099 27.1162 1.54451C26.0411 1.13817 24.5658 0.68486 23.8377 0.537111C23.1098 0.389496 22.0038 0.205514 21.3801 0.128084C20.7565 0.0507873 19.4619 -0.00651567 18.5031 0.000596672C17.5445 0.00770901 16.2403 0.0948038 15.6052 0.194108ZM22.3108 6.36386C22.8613 6.48665 23.771 6.7325 24.332 6.91031C24.8933 7.08811 25.8772 7.47674 26.5186 7.77385L27.6848 8.31412L26.2166 9.82059C25.4091 10.6491 24.3933 11.7498 23.9595 12.2664C23.5256 12.7831 22.8103 13.6889 22.3699 14.2794C21.9296 14.8698 21.2039 15.9266 20.7573 16.6278C20.3107 17.3289 19.7501 18.2633 19.5115 18.7043C19.2731 19.1453 18.9377 19.7491 18.7665 20.0463C18.595 20.3434 18.2012 21.1904 17.8912 21.9285C17.5811 22.6666 17.2819 23.3308 17.2265 23.4046C17.171 23.4784 16.9637 23.9917 16.7659 24.5453C16.568 25.0988 16.226 26.1556 16.0056 26.8937C15.7853 27.6318 15.5188 28.5376 15.4135 28.9066C15.308 29.2757 15.1044 30.2721 14.9606 31.1208C14.8171 31.9696 14.6284 33.4189 14.5414 34.3415C14.4476 35.3352 14.4148 36.8942 14.4609 38.1661C14.5037 39.347 14.6328 40.9171 14.7478 41.6552C14.8628 42.3932 14.9933 43.1179 15.0379 43.2655C15.0899 43.4377 14.9446 43.3413 14.6329 42.9971C14.3656 42.7019 13.6308 41.7771 13 40.942C12.3693 40.1071 11.5264 38.8993 11.1271 38.2581C10.7278 37.6171 9.95319 36.1867 9.40589 35.0796C8.85859 33.9725 8.1083 32.1911 7.73857 31.1208C7.36897 30.0506 6.94398 28.6547 6.79411 28.0188C6.64437 27.383 6.43214 26.2225 6.32268 25.4401C6.21309 24.6576 6.0857 23.3361 6.0394 22.5032C5.9927 21.6632 6.02361 20.2406 6.10885 19.3074C6.19342 18.3824 6.40939 16.9743 6.5887 16.178C6.79491 15.2631 7.16745 14.178 7.60114 13.23C7.97863 12.4048 8.55015 11.3747 8.87144 10.9409C9.19259 10.5069 9.73695 9.85374 10.0811 9.48913C10.4253 9.12466 11.015 8.59472 11.3917 8.31157C11.7684 8.02828 12.468 7.58423 12.9463 7.32457C13.4247 7.0649 14.2473 6.7227 14.7742 6.56421C15.3012 6.40573 16.0238 6.22322 16.38 6.15868C16.7362 6.09413 17.9911 6.06367 19.1687 6.09091C20.4965 6.12177 21.6899 6.22538 22.3108 6.36386ZM50.725 6.48276C51.3744 6.67707 52.1422 6.957 52.4313 7.10489C52.7204 7.2529 53.3634 7.63965 53.8601 7.96454C54.3568 8.28943 55.1571 8.96751 55.6384 9.47142C56.1197 9.97545 56.7949 10.813 57.139 11.3327C57.483 11.8524 57.8918 12.5662 58.0473 12.919C58.2029 13.2717 58.5367 14.1619 58.7889 14.8973C59.0411 15.6327 59.3496 16.7908 59.4743 17.4711C59.6397 18.3741 59.701 19.4502 59.701 21.4588C59.701 23.7258 59.6475 24.5136 59.3966 25.9368C59.229 26.8865 59.0407 27.7923 58.9781 27.9497C58.9155 28.107 58.7005 28.8395 58.5001 29.5776C58.2999 30.3157 57.9994 31.2819 57.8323 31.7247C57.6653 32.1676 57.2189 33.2243 56.8402 34.0731C56.4616 34.9219 55.7303 36.341 55.2151 37.2267C54.6998 38.1124 53.9359 39.325 53.5172 39.9214C53.0986 40.5177 52.4179 41.4235 52.0047 41.9343C51.5914 42.445 51.1314 42.9719 50.9823 43.1051C50.7118 43.3471 50.7116 43.3466 50.8873 42.5013C50.9841 42.0359 51.1279 41.0687 51.2071 40.352C51.2862 39.6354 51.351 38.2076 51.351 37.1791C51.351 36.1507 51.2886 34.684 51.2123 33.9196C51.1361 33.1552 50.9878 32.077 50.8828 31.5234C50.7779 30.9699 50.5066 29.7621 50.2799 28.8395C50.0533 27.9169 49.755 26.7998 49.617 26.3569C49.4789 25.9141 49.0596 24.7801 48.685 23.837C48.3103 22.8939 47.7549 21.6257 47.4506 21.0189C47.1463 20.4121 46.7748 19.7797 46.6252 19.6136C46.4455 19.4141 46.2001 19.3117 45.9019 19.3117C45.605 19.3117 45.0983 19.5221 44.4198 19.927C43.853 20.2654 42.7869 20.9277 42.0509 21.3987C41.3149 21.8696 40.1708 22.5878 39.5084 22.9947C38.8461 23.4015 37.6417 24.1522 36.8322 24.663C36.0226 25.1737 34.8046 25.927 34.1254 26.3368C33.4463 26.7468 32.5581 27.3285 32.1516 27.6296C31.5375 28.0845 31.4127 28.2458 31.4127 28.5848C31.4127 28.8307 31.6572 29.4014 32.0289 30.0231C32.3679 30.59 32.8828 31.4252 33.1734 31.879C33.4974 32.3854 33.8525 32.7671 34.0919 32.8666C34.3661 32.9805 34.5929 32.9891 34.8543 32.8957C35.059 32.8226 35.6178 32.5162 36.0962 32.2149C36.5746 31.9138 37.3875 31.4024 37.9027 31.0787C38.4179 30.755 39.5319 30.0552 40.3782 29.5237C41.2246 28.9922 42.3001 28.3155 42.7683 28.02C43.2364 27.7244 43.6378 27.5011 43.6603 27.5236C43.6828 27.5461 43.945 28.4403 44.2432 29.5105C44.5413 30.5807 44.8908 32.03 45.0198 32.7312C45.2001 33.7105 45.2541 34.7216 45.2533 37.0925C45.2524 39.509 45.2009 40.433 45.0157 41.3496C44.8856 41.9933 44.5691 43.1105 44.3122 43.8322C44.0554 44.5538 43.7044 45.4531 43.5325 45.8306C43.3604 46.2081 42.885 46.996 42.4759 47.5816C42.0668 48.1671 41.3619 48.9946 40.9095 49.4206C40.457 49.8466 39.7761 50.3942 39.3962 50.6374C39.0163 50.8807 38.3282 51.2704 37.8671 51.5033C37.4058 51.7364 36.5026 52.0574 35.8599 52.2166C34.9788 52.4347 34.2629 52.5078 32.9515 52.5134C31.7285 52.5187 30.8942 52.4485 30.1415 52.277C29.5527 52.1428 28.5591 51.7892 27.9335 51.4911C27.3079 51.1931 26.5234 50.7549 26.1901 50.5174C25.8567 50.2797 25.2746 49.7996 24.8965 49.4503C24.5184 49.101 23.8836 48.3818 23.4859 47.852C23.0882 47.3222 22.4869 46.3151 22.1494 45.6139C21.8119 44.9127 21.412 43.9163 21.2606 43.3997C21.1091 42.883 20.8792 41.8866 20.7498 41.1855C20.5743 40.2358 20.5139 39.2089 20.5131 37.1596C20.5122 35.1938 20.5784 33.9874 20.745 32.9325C20.8732 32.1206 21.1252 30.8637 21.305 30.1393C21.4849 29.415 21.9373 27.9824 22.3105 26.9558C22.6836 25.9291 23.4087 24.2573 23.9219 23.2405C24.4351 22.2236 25.1735 20.8784 25.5627 20.251C25.952 19.6237 26.7051 18.5367 27.2362 17.8355C27.7673 17.1344 28.5298 16.1605 28.9304 15.6715C29.3311 15.1825 30.3696 14.1171 31.2383 13.3042C32.107 12.4911 33.1489 11.56 33.5537 11.2351C33.9585 10.9104 34.5607 10.4595 34.8919 10.2335C35.223 10.0074 35.9633 9.53785 36.5368 9.19001C37.1104 8.84218 38.2234 8.25615 39.0104 7.88765C39.7973 7.51915 40.8937 7.07443 41.4467 6.8993C41.9998 6.72418 42.904 6.48786 43.456 6.37406C44.0079 6.26013 44.6402 6.1407 44.861 6.10849C45.0818 6.07628 46.2259 6.06796 47.4035 6.08983C49.2553 6.12419 49.7039 6.1772 50.725 6.48276ZM94.1715 12.1415C93.9875 12.1738 93.3893 12.2666 92.8422 12.3476C92.2951 12.4288 91.0306 12.7617 90.0321 13.0877C88.8886 13.4609 87.7215 13.9584 86.8786 14.4317C86.1426 14.845 85.2402 15.4227 84.8733 15.7155C84.5064 16.0082 83.9343 16.5047 83.602 16.8189C83.2698 17.133 82.727 17.6909 82.3958 18.0586C82.0647 18.4263 81.7026 18.8435 81.5911 18.9858C81.4796 19.1281 81.263 19.4257 81.1095 19.6472C80.9561 19.8686 80.5238 20.6262 80.1488 21.3309C79.7738 22.0356 79.3105 23.0924 79.1193 23.6793C78.928 24.2663 78.6169 25.5896 78.428 26.6201C78.1357 28.2135 78.094 28.7551 78.1486 30.2433C78.1865 31.2787 78.3315 32.5595 78.5036 33.3803C78.6636 34.1432 78.9492 35.2583 79.1381 35.8583C79.3272 36.4583 79.8194 37.5756 80.2319 38.3414C80.6445 39.1071 81.4412 40.2866 82.0024 40.9627C82.5636 41.6388 83.4388 42.5446 83.9472 42.9755C84.4555 43.4065 85.412 44.0916 86.0727 44.4978C86.7333 44.9042 87.6666 45.3866 88.1468 45.5699C88.6269 45.7532 89.5014 46.0433 90.0901 46.2148C90.6789 46.3862 91.522 46.6051 91.9635 46.7012C92.4372 46.8042 93.6168 46.8739 94.8406 46.8708C95.9813 46.868 97.3061 46.7907 97.7845 46.6989C98.2628 46.6072 99.0457 46.4117 99.524 46.2646C100.002 46.1174 100.873 45.8113 101.458 45.5845C102.043 45.3576 103.097 44.7955 103.8 44.3353C104.502 43.8751 105.409 43.1569 105.813 42.7392L106.549 41.9798L106.616 43.809C106.679 45.5292 106.702 45.6535 106.999 45.8944C107.285 46.1264 107.554 46.1507 109.843 46.1507C112.168 46.1507 112.391 46.1298 112.63 45.8898C112.774 45.7462 112.928 45.4293 112.973 45.1853C113.019 44.9413 113.038 41.739 113.014 38.0691L112.972 31.3965L112.668 31.0909L112.363 30.7854H105.664H98.9656L98.6426 31.1619C98.3314 31.5249 98.3197 31.6131 98.3197 33.6198C98.3197 34.9447 98.3763 35.8076 98.4753 35.9943C98.561 36.1554 98.7267 36.3609 98.8433 36.4508C98.9896 36.5634 99.7321 36.6156 101.23 36.6186C102.926 36.6219 103.405 36.6614 103.405 36.7978C103.405 36.8941 103.209 37.1575 102.97 37.3832C102.73 37.6089 102.174 38.0346 101.732 38.3293C101.29 38.6238 100.652 38.9874 100.312 39.137C99.9734 39.2866 99.2809 39.5197 98.7736 39.655C98.0933 39.8364 97.3599 39.902 95.978 39.9049C94.5785 39.9077 93.8507 39.8449 93.101 39.6563C92.549 39.5174 91.7294 39.2386 91.2795 39.0366C90.8296 38.8346 90.0641 38.3561 89.5782 37.9731C89.0923 37.5903 88.3913 36.8943 88.0202 36.4268C87.6493 35.9592 87.1682 35.1931 86.9511 34.7243C86.7341 34.2555 86.3934 33.3284 86.1938 32.6641C85.8809 31.6223 85.8295 31.2074 85.8196 29.6447C85.8124 28.5036 85.8753 27.5847 85.9896 27.1621C86.0894 26.7931 86.287 26.138 86.4287 25.7066C86.5704 25.275 86.8411 24.6159 87.0302 24.2417C87.2192 23.8677 87.6957 23.1337 88.089 22.6109C88.5086 22.0529 89.2032 21.3614 89.7702 20.9372C90.3016 20.5396 91.1027 20.0489 91.5506 19.847C91.9985 19.645 92.7722 19.3785 93.2697 19.2549C93.7674 19.1312 94.6786 18.9943 95.2949 18.9507C95.9534 18.9041 96.8768 18.9417 97.5348 19.0418C98.1504 19.1355 99.1059 19.3553 99.6579 19.53C100.21 19.7049 100.88 19.9839 101.148 20.1501C101.415 20.3164 101.875 20.6147 102.169 20.8132C102.463 21.0115 103.058 21.5695 103.489 22.0529C103.921 22.5362 104.488 23.3089 104.748 23.77C105.009 24.231 105.38 24.6972 105.574 24.806C105.888 24.983 106.007 24.9781 106.705 24.7593C107.135 24.6249 108.386 24.1583 109.487 23.7225C110.587 23.2868 111.626 22.8394 111.795 22.7283C111.979 22.6072 112.103 22.3925 112.103 22.1931C112.103 22.0099 111.765 21.2112 111.353 20.4181C110.941 19.625 110.384 18.7137 110.116 18.3928C109.847 18.072 109.5 17.6338 109.346 17.419C109.191 17.2043 108.619 16.6349 108.074 16.1537C107.53 15.6724 106.693 15.0452 106.215 14.7599C105.736 14.4746 104.984 14.0581 104.542 13.8341C104.1 13.6101 103.017 13.2176 102.133 12.9618C101.25 12.7061 100.136 12.4267 99.6579 12.3409C99.1795 12.2552 97.8246 12.162 96.647 12.1338C95.4695 12.1058 94.3555 12.1092 94.1715 12.1415ZM142.411 12.7515C142.264 12.8352 142.069 12.9983 141.977 13.1139C141.845 13.2795 141.809 16.7547 141.809 29.469C141.809 45.2337 141.815 45.62 142.067 45.8726C142.209 46.0149 142.597 46.1723 142.93 46.2222C143.262 46.2723 146.804 46.285 150.801 46.2508C157.502 46.1934 158.183 46.1663 159.552 45.9034C160.368 45.7465 161.432 45.4956 161.917 45.3455C162.401 45.1956 163.426 44.7763 164.194 44.4138C165.024 44.0222 166.128 43.3472 166.914 42.751C167.642 42.1991 168.609 41.3289 169.063 40.8174C169.517 40.306 170.233 39.351 170.655 38.6955C171.076 38.0399 171.597 37.079 171.811 36.56C172.025 36.041 172.323 35.1937 172.473 34.677C172.622 34.1604 172.84 33.3451 172.956 32.8654C173.109 32.2356 173.17 31.2844 173.176 29.4434C173.182 27.7864 173.122 26.6119 173.007 26.0885C172.909 25.6457 172.74 24.9814 172.631 24.6124C172.521 24.2433 172.278 23.4885 172.091 22.9349C171.904 22.3814 171.382 21.3014 170.931 20.535C170.48 19.7685 169.7 18.6859 169.199 18.1293C168.697 17.5725 167.773 16.7146 167.145 16.2226C166.517 15.7307 165.331 14.9906 164.511 14.5779C163.69 14.1654 162.479 13.6709 161.819 13.479C161.158 13.2873 160.074 13.0312 159.41 12.9102C158.402 12.7266 156.912 12.6824 150.44 12.6447C144.827 12.6119 142.605 12.6415 142.411 12.7515ZM220.265 12.9257L219.89 13.2494L219.823 19.0324L219.756 24.8156L219.087 24.1997C218.719 23.861 217.996 23.3787 217.481 23.1279C216.966 22.8771 216.063 22.5509 215.474 22.4029C214.819 22.2383 213.953 22.1331 213.241 22.1318C212.602 22.1307 211.655 22.2191 211.137 22.3285C210.619 22.4379 209.817 22.6549 209.355 22.8107C208.894 22.9666 208.215 23.2437 207.847 23.4264C207.479 23.6091 206.728 24.1018 206.179 24.521C205.63 24.9404 204.847 25.6842 204.439 26.174C204.032 26.664 203.492 27.4091 203.24 27.8301C202.988 28.2511 202.575 29.2091 202.323 29.9588C202.071 30.7086 201.781 31.8354 201.678 32.4628C201.575 33.0902 201.491 34.0146 201.491 34.5171C201.491 35.0196 201.555 35.865 201.635 36.3958C201.714 36.9267 201.995 38.0155 202.259 38.8156C202.524 39.6155 202.945 40.6119 203.196 41.0298C203.446 41.4476 203.898 42.1097 204.199 42.5011C204.499 42.8927 205.052 43.4893 205.426 43.8271C205.801 44.1647 206.466 44.6858 206.905 44.9851C207.344 45.2842 208.157 45.7207 208.712 45.955C209.266 46.1893 210.081 46.4914 210.523 46.6263C211.122 46.8093 211.783 46.8735 213.132 46.8795C214.677 46.8865 215.073 46.8427 215.862 46.5778C216.37 46.4075 217.132 46.0927 217.556 45.8781C217.98 45.6637 218.693 45.1477 219.142 44.7314L219.957 43.9747V44.7795C219.957 45.3717 220.024 45.6679 220.212 45.901C220.467 46.2162 220.483 46.2178 223.353 46.2178C226.177 46.2178 226.245 46.2113 226.543 45.9121L226.848 45.6064V29.428V13.2497L226.473 12.9257C226.102 12.6063 226.06 12.6019 223.369 12.6019C220.678 12.6019 220.636 12.6063 220.265 12.9257ZM247.341 12.931L246.987 13.2601V19.0368C246.987 22.2142 246.939 24.8137 246.88 24.8137C246.82 24.8137 246.565 24.5957 246.311 24.3294C246.057 24.063 245.639 23.7102 245.381 23.5454C245.124 23.3806 244.522 23.0894 244.043 22.8983C243.565 22.7071 242.726 22.4488 242.179 22.3239C241.438 22.1551 240.824 22.1151 239.771 22.1671C238.993 22.2055 237.995 22.3355 237.553 22.4559C237.112 22.5764 236.345 22.8289 235.849 23.0172C235.353 23.2055 234.515 23.6499 233.986 24.0049C233.457 24.3598 232.64 25.0342 232.17 25.5036C231.7 25.9728 231.049 26.7494 230.722 27.2292C230.395 27.7089 229.919 28.6169 229.664 29.2469C229.408 29.877 229.092 30.7828 228.96 31.2599C228.773 31.9396 228.722 32.6356 228.722 34.4757C228.722 36.0465 228.784 37.0685 228.909 37.5622C229.012 37.9682 229.328 38.874 229.612 39.5751C229.896 40.2763 230.411 41.266 230.757 41.7745C231.102 42.2829 231.773 43.0843 232.247 43.5552C232.721 44.0261 233.51 44.6783 233.999 45.0045C234.488 45.3306 235.398 45.8033 236.02 46.0545C236.643 46.3058 237.483 46.5964 237.888 46.7001C238.329 46.8132 239.294 46.8884 240.296 46.8877C241.321 46.887 242.228 46.8136 242.638 46.6983C243.006 46.5949 243.789 46.2727 244.378 45.9823C245.061 45.6451 245.726 45.1815 246.218 44.6995L246.987 43.9449V44.7049C246.987 45.3148 247.051 45.539 247.31 45.8412L247.633 46.2178H250.534C253.42 46.2178 253.435 46.2163 253.69 45.901C253.938 45.593 253.945 45.1335 253.945 29.4225V13.2607L253.617 12.9314C253.289 12.6026 253.283 12.6019 250.492 12.6019C247.709 12.6019 247.694 12.6035 247.341 12.931ZM279.37 17.8355C279.37 18.0434 279.459 18.1039 279.766 18.1039H280.162L280.201 19.1439C280.237 20.1001 280.264 20.1873 280.535 20.2261C280.815 20.2661 280.833 20.2144 280.87 19.2196C280.909 18.1866 280.915 18.1703 281.277 18.1286C281.537 18.0986 281.645 18.01 281.645 17.8267C281.645 17.5905 281.543 17.5671 280.508 17.5671C279.459 17.5671 279.37 17.5882 279.37 17.8355ZM282.103 17.7462C282.066 17.8445 282.053 18.4334 282.074 19.0546C282.111 20.1015 282.135 20.187 282.407 20.2259C282.678 20.2645 282.705 20.2047 282.742 19.4879L282.782 18.7078L283.01 19.211C283.184 19.5964 283.315 19.7143 283.57 19.7143C283.832 19.7143 283.94 19.6097 284.078 19.2204L284.254 18.7266L284.321 19.4553C284.378 20.0722 284.429 20.1839 284.656 20.1839C284.903 20.1839 284.926 20.0817 284.962 18.8755L285 17.5671H284.552C284.162 17.5671 284.068 17.6383 283.823 18.1222L283.542 18.6771L283.26 18.1222C283.024 17.6572 282.912 17.5671 282.575 17.5671C282.353 17.5671 282.141 17.6477 282.103 17.7462ZM158.36 19.6391C158.862 19.7454 159.513 19.9314 159.807 20.0527C160.102 20.1739 160.798 20.5703 161.355 20.9336C161.942 21.3171 162.695 21.9736 163.15 22.4993C163.628 23.0521 164.157 23.8773 164.509 24.6186C164.825 25.2863 165.186 26.2525 165.31 26.7657C165.46 27.3862 165.536 28.261 165.536 29.3763C165.536 30.4916 165.46 31.3664 165.31 31.9869C165.186 32.5001 164.826 33.4675 164.509 34.1367C164.128 34.9439 163.636 35.6969 163.048 36.373C162.459 37.0497 161.817 37.6076 161.138 38.0324C160.574 38.3846 159.683 38.8298 159.158 39.022C158.209 39.3686 158.164 39.3718 153.685 39.4157L149.169 39.46V29.4529V19.4459H153.309C156.4 19.4459 157.679 19.4949 158.36 19.6391ZM124.815 22.388C124.263 22.5126 123.48 22.7268 123.075 22.8637C122.671 23.0007 122.068 23.2414 121.737 23.3986C121.406 23.5559 120.714 23.9609 120.198 24.2986C119.683 24.6365 118.922 25.2377 118.507 25.6349C118.093 26.032 117.453 26.7533 117.085 27.2379C116.718 27.7225 116.319 28.3096 116.199 28.5427C116.078 28.7758 115.771 29.4866 115.516 30.1222C115.26 30.7578 114.952 31.8012 114.831 32.4407C114.668 33.3034 114.631 34.0191 114.686 35.2138C114.75 36.5763 114.832 37.0332 115.223 38.1822C115.476 38.9293 115.846 39.8653 116.044 40.2622C116.242 40.6593 116.737 41.4225 117.145 41.9582C117.553 42.4939 118.196 43.2113 118.574 43.5525C118.952 43.8937 119.615 44.4133 120.046 44.7073C120.478 45.0013 121.215 45.4168 121.686 45.6306C122.156 45.8443 122.988 46.1657 123.534 46.3446C124.081 46.5235 125.024 46.7428 125.631 46.8317C126.318 46.9325 127.277 46.9604 128.175 46.9057C129.085 46.8503 130.049 46.6923 130.795 46.476C131.443 46.288 132.531 45.8698 133.212 45.5468C133.905 45.2182 134.878 44.6093 135.421 44.1641C135.955 43.7266 136.684 43.046 137.042 42.6517C137.4 42.2576 137.827 41.7211 137.991 41.4596C138.155 41.1981 138.536 40.5254 138.837 39.9647C139.138 39.4039 139.521 38.4377 139.687 37.8176C139.942 36.8641 139.988 36.3583 139.985 34.5428C139.982 32.7684 139.931 32.2127 139.693 31.3412C139.534 30.7612 139.155 29.795 138.85 29.1941C138.545 28.5931 138.129 27.8599 137.926 27.5647C137.723 27.2694 137.183 26.6198 136.726 26.1209C136.233 25.5828 135.337 24.8416 134.521 24.2984C133.533 23.6408 132.793 23.2655 131.891 22.9661C131.201 22.7367 130.184 22.4548 129.632 22.3395C129.047 22.2174 128.042 22.1365 127.224 22.1456C126.45 22.1542 125.367 22.2632 124.815 22.388ZM184.563 22.2206C184.416 22.2534 183.818 22.4006 183.234 22.5478C182.65 22.695 181.744 23.0138 181.22 23.2563C180.697 23.499 179.85 24.005 179.338 24.381C178.826 24.757 178.133 25.3554 177.798 25.7108C177.464 26.0661 176.869 26.8326 176.478 27.414C176.087 27.9954 175.594 28.9473 175.382 29.5293C175.17 30.1113 174.876 31.1424 174.728 31.8208C174.552 32.6326 174.46 33.5521 174.46 34.511C174.46 35.57 174.549 36.3644 174.787 37.4194C174.966 38.2179 175.265 39.2461 175.451 39.7044C175.637 40.1628 176.115 41.0344 176.513 41.6412C176.912 42.2482 177.613 43.1147 178.071 43.5669C178.529 44.019 179.304 44.655 179.793 44.98C180.282 45.3051 181.194 45.7827 181.82 46.0416C182.445 46.3003 183.288 46.5966 183.693 46.7C184.129 46.8112 185.11 46.888 186.102 46.8882C187.123 46.8885 188.035 46.816 188.443 46.7018C188.811 46.599 189.656 46.2571 190.321 45.9422C191.201 45.5248 191.701 45.1853 192.161 44.6921L192.792 44.0151V44.7399C192.792 45.3124 192.86 45.5439 193.115 45.8412L193.438 46.2178L195.891 46.2602C197.24 46.2835 198.543 46.265 198.787 46.2191C199.031 46.1732 199.347 46.0184 199.491 45.8748C199.744 45.6206 199.751 45.329 199.751 34.5368V23.4595L199.422 23.1302C199.095 22.8017 199.086 22.8007 196.334 22.8007H193.575L193.184 23.193C192.851 23.5266 192.792 23.6903 192.792 24.287V24.9887L191.995 24.2255C191.535 23.7855 190.84 23.2966 190.355 23.071C189.893 22.8558 189.048 22.556 188.479 22.4047C187.741 22.2084 187.071 22.1342 186.138 22.1453C185.419 22.1539 184.71 22.1877 184.563 22.2206ZM256.015 22.9285C255.865 22.9893 255.662 23.1361 255.564 23.2547C255.466 23.3732 255.391 23.697 255.397 23.9743C255.403 24.2514 255.655 25.2632 255.957 26.2227C256.258 27.1822 256.796 28.9335 257.152 30.1144C257.508 31.2953 257.934 32.6499 258.099 33.1245C258.264 33.5992 258.686 34.9277 259.036 36.0768C259.386 37.2259 260.037 39.3437 260.483 40.7829C260.928 42.2221 261.449 43.8828 261.64 44.4733C261.832 45.0645 262.137 45.6975 262.319 45.8823C262.63 46.1985 262.746 46.2205 264.324 46.2653C265.926 46.3107 265.994 46.3242 265.913 46.5809C265.866 46.7283 265.721 47.2236 265.591 47.6815C265.46 48.1395 265.261 48.6918 265.149 48.9092C265.036 49.1265 264.802 49.4331 264.63 49.5905C264.457 49.7479 264.105 49.9891 263.848 50.1264C263.5 50.3118 263.105 50.3744 262.309 50.3695C261.499 50.3648 261.108 50.296 260.703 50.0864C260.409 49.9341 259.837 49.6215 259.432 49.3916C259.027 49.1618 258.544 48.9726 258.358 48.9712C258.172 48.9699 257.885 49.0633 257.721 49.1787C257.556 49.2941 257.215 49.7016 256.962 50.0845C256.709 50.4672 256.258 51.1411 255.96 51.582C255.662 52.0229 255.382 52.5762 255.338 52.8116C255.294 53.0471 255.297 53.3611 255.344 53.5095C255.391 53.6578 255.622 53.9705 255.858 54.2044C256.094 54.4382 256.645 54.8119 257.083 55.0351C257.521 55.2583 258.123 55.528 258.421 55.6347C258.719 55.7415 259.527 55.9459 260.216 56.0892C260.958 56.2432 262.001 56.3495 262.775 56.3495C263.711 56.3495 264.437 56.2588 265.336 56.0297C266.026 55.8539 266.966 55.5277 267.424 55.3047C267.883 55.0818 268.596 54.6094 269.01 54.2549C269.423 53.9003 270.076 53.1849 270.46 52.6651C270.844 52.1452 271.315 51.3575 271.506 50.9146C271.697 50.4718 272.037 49.566 272.262 48.9017C272.487 48.2374 272.856 46.9995 273.082 46.1507C273.308 45.3019 273.665 44.064 273.875 43.3997C274.086 42.7354 274.48 41.3767 274.75 40.3803C275.021 39.3839 275.359 38.2365 275.501 37.8306C275.644 37.4247 276.057 36.0357 276.42 34.7441C276.782 33.4525 277.354 31.4295 277.691 30.2486C278.028 29.0677 278.477 27.558 278.689 26.8937C278.901 26.2294 279.171 25.3446 279.289 24.9272C279.407 24.5099 279.503 23.9966 279.502 23.7865C279.501 23.5765 279.456 23.3382 279.402 23.257C279.348 23.1758 279.172 23.0399 279.011 22.9551C278.819 22.8538 277.8 22.8007 276.042 22.8007C274.57 22.8007 273.215 22.8584 273.03 22.9289C272.845 22.9995 272.594 23.21 272.471 23.397C272.349 23.5839 271.949 24.8699 271.582 26.2547C271.215 27.6394 270.596 29.9802 270.206 31.4563C269.816 32.9325 269.288 34.8951 269.032 35.8177C268.776 36.7403 268.427 38.084 268.255 38.8035C268.084 39.5231 267.91 40.1114 267.869 40.1107C267.829 40.1102 267.632 39.5817 267.433 38.9365C267.234 38.2914 266.914 37.1596 266.722 36.4216C266.53 35.6835 266.25 34.6871 266.1 34.2073C265.951 33.7276 265.478 32.0971 265.049 30.5841C264.62 29.071 264.001 26.8971 263.672 25.753C263.343 24.609 263.03 23.5651 262.976 23.4332C262.922 23.3013 262.708 23.1051 262.5 22.9971C262.2 22.8415 261.516 22.8025 259.204 22.8092C257.6 22.8139 256.165 22.8676 256.015 22.9285ZM215.99 28.9153C216.442 29.0308 217.129 29.3159 217.517 29.549C217.949 29.8084 218.437 30.2684 218.775 30.7346C219.079 31.1536 219.482 31.8497 219.669 32.2815C219.967 32.9675 220.01 33.2531 220.008 34.5428C220.007 35.7056 219.949 36.163 219.737 36.6971C219.588 37.0701 219.218 37.743 218.914 38.1923C218.56 38.7144 218.129 39.1493 217.72 39.3973C217.368 39.6107 216.81 39.9041 216.48 40.0493C216.007 40.2577 215.584 40.3127 214.473 40.3107C213.097 40.3082 213.043 40.2964 212.089 39.7877C211.518 39.4833 210.892 39.0158 210.582 38.6619C210.289 38.329 209.856 37.6608 209.619 37.1772C209.231 36.3872 209.182 36.1533 209.139 34.8791C209.105 33.8925 209.15 33.2574 209.288 32.7938C209.396 32.4272 209.628 31.8729 209.803 31.5619C209.978 31.2509 210.338 30.7372 210.603 30.4202C210.868 30.1031 211.41 29.6662 211.807 29.4492C212.205 29.2321 212.831 28.9811 213.199 28.8913C213.567 28.8015 214.161 28.723 214.518 28.7167C214.875 28.7104 215.538 28.7998 215.99 28.9153ZM243.035 28.9111C243.468 29.0242 244.12 29.2789 244.483 29.4771C244.846 29.6753 245.355 30.081 245.614 30.3785C245.873 30.6761 246.303 31.3725 246.57 31.926C247.044 32.9107 247.054 32.9672 247.054 34.5428C247.054 36.1153 247.043 36.177 246.57 37.1726C246.304 37.7333 245.865 38.4386 245.593 38.74C245.322 39.0416 244.666 39.5158 244.136 39.7941C243.196 40.2883 243.139 40.3003 241.701 40.3068C240.408 40.3124 240.149 40.2738 239.56 39.9871C239.193 39.8078 238.673 39.5249 238.406 39.3584C238.139 39.192 237.65 38.667 237.318 38.192C236.987 37.7168 236.604 37.0034 236.467 36.6065C236.282 36.0702 236.22 35.5226 236.227 34.4757C236.235 33.3627 236.298 32.9117 236.527 32.3286C236.686 31.9227 237.088 31.2289 237.42 30.7868C237.771 30.3196 238.317 29.8016 238.725 29.5493C239.111 29.3106 239.758 29.027 240.163 28.9191C240.567 28.8112 241.202 28.719 241.573 28.7142C241.944 28.7094 242.602 28.7979 243.035 28.9111ZM128.979 29.0305C129.319 29.1339 129.831 29.3385 130.117 29.4849C130.404 29.6313 130.946 30.0779 131.323 30.4772C131.699 30.8767 132.099 31.3812 132.211 31.5983C132.323 31.8154 132.541 32.3805 132.696 32.854C132.86 33.3568 132.978 34.0631 132.978 34.5521C132.978 35.0874 132.859 35.7409 132.649 36.3638C132.468 36.8998 132.13 37.6152 131.897 37.9535C131.665 38.2918 131.196 38.7955 130.855 39.0727C130.514 39.35 129.828 39.7327 129.331 39.9231C128.617 40.197 128.195 40.2688 127.311 40.2662C126.3 40.2634 126.089 40.2142 125.068 39.7411C124.163 39.3216 123.803 39.0626 123.241 38.4241C122.856 37.9869 122.422 37.3145 122.276 36.9297C122.131 36.5449 121.952 35.8552 121.878 35.397C121.791 34.854 121.789 34.2473 121.873 33.6547C121.944 33.1547 122.149 32.4121 122.329 32.0044C122.508 31.5967 122.944 30.9543 123.296 30.5768C123.648 30.1993 124.196 29.7376 124.514 29.5508C124.832 29.3638 125.346 29.1314 125.656 29.0342C125.966 28.9369 126.702 28.8542 127.29 28.85C127.879 28.8458 128.639 28.927 128.979 29.0305ZM189.139 29.0412C189.511 29.1521 190.089 29.3958 190.422 29.5824C190.755 29.7692 191.234 30.1766 191.487 30.488C191.739 30.7992 192.101 31.3255 192.291 31.6576C192.481 31.9898 192.707 32.5288 192.793 32.8556C192.879 33.1824 192.948 33.954 192.946 34.5703C192.944 35.202 192.847 36.021 192.724 36.4477C192.603 36.864 192.275 37.5418 191.994 37.9538C191.714 38.3658 191.342 38.8332 191.168 38.9926C190.994 39.1519 190.487 39.4672 190.04 39.6932C189.594 39.9193 188.906 40.1736 188.511 40.2585C188.087 40.3497 187.435 40.3757 186.915 40.3223C186.333 40.2626 185.715 40.0781 185.09 39.7767C184.571 39.5262 183.976 39.1519 183.77 38.945C183.563 38.738 183.222 38.3189 183.012 38.0136C182.802 37.7083 182.502 37.1347 182.346 36.7388C182.189 36.3429 182.029 35.5638 181.99 35.0074C181.951 34.451 181.987 33.6767 182.071 33.2868C182.154 32.8966 182.374 32.2573 182.558 31.8662C182.743 31.4749 183.14 30.8743 183.44 30.5317C183.741 30.1891 184.254 29.7522 184.58 29.5607C184.905 29.3692 185.456 29.134 185.804 29.038C186.152 28.9421 186.892 28.8582 187.449 28.8515C188.006 28.8449 188.767 28.9302 189.139 29.0412Z" fill="#001B38"></path>
</svg>
