<?xml version="1.0" encoding="UTF-8"?>
<svg xmlns="http://www.w3.org/2000/svg" width="360" height="71" viewBox="0 0 360 71" fill="none">
  <path d="M89.1055 55.9295V22.9668H96.4142V37.28H120.675V22.9668H127.984V55.9295H120.675V43.4704H96.424V55.9295H89.1055Z" fill="#001B38"></path>
  <path d="M148.644 56.7537C143.804 56.7537 139.906 55.5012 136.95 52.9963C135.557 51.7425 134.443 50.2098 133.681 48.4977C132.918 46.7857 132.524 44.9326 132.524 43.0585C132.524 41.1844 132.918 39.3312 133.681 37.6192C134.443 35.9072 135.557 34.3745 136.95 33.1206C139.899 30.6157 143.797 29.3633 148.644 29.3633C153.49 29.3633 157.414 30.6157 160.416 33.1206C161.809 34.3745 162.922 35.9072 163.685 37.6192C164.447 39.3312 164.841 41.1844 164.841 43.0585C164.841 44.9326 164.447 46.7857 163.685 48.4977C162.922 50.2098 161.809 51.7425 160.416 52.9963C157.46 55.5012 153.536 56.7537 148.644 56.7537ZM148.644 51.0931C151.105 51.2111 153.524 50.4223 155.442 48.876C156.253 48.1333 156.901 47.23 157.344 46.2234C157.788 45.2167 158.017 44.1289 158.017 43.029C158.017 41.9291 157.788 40.8413 157.344 39.8347C156.901 38.8281 156.253 37.9248 155.442 37.1821C153.524 35.6358 151.105 34.847 148.644 34.965C146.194 34.8498 143.79 35.6468 141.894 37.2017C141.05 37.9257 140.38 38.8311 139.935 39.8504C139.49 40.8697 139.281 41.9765 139.324 43.0879C139.285 44.1887 139.497 45.2838 139.942 46.2913C140.387 47.2988 141.054 48.1925 141.894 48.9054C143.801 50.4335 146.203 51.2085 148.644 51.0833V51.0931Z" fill="#001B38"></path>
  <path d="M184.229 56.7537C179.389 56.7537 175.491 55.5012 172.535 52.9963C171.142 51.7425 170.028 50.2098 169.266 48.4977C168.503 46.7857 168.109 44.9326 168.109 43.0585C168.109 41.1844 168.503 39.3312 169.266 37.6192C170.028 35.9072 171.142 34.3745 172.535 33.1206C175.484 30.6157 179.382 29.3633 184.229 29.3633C189.075 29.3633 192.999 30.6157 196.001 33.1206C197.394 34.3745 198.507 35.9072 199.27 37.6192C200.032 39.3312 200.426 41.1844 200.426 43.0585C200.426 44.9326 200.032 46.7857 199.27 48.4977C198.507 50.2098 197.394 51.7425 196.001 52.9963C193.025 55.5012 189.101 56.7537 184.229 56.7537ZM184.229 51.0931C186.69 51.2111 189.109 50.4223 191.027 48.876C191.838 48.1333 192.486 47.23 192.929 46.2234C193.373 45.2167 193.602 44.1289 193.602 43.029C193.602 41.9291 193.373 40.8413 192.929 39.8347C192.486 38.8281 191.838 37.9248 191.027 37.1821C189.109 35.6358 186.69 34.847 184.229 34.965C181.779 34.8498 179.375 35.6468 177.479 37.2017C176.635 37.9257 175.965 38.8311 175.52 39.8504C175.075 40.8697 174.866 41.9765 174.909 43.0879C174.87 44.1887 175.082 45.2838 175.527 46.2913C175.972 47.2988 176.639 48.1925 177.479 48.9054C179.386 50.4335 181.788 51.2085 184.229 51.0833V51.0931Z" fill="#001B38"></path>
  <path d="M213.905 56.4339C212.746 56.4946 211.591 56.2664 210.543 55.7697C209.495 55.2731 208.587 54.5237 207.901 53.5889C206.92 52.2547 206.184 50.4986 206.184 46.653V35.4496H202.476V30.1422H207.214V22.9316H213.493V30.1422H220.909V35.4496H213.493V45.0834C213.434 47.9578 213.895 49.0075 214.601 49.704C215.827 50.9303 219.565 50.0964 220.909 49.2429V54.825C219.34 55.9434 216.514 56.4339 213.905 56.4339Z" fill="#001B38"></path>
  <path d="M239.547 56.7497C234.876 56.7496 230.229 56.089 225.744 54.7876V48.9015C229.778 50.4063 234.054 51.1578 238.36 51.1185C240.712 51.21 243.065 51.0024 245.365 50.5005C246.771 50.0885 247.474 49.3495 247.474 48.2834C247.474 47.2174 246.692 46.5208 245.129 46.1938C243.252 45.7572 241.336 45.5074 239.41 45.4482C237.16 45.3436 234.91 45.1474 232.66 44.8596C230.604 44.6412 228.636 43.9054 226.941 42.7209C226.181 42.1824 225.568 41.4621 225.159 40.6258C224.749 39.7895 224.556 38.8639 224.596 37.9335C224.574 36.5871 224.948 35.2638 225.672 34.1282C226.396 32.9927 227.437 32.0951 228.667 31.547C231.382 30.1016 235.073 29.3789 239.743 29.3789C244.075 29.4394 248.392 29.9124 252.634 30.7916V36.4325C248.656 35.5683 244.599 35.1211 240.528 35.0983C234.688 35.0983 231.771 35.9911 231.777 37.7765C231.777 38.6725 232.565 39.3004 234.142 39.6601C236.025 40.0613 237.938 40.3106 239.861 40.4057C242.091 40.543 244.331 40.7752 246.581 41.1022C248.65 41.3586 250.623 42.1274 252.32 43.339C253.089 43.8969 253.708 44.6371 254.121 45.4933C254.534 46.3494 254.727 47.2947 254.684 48.2441C254.725 49.5905 254.366 50.9188 253.652 52.0609C252.937 53.203 251.9 54.1076 250.672 54.6601C247.99 56.0532 244.282 56.7497 239.547 56.7497Z" fill="#001B38"></path>
  <path d="M289.648 30.1758V55.9279H281.614L282.595 45.3229H282.183C280.979 52.9423 276.758 56.752 269.518 56.752C265.809 56.68 263.098 55.4701 261.385 53.1221C259.671 50.7742 258.811 46.8501 258.805 41.3497V30.1758H266.123V40.4766C266.123 44.355 266.673 47.1182 267.771 48.7663C268.87 50.4145 270.672 51.2386 273.177 51.2386C274.523 51.2502 275.848 50.9027 277.016 50.232C278.183 49.5612 279.151 48.5914 279.818 47.4223C281.467 44.8847 282.291 41.5034 282.291 37.2784V30.1758H289.648Z" fill="#001B38"></path>
  <path d="M299.576 27.6992C298.383 27.7706 297.207 27.3926 296.279 26.6397C295.864 26.2389 295.543 25.7516 295.338 25.2124C295.132 24.6732 295.049 24.0953 295.092 23.52C295.053 22.9496 295.139 22.3774 295.344 21.8436C295.549 21.3098 295.868 20.8273 296.279 20.4298C297.224 19.7157 298.394 19.3672 299.576 19.4488C300.782 19.3614 301.979 19.7095 302.95 20.4298C303.37 20.8217 303.696 21.3029 303.905 21.8377C304.114 22.3726 304.2 22.9475 304.157 23.52C304.157 26.3062 302.63 27.6992 299.576 27.6992ZM296.024 55.9235V30.1714H303.343V55.9235H296.024Z" fill="#001B38"></path>
  <path d="M344.539 56.7537C339.869 56.7537 336.118 55.5012 333.287 52.9963C331.942 51.7138 330.872 50.1717 330.14 48.4636C329.409 46.7554 329.032 44.9166 329.032 43.0585C329.032 41.2004 329.409 39.3616 330.14 37.6534C330.872 35.9452 331.942 34.4032 333.287 33.1206C336.118 30.6157 339.869 29.3633 344.539 29.3633C349.209 29.3633 352.91 30.4326 355.644 32.5712C356.993 33.5346 358.093 34.8065 358.85 36.281C359.608 37.7554 360.002 39.3896 360 41.0474V45.2658H336.024C336.173 46.225 336.547 47.1353 337.115 47.9229C337.682 48.7104 338.428 49.3529 339.29 49.7982C341.056 50.7269 343.672 51.1912 347.139 51.1912C350.157 51.3013 353.165 50.7766 355.968 49.651C356.302 49.5234 358.715 48.4639 358.911 48.3658V54.252C356.728 55.1166 354.468 55.7735 352.162 56.2141C349.641 56.6091 347.09 56.7897 344.539 56.7537ZM335.886 41.7145L353.094 41.3417C352.989 39.0788 352.25 37.4437 350.876 36.4365C349.503 35.4293 347.39 34.9388 344.539 34.965C341.792 34.965 339.722 35.4882 338.329 36.5346C336.936 37.581 336.122 39.3077 335.886 41.7145Z" fill="#001B38"></path>
  <path d="M319.648 56.4339C318.49 56.4946 317.335 56.2664 316.287 55.7697C315.238 55.2731 314.33 54.5237 313.644 53.5889C312.663 52.2547 311.927 50.4986 311.927 46.653V35.4496H308.219V30.1422H312.957V22.9316H319.236V30.1422H326.652V35.4496H319.236V45.0834C319.177 47.9578 319.638 49.0075 320.344 49.704C321.571 50.9303 325.308 50.0964 326.652 49.2429V54.825C325.083 55.9434 322.287 56.4339 319.648 56.4339Z" fill="#001B38"></path>
  <path fill-rule="evenodd" clip-rule="evenodd" d="M41.6543 27.6213C40.9019 27.567 40.1833 27.2876 39.5919 26.8193L33.248 21.8466C23.3665 17.6494 16.9512 21.7789 12.234 30.6989C8.2608 38.1351 10.3602 48.897 19.9253 51.5164C29.2427 54.055 35.7018 44.8302 38.7948 40.4128C39.0724 40.0163 39.3229 39.6586 39.5459 39.3515C39.6672 39.1872 39.8254 39.0538 40.0077 38.9617C40.19 38.8697 40.3913 38.8218 40.5956 38.8218C40.7998 38.8218 41.0012 38.8697 41.1835 38.9617C41.3658 39.0538 41.524 39.1872 41.6453 39.3515C45.7852 45.0415 51.3379 51.1142 57.3418 49.9467C65.1802 48.4163 64.3267 38.4883 61.9134 33.1809C59.5588 28.0158 55.9113 23.1862 50.126 23.4436L43.8104 27.1235C43.1579 27.5021 42.4066 27.6755 41.6543 27.6213ZM56.238 19.8823C56.4644 20.1426 56.6913 20.4082 56.9187 20.6794C63.3739 28.4688 67.3765 39.6427 69.2601 46.1273C69.8108 48.0173 69.9202 50.0085 69.5801 51.9475C69.2399 53.8864 68.4592 55.7214 67.298 57.3111C63.0502 63.1188 54.0051 71.0259 36.2484 70.8984C16.8632 70.7709 6.84686 61.0881 2.03981 55.2019C1.03148 53.9509 0.367877 52.458 0.114898 50.8712C-0.13808 49.2845 0.0283604 47.6592 0.59769 46.1567C3.3642 38.9756 8.92665 25.2117 13.3511 20.2379C15.9004 17.3689 18.8402 14.8937 21.9464 12.9876L7.365 1.55777C7.20775 1.42509 7.10178 1.24165 7.06538 1.03914C7.02897 0.836637 7.06444 0.62777 7.16564 0.44863C7.26684 0.26949 7.42743 0.131328 7.61966 0.0579899C7.8119 -0.0153478 8.02369 -0.0192413 8.2185 0.0469724L31.968 9.07756C33.089 8.89377 34.2017 8.80172 35.2968 8.80888C39.429 8.83592 43.3405 9.77542 47.2517 12.0828L70.102 10.1908C70.2681 10.1801 70.4328 10.2259 70.5695 10.3208C70.7061 10.4158 70.8066 10.5543 70.8544 10.7137C70.9022 10.873 70.8946 11.0439 70.8328 11.1984C70.771 11.3529 70.6586 11.4819 70.514 11.5643L56.238 19.8823ZM35.6881 47.2639L40.0047 42.2606H39.9262L39.9753 42.2116C40.0668 42.1166 40.1765 42.0411 40.2979 41.9895C40.4192 41.9379 40.5497 41.9114 40.6816 41.9114C40.8135 41.9114 40.944 41.9379 41.0653 41.9895C41.1867 42.0411 41.2964 42.1166 41.388 42.2116L46.6365 48.1959L46.7051 48.3038C46.7375 48.3656 46.7573 48.4332 46.7635 48.5027C46.7697 48.5722 46.7621 48.6422 46.7411 48.7087C46.7202 48.7753 46.6862 48.837 46.6413 48.8904C46.5964 48.9438 46.5414 48.9879 46.4795 49.02C44.9001 49.8246 43.16 50.2639 41.388 50.3051C39.0531 50.2855 36.6692 48.7354 35.6881 48.0193C35.638 47.97 35.5982 47.9112 35.571 47.8464C35.5439 47.7815 35.5299 47.7119 35.5299 47.6416C35.5299 47.5713 35.5439 47.5017 35.571 47.4369C35.5982 47.372 35.638 47.3132 35.6881 47.2639ZM35.7485 50.9364C37.0043 52.3197 39.6727 55.145 41.2031 56.489C41.3451 56.6019 41.5238 56.6583 41.7048 56.6474C41.8859 56.6366 42.0566 56.5592 42.1841 56.4302L46.4124 51.7801C46.439 51.7569 46.4565 51.7249 46.4615 51.69C46.4666 51.655 46.4588 51.6194 46.4398 51.5896C46.4208 51.5599 46.3917 51.538 46.3578 51.528C46.3239 51.5179 46.2876 51.5203 46.2554 51.5348C44.5726 52.1698 42.77 52.4244 40.9772 52.2802C39.1843 52.136 37.4456 51.5967 35.8859 50.7009C35.8546 50.6886 35.8201 50.6868 35.7876 50.6955C35.7552 50.7043 35.7264 50.7233 35.7055 50.7497C35.6846 50.7761 35.6727 50.8084 35.6717 50.8421C35.6706 50.8757 35.6803 50.9088 35.6995 50.9364H35.7485Z" fill="#001B38"></path>
  <path d="M54.4677 33.489C54.9259 34.1927 55.1653 35.0164 55.1556 35.856C55.1459 36.6957 54.8876 37.5137 54.4132 38.2066C53.9389 38.8995 53.2698 39.4362 52.4906 39.7491C51.7113 40.0619 50.8568 40.1368 50.035 39.9642C49.2132 39.7916 48.461 39.3794 47.8734 38.7795C47.2858 38.1796 46.8892 37.419 46.7337 36.5938C46.5781 35.7687 46.6707 34.9159 46.9995 34.1433C47.3284 33.3706 47.8789 32.7128 48.5815 32.2529C49.4714 31.6234 50.5749 31.3731 51.6493 31.557C52.7237 31.741 53.681 32.3442 54.3107 33.2339L54.4677 33.489Z" fill="#001B38"></path>
  <path d="M27.8121 31.1655C27.0281 31.4268 26.3392 31.9145 25.8324 32.5672C25.3256 33.2199 25.0237 34.0082 24.9647 34.8324C24.9058 35.6566 25.0926 36.4798 25.5014 37.1979C25.9102 37.9161 26.5227 38.4969 27.2615 38.867C28.0004 39.2371 28.8323 39.3798 29.6523 39.2772C30.4722 39.1746 31.2433 38.8312 31.8682 38.2905C32.493 37.7497 32.9435 37.0359 33.1627 36.2392C33.382 35.4425 33.3601 34.5986 33.0999 33.8143C33.1105 33.7791 33.1105 33.7416 33.0999 33.7064C32.7932 32.7088 32.1081 31.8709 31.1913 31.3721C30.2745 30.8734 29.1989 30.7534 28.1947 31.038C28.0574 31.0282 27.9789 31.0969 27.8121 31.1655Z" fill="#001B38"></path>
</svg>
