<?xml version="1.0" encoding="UTF-8"?>
<svg xmlns="http://www.w3.org/2000/svg" viewBox="0 0 346.78 124.17">
  <defs>
    <style>
      .cls-1 {
        fill: #00b5e8;
      }

      .cls-2 {
        fill: #cc0049;
      }

      .cls-3 {
        fill: #242935;
      }

      .cls-4 {
        fill: #fff;
        mix-blend-mode: overlay;
      }

      .cls-5 {
        fill: #1f1e21;
        opacity: .2;
      }

      .cls-6 {
        isolation: isolate;
      }

      .cls-7 {
        fill: #232323;
        opacity: .5;
      }

      .cls-8 {
        fill: #017dc0;
        opacity: .4;
      }
    </style>
  </defs>
  <g class="cls-6">
    <g id="Layer_2" data-name="Layer 2">
      <g id="OBJECTS">
        <g>
          <polygon class="cls-1" points="46.06 100.6 46.1 100.59 46.06 100.61 46.06 100.6"/>
          <g>
            <path class="cls-3" d="M57.1,60.61v61.77c-15.99,0-28.95-12.96-28.95-28.95V60.61c7.99,0,15.23,3.24,20.47,8.48s8.48,12.47,8.48,20.47v-28.95h0Z"/>
            <path class="cls-7" d="M57.1,89.18v3.67c0-7.99-2.9-15.23-7.61-20.47-4.14-4.62-9.67-7.68-15.84-8.34-1.35-.14-2.52,.9-2.52,2.26v30.44c0,5.81,1.54,11.22,4.18,15.74-4.45-5.09-7.15-11.75-7.15-19.05V60.61c8,0,15.23,3.24,20.47,8.48,5.16,5.15,8.38,12.25,8.48,20.09Z"/>
            <path class="cls-8" d="M57.1,63.91v25.65c0-.12,0-.25,0-.37v-25.27h0Z"/>
            <path class="cls-1" d="M57.1,60.61v28.95c0-7.99-3.24-15.23-8.48-20.47-5.24-5.24-12.47-8.48-20.47-8.48h0c-3.94-.12-7.69-1.01-11.08-2.54C7.01,53.53,0,43.42,0,31.66H14.86c8.25,0,16.71-.87,24.54,2.28,9.78,3.94,16.62,13.66,17.58,24.12,.08,.84,.12,1.69,.12,2.54Z"/>
            <path class="cls-2" d="M57.1,60.61v28.95c0-7.99-3.24-15.23-8.48-20.47-5.24-5.24-12.47-8.48-20.47-8.48h0c-3.94-.12-7.69-1.01-11.08-2.54C7.01,53.53,0,43.42,0,31.66H14.86c8.25,0,16.71-.87,24.54,2.28,9.78,3.94,16.62,13.66,17.58,24.12,.08,.84,.12,1.69,.12,2.54Z"/>
            <path class="cls-4" d="M57.1,60.61v28.95c0-3.61-.66-7.07-1.87-10.25v-16.82c0-.85-.04-1.7-.12-2.54-.97-10.46-7.81-20.18-17.58-24.12-7.83-3.15-16.29-2.28-24.54-2.28H.06c-.04-.62-.06-1.24-.06-1.87H14.86c8.25,0,16.71-.87,24.54,2.28,9.78,3.94,16.62,13.66,17.58,24.12,.08,.84,.12,1.69,.12,2.54Z"/>
          </g>
          <circle class="cls-1" cx="42.63" cy="14.47" r="14.47" transform="translate(2.25 34.38) rotate(-45)"/>
          <circle class="cls-1" cx="42.63" cy="14.47" r="14.47" transform="translate(2.25 34.38) rotate(-45)"/>
          <circle class="cls-3" cx="42.63" cy="14.47" r="14.47" transform="translate(2.25 34.38) rotate(-45)"/>
          <path class="cls-5" d="M53.79,23.68c-2.66,3.21-6.67,5.26-11.16,5.26-7.99,0-14.47-6.48-14.47-14.47,0-4.49,2.04-8.5,5.25-11.15-2.07,2.5-3.31,5.71-3.31,9.21,0,7.99,6.48,14.47,14.47,14.47,3.51,0,6.72-1.25,9.23-3.32Z"/>
          <path class="cls-4" d="M56.33,14.35c0,4.24-1.98,8.02-5.07,10.45,1.78-2.26,2.84-5.11,2.84-8.21,0-7.34-5.95-13.3-13.3-13.3-3.1,0-5.95,1.06-8.21,2.84,2.43-3.09,6.21-5.07,10.45-5.07,7.35,0,13.3,5.95,13.3,13.3Z"/>
        </g>
        <g>
          <path class="cls-3" d="M130.33,91.45v12.31c0,10.76-8.73,19.49-19.49,19.49h0v-28.62c0-8-3.49-11.39-9.13-11.39-6.26,0-11.08,3.9-11.08,13.13v26.87h-19.49v-55.59h18.56v6.05c4.41-4.62,10.67-6.97,17.64-6.97,13.03,0,22.98,7.49,22.98,24.72Z"/>
          <path class="cls-3" d="M163.76,68.48v1.23h13.23v14.57h-12.72v38.98h-19.49v-38.98h-8.1v-14.57h8.1v-1.44c0-13.33,8.31-22.05,23.18-22.05,4.72,0,9.74,.92,12.92,2.87l-4.82,13.74c-1.64-.92-3.8-1.64-5.85-1.64-4.1,0-6.46,2.36-6.46,7.28Z"/>
          <path class="cls-3" d="M205.66,66.63v56.62h-19.49V47.14h0c10.76,0,19.49,8.73,19.49,19.49Z"/>
          <path class="cls-3" d="M276.74,67.66v55.59h-18.57v-5.95c-4.2,4.62-10.15,6.87-16.51,6.87-13.64,0-23.59-7.79-23.59-25.44v-31.08h19.49v27.9c0,8.62,3.38,12,9.23,12s10.46-3.79,10.46-13.13v-26.77h19.49Z"/>
          <path class="cls-3" d="M324.53,123.25l-9.95-14.56-4.68,6.38c-3.77,5.14-9.76,8.18-16.13,8.18h-10.99l21.13-27.8-20.51-27.8h21.95l9.85,14.05,4.27-5.84c3.77-5.16,9.77-8.21,16.15-8.21h10.45l-20.51,27.08,21.23,28.51h-22.26Z"/>
        </g>
      </g>
    </g>
  </g>
</svg>