<?xml version="1.0" encoding="utf-8"?>
<!-- Generator: Adobe Illustrator 27.0.0, SVG Export Plug-In . SVG Version: 6.00 Build 0)  -->
<svg version="1.1" id="Layer_1" xmlns="http://www.w3.org/2000/svg" xmlns:xlink="http://www.w3.org/1999/xlink" x="0px" y="0px"
	 viewBox="0 0 346.8 124.2" style="enable-background:new 0 0 346.8 124.2;" xml:space="preserve">
<style type="text/css">
	.st0{fill:#00B5E8;}
	.st1{fill:#242935;}
	.st2{opacity:0.5;fill:#232323;enable-background:new    ;}
	.st3{opacity:0.4;fill:#017DC0;enable-background:new    ;}
	.st4{fill:url(#SVGID_1_);}
	.st5{fill:#FFFFFF;}
</style>
<g>
	<g id="Layer_2_00000145060128125244676980000008986309446667948936_">
		<g id="OBJECTS">
			<g>
				<polygon class="st0" points="46.1,100.6 46.1,100.6 46.1,100.6 				"/>
				<g>
					<path class="st1" d="M57.1,60.6v61.8c-16,0-29-13-29-28.9V60.6c8,0,15.2,3.2,20.5,8.5s8.5,12.5,8.5,20.5L57.1,60.6
						C57.1,60.6,57.1,60.6,57.1,60.6z"/>
					<path class="st2" d="M57.1,89.2v3.7c0-8-2.9-15.2-7.6-20.5c-4.1-4.6-9.7-7.7-15.8-8.3c-1.3-0.1-2.5,0.9-2.5,2.3v30.4
						c0,5.8,1.5,11.2,4.2,15.7c-4.5-5.1-7.1-11.8-7.1-19.1V60.6c8,0,15.2,3.2,20.5,8.5C53.8,74.2,57,81.3,57.1,89.2L57.1,89.2z"/>
					<path class="st3" d="M57.1,63.9v25.6c0-0.1,0-0.2,0-0.4V63.9L57.1,63.9L57.1,63.9z"/>
					<path class="st0" d="M57.1,60.6v28.9c0-8-3.2-15.2-8.5-20.5c-5.2-5.2-12.5-8.5-20.5-8.5l0,0c-3.9-0.1-7.7-1-11.1-2.5
						C7,53.5,0,43.4,0,31.7h14.9c8.3,0,16.7-0.9,24.5,2.3C49.2,37.9,56,47.6,57,58.1C57.1,58.9,57.1,59.7,57.1,60.6L57.1,60.6z"/>
					<linearGradient id="SVGID_1_" gradientUnits="userSpaceOnUse" x1="9.611" y1="74.0741" x2="56.1492" y2="40.9892">
						<stop  offset="0" style="stop-color:#AA003D"/>
						<stop  offset="0.9602" style="stop-color:#FF6C35"/>
					</linearGradient>
					<path class="st4" d="M57.1,60.6v28.9c0-8-3.2-15.2-8.5-20.5c-5.2-5.2-12.5-8.5-20.5-8.5l0,0c-3.9-0.1-7.7-1-11.1-2.5
						C7,53.5,0,43.4,0,31.7h14.9c8.3,0,16.7-0.9,24.5,2.3C49.2,37.9,56,47.6,57,58.1C57.1,58.9,57.1,59.7,57.1,60.6L57.1,60.6z"/>
					<path class="st5" d="M57.1,60.6v28.9c0-3.6-0.7-7.1-1.9-10.2V62.5c0-0.8,0-1.7-0.1-2.5c-1-10.5-7.8-20.2-17.6-24.1
						c-7.8-3.2-16.3-2.3-24.5-2.3H0.1C0,32.9,0,32.3,0,31.7h14.9c8.3,0,16.7-0.9,24.5,2.3C49.2,37.9,56,47.6,57,58.1
						C57.1,58.9,57.1,59.8,57.1,60.6L57.1,60.6z"/>
				</g>
				<circle class="st1" cx="39.5" cy="15.7" r="14.5"/>
			</g>
			<g>
				<path class="st1" d="M130.3,91.4v12.3c0,10.8-8.7,19.5-19.5,19.5l0,0V94.6c0-8-3.5-11.4-9.1-11.4c-6.3,0-11.1,3.9-11.1,13.1
					v26.9H71.1V67.6h18.6v6.1c4.4-4.6,10.7-7,17.6-7C120.4,66.7,130.3,74.2,130.3,91.4L130.3,91.4z"/>
				<path class="st1" d="M163.8,68.5v1.2H177v14.6h-12.7v39h-19.5v-39h-8.1V69.7h8.1v-1.4c0-13.3,8.3-22,23.2-22
					c4.7,0,9.7,0.9,12.9,2.9l-4.8,13.7c-1.6-0.9-3.8-1.6-5.9-1.6C166.1,61.2,163.7,63.6,163.8,68.5L163.8,68.5z"/>
				<path class="st1" d="M205.7,66.6v56.6h-19.5V47.1l0,0C196.9,47.1,205.7,55.9,205.7,66.6z"/>
				<path class="st1" d="M276.7,67.7v55.6h-18.6v-5.9c-4.2,4.6-10.1,6.9-16.5,6.9c-13.6,0-23.6-7.8-23.6-25.4V67.7h19.5v27.9
					c0,8.6,3.4,12,9.2,12s10.5-3.8,10.5-13.1V67.7L276.7,67.7L276.7,67.7z"/>
				<path class="st1" d="M324.5,123.2l-10-14.6l-4.7,6.4c-3.8,5.1-9.8,8.2-16.1,8.2h-11l21.1-27.8l-20.5-27.8h22l9.9,14.1l4.3-5.8
					c3.8-5.2,9.8-8.2,16.1-8.2h10.5l-20.5,27.1l21.2,28.5L324.5,123.2L324.5,123.2z"/>
			</g>
		</g>
	</g>
</g>
</svg>
