<?xml version="1.0" encoding="UTF-8"?>
<svg xmlns="http://www.w3.org/2000/svg" width="61" height="60" viewBox="0 0 61 60" fill="none">
  <g clip-path="url(#clip0_7638_62267)">
    <path d="M44.1146 41.556C44.1144 42.1064 44.5622 42.5622 45.1051 42.4713C45.6244 42.3843 46.131 42.2269 46.6105 42.0021C46.929 41.8563 47.2768 41.7549 47.6066 41.5971C47.6644 41.5695 47.7243 41.5465 47.784 41.5234C47.849 41.4984 47.9115 41.4675 47.9708 41.4312C48.0386 41.3897 48.095 41.3325 48.1436 41.2695C48.8422 40.3649 49.2479 39.2673 49.3047 38.1239C49.2919 37.7646 49.3103 37.405 49.3593 37.049C49.3681 36.9847 49.3847 36.9218 49.4057 36.8604C49.6245 36.2221 49.7311 35.5505 49.7204 34.8753C49.717 34.5185 49.6912 34.1623 49.6433 33.8088C49.5881 33.2999 49.4501 32.8034 49.2348 32.339C49.1618 32.1845 48.9908 32.0092 48.9995 31.9076C48.9997 31.5944 48.9319 31.2848 48.8007 31.0003C48.6695 30.7158 48.4781 30.4631 48.2397 30.2598C47.7779 29.8647 47.2709 29.5257 46.7292 29.25C46.5882 29.1638 46.6058 29.1776 46.5908 29.16L46.5548 29.1148C46.5313 29.0792 46.51 29.0422 46.4911 29.004C46.4554 28.9239 46.4096 28.8487 46.3549 28.7802C46.3128 28.7316 46.2382 28.7154 46.1461 28.8271C45.8591 29.1761 45.7682 29.1332 45.7125 28.8181C45.6805 28.6499 45.5492 28.7201 45.4603 28.6977C45.2449 28.6422 45.0248 28.6069 44.8028 28.592C44.7786 28.5877 44.7537 28.5884 44.7298 28.5943C44.7059 28.6001 44.6834 28.6108 44.6638 28.6257C44.526 28.7413 44.4263 28.7531 44.3005 28.5141C44.1424 28.2618 44.0064 28.2363 43.9159 28.4834C43.7982 28.7824 43.7256 28.3735 43.6355 28.1749C43.6136 28.1264 43.5787 27.9869 43.572 28.0339C43.4919 28.5785 43.394 28.2583 43.3043 28.3199C43.2091 28.3855 43.1145 28.517 43.0191 28.548C42.9722 28.5633 42.924 28.3591 42.8762 28.3536C42.6374 28.3264 42.3966 28.2107 42.1605 28.3817C42.0537 28.4592 41.9546 28.3033 41.8538 28.3591C41.7818 28.3983 41.7119 28.6306 41.6402 28.6548C41.5413 28.6881 41.4416 28.6156 41.3426 28.5674C41.3186 28.5559 41.2935 28.3886 41.2724 28.4175C41.065 28.7055 40.8622 28.1935 40.6547 28.2999C40.4473 28.4063 40.2355 28.2988 40.0257 28.2999C39.7217 28.2748 40.8567 28.2847 41.0681 28.3292C41.1286 28.342 41.0233 28.3776 40.9625 28.3889C40.8805 28.4042 40.7952 28.3975 40.7157 28.3686C40.6124 28.3229 40.5063 28.6685 40.4003 28.7033C40.3103 28.7327 40.219 28.5516 40.1281 28.4888C40.0531 28.4284 39.9643 28.3873 39.8697 28.3692C39.6094 28.3455 39.349 28.3618 39.0888 28.323C39.0276 28.3138 38.9669 28.1481 38.906 28.0559C38.8922 28.035 38.8759 27.9794 38.8646 28.008C38.6018 28.6763 38.3287 28.1818 38.0612 28.3159C38.0056 28.3482 37.9407 28.3608 37.8771 28.3515C37.8135 28.3421 37.7549 28.3116 37.7109 28.2646C37.6216 28.181 37.5506 28.2233 37.4602 28.4057C37.3561 28.6161 37.2257 28.2444 37.1066 28.1236C37.0802 28.0967 37.0526 28.0113 37.0282 28.0401C36.9674 28.1107 36.9086 28.2776 36.8477 28.3244C36.7034 28.4485 36.5381 28.5458 36.3595 28.6117C36.3256 28.6215 36.2915 28.5707 36.2573 28.5159L36.2058 28.4374C36.1982 28.4271 36.1896 28.4177 36.18 28.4092L36.1737 28.4041L36.1704 28.4019V28.4019C36.1694 28.4014 36.1682 28.4015 36.1674 28.4023L34.4245 30.1454C34.4199 30.15 34.4164 30.1556 34.4142 30.1618V30.1618C34.4132 30.1647 34.4125 30.1677 34.4121 30.1707C34.3869 30.369 34.3738 30.5688 34.3729 30.7686L34.2864 31.8949C34.2821 31.974 34.3796 32.0533 34.3519 32.1319C34.3329 32.1861 34.1589 32.2385 34.094 32.2928C34.0646 32.3172 34.1266 32.3445 34.1594 32.3701C34.2035 32.4045 34.3175 32.4387 34.2992 32.4724C34.2445 32.5723 34.09 32.6714 34.0744 32.7712C34.0656 32.8285 34.3287 32.8864 34.3346 32.9444C34.3933 33.2103 34.3824 33.4867 34.3032 33.7471C34.2828 33.7917 34.2715 33.84 34.2699 33.889C34.2684 33.938 34.2766 33.9868 34.2941 34.0326C34.3795 34.2594 34.2142 34.4883 34.1599 34.7165C34.1552 34.7361 34.1824 34.7609 34.258 34.7764C34.6557 34.8574 34.3907 34.9319 34.2142 35.0105C34.1387 35.0441 34.1691 35.0842 34.1848 35.1211C34.2037 35.1661 34.3921 35.2224 34.2713 35.2533C33.8756 35.3546 34.1759 35.445 34.4604 35.5227C34.7266 35.5955 34.833 35.6477 34.5141 35.7196C34.3812 35.7497 34.3769 35.7956 34.3707 35.8345C34.3452 35.9969 34.3559 36.1595 34.3185 36.3218V36.3218C34.3001 36.4011 34.2643 36.4683 34.3445 36.4817C34.6999 36.5415 34.8776 36.6108 34.409 36.7015C34.3093 36.7211 34.346 36.7576 34.3459 36.7864C34.3589 37.0841 34.3562 37.3823 34.3379 37.6797C34.3288 37.7632 34.1491 37.8464 34.0536 37.9296C34.0255 37.9541 33.9868 37.9796 34.0045 38.0038C34.1124 38.1481 34.3213 38.292 34.3366 38.4366C34.3542 38.7788 34.3515 39.1217 34.3284 39.4635C34.3244 39.5224 34.3258 39.5816 34.3283 39.6406C34.3308 39.6974 34.3302 39.7544 34.3265 39.8112C34.3209 39.8417 34.2405 39.8722 34.182 39.9022C34.144 39.9218 34.003 39.948 34.0459 39.9581C34.7168 40.1159 34.3192 40.2906 34.3573 40.4552C34.3754 40.5407 34.3796 40.6286 34.3698 40.7154L34.3665 40.7479L34.3646 40.7642V40.7642C34.3646 40.7655 34.3653 40.7669 34.3662 40.7677C35.1658 41.5675 32.567 38.9693 36.1655 42.5677C36.1678 42.57 36.171 42.5716 36.1742 42.5719V42.5719L36.1824 42.573L36.2477 42.5822L36.3779 42.6027C36.5519 42.6441 36.7347 42.6263 36.8975 42.552C37.1225 42.4344 37.3424 42.761 37.5652 42.5887C37.6159 42.5495 37.6707 42.7813 37.7244 42.8617C37.7469 42.8952 37.7833 42.9236 37.7931 42.8433C37.8114 42.6947 37.829 42.6166 37.8456 42.5863C37.8984 42.4894 38.0065 42.5761 38.1134 42.6038V42.6038C38.2988 42.6516 38.4839 42.7756 38.6694 42.8222C38.7205 42.8351 38.7735 42.5939 38.8239 42.62C38.9146 42.6668 39.0035 42.8587 39.0943 42.9249C39.1293 42.9505 39.1677 42.8032 39.204 42.7274C39.2279 42.6784 39.2629 42.5196 39.2727 42.5735C39.3866 43.2003 39.5002 42.3501 39.6127 42.5961C39.7727 42.9461 39.9332 42.4371 40.0931 42.6001C40.1514 42.6589 40.2075 42.806 40.2655 42.8729C40.2908 42.9023 40.3185 42.8297 40.3451 42.8037C40.3968 42.753 40.4489 42.6468 40.5002 42.6655C40.5717 42.6909 40.6427 42.8772 40.7135 42.8679C40.7842 42.8586 40.8531 42.654 40.9238 42.6104C40.9638 42.5858 41.006 42.7105 41.047 42.773C41.0635 42.7981 41.0844 42.8982 41.095 42.8604C41.1974 42.561 41.2241 42.5225 41.3948 42.5424C41.9962 42.5961 40.4687 42.6068 41.0716 42.5748C41.7104 42.5042 42.3527 42.4358 42.9942 42.4262C43.3532 42.4208 43.7196 42.6019 44.0727 42.5766C44.0754 42.5765 44.078 42.576 44.0805 42.5754V42.5754C44.1013 42.5702 44.1159 42.5515 44.1159 42.5301V39.5131C44.1159 39.0079 43.7064 38.5984 43.2012 38.5984V38.5984C42.9765 38.5984 42.765 38.691 42.5686 38.8002C42.3361 38.9294 42.0729 38.9986 41.803 38.9986C41.4745 38.9986 41.1558 38.896 40.8904 38.7074C40.7986 38.6421 40.6915 38.5984 40.5789 38.5984V38.5984C40.4097 38.5984 40.2614 38.701 40.1341 38.8123C40.0991 38.8429 40.0612 38.8704 40.0209 38.8943C39.9012 38.9652 41.8963 39.0017 41.7572 39.0003C41.6238 39.0043 41.4904 39.0011 41.3575 38.9905V38.9905C41.3104 38.982 41.2732 39.0126 41.2402 39.0472C41.2157 39.0729 41.1905 39.098 41.1646 39.1223C41.1269 39.1578 41.085 39.1882 41.0423 39.2174C40.9602 39.2735 40.8778 39.3292 40.7961 39.3112C40.6693 39.2832 40.533 38.9086 40.4197 39.1263C40.3089 39.3395 40.2285 38.8788 40.1335 38.9897C40.0729 39.074 40.0062 39.1538 39.9339 39.2283C39.9115 39.2483 39.8843 39.2622 39.8551 39.269C39.8258 39.2757 39.7953 39.2749 39.7664 39.2667C39.7019 39.2494 39.6345 39.0832 39.5742 39.1676C39.4346 39.3627 39.3024 39.2808 39.1634 39.1169C39.0624 38.9978 38.953 39.1887 38.8474 39.2444C38.794 39.2727 38.7355 39.418 38.6884 39.3189C38.5857 39.1032 38.4917 39.2042 38.3896 39.3235C38.312 39.4144 38.2268 39.2189 38.1445 39.1496C38.1022 39.1138 38.0563 38.9821 38.0184 39.0541C37.8686 39.3407 37.718 39.092 37.5705 39.1657C37.3941 39.2562 37.2 39.3064 37.0019 39.3127C36.8482 39.3168 36.6942 39.1241 36.5402 39.1038C36.4716 39.0996 36.4031 39.1146 36.3425 39.1471L36.2436 39.1962L36.194 39.2197L36.1692 39.2304V39.2304C36.1685 39.2307 36.1684 39.2317 36.1689 39.2322L37.7006 40.7644C37.7013 40.7652 37.7026 40.7644 37.7023 40.7634V40.7634L37.6997 40.7573L37.6951 40.7449C37.6876 40.7242 37.6405 40.6982 37.7033 40.6833C38.1485 40.5776 37.8148 40.4746 37.7164 40.3689C37.6533 40.3011 37.7395 40.2301 37.7563 40.1605C37.7704 40.1017 37.7764 40.0422 37.7942 39.9831L37.8711 39.7691C37.8856 39.7227 38.0028 39.6674 37.8768 39.6318C37.4727 39.5171 37.7181 39.4112 37.8889 39.2994C37.9719 39.2453 37.9224 39.1848 37.8764 39.1282C37.7677 38.9945 37.6525 38.865 37.7845 38.7263C37.9263 38.5768 37.7097 38.4204 37.6989 38.2668C37.6929 38.1793 37.8279 38.0916 37.8222 38.0041C37.8157 37.9067 37.6604 37.8092 37.6781 37.7122C37.718 37.4949 38.0898 37.2705 37.8297 37.0628C37.5696 36.8552 38.0672 36.6549 37.6976 36.4531C37.6042 36.4022 37.9214 36.3373 37.8975 36.2803C37.816 36.0865 37.6404 35.8935 37.5595 35.6997C37.5374 35.6467 37.7255 35.5918 37.8094 35.5378C37.8633 35.5031 37.9515 35.4676 37.9409 35.433C37.8507 35.2332 37.779 35.0255 37.7268 34.8125C37.7142 34.6886 37.9222 34.5642 37.9154 34.44C37.9089 34.321 37.7535 34.2021 37.6629 34.0833C37.6549 34.0727 37.6088 34.0596 37.636 34.052C38.1297 33.916 37.8773 33.7883 37.6366 33.6471C37.4585 33.5427 37.7689 33.4196 37.8601 33.3049C37.8884 33.2692 37.9303 33.2334 37.9333 33.1977C37.9618 33.0552 37.9727 32.9098 37.9657 32.7649C37.9609 32.6654 37.9323 32.5687 37.8856 32.4808C37.8301 32.3761 37.7675 32.2751 37.6984 32.1787C37.6694 32.1383 37.6539 32.0921 37.6932 32.0616C37.7132 32.0461 37.7332 32.0305 37.7348 32.0148C37.7439 31.928 37.7239 31.8411 37.7286 31.7543C37.736 31.6946 37.7507 31.6359 37.7724 31.5797C37.8039 31.5179 37.8273 31.4525 37.8421 31.385C37.856 31.3217 37.8445 31.2566 37.7894 31.2226C37.7375 31.1906 37.6737 31.1586 37.6654 31.1261C37.6104 30.9096 37.3336 30.6849 37.6262 30.479C37.7688 30.3784 37.7021 30.2829 37.6219 30.1887V30.1887C37.6055 30.1697 37.5763 30.1686 37.5585 30.1863L36.168 31.5751L36.169 31.5741L36.1714 31.5722L36.1758 31.5684L36.1845 31.5611L36.2021 31.5467C36.2238 31.5286 36.2474 31.5131 36.2725 31.5003C36.2949 31.4873 36.3211 31.4822 36.3468 31.486C36.3725 31.4896 36.3961 31.5018 36.414 31.5206C36.524 31.6136 36.6393 31.7001 36.7593 31.7795C36.7704 31.7868 36.7837 31.8155 36.7867 31.8026V31.8026C36.9081 31.2867 37.0177 32.031 37.1348 31.947C37.1708 31.9214 37.2166 31.9983 37.241 31.8768C37.3622 31.2741 37.4828 31.7675 37.6037 31.7984C37.6788 31.8174 37.7549 31.7083 37.8303 31.647C37.844 31.636 37.8576 31.5392 37.8695 31.548C37.9816 31.6313 38.093 31.7504 38.2051 31.8167C38.2925 31.8562 38.3857 31.8807 38.4811 31.8894C38.5659 31.909 38.651 31.9646 38.736 31.9384C38.8141 31.9139 38.8918 31.8298 38.9698 31.776C39.0106 31.7479 39.059 31.7335 39.1083 31.728C39.1492 31.7234 39.1904 31.7223 39.2315 31.7249C39.2852 31.7282 39.3388 31.736 39.3926 31.7391C39.411 31.7402 39.4295 31.7407 39.4481 31.7396C39.4838 31.7356 39.519 31.7277 39.5531 31.7161L39.7051 31.6694C39.7954 31.6433 39.8981 31.4243 39.9729 31.6391C40.0807 31.9475 40.1406 31.4876 40.2203 31.3254C40.2523 31.2604 40.2867 31.1329 40.3167 31.1653C40.4409 31.2976 40.546 31.4466 40.629 31.6078C40.7304 31.8015 40.8273 31.6085 40.9261 31.598C41.0892 31.5811 41.2526 31.7601 41.4163 31.7809C41.568 31.8005 41.7202 31.6745 41.8717 31.697C42.0232 31.7196 40.0399 31.8966 40.1908 31.9117C40.2925 31.9215 40.3946 31.7683 40.4967 31.6909C40.5139 31.6778 40.5324 31.6528 40.5486 31.679C40.7208 31.9563 40.8886 32.0046 41.0613 31.581C41.1241 31.4264 41.207 31.6692 41.2805 31.6618C41.3728 31.652 41.4652 31.5207 41.5573 31.5389C41.6221 31.5517 41.6863 31.7252 41.7508 31.8295C41.7606 31.8464 41.7713 31.9096 41.7808 31.9018C41.8749 31.812 41.9741 31.7277 42.078 31.6493C42.1131 31.6274 42.1495 31.7302 42.1859 31.7478C42.2448 31.7839 42.3124 31.8034 42.3814 31.8044C42.4303 31.8102 42.4798 31.8044 42.5262 31.7876C42.5725 31.771 42.6142 31.7436 42.6481 31.7079C42.7435 31.596 42.8406 32.1458 42.933 31.641C42.9456 31.5723 42.9679 31.5377 42.9844 31.552C43.0964 31.6501 43.2078 31.784 43.32 31.8658C43.3462 31.8861 43.3784 31.8968 43.4115 31.8965C43.4445 31.8962 43.4765 31.8847 43.5023 31.8639C43.6363 31.7727 43.7696 31.5819 43.9042 31.5521C44.0087 31.5282 44.1395 31.7286 44.1816 31.7437C44.2261 31.753 44.2863 31.5599 44.3406 31.5471C44.4473 31.5359 44.5827 31.4641 44.6518 31.6393C44.6999 31.77 44.8086 31.6472 44.8871 31.6719C44.9331 31.6833 44.8999 31.8932 44.9369 31.9072C44.9837 31.9305 45.1018 31.8098 45.1514 31.8441L45.1822 31.8703L45.3862 32.0111C45.526 32.1244 45.6509 32.2549 45.758 32.3994C45.9678 32.6764 46.1035 33.0021 46.1529 33.3461C46.1691 33.4523 46.1754 33.5599 46.1718 33.6672L46.1343 34.0646C46.0989 34.4446 46.0875 34.8265 46.1001 35.2079C46.1277 35.8285 46.3831 36.4735 46.437 37.0652C46.4695 37.3063 46.2479 37.5146 46.1527 37.7044C45.9266 38.1425 45.4087 38.2821 45.3095 38.6805C45.2693 38.7964 45.206 38.9029 45.1233 38.9936C45.0406 39.0842 44.9404 39.1571 44.8286 39.2078C44.717 39.2585 44.5961 39.286 44.4734 39.2884V39.2884C44.2982 39.2921 44.1152 39.4139 44.1151 39.5892L44.1146 41.556Z" fill="#001B38" stroke="#001B38" stroke-width="0.5"></path>
    <path d="M46.0002 37.2499C46.0001 37.6749 46.3309 38.0265 46.7551 38.0524V38.0524C46.8258 38.0567 46.8964 38.0685 46.9602 38.0992C47.0364 38.1359 47.1113 38.1851 47.1845 38.2463C47.2219 38.2776 47.2591 38.3098 47.2893 38.3482C47.3184 38.3853 47.3466 38.423 47.3704 38.4102L48.5248 37.7575C48.6338 37.6751 48.7488 37.6468 48.8623 37.6736C48.9219 37.6877 48.9732 37.7238 49.0236 37.7585C49.6712 38.2046 50.36 38.223 51.0127 37.8099C51.0706 37.7814 51.1493 37.6713 51.1817 37.7207C51.5955 38.3511 52.0136 37.7615 52.4277 37.783C52.4392 37.7834 52.4479 37.7839 52.4545 37.7845C52.4732 37.7863 52.4734 37.8071 52.4734 37.8259V37.8259L52.4736 37.9086L52.4742 38.0742C52.4742 38.1023 52.4744 38.0894 52.4746 37.9318C52.4749 37.4389 52.4752 37.4494 52.4756 37.7708C52.4756 37.8845 52.4759 37.8744 52.4761 37.8536C52.4762 37.837 52.4768 37.8203 52.4779 37.8036V37.8036L52.4782 37.7427C52.4785 37.5977 52.4788 37.5795 52.4792 37.847C52.4795 38.1272 52.48 38.1582 52.4803 37.8736C52.4807 37.5291 52.481 38.0004 52.4813 38.2292C52.4813 38.2851 52.4813 38.4457 52.4813 38.3917C52.4816 37.7641 52.4819 38.1331 52.4822 38.062L52.4832 37.7992L52.4837 38.0233C52.4846 38.0545 52.4854 38.188 52.4863 37.9909C52.4866 37.9016 52.487 38.0813 52.4873 38.017L52.4881 37.6761C52.4893 37.7096 52.4897 37.7432 52.4891 37.7768L52.4894 37.9495C52.4901 37.6178 52.4908 38.2078 52.4916 38.0851C52.4921 37.9958 52.493 38.0365 52.4935 38.0652C52.4937 38.0785 52.4954 38.0986 52.4961 38.0853C52.4967 38.0745 52.4972 38.0528 52.4976 38.0122C52.4981 37.9746 52.4985 37.948 52.4989 38.0058C52.4989 37.9303 52.4998 37.6909 52.5 37.6199L52.5009 37.8673L52.5019 38.0057L52.5046 38.0589L52.5053 38.3668C52.5053 38.3908 52.5053 38.4549 52.5053 38.4219C52.5062 37.6518 52.5072 38.2216 52.5081 38.067C52.5085 37.9999 52.509 38.0018 52.5094 38.1261C52.5096 38.2226 52.5099 38.1738 52.5103 37.9636C52.5106 37.7212 52.5111 38.1495 52.5115 38.2887C52.5115 38.3198 52.5115 38.4182 52.5117 38.385L52.5124 38.0573L52.5141 37.7261L52.5148 37.9756C52.5147 37.9911 52.5154 38.0065 52.517 38.0214L52.5175 38.0338C52.5176 38.0364 52.5217 38.0431 52.5218 38.0457V38.0457L52.5224 38.3427C52.5224 38.3766 52.5224 38.3052 52.5224 38.2673L52.5227 38.1063L52.5238 38.3653L52.5244 38.0655C52.5253 38.0336 52.5263 37.9746 52.5272 38.1017C52.5276 38.1479 52.5279 38.1542 52.5282 38.1121C52.5291 38.0138 52.5298 38.2042 52.5306 38.2669V38.1539C52.5309 37.6954 52.5312 38.0009 52.5315 38.2042C52.5315 38.2914 52.5318 38.2562 52.5319 38.2381C52.5319 38.2163 52.5323 37.9992 52.5324 38.1383C52.5327 38.5943 52.533 38.2484 52.5333 37.9205C52.5336 37.6137 52.5338 37.4911 52.534 37.8584L52.5344 38.0237L52.5361 38.0841L52.5365 38.383C52.5365 37.7888 52.5371 37.3076 52.5375 37.9796C52.5375 38.0067 52.5375 38.0251 52.5375 38.0373C52.5376 38.0574 52.5403 38.0415 52.5409 38.0616V38.0616L52.5418 38.3893C52.5418 38.4217 52.5418 38.4662 52.5418 38.4457C52.5423 38.3208 52.543 38.1424 52.5433 38.0629C52.5442 38.0332 52.5451 38.0456 52.5459 38.0604C52.546 38.0623 52.5481 38.0727 52.5481 38.0746V38.0746L52.5485 38.2412C52.5485 38.285 52.5485 38.4474 52.5485 38.398C52.5491 37.6249 52.5497 38.0829 52.5503 38.0391C52.5515 37.9468 52.5527 38.2171 52.5539 38.0091C52.5547 37.8735 52.5555 38.2498 52.5563 38.0512L52.5569 38.366C52.5569 38.4045 52.5569 38.4372 52.5571 38.3447C52.5571 37.8104 52.5574 38.0669 52.5576 38.3186L52.5582 38.0686L52.5602 38.3204L52.5607 38.0874L52.5617 38.4386L52.562 38.2112C52.562 38.1547 52.562 37.9715 52.5623 38.0337C52.5627 38.7561 52.5631 37.7763 52.5635 38.0597C52.564 38.4631 52.5646 37.8765 52.5652 38.0643L52.5658 38.3789C52.5658 38.4128 52.5658 38.3289 52.5658 38.299L52.5664 38.1398L52.5672 38.3731L52.5679 38.0763L52.5684 38.2636C52.5684 38.2927 52.5684 38.408 52.5684 38.3643C52.5725 38.2357 52.5703 38.1489 52.5684 38.0918C52.5658 38.0117 52.6329 38.007 52.7119 38.0199C52.971 38.0622 53.2309 38.0673 53.4904 38.0352C53.8071 37.9537 54.1256 37.8749 54.4437 37.8637C54.6207 37.8576 54.8012 38.0638 54.9753 38.0377C54.9788 38.0372 54.9821 38.0359 54.9851 38.0342V38.0342C54.9943 38.0288 55 38.019 55 38.0084V33.8343C55 33.6226 54.8284 33.4509 54.6167 33.4509V33.4509C54.4695 33.4509 54.3405 33.5391 54.2541 33.6582C54.1343 33.8232 53.9968 33.9119 53.8557 33.9119C53.6836 33.9119 53.5168 33.7798 53.3809 33.5382C53.3515 33.4858 53.2973 33.4509 53.2372 33.4509V33.4509C53.1642 33.4509 53.1021 33.5017 53.0792 33.571C53.05 33.6596 53.0137 33.7346 52.9721 33.7919C52.9127 33.8736 52.8449 33.9159 52.7759 33.9142C52.7155 33.9185 52.655 33.9158 52.5947 33.9059C52.5834 33.904 52.5693 33.8855 52.5713 33.8967V33.8967C52.5721 33.9011 52.5709 33.9095 52.5709 33.914L52.5703 34.1148C52.5699 34.1896 52.5695 34.2988 52.5692 34.273C52.5688 34.2408 52.5683 33.809 52.5679 34.0599C52.5675 34.3057 52.5672 33.7746 52.5669 33.9024L52.5661 34.1774C52.5661 34.2291 52.5657 34.2391 52.5656 34.2217C52.5653 34.2017 52.5651 34.0102 52.5649 34.1075C52.5644 34.3325 52.5639 34.238 52.5634 34.0491C52.5631 33.9119 52.5627 34.1318 52.5623 34.196C52.5623 34.2286 52.5619 34.3961 52.5618 34.2818C52.5614 34.0333 52.561 34.1496 52.5607 34.2871C52.5605 34.3918 52.5602 34.1666 52.5599 34.0867C52.5605 34.0501 52.5604 34.0134 52.5594 33.9767C52.5588 34.3068 52.5583 34.0204 52.5578 34.1052L52.5558 34.2747L52.554 34.0343L52.5526 34.1907C52.5526 34.1994 52.5526 34.2536 52.5526 34.1813C52.5522 33.6683 52.5518 34.0528 52.5515 34.1661C52.5512 34.239 52.551 34.1395 52.5507 34.1203L52.5501 34.0765L52.5494 33.9878C52.5494 33.9712 52.549 33.8361 52.5489 33.9813C52.5484 34.4471 52.5481 34.1643 52.5477 33.9673C52.5477 33.8717 52.5473 33.9288 52.5471 33.9817C52.5466 34.1072 52.5462 34.2398 52.5457 34.0876C52.5451 33.9242 52.5446 34.1738 52.5441 34.1862L52.5431 34.0443L52.5421 34.2103C52.5413 34.1644 52.5405 33.7358 52.5398 34.0355C52.5391 34.3353 52.5384 33.762 52.5376 34.1878C52.5376 34.2954 52.5373 33.9299 52.5371 33.9576C52.5364 34.0715 52.5356 34.2334 52.535 34.347C52.535 34.3062 52.5346 34.1538 52.5344 34.059L52.5341 33.9075L52.5319 34.1542L52.5306 33.9368L52.5293 34.2278C52.5293 34.2371 52.5293 34.2901 52.5293 34.2588C52.5288 33.6898 52.5284 33.9807 52.5278 34.2581C52.5275 34.4634 52.5271 34.1056 52.5267 34.0006L52.5262 33.9162C52.5256 33.8973 52.5249 33.8392 52.5242 33.8944L52.5224 34.2381L52.5221 34.145V34.145C52.5221 34.1446 52.521 34.1386 52.521 34.1382L52.5205 34.1016L52.5195 34.004L52.5189 34.2249C52.5182 34.2884 52.5174 34.6072 52.5167 34.2701C52.516 33.9414 52.5153 34.5777 52.5147 34.374L52.5133 34.0626V34.049C52.5129 34.6436 52.5125 33.7858 52.5121 33.8825C52.5121 33.912 52.5118 33.8234 52.5118 33.9634C52.5113 34.6581 52.5109 34.0894 52.5105 34.0538L52.5097 34.2283V34.3424L52.5085 34.0327L52.5076 33.949C52.5073 33.9264 52.507 33.8622 52.5067 33.8925L52.5056 34.1209C52.5054 34.1499 52.505 34.1407 52.5048 34.1332C52.5047 34.1293 52.5045 34.1255 52.5042 34.1216V34.1216L52.5038 34.1486L52.5032 34.2025C52.5029 34.2326 52.5026 34.485 52.5023 34.2373C52.4842 33.3498 52.1227 34.5823 51.8432 33.9758C51.5638 33.3694 51.5461 34.0894 51.1639 34.1081C50.7816 34.1266 50.6894 33.3423 50.4212 33.9754C50.1529 34.6085 49.5722 33.4913 49.57 34.3798C49.5678 35.2683 49.715 36.1237 49.9802 36.7637C50.2454 37.4038 50.6077 37.778 50.9898 37.8065C51.3719 37.8351 51.7438 37.5158 52.0261 36.9167C52.3085 36.3175 52.479 35.4859 52.5014 34.5989L52.5011 34.7834L52.5 34.2734C52.4996 34.0502 52.4993 34.2725 52.4989 34.2847L52.4972 34.0739L52.4956 34.1705L52.494 33.9232L52.493 34.1778C52.493 34.1928 52.493 34.2216 52.493 34.1914C52.4923 33.8719 52.4918 33.8162 52.4911 34.3044C52.4911 34.4825 52.4906 34.2027 52.4904 34.2112L52.4894 34.3529L52.4887 34.018V33.9345L52.4877 34.2257L52.4873 34.1121L52.4866 34.0469L52.4857 34.1581C52.4853 34.2871 52.4849 33.6535 52.4847 34.2353C52.4847 34.3144 52.4847 34.3543 52.4847 34.3378L52.4835 33.9762C52.4832 33.9259 52.4831 33.931 52.4828 33.9784L52.4814 34.3376L52.4803 34.123C52.4803 34.1682 52.4795 34.3101 52.4795 34.3574C52.4788 34.3924 52.4782 34.4827 52.4776 34.3137C52.4771 34.1846 52.4767 34.3424 52.4762 34.3537L52.4755 34.1164V34.1164C52.475 34.2078 52.3941 34.2778 52.3036 34.2653L50.9508 34.078C50.5736 33.984 50.1946 33.935 49.8152 33.9311C49.5619 33.9579 49.3129 34.1542 49.0608 34.2634C48.9478 34.3124 48.821 34.316 48.7027 34.282C48.5741 34.2451 48.4464 34.1903 48.3204 34.1181C47.9792 33.9038 47.6236 33.8488 47.2739 33.955C47.1999 33.9774 47.1221 34.0322 47.06 34.0783V34.0783C46.6474 34.3848 46.0009 34.8017 46.0008 35.3157L46.0002 37.2499Z" fill="#001B38" stroke="#001B38" stroke-width="0.5"></path>
    <path d="M16.6066 41.556C16.6068 42.1064 16.159 42.5622 15.6161 42.4713C15.0968 42.3843 14.5902 42.2269 14.1107 42.0021C13.7922 41.8563 13.4444 41.7549 13.1146 41.5971C13.0568 41.5695 12.9969 41.5465 12.9371 41.5234C12.8722 41.4984 12.8097 41.4675 12.7504 41.4312C12.6826 41.3897 12.6262 41.3325 12.5776 41.2695C11.879 40.3649 11.4733 39.2673 11.4165 38.1239C11.4292 37.7646 11.4109 37.405 11.3619 37.049C11.3531 36.9847 11.3365 36.9218 11.3155 36.8604C11.0967 36.2221 10.9901 35.5505 11.0008 34.8753C11.0042 34.5185 11.03 34.1623 11.0779 33.8088C11.133 33.2999 11.2711 32.8034 11.4864 32.339C11.5594 32.1845 11.7304 32.0092 11.7217 31.9076C11.7215 31.5944 11.7893 31.2848 11.9205 31.0003C12.0517 30.7158 12.243 30.4631 12.4815 30.2598C12.9432 29.8647 13.4503 29.5257 13.992 29.25C14.1329 29.1638 14.1154 29.1776 14.1304 29.16L14.1664 29.1148C14.1899 29.0792 14.2112 29.0422 14.2301 29.004C14.2658 28.9239 14.3116 28.8487 14.3663 28.7802C14.4084 28.7316 14.4829 28.7154 14.5751 28.8271C14.8621 29.1761 14.9529 29.1332 15.0087 28.8181C15.0407 28.6499 15.172 28.7201 15.2609 28.6977C15.4763 28.6422 15.6964 28.6069 15.9183 28.592C15.9426 28.5877 15.9675 28.5884 15.9914 28.5943C16.0153 28.6001 16.0378 28.6108 16.0574 28.6257C16.1952 28.7413 16.2949 28.7531 16.4207 28.5141C16.5788 28.2618 16.7148 28.2363 16.8053 28.4834C16.9229 28.7824 16.9956 28.3735 17.0857 28.1749C17.1076 28.1264 17.1425 27.9869 17.1492 28.0339C17.2293 28.5785 17.3272 28.2583 17.4169 28.3199C17.5121 28.3855 17.6067 28.517 17.7021 28.548C17.749 28.5633 17.7972 28.3591 17.845 28.3536C18.0838 28.3264 18.3246 28.2107 18.5607 28.3817C18.6675 28.4592 18.7666 28.3033 18.8674 28.3591C18.9394 28.3983 19.0093 28.6306 19.081 28.6548C19.1799 28.6881 19.2796 28.6156 19.3786 28.5674C19.4026 28.5559 19.4277 28.3886 19.4488 28.4175C19.6562 28.7055 19.859 28.1935 20.0665 28.2999C20.2739 28.4063 20.4857 28.2988 20.6955 28.2999C20.9995 28.2748 19.8645 28.2847 19.6531 28.3292C19.5926 28.342 19.6979 28.3776 19.7587 28.3889C19.8407 28.4042 19.926 28.3975 20.0055 28.3686C20.1088 28.3229 20.2149 28.6685 20.3209 28.7033C20.4109 28.7327 20.5022 28.5516 20.5931 28.4888C20.6681 28.4284 20.7569 28.3873 20.8515 28.3692C21.1118 28.3455 21.3722 28.3618 21.6323 28.323C21.6936 28.3138 21.7543 28.1481 21.8152 28.0559C21.829 28.035 21.8453 27.9794 21.8566 28.008C22.1194 28.6763 22.3924 28.1818 22.66 28.3159C22.7156 28.3482 22.7805 28.3608 22.8441 28.3515C22.9077 28.3421 22.9663 28.3116 23.0103 28.2646C23.0996 28.181 23.1706 28.2233 23.261 28.4057C23.3651 28.6161 23.4955 28.2444 23.6146 28.1236C23.641 28.0967 23.6686 28.0113 23.693 28.0401C23.7538 28.1107 23.8126 28.2776 23.8735 28.3244C24.0178 28.4485 24.1831 28.5458 24.3617 28.6117C24.3956 28.6215 24.4297 28.5707 24.4639 28.5159L24.5154 28.4374C24.523 28.4271 24.5316 28.4177 24.5412 28.4092L24.5475 28.4041L24.5508 28.4019V28.4019C24.5518 28.4014 24.553 28.4015 24.5538 28.4023L26.2967 30.1454C26.3013 30.15 26.3048 30.1556 26.307 30.1618V30.1618C26.308 30.1647 26.3087 30.1677 26.3091 30.1707C26.3343 30.369 26.3474 30.5688 26.3483 30.7686L26.4348 31.8949C26.4391 31.974 26.3416 32.0533 26.3693 32.1319C26.3883 32.1861 26.5623 32.2385 26.6271 32.2928C26.6566 32.3172 26.5946 32.3445 26.5617 32.3701C26.5177 32.4045 26.4037 32.4387 26.4219 32.4724C26.4767 32.5723 26.6312 32.6714 26.6467 32.7712C26.6556 32.8285 26.3925 32.8864 26.3866 32.9444C26.3279 33.2103 26.3388 33.4867 26.418 33.7471C26.4384 33.7917 26.4497 33.84 26.4513 33.889C26.4528 33.938 26.4446 33.9868 26.427 34.0326C26.3417 34.2594 26.5069 34.4883 26.5613 34.7165C26.566 34.7361 26.5388 34.7609 26.4632 34.7764C26.0655 34.8574 26.3305 34.9319 26.5069 35.0105C26.5825 35.0441 26.552 35.0842 26.5364 35.1211C26.5175 35.1661 26.3291 35.2224 26.4499 35.2533C26.8456 35.3546 26.5453 35.445 26.2608 35.5227C25.9946 35.5955 25.8882 35.6477 26.207 35.7196C26.34 35.7497 26.3443 35.7956 26.3505 35.8345C26.376 35.9969 26.3653 36.1595 26.4027 36.3218V36.3218C26.4211 36.4011 26.4568 36.4683 26.3767 36.4817C26.0213 36.5415 25.8436 36.6108 26.3121 36.7015C26.4118 36.7211 26.3752 36.7576 26.3753 36.7864C26.3623 37.0841 26.365 37.3823 26.3833 37.6797C26.3924 37.7632 26.572 37.8464 26.6676 37.9296C26.6957 37.9541 26.7344 37.9796 26.7167 38.0038C26.6088 38.1481 26.3999 38.292 26.3846 38.4366C26.367 38.7788 26.3697 39.1217 26.3928 39.4635C26.3967 39.5224 26.3954 39.5816 26.3929 39.6406C26.3904 39.6974 26.391 39.7544 26.3947 39.8112C26.4003 39.8417 26.4807 39.8722 26.5392 39.9022C26.5772 39.9218 26.7182 39.948 26.6753 39.9581C26.0044 40.1159 26.4019 40.2906 26.3639 40.4552C26.3458 40.5407 26.3416 40.6286 26.3514 40.7154L26.3547 40.7479L26.3566 40.7642V40.7642C26.3566 40.7655 26.3559 40.7669 26.355 40.7677C25.5554 41.5675 28.1542 38.9693 24.5557 42.5677C24.5534 42.57 24.5502 42.5716 24.5469 42.5719V42.5719L24.5388 42.573L24.4735 42.5822L24.3433 42.6027C24.1693 42.6441 23.9865 42.6263 23.8237 42.552C23.5987 42.4344 23.3788 42.761 23.156 42.5887C23.1053 42.5495 23.0505 42.7813 22.9968 42.8617C22.9743 42.8952 22.9379 42.9236 22.9281 42.8433C22.9098 42.6947 22.8922 42.6166 22.8756 42.5863C22.8228 42.4894 22.7147 42.5761 22.6078 42.6038V42.6038C22.4223 42.6516 22.2372 42.7756 22.0518 42.8222C22.0007 42.8351 21.9476 42.5939 21.8973 42.62C21.8066 42.6668 21.7176 42.8587 21.6269 42.9249C21.5919 42.9505 21.5535 42.8032 21.5172 42.7274C21.4933 42.6784 21.4583 42.5196 21.4485 42.5735C21.3346 43.2003 21.221 42.3501 21.1085 42.5961C20.9485 42.9461 20.788 42.4371 20.6281 42.6001C20.5698 42.6589 20.5137 42.806 20.4557 42.8729C20.4304 42.9023 20.4026 42.8297 20.3761 42.8037C20.3244 42.753 20.2722 42.6468 20.221 42.6655C20.1495 42.6909 20.0785 42.8772 20.0077 42.8679C19.937 42.8586 19.8681 42.654 19.7973 42.6104C19.7573 42.5858 19.7152 42.7105 19.6742 42.773C19.6576 42.7981 19.6368 42.8982 19.6262 42.8604C19.5238 42.561 19.4971 42.5225 19.3264 42.5424C18.725 42.5961 20.2525 42.6068 19.6496 42.5748C19.0108 42.5042 18.3685 42.4358 17.727 42.4262C17.368 42.4208 17.0016 42.6019 16.6485 42.5766C16.6458 42.5765 16.6432 42.576 16.6407 42.5754V42.5754C16.6199 42.5702 16.6053 42.5515 16.6053 42.5301V39.5131C16.6053 39.0079 17.0148 38.5984 17.52 38.5984V38.5984C17.7446 38.5984 17.9562 38.691 18.1526 38.8002C18.3851 38.9294 18.6483 38.9986 18.9181 38.9986C19.2467 38.9986 19.5653 38.896 19.8308 38.7074C19.9226 38.6421 20.0297 38.5984 20.1423 38.5984V38.5984C20.3115 38.5984 20.4598 38.701 20.5871 38.8123C20.6221 38.8429 20.66 38.8704 20.7003 38.8943C20.82 38.9652 18.8249 39.0017 18.964 39.0003C19.0973 39.0043 19.2308 39.0011 19.3637 38.9905V38.9905C19.4108 38.982 19.448 39.0126 19.481 39.0472C19.5055 39.0729 19.5307 39.098 19.5566 39.1223C19.5942 39.1578 19.6362 39.1882 19.6789 39.2174C19.761 39.2735 19.8433 39.3292 19.9251 39.3112C20.0519 39.2832 20.1882 38.9086 20.3015 39.1263C20.4122 39.3395 20.4926 38.8788 20.5877 38.9897C20.6483 39.074 20.715 39.1538 20.7873 39.2283C20.8097 39.2483 20.8369 39.2622 20.8661 39.269C20.8954 39.2757 20.9259 39.2749 20.9548 39.2667C21.0193 39.2494 21.0867 39.0832 21.147 39.1676C21.2866 39.3627 21.4188 39.2808 21.5578 39.1169C21.6588 38.9978 21.7682 39.1887 21.8738 39.2444C21.9272 39.2727 21.9857 39.418 22.0328 39.3189C22.1355 39.1032 22.2295 39.2042 22.3316 39.3235C22.4092 39.4144 22.4944 39.2189 22.5767 39.1496C22.619 39.1138 22.6649 38.9821 22.7028 39.0541C22.8525 39.3407 23.0032 39.092 23.1507 39.1657C23.3271 39.2562 23.5212 39.3064 23.7193 39.3127C23.873 39.3168 24.0269 39.1241 24.181 39.1038C24.2496 39.0996 24.3181 39.1146 24.3787 39.1471L24.4776 39.1962L24.5272 39.2197L24.5519 39.2304V39.2304C24.5527 39.2307 24.5528 39.2317 24.5523 39.2322L23.0206 40.7644C23.0199 40.7652 23.0186 40.7644 23.0189 40.7634V40.7634L23.0215 40.7573L23.0261 40.7449C23.0336 40.7242 23.0807 40.6982 23.0179 40.6833C22.5727 40.5776 22.9064 40.4746 23.0048 40.3689C23.0679 40.3011 22.9817 40.2301 22.9649 40.1605C22.9508 40.1017 22.9448 40.0422 22.927 39.9831L22.8501 39.7691C22.8356 39.7227 22.7184 39.6674 22.8444 39.6318C23.2485 39.5171 23.0031 39.4112 22.8322 39.2994C22.7493 39.2453 22.7988 39.1848 22.8448 39.1282C22.9535 38.9945 23.0687 38.865 22.9367 38.7263C22.7949 38.5768 23.0115 38.4204 23.0223 38.2668C23.0283 38.1793 22.8933 38.0916 22.899 38.0041C22.9055 37.9067 23.0608 37.8092 23.0431 37.7122C23.0032 37.4949 22.6314 37.2705 22.8915 37.0628C23.1516 36.8552 22.654 36.6549 23.0236 36.4531C23.117 36.4022 22.7998 36.3373 22.8237 36.2803C22.9052 36.0865 23.0808 35.8935 23.1617 35.6997C23.1838 35.6467 22.9957 35.5918 22.9118 35.5378C22.8579 35.5031 22.7697 35.4676 22.7803 35.433C22.8705 35.2332 22.9422 35.0255 22.9944 34.8125C23.007 34.6886 22.799 34.5642 22.8058 34.44C22.8123 34.321 22.9676 34.2021 23.0583 34.0833C23.0663 34.0727 23.1123 34.0596 23.0852 34.052C22.5915 33.916 22.8439 33.7883 23.0846 33.6471C23.2627 33.5427 22.9523 33.4196 22.8611 33.3049C22.8328 33.2692 22.7909 33.2334 22.7879 33.1977C22.7594 33.0552 22.7485 32.9098 22.7555 32.7649C22.7602 32.6654 22.7889 32.5687 22.8356 32.4808C22.8911 32.3761 22.9537 32.2751 23.0228 32.1787C23.0518 32.1383 23.0673 32.0921 23.028 32.0616C23.008 32.0461 22.988 32.0305 22.9864 32.0148C22.9773 31.928 22.9973 31.8411 22.9925 31.7543C22.9852 31.6946 22.9705 31.6359 22.9488 31.5797C22.9172 31.5179 22.8939 31.4525 22.8791 31.385C22.8652 31.3217 22.8767 31.2566 22.9318 31.2226C22.9837 31.1906 23.0475 31.1586 23.0558 31.1261C23.1108 30.9096 23.3875 30.6849 23.095 30.479C22.9523 30.3784 23.0191 30.2829 23.0993 30.1887V30.1887C23.1157 30.1697 23.1449 30.1686 23.1627 30.1863L24.5532 31.5751L24.5521 31.5741L24.5498 31.5722L24.5454 31.5684L24.5367 31.5611L24.5191 31.5467C24.4974 31.5286 24.4738 31.5131 24.4487 31.5003C24.4263 31.4873 24.4001 31.4822 24.3744 31.486C24.3487 31.4896 24.3251 31.5018 24.3071 31.5206C24.1972 31.6136 24.0819 31.7001 23.9618 31.7795C23.9508 31.7868 23.9374 31.8155 23.9345 31.8026V31.8026C23.8131 31.2867 23.7035 32.031 23.5864 31.947C23.5504 31.9214 23.5046 31.9983 23.4802 31.8768C23.359 31.2741 23.2384 31.7675 23.1174 31.7984C23.0423 31.8174 22.9663 31.7083 22.8909 31.647C22.8772 31.636 22.8636 31.5392 22.8517 31.548C22.7396 31.6313 22.6282 31.7504 22.5161 31.8167C22.4287 31.8562 22.3355 31.8807 22.2401 31.8894C22.1553 31.909 22.0702 31.9646 21.9852 31.9384C21.9071 31.9139 21.8294 31.8298 21.7514 31.776C21.7106 31.7479 21.6622 31.7335 21.6129 31.728C21.572 31.7234 21.5308 31.7223 21.4897 31.7249C21.436 31.7282 21.3824 31.736 21.3286 31.7391C21.3101 31.7402 21.2917 31.7407 21.2731 31.7396C21.2373 31.7356 21.2022 31.7277 21.1681 31.7161L21.0161 31.6694C20.9258 31.6433 20.8231 31.4243 20.7483 31.6391C20.6405 31.9475 20.5806 31.4876 20.5009 31.3254C20.4689 31.2604 20.4345 31.1329 20.4045 31.1653C20.2803 31.2976 20.1752 31.4466 20.0922 31.6078C19.9908 31.8015 19.8939 31.6085 19.7951 31.598C19.632 31.5811 19.4686 31.7601 19.3049 31.7809C19.1532 31.8005 19.001 31.6745 18.8495 31.697C18.698 31.7196 20.6813 31.8966 20.5304 31.9117C20.4287 31.9215 20.3266 31.7683 20.2245 31.6909C20.2073 31.6778 20.1888 31.6528 20.1726 31.679C20.0004 31.9563 19.8326 32.0046 19.6599 31.581C19.5971 31.4264 19.5142 31.6692 19.4407 31.6618C19.3483 31.652 19.256 31.5207 19.1639 31.5389C19.0991 31.5517 19.0349 31.7252 18.9704 31.8295C18.9606 31.8464 18.9499 31.9096 18.9404 31.9018C18.8463 31.812 18.7471 31.7277 18.6431 31.6493C18.608 31.6274 18.5717 31.7302 18.5353 31.7478C18.4764 31.7839 18.4088 31.8034 18.3398 31.8044C18.2909 31.8102 18.2414 31.8044 18.195 31.7876C18.1487 31.771 18.107 31.7436 18.073 31.7079C17.9777 31.596 17.8806 32.1458 17.7881 31.641C17.7756 31.5723 17.7533 31.5377 17.7368 31.552C17.6248 31.6501 17.5134 31.784 17.4012 31.8658C17.375 31.8861 17.3428 31.8968 17.3097 31.8965C17.2767 31.8962 17.2447 31.8847 17.2189 31.8639C17.0849 31.7727 16.9516 31.5819 16.817 31.5521C16.7125 31.5282 16.5817 31.7286 16.5396 31.7437C16.4951 31.753 16.4349 31.5599 16.3806 31.5471C16.2739 31.5359 16.1385 31.4641 16.0694 31.6393C16.0213 31.77 15.9126 31.6472 15.8341 31.6719C15.788 31.6833 15.8213 31.8932 15.7843 31.9072C15.7375 31.9305 15.6194 31.8098 15.5698 31.8441L15.539 31.8703L15.335 32.0111C15.1952 32.1244 15.0703 32.2549 14.9631 32.3994C14.7534 32.6764 14.6177 33.0021 14.5683 33.3461C14.5521 33.4523 14.5458 33.5599 14.5494 33.6672L14.5869 34.0646C14.6223 34.4446 14.6337 34.8265 14.6211 35.2079C14.5935 35.8285 14.338 36.4735 14.2842 37.0652C14.2517 37.3063 14.4732 37.5146 14.5685 37.7044C14.7946 38.1425 15.3125 38.2821 15.4117 38.6805C15.4519 38.7964 15.5152 38.9029 15.5979 38.9936C15.6806 39.0842 15.7808 39.1571 15.8926 39.2078C16.0042 39.2585 16.1251 39.286 16.2478 39.2884V39.2884C16.423 39.2921 16.606 39.4139 16.6061 39.5892L16.6066 41.556Z" fill="#001B38" stroke="#001B38" stroke-width="0.5"></path>
    <path d="M30 30.8426C29.9999 30.8093 30.0212 30.7805 30.0453 30.7576V30.7576C30.0554 30.7481 30.0611 30.7351 30.0635 30.7215C30.0745 30.6606 30.0819 30.5992 30.0859 30.5375V30.5375C30.0864 30.5206 30.1067 30.5202 30.109 30.5369C30.1311 30.6931 30.1548 30.8606 30.175 31.0037C30.1848 31.0653 30.196 31.1394 30.2045 31.0493C30.2521 30.5401 30.2996 30.6633 30.3476 30.9583C30.3517 30.983 30.3574 31.0784 30.3594 31.0356C30.3698 30.8362 30.3803 30.7775 30.3908 30.7825C30.5142 30.8408 30.474 30.9127 30.5046 30.7797V30.7797C30.5124 30.746 30.5302 30.7199 30.5353 30.7542C30.5384 30.7752 30.5413 30.8068 30.5437 30.8525C30.5659 31.2801 30.5867 31.271 30.6112 30.9922C30.6245 30.841 30.6415 30.941 30.657 30.942C30.6945 30.9445 30.7315 30.9519 30.7671 30.9636C30.7746 30.966 30.7823 30.9729 30.7895 31.0165C30.8104 31.1424 30.8287 31.1582 30.8512 30.926C30.8745 30.6829 30.9061 30.656 30.9296 30.903C30.9574 31.2019 30.9747 30.793 30.9961 30.5944C31.0013 30.5454 31.0095 30.4065 31.0112 30.4534C31.0302 30.998 31.0535 30.6778 31.0746 30.7394C31.0819 30.7711 31.09 30.8025 31.0989 30.8337C31.1244 30.9235 31.1533 30.9241 31.1648 30.8314C31.1686 30.7999 31.1725 30.7749 31.1764 30.7731C31.233 30.746 31.2902 30.6301 31.3462 30.8012C31.3715 30.8786 31.3952 30.7228 31.419 30.7785C31.4361 30.8178 31.4527 31.0501 31.4697 31.0743C31.4932 31.1077 31.5169 31.0351 31.5403 30.987C31.5461 30.9753 31.5521 30.8081 31.557 30.8371C31.606 31.1249 31.6544 30.6131 31.7041 30.7194C31.7538 30.8258 31.8037 30.7184 31.8535 30.7199C31.9409 30.7228 32.0286 30.677 32.1159 30.7832C32.1428 30.8158 32.1687 30.8388 32.1956 30.7887C32.2202 30.7432 32.2454 31.0886 32.2705 31.1235C32.2919 31.153 32.3135 30.9717 32.3351 30.909C32.3555 30.8502 32.3759 30.7968 32.3964 30.7889V30.7889C32.5116 30.7445 32.6011 30.6759 32.6169 30.5534C32.6202 30.5275 32.623 30.5015 32.6251 30.4755C32.6284 30.4546 32.6323 30.399 32.6349 30.4278C32.6974 31.0959 32.7624 30.6015 32.8257 30.7356C32.8532 30.7938 32.8815 30.7922 32.9088 30.6843C32.9299 30.6006 32.9468 30.643 32.9683 30.8253C32.993 31.0357 33.024 30.664 33.0523 30.5433C33.0585 30.5163 33.065 30.4309 33.0709 30.4597C33.0854 30.5303 33.0993 30.6974 33.1138 30.744C33.132 30.8193 33.1584 30.8923 33.1923 30.9617C33.2154 31.009 33.2423 31.0114 33.2503 30.9594C33.2597 30.8993 33.2691 30.8227 33.2787 30.8149C33.3262 30.7757 33.3739 30.7899 33.4216 30.7757C33.5107 30.7483 33.5998 30.7094 33.6889 30.6891C33.7077 30.6849 33.7266 30.7824 33.7451 30.7547C33.7581 30.7351 33.7705 30.5616 33.7833 30.4969C33.7892 30.4675 33.7956 30.5294 33.8017 30.5623C33.8058 30.5844 33.81 30.6243 33.8141 30.6561C33.8185 30.6906 33.8296 30.6848 33.8385 30.6513V30.6513C33.869 30.5356 33.9089 30.5381 33.9223 30.6569C33.9272 30.7002 33.9321 30.7348 33.937 30.7369C34.0005 30.7646 34.0645 30.8158 34.1275 30.7055C34.1506 30.6654 34.1721 30.6599 34.1952 30.6965C34.2491 30.7819 34.3031 30.6166 34.3575 30.5623C34.3623 30.5575 34.3682 30.5847 34.3718 30.6603C34.3914 31.0582 34.4088 30.7932 34.4274 30.6167C34.4353 30.541 34.4448 30.5716 34.4536 30.5873C34.4643 30.6062 34.4777 30.7945 34.4849 30.6738C34.5091 30.2782 34.5304 30.5784 34.549 30.8629C34.5662 31.129 34.5784 31.2354 34.5956 30.9167C34.6029 30.7837 34.6138 30.7794 34.623 30.7733V30.7733C34.6925 30.7273 34.7467 30.6765 34.7557 30.5937C34.7605 30.5497 34.7641 30.5056 34.7666 30.4615C34.7831 30.9771 34.802 31.3946 34.8288 30.8116C34.8299 30.7876 34.8312 30.7715 34.8327 30.7609C34.8358 30.7394 34.8596 30.7507 34.8812 30.7533V30.7533C34.9933 30.7664 35.0838 30.6753 35.1041 30.5643C35.1106 30.5284 35.1159 30.4924 35.1198 30.4561C35.1256 30.4281 35.1317 30.3893 35.1374 30.4071C35.1717 30.5149 35.206 30.7238 35.2401 30.7391C35.3284 30.7784 35.4166 30.7332 35.5048 30.7245V30.7245C35.5463 30.7206 35.5724 30.7072 35.5792 30.6661C35.5836 30.6392 35.5867 30.612 35.5885 30.5846C35.5932 30.5467 35.5994 30.4057 35.6018 30.4486C35.6393 31.1195 35.6802 30.722 35.7195 30.76C35.8016 30.8401 35.8845 30.6056 35.9662 30.7861C36.0196 30.9037 36.0718 30.5773 36.1246 30.7495C36.1367 30.7887 36.1497 30.5569 36.1625 30.4764C36.1678 30.4431 36.1764 30.4146 36.1789 30.4948C36.1868 30.7659 36.194 30.8024 36.2004 30.7423C36.2036 30.7126 36.2347 30.7564 36.2548 30.7344V30.7344C36.2989 30.6866 36.3431 30.5627 36.3868 30.516C36.399 30.5032 36.4115 30.7442 36.4235 30.7183C36.445 30.6714 36.4662 30.4795 36.4876 30.4134C36.496 30.3877 36.505 30.5349 36.5137 30.6107C36.5194 30.6597 36.5277 30.8186 36.5299 30.7647C36.557 30.1379 36.5841 30.9881 36.6107 30.7422C36.6487 30.3921 36.6867 30.9011 36.7246 30.7382L36.7656 30.4653C36.7716 30.4359 36.7782 30.5085 36.7845 30.5345C36.7967 30.5851 36.8092 30.6909 36.8213 30.6727C36.8383 30.6473 36.8551 30.461 36.8719 30.4702C36.8887 30.4794 36.905 30.6841 36.9219 30.7278C36.9317 30.7525 36.9415 30.6278 36.9513 30.5652C36.9552 30.5401 36.9601 30.4399 36.9627 30.4779C37.0019 31.0767 37.0451 30.6316 37.0862 30.7635C37.1081 30.8341 37.1302 30.9025 37.1523 30.9122C37.1632 30.9169 37.1742 30.7771 37.1849 30.7608C37.1873 30.7572 37.1898 30.7641 37.1904 30.7683V30.7683C37.1907 30.7706 37.1909 30.7729 37.1909 30.7753V34.7185C37.1909 34.7307 37.1811 34.7405 37.1689 34.7405V34.7405C37.157 34.7405 37.1472 34.7306 37.1469 34.7187C37.133 34.2099 37.091 34.2146 37.0756 34.7327C37.0754 34.7369 37.072 34.7405 37.0677 34.7405V34.7405C37.0635 34.7405 37.06 34.7368 37.0599 34.7325C37.0477 34.1321 37.0268 34.41 37.0094 34.3444C36.9949 34.2905 36.9806 34.2025 36.9662 34.1643C36.9416 34.0994 36.9172 34.0047 36.8924 34.0271C36.8624 34.055 36.8299 34.4297 36.803 34.212C36.7767 33.9987 36.7576 34.4595 36.7351 34.3486C36.7194 34.271 36.7037 34.1642 36.6878 34.11C36.6745 34.0652 36.6612 34.0565 36.648 34.0716C36.6327 34.0889 36.6166 34.2551 36.6023 34.1707C36.5693 33.9755 36.5378 34.0575 36.5048 34.2214C36.4808 34.3404 36.4548 34.1496 36.4298 34.0934C36.4172 34.0651 36.4033 33.9198 36.392 34.0189C36.3677 34.2346 36.3453 34.1336 36.3212 34.0143C36.3028 33.9235 36.282 34.1189 36.2632 34.1883C36.2534 34.2241 36.2421 34.3557 36.2331 34.2837C36.1977 33.9973 36.1619 34.2458 36.1268 34.1723C36.0818 34.0777 36.0368 34.0305 35.9919 34.0252C35.9554 34.0211 35.919 34.2139 35.8823 34.2341C35.8511 34.2514 35.8197 34.1466 35.7884 34.0984C35.7835 34.0909 35.7774 34.0438 35.7738 34.1066C35.7488 34.5517 35.7247 34.2182 35.6993 34.1197C35.6831 34.0566 35.6662 34.1429 35.6496 34.1595V34.1595C35.62 34.1828 35.5972 34.2133 35.5765 34.2447L35.5568 34.2744C35.5458 34.2889 35.5326 34.4061 35.5242 34.2801C35.497 33.876 35.4718 34.1214 35.4457 34.2923C35.433 34.3752 35.4186 34.3257 35.4051 34.2797C35.3734 34.171 35.3427 34.0558 35.3096 34.1879C35.2742 34.3296 35.237 34.1131 35.2005 34.1023C35.1798 34.0961 35.159 34.2312 35.1382 34.2255C35.115 34.219 35.092 34.0636 35.0689 34.0814C35.0173 34.1212 34.9641 34.4932 34.9147 34.2331C34.8654 33.973 34.8179 34.4704 34.77 34.1009C34.758 34.0076 34.7425 34.3247 34.729 34.3007C34.7141 34.2743 34.6992 34.238 34.6843 34.1982C34.6519 34.1115 34.5573 34.1204 34.5529 34.2128V34.2128C34.5445 34.2665 34.5362 34.3547 34.528 34.3442C34.479 34.2809 34.4299 34.151 34.3809 34.1301C34.3515 34.1176 34.3221 34.3254 34.2927 34.3187C34.2633 34.3121 34.2362 34.1569 34.208 34.0662C34.2054 34.0582 34.2023 34.0122 34.2005 34.0393C34.1683 34.5331 34.138 34.2806 34.1045 34.0399C34.0796 33.8618 34.0504 34.1723 34.0232 34.2634C34.0148 34.2917 34.0063 34.3335 33.9978 34.3366V34.3366C33.9027 34.3704 33.8348 34.3103 33.7973 34.2166C33.7764 34.1644 33.758 34.1112 33.7419 34.0573C33.7338 34.0387 33.7255 34.1344 33.7173 34.1381C33.6967 34.1473 33.6759 34.1273 33.6553 34.1319C33.6416 34.1349 33.6277 34.1576 33.614 34.1757C33.5908 34.2061 33.5679 34.2699 33.5453 34.2604C33.5324 34.2551 33.5195 34.0827 33.5061 34.0687C33.4548 34.0136 33.4014 33.737 33.3525 34.0295C33.3047 34.3147 33.2618 33.7627 33.2165 33.9393C33.1898 34.0442 33.1628 34.1119 33.1359 34.1934C33.1324 34.2041 33.1287 34.2327 33.1281 34.2214V34.2214C33.0993 33.7054 33.0733 34.4497 33.0455 34.3658C33.037 34.3402 33.0259 34.4171 33.0202 34.2956C32.9915 33.6929 32.963 34.1863 32.9341 34.2172C32.9163 34.2362 32.8982 34.1271 32.8803 34.0659C32.877 34.0547 32.8739 33.9576 32.8705 33.9668C32.844 34.05 32.8175 34.1691 32.7908 34.2355C32.7692 34.2897 32.7471 34.2866 32.7253 34.3082C32.7052 34.3278 32.685 34.3834 32.6649 34.3572C32.6412 34.3258 32.6178 34.1973 32.5941 34.159C32.5722 34.1238 32.5501 34.1519 32.5283 34.1534C32.5175 34.1539 32.5067 34.1612 32.4959 34.1584C32.4877 34.1563 32.4793 34.1448 32.471 34.1349L32.4349 34.0883C32.4135 34.0621 32.3891 33.8432 32.3713 34.058C32.3458 34.3663 32.3315 33.9064 32.3125 33.7442C32.3049 33.6792 32.2968 33.5517 32.2896 33.584C32.2647 33.6972 32.2397 33.8313 32.2155 34.0266C32.1915 34.2202 32.1685 34.0274 32.145 34.0168C32.1058 33.9999 32.0675 34.1788 32.0288 34.1996C31.9927 34.2192 31.9567 34.0933 31.9209 34.1159C31.8851 34.1385 31.8497 34.3153 31.814 34.3304C31.7899 34.3402 31.7656 34.187 31.7414 34.1095C31.7374 34.0965 31.733 34.0715 31.7292 34.0977C31.6882 34.3749 31.6484 34.4234 31.6074 33.9996C31.5925 33.8451 31.5728 34.0879 31.5553 34.0806V34.0806C31.4686 34.0417 31.4761 34.0073 31.4612 34.1013C31.4535 34.15 31.4477 34.199 31.4438 34.2482C31.4413 34.2651 31.4389 34.3283 31.4366 34.3206C31.4131 34.239 31.3895 34.1299 31.366 34.068C31.3578 34.0462 31.3492 34.1488 31.3405 34.1665C31.3251 34.1983 31.3096 34.2292 31.2941 34.2231C31.2731 34.2145 31.2515 34.2289 31.2308 34.1266C31.2082 34.0146 31.1852 34.5645 31.1632 34.0597C31.1601 33.9911 31.1549 33.9564 31.1511 33.9708L31.0714 34.2845C31.0571 34.3282 31.042 34.3237 31.0281 34.2827C31.0199 34.2448 31.0106 34.2073 31.0002 34.17C30.9629 34.0366 30.9875 34.1149 30.8556 34.1572V34.1572C30.8366 34.1634 30.8174 33.9681 30.7983 33.9537C30.7575 33.9234 30.7159 33.845 30.6757 33.9917C30.6448 34.1037 30.6156 33.9668 30.5857 33.957C30.5685 33.9514 30.5512 34.1602 30.5341 34.1629C30.5115 34.1659 30.4889 34.002 30.4664 34.0132C30.4256 34.0336 30.3847 34.1276 30.344 34.1962C30.3177 34.2403 30.2913 34.3583 30.2655 34.3236C30.2439 34.295 30.2227 34.0431 30.2009 33.9842C30.1882 33.9497 30.175 34.1261 30.1617 34.1614C30.1346 34.2336 30.1029 34.5437 30.0814 34.2692V34.2692C30.0776 34.2217 30.0007 33.7881 30.0007 33.7405L30 30.8426Z" fill="#001B38" stroke="#001B38" stroke-width="0.5"></path>
    <path d="M30.1934 36.8582C30.1934 36.8268 30.2136 36.7998 30.2371 36.779V36.779C30.2471 36.7701 30.253 36.7574 30.2555 36.7443C30.266 36.6886 30.2731 36.6322 30.2769 36.5755V36.5755C30.2775 36.5592 30.2971 36.5588 30.2995 36.575C30.3209 36.719 30.344 36.8734 30.3637 37.0054C30.3729 37.0623 30.3841 37.1305 30.3923 37.0474C30.4386 36.5779 30.4852 36.6914 30.5315 36.9635C30.5354 36.9862 30.5407 37.0744 30.543 37.0349C30.5708 36.5304 30.5991 37.0022 30.627 36.9851C30.6498 36.9711 30.6723 36.8085 30.6951 36.7519C30.7041 36.7296 30.7154 36.7398 30.7224 36.8659C30.7439 37.2603 30.7641 37.2518 30.7881 36.9947C30.801 36.8553 30.8176 36.9476 30.8325 36.9485C30.8689 36.9508 30.9049 36.9575 30.9398 36.9685C30.9471 36.9706 30.9545 36.9769 30.9616 37.0172C30.9819 37.1333 30.9999 37.1478 31.0216 36.9338C31.0443 36.7095 31.0751 36.6848 31.0976 36.9125C31.1249 37.1881 31.1416 36.811 31.1625 36.628C31.1675 36.5832 31.1756 36.4547 31.1772 36.4979C31.1957 37.0001 31.2182 36.7048 31.239 36.7617C31.2448 36.7854 31.251 36.809 31.2578 36.8324C31.2849 36.9263 31.3148 36.9261 31.3289 36.8294C31.3319 36.8089 31.3348 36.7941 31.3378 36.7928C31.393 36.7677 31.4486 36.6609 31.5031 36.8186C31.5278 36.8901 31.5505 36.7463 31.5739 36.7978C31.5908 36.834 31.6068 37.0482 31.6233 37.0705C31.6462 37.1012 31.6691 37.0343 31.692 36.9899C31.6976 36.9793 31.7034 36.8251 31.7083 36.8517C31.7561 37.1171 31.8029 36.6452 31.851 36.7432C31.8991 36.8413 31.9479 36.7422 31.9963 36.7438C32.0814 36.7463 32.1668 36.7042 32.2518 36.802C32.2779 36.8321 32.3032 36.8533 32.3294 36.8072C32.3533 36.7651 32.3777 37.0838 32.4021 37.1159C32.423 37.143 32.4444 36.9759 32.4651 36.9181C32.4849 36.8638 32.5048 36.8146 32.5242 36.8073V36.8073C32.6367 36.7665 32.7247 36.7001 32.7401 36.5815C32.7428 36.5605 32.7451 36.5394 32.7469 36.5183C32.7501 36.4991 32.7539 36.4478 32.7565 36.4743C32.8172 37.0905 32.8803 36.6345 32.9424 36.7582C32.9692 36.8119 32.9968 36.8103 33.0232 36.7109C33.0439 36.6337 33.0603 36.6727 33.0811 36.841C33.1053 37.035 33.1354 36.6923 33.1628 36.5808C33.169 36.556 33.1753 36.4773 33.1811 36.5038C33.1951 36.5689 33.2087 36.7229 33.2228 36.7659C33.2402 36.8336 33.2648 36.8988 33.2959 36.9603C33.3202 37.0083 33.3483 37.0102 33.3569 36.9571C33.3655 36.9029 33.3743 36.8381 33.383 36.8312C33.4293 36.795 33.4759 36.8081 33.5222 36.7946C33.6088 36.7694 33.6956 36.7335 33.7823 36.7149C33.8005 36.7109 33.8188 36.8007 33.8369 36.7752C33.8494 36.7577 33.8616 36.5971 33.8742 36.5376C33.8798 36.5105 33.886 36.5676 33.892 36.5978C33.8999 36.6384 33.9079 36.7435 33.9157 36.7267C33.9387 36.6763 33.9616 36.5337 33.9846 36.5194C33.9979 36.5112 34.0113 36.7537 34.0246 36.7593C34.0865 36.7849 34.1485 36.8317 34.2105 36.7303C34.2328 36.6933 34.2539 36.6883 34.2764 36.7221C34.3288 36.8007 34.3817 36.6483 34.4343 36.5982C34.4389 36.5939 34.4447 36.6189 34.4482 36.6886C34.4669 37.0555 34.4841 36.8111 34.5023 36.6484C34.51 36.5786 34.5192 36.6068 34.5277 36.6213C34.5381 36.6387 34.5512 36.8123 34.5583 36.701C34.5817 36.3362 34.6026 36.6131 34.6205 36.8753C34.6374 37.1208 34.6494 37.2188 34.666 36.9249C34.6729 36.8024 34.6836 36.7984 34.6925 36.7928V36.7928C34.7605 36.7501 34.8133 36.7017 34.8223 36.622C34.8266 36.5832 34.83 36.5442 34.8323 36.5052C34.8483 36.9806 34.8668 37.3658 34.8927 36.828C34.8938 36.8057 34.8952 36.7907 34.8967 36.7809C34.8997 36.7609 34.9226 36.7718 34.9427 36.7741V36.7741C35.0525 36.7866 35.1425 36.6992 35.1628 36.5906C35.1683 36.5607 35.1729 36.5305 35.1764 36.5002C35.1822 36.4744 35.188 36.4388 35.1933 36.455C35.2133 36.5139 35.2329 36.6053 35.2525 36.6731C35.2708 36.7361 35.3255 36.7711 35.3911 36.7717C35.4402 36.7722 35.4892 36.7656 35.5369 36.752C35.5462 36.7493 35.5556 36.7468 35.5649 36.7495V36.7495C35.5946 36.7578 35.6153 36.7358 35.6209 36.7054C35.6262 36.6768 35.6298 36.6478 35.6317 36.6187C35.6363 36.5836 35.6424 36.4536 35.6446 36.4932C35.6812 37.1118 35.7215 36.7452 35.7594 36.7803C35.8395 36.8543 35.92 36.638 35.9997 36.8044C36.0517 36.9129 36.1024 36.6118 36.1539 36.7706C36.1655 36.8068 36.1783 36.593 36.1907 36.5188C36.1959 36.488 36.2042 36.4618 36.2065 36.5358C36.2143 36.7851 36.2214 36.8192 36.2276 36.7645C36.2309 36.7359 36.2605 36.7775 36.2805 36.7567V36.7567C36.3234 36.7126 36.3661 36.5983 36.409 36.5553C36.4207 36.5434 36.4331 36.7657 36.4447 36.7418C36.4656 36.6986 36.4861 36.5217 36.5071 36.4606C36.5155 36.437 36.524 36.5727 36.5324 36.6427C36.5379 36.6879 36.546 36.8344 36.5483 36.7846C36.5745 36.2067 36.6009 36.9907 36.6268 36.7638C36.6638 36.441 36.7009 36.9104 36.7378 36.7601L36.7775 36.5094C36.7833 36.4822 36.7898 36.5492 36.7958 36.5732C36.8078 36.6198 36.8199 36.7178 36.8317 36.7006C36.8482 36.6772 36.8646 36.5054 36.8809 36.514C36.8973 36.5226 36.9131 36.7112 36.9295 36.7515C36.9387 36.7742 36.9485 36.6592 36.958 36.6015C36.9618 36.5783 36.9665 36.486 36.9691 36.5209C37.0077 37.0731 37.0493 36.6628 37.0892 36.7844C37.1105 36.8495 37.132 36.9126 37.1536 36.9214C37.1641 36.9258 37.1749 36.7967 37.1854 36.7818C37.1878 36.7785 37.1901 36.785 37.1907 36.789V36.789C37.191 36.791 37.1912 36.793 37.1912 36.795V40.4295C37.1912 40.4413 37.1816 40.4509 37.1698 40.4509V40.4509C37.1582 40.4509 37.1487 40.4413 37.1483 40.4297C37.1349 39.9618 37.0941 39.9663 37.0789 40.4433C37.0788 40.4474 37.0754 40.4509 37.0712 40.4509V40.4509C37.0671 40.4509 37.0637 40.4473 37.0636 40.4431C37.0515 39.89 37.0314 40.1463 37.0143 40.0858C37.0003 40.036 36.9865 39.9548 36.972 39.9196C36.9482 39.8598 36.924 39.7725 36.9002 39.7935C36.8709 39.8193 36.8395 40.1647 36.8133 39.964C36.7879 39.7673 36.7691 40.1922 36.7471 40.0899C36.7317 40.0184 36.7165 39.9199 36.7011 39.8699C36.6884 39.8286 36.6753 39.8205 36.6623 39.8345C36.6475 39.8505 36.6319 40.0037 36.618 39.9259C36.5858 39.746 36.5553 39.8215 36.5231 39.9726C36.4997 40.0824 36.4745 39.9064 36.4501 39.8551C36.4377 39.8289 36.4243 39.6949 36.4133 39.7864C36.3897 39.9853 36.3679 39.8921 36.3444 39.7821C36.3264 39.6983 36.3067 39.8786 36.2879 39.9424C36.2781 39.9755 36.2674 40.0969 36.2587 40.0306C36.2241 39.7663 36.1894 39.9956 36.1552 39.9277C36.1114 39.8404 36.0678 39.797 36.024 39.7921C35.9884 39.7883 35.9529 39.966 35.9173 39.9846C35.8869 40.0006 35.8565 39.9039 35.826 39.8595C35.8212 39.8526 35.8153 39.8092 35.8117 39.867C35.7873 40.2775 35.7635 39.9699 35.7391 39.8791C35.7234 39.8209 35.707 39.9005 35.691 39.9158V39.9158C35.6621 39.937 35.6396 39.9657 35.6191 39.9951L35.6005 40.0219C35.5898 40.0352 35.577 40.1432 35.5688 40.027C35.5423 39.6544 35.5181 39.8807 35.492 40.0383C35.4795 40.1148 35.4655 40.0691 35.4526 40.0267C35.4216 39.9264 35.3916 39.8203 35.3596 39.942C35.3251 40.0728 35.289 39.873 35.2535 39.863C35.2332 39.8573 35.213 39.9819 35.1928 39.9767C35.1703 39.9708 35.1477 39.8274 35.1252 39.8439C35.0751 39.8806 35.0232 40.2231 34.9753 39.9836C34.9274 39.7442 34.8811 40.2026 34.8344 39.8618C34.8227 39.7758 34.8077 40.0682 34.7945 40.0461C34.7497 39.9709 34.7052 39.8091 34.6604 39.7344C34.6482 39.7141 34.6356 39.8875 34.6231 39.9649C34.6146 40.0146 34.6068 40.0958 34.5988 40.0862C34.5511 40.0278 34.5033 39.9081 34.4552 39.8887C34.4264 39.8771 34.3977 40.0689 34.3691 40.0626C34.3406 40.0564 34.3141 39.9134 34.2867 39.8299C34.2842 39.8224 34.2813 39.78 34.2795 39.805C34.248 40.2604 34.2186 40.0275 34.186 39.8055C34.1619 39.6414 34.1334 39.9276 34.1069 40.0117C34.0985 40.0378 34.09 40.0763 34.0822 40.0791V40.0791C33.9897 40.1104 33.9225 40.0534 33.8848 39.9634C33.8655 39.9171 33.8481 39.8698 33.8329 39.8216C33.8251 39.8045 33.8169 39.8928 33.8089 39.8961C33.7888 39.9045 33.7688 39.8861 33.7487 39.8903C33.7354 39.8931 33.7218 39.914 33.7084 39.9308C33.686 39.9588 33.6636 40.0176 33.6412 40.0089C33.6286 40.004 33.6159 39.845 33.6036 39.8321C33.5537 39.7813 33.5022 39.5262 33.4541 39.796C33.4077 40.059 33.3658 39.5499 33.3219 39.7129C33.2957 39.8095 33.2695 39.872 33.2433 39.9471C33.2399 39.957 33.2364 39.9833 33.2358 39.9729V39.9729C33.2078 39.4971 33.1824 40.1834 33.1554 40.106C33.147 40.0824 33.1365 40.1533 33.1308 40.0413C33.1028 39.4856 33.075 39.9406 33.047 39.969C33.0301 39.9871 33.0121 39.8859 32.9947 39.8295C32.9915 39.8192 32.9884 39.7296 32.9855 39.7382C32.9596 39.8149 32.9339 39.9247 32.9079 39.9859C32.8868 40.0359 32.8656 40.033 32.8442 40.0529C32.8247 40.071 32.805 40.1223 32.785 40.0981C32.762 40.0692 32.7391 39.9506 32.7161 39.9154C32.6948 39.8829 32.6733 39.9088 32.6521 39.9101C32.6415 39.9108 32.6311 39.9174 32.6205 39.9148C32.612 39.9129 32.6044 39.9023 32.5962 39.8931L32.5612 39.8501C32.5404 39.826 32.5166 39.6241 32.4993 39.8222C32.4746 40.1066 32.4606 39.6825 32.4422 39.5329C32.4348 39.4729 32.4269 39.3553 32.4199 39.3853C32.3889 39.5198 32.3649 39.6559 32.3478 39.7932C32.3244 39.9718 32.302 39.794 32.2792 39.7842C32.2415 39.7687 32.2038 39.9337 32.166 39.9528C32.131 39.9709 32.0959 39.8548 32.0608 39.8756C32.0258 39.8964 31.9915 40.0595 31.9568 40.0735C31.9333 40.0825 31.9096 39.9412 31.8861 39.8698C31.8822 39.8578 31.8777 39.8347 31.8742 39.8588C31.8343 40.1145 31.7956 40.1591 31.7559 39.7684C31.7414 39.6259 31.7221 39.8497 31.7052 39.843V39.843C31.6235 39.8084 31.6278 39.776 31.6133 39.8635C31.6059 39.9079 31.6003 39.9526 31.5966 39.9975V39.9975C31.5957 40.0137 31.5756 40.0153 31.5713 39.9997C31.5546 39.9383 31.5378 39.8732 31.521 39.8314C31.5126 39.8112 31.5041 39.9059 31.4957 39.9218C31.4807 39.9511 31.4656 39.9797 31.4506 39.974C31.43 39.9661 31.409 39.9794 31.3889 39.885C31.367 39.7818 31.3445 40.2888 31.3231 39.8234C31.3202 39.7601 31.3152 39.7281 31.3114 39.7414C31.2855 39.8312 31.2597 39.9552 31.2338 40.0306C31.2198 40.071 31.2056 40.0668 31.1915 40.0289C31.1836 39.9942 31.1745 39.9598 31.1645 39.9257C31.128 39.8021 31.1469 39.8763 31.0234 39.9132V39.9132C31.0049 39.919 30.9863 39.7388 30.9677 39.7257C30.9278 39.6977 30.8875 39.6254 30.8483 39.7606C30.8184 39.8639 30.79 39.7376 30.7608 39.7287C30.7439 39.7235 30.727 39.916 30.7101 39.9185C30.6883 39.9213 30.6663 39.7701 30.6444 39.7805C30.6046 39.7993 30.5649 39.8859 30.5252 39.9492C30.4999 39.9899 30.474 40.0986 30.4486 40.0667C30.4275 40.0402 30.4068 39.808 30.3857 39.7537C30.3734 39.7219 30.3603 39.8845 30.3477 39.917C30.3215 39.9837 30.2909 40.2696 30.2697 40.0165V40.0165C30.2658 39.9703 30.1914 39.5738 30.1914 39.5275L30.1934 36.8582Z" fill="#001B38" stroke="#001B38" stroke-width="0.5"></path>
    <path d="M13.8431 37.2499C13.8432 37.6749 13.5124 38.0265 13.0882 38.0524V38.0524C13.0175 38.0567 12.9468 38.0685 12.883 38.0992C12.8069 38.1359 12.732 38.1851 12.6588 38.2463C12.6213 38.2776 12.5841 38.3098 12.554 38.3482C12.5249 38.3853 12.4966 38.423 12.4729 38.4102L11.3185 37.7575C11.2094 37.6751 11.0945 37.6468 10.981 37.6736C10.9214 37.6877 10.8701 37.7238 10.8196 37.7585C10.172 38.2046 9.48325 38.223 8.83056 37.8099C8.77266 37.7814 8.69399 37.6713 8.66157 37.7207C8.24778 38.3511 7.82967 37.7615 7.41554 37.783C7.40404 37.7834 7.39535 37.7839 7.38878 37.7845C7.37004 37.7863 7.36988 37.8071 7.36988 37.8259V37.8259L7.36964 37.9086L7.36911 38.0742C7.36911 38.1023 7.36882 38.0894 7.36867 37.9318C7.36833 37.4389 7.36804 37.4494 7.3677 37.7708C7.3677 37.8845 7.36741 37.8744 7.36721 37.8536C7.36704 37.837 7.36647 37.8203 7.36536 37.8036V37.8036L7.36502 37.7427C7.36473 37.5977 7.36449 37.5795 7.3641 37.847C7.36376 38.1272 7.36327 38.1582 7.36298 37.8736C7.36259 37.5291 7.36225 38.0004 7.36196 38.2292C7.36196 38.2851 7.36196 38.4457 7.36196 38.3917C7.36167 37.7641 7.36133 38.1331 7.36104 38.062L7.36002 37.7992L7.35953 38.0233C7.3587 38.0545 7.35783 38.188 7.357 37.9909C7.35666 37.9016 7.35627 38.0813 7.35593 38.017L7.35515 37.6761C7.35394 37.7096 7.3536 37.7432 7.35413 37.7768L7.35384 37.9495C7.35316 37.6178 7.35243 38.2078 7.3517 38.0851C7.35117 37.9958 7.35023 38.0365 7.34975 38.0652C7.34954 38.0785 7.34786 38.0986 7.34717 38.0853C7.34661 38.0745 7.34604 38.0528 7.34562 38.0122C7.34519 37.9746 7.34475 37.948 7.34441 38.0058C7.34441 37.9303 7.34349 37.6909 7.34329 37.6199L7.34232 37.8673L7.3414 38.0057L7.33867 38.0589L7.33799 38.3668C7.33799 38.3908 7.33799 38.4549 7.33799 38.4219C7.33702 37.6518 7.3361 38.2216 7.33512 38.067C7.33473 37.9999 7.3343 38.0018 7.33391 38.1261C7.33362 38.2226 7.33337 38.1738 7.33299 37.9636C7.33265 37.7212 7.33216 38.1495 7.33177 38.2887C7.33177 38.3198 7.33177 38.4182 7.33153 38.385L7.33085 38.0573L7.32914 37.7261L7.32842 37.9756C7.32856 37.9911 7.32783 38.0065 7.32628 38.0214L7.32578 38.0338C7.32568 38.0364 7.32153 38.0431 7.32151 38.0457V38.0457L7.32088 38.3427C7.32088 38.3766 7.32088 38.3052 7.32088 38.2673L7.32054 38.1063L7.31947 38.3653L7.31888 38.0655C7.31791 38.0336 7.31699 37.9746 7.31602 38.1017C7.31568 38.1479 7.31539 38.1542 7.31505 38.1121C7.31417 38.0138 7.31344 38.2042 7.31261 38.2669V38.1539C7.31232 37.6954 7.31208 38.0009 7.31179 38.2042C7.31179 38.2914 7.3115 38.2562 7.31135 38.2381C7.31135 38.2163 7.31101 37.9992 7.31086 38.1383C7.31052 38.5943 7.31023 38.2484 7.30994 37.9205C7.3097 37.6137 7.3095 37.4911 7.30931 37.8584L7.30887 38.0237L7.30717 38.0841L7.30673 38.383C7.30673 37.7888 7.3062 37.3076 7.30576 37.9796C7.30576 38.0067 7.30574 38.0251 7.30572 38.0373C7.30568 38.0574 7.30293 38.0415 7.30236 38.0616V38.0616L7.30143 38.3893C7.30143 38.4217 7.30143 38.4662 7.30143 38.4457C7.301 38.3208 7.30026 38.1424 7.29992 38.0629C7.29906 38.0332 7.29819 38.0456 7.29733 38.0604C7.29722 38.0623 7.29514 38.0727 7.29511 38.0746V38.0746L7.29477 38.2412C7.29477 38.285 7.29477 38.4474 7.29477 38.398C7.29419 37.6249 7.29356 38.0829 7.29297 38.0391C7.29181 37.9468 7.29054 38.2171 7.28937 38.0091C7.28855 37.8735 7.28777 38.2498 7.28699 38.0512L7.28641 38.366C7.28641 38.4045 7.28641 38.4372 7.28617 38.3447C7.28617 37.8104 7.28583 38.0669 7.28568 38.3186L7.28505 38.0686L7.28305 38.3204L7.28252 38.0874L7.2816 38.4386L7.28126 38.2112C7.28126 38.1547 7.28126 37.9715 7.28091 38.0337C7.28057 38.7561 7.28019 37.7763 7.27975 38.0597C7.27921 38.4631 7.27863 37.8765 7.2781 38.0643L7.27741 38.3789C7.27741 38.4128 7.27741 38.3289 7.27741 38.299L7.27688 38.1398L7.2761 38.3731L7.27532 38.0763L7.27489 38.2636C7.27489 38.2927 7.27489 38.408 7.27489 38.3643C7.27077 38.2357 7.27298 38.1489 7.27486 38.0918C7.2775 38.0117 7.2104 38.007 7.13137 38.0199C6.87228 38.0622 6.61231 38.0673 6.3529 38.0352C6.03615 37.9537 5.7177 37.8749 5.39955 37.8637C5.22256 37.8576 5.04209 38.0638 4.86796 38.0377C4.86449 38.0372 4.86116 38.0359 4.85813 38.0342V38.0342C4.84892 38.0288 4.84326 38.019 4.84326 38.0084V33.8343C4.84326 33.6226 5.01489 33.4509 5.22659 33.4509V33.4509C5.37377 33.4509 5.50273 33.5391 5.5892 33.6582C5.709 33.8232 5.84644 33.9119 5.98753 33.9119C6.15967 33.9119 6.32644 33.7798 6.46232 33.5382C6.49179 33.4858 6.54596 33.4509 6.60608 33.4509V33.4509C6.67905 33.4509 6.7412 33.5017 6.76406 33.571C6.79326 33.6596 6.82957 33.7346 6.87116 33.7919C6.93053 33.8736 6.99835 33.9159 7.06734 33.9142C7.12777 33.9185 7.18824 33.9158 7.24856 33.9059C7.25983 33.904 7.27394 33.8855 7.27197 33.8967V33.8967C7.2712 33.9011 7.27236 33.9095 7.27238 33.914L7.27294 34.1148C7.27333 34.1896 7.27372 34.2988 7.27411 34.273C7.2745 34.2408 7.27498 33.809 7.27537 34.0599C7.27581 34.3057 7.2761 33.7746 7.27639 33.9024L7.27712 34.1774C7.27712 34.2291 7.27751 34.2391 7.27771 34.2217C7.27795 34.2017 7.27819 34.0102 7.27834 34.1075C7.27887 34.3325 7.27936 34.238 7.27984 34.0491C7.28019 33.9119 7.28057 34.1318 7.28096 34.196C7.28096 34.2286 7.28135 34.3961 7.2815 34.2818C7.28189 34.0333 7.28223 34.1496 7.28257 34.2871C7.28281 34.3918 7.2831 34.1666 7.28339 34.0867C7.28276 34.0501 7.28291 34.0134 7.28388 33.9767C7.28442 34.3068 7.28495 34.0204 7.28544 34.1052L7.28743 34.2747L7.28928 34.0343L7.29069 34.1907C7.29069 34.1994 7.29069 34.2536 7.29069 34.1813C7.29108 33.6683 7.29142 34.0528 7.29176 34.1661C7.29205 34.239 7.29229 34.1395 7.29253 34.1203L7.29312 34.0765L7.2939 33.9878C7.2939 33.9712 7.29428 33.8361 7.29438 33.9813C7.29482 34.4471 7.29516 34.1643 7.29555 33.9673C7.29555 33.8717 7.29599 33.9288 7.29618 33.9817C7.29662 34.1072 7.29711 34.2398 7.29759 34.0876C7.29813 33.9242 7.29866 34.1738 7.2992 34.1862L7.30012 34.0443L7.30114 34.2103C7.30192 34.1644 7.30275 33.7358 7.30347 34.0355C7.3042 34.3353 7.30488 33.762 7.30561 34.1878C7.30561 34.2954 7.306 33.9299 7.3062 33.9576C7.30683 34.0715 7.3077 34.2334 7.30829 34.347C7.30829 34.3062 7.30863 34.1538 7.30887 34.059L7.30921 33.9075L7.3114 34.1542L7.31271 33.9368L7.31398 34.2278C7.31398 34.2371 7.31398 34.2901 7.31398 34.2588C7.31446 33.6898 7.3149 33.9807 7.31543 34.2581C7.31577 34.4634 7.31621 34.1056 7.3166 34.0006L7.31704 33.9162C7.31767 33.8973 7.3184 33.8392 7.31903 33.8944L7.32083 34.2381L7.32117 34.145V34.145C7.32118 34.1446 7.32223 34.1386 7.32223 34.1382L7.32273 34.1016L7.32375 34.004L7.32433 34.2249C7.32511 34.2884 7.32584 34.6072 7.32657 34.2701C7.3273 33.9414 7.32793 34.5777 7.32861 34.374L7.32992 34.0626V34.049C7.33036 34.6436 7.33075 33.7858 7.33114 33.8825C7.33114 33.912 7.33143 33.8234 7.33148 33.9634C7.33191 34.6581 7.3324 34.0894 7.33279 34.0538L7.33357 34.2283V34.3424L7.33473 34.0327L7.33571 33.949C7.336 33.9264 7.33629 33.8622 7.33658 33.8925L7.33765 34.1209C7.33786 34.1499 7.33827 34.1407 7.33848 34.1332C7.33859 34.1293 7.33877 34.1255 7.33906 34.1216V34.1216L7.3395 34.1486L7.34003 34.2025C7.34033 34.2326 7.34067 34.485 7.34096 34.2373C7.35909 33.3498 7.72057 34.5823 8.00002 33.9758C8.27943 33.3694 8.29717 34.0894 8.67941 34.1081C9.06169 34.1266 9.15382 33.3423 9.42209 33.9754C9.69037 34.6085 10.2711 33.4913 10.2732 34.3798C10.2754 35.2683 10.1282 36.1237 9.86301 36.7637C9.59785 37.4038 9.2356 37.778 8.85346 37.8065C8.47132 37.8351 8.09949 37.5158 7.81712 36.9167C7.5348 36.3175 7.36425 35.4859 7.34183 34.5989L7.34217 34.7834L7.34329 34.2734C7.34363 34.0502 7.34392 34.2725 7.34431 34.2847L7.34601 34.0739L7.34762 34.1705L7.34922 33.9232L7.35029 34.1778C7.35029 34.1928 7.35029 34.2216 7.35029 34.1914C7.35092 33.8719 7.35151 33.8162 7.35214 34.3044C7.35214 34.4825 7.35267 34.2027 7.35287 34.2112L7.35384 34.3529L7.35457 34.018V33.9345L7.35559 34.2257L7.35598 34.1121L7.35666 34.0469L7.35759 34.1581C7.35797 34.2871 7.35832 33.6535 7.35861 34.2353C7.35861 34.3144 7.35861 34.3543 7.35861 34.3378L7.35977 33.9762C7.36002 33.9259 7.36021 33.931 7.36045 33.9784L7.36186 34.3376L7.36298 34.123C7.36298 34.1682 7.36371 34.3101 7.36381 34.3574C7.36449 34.3924 7.36507 34.4827 7.36566 34.3137C7.36614 34.1846 7.36653 34.3424 7.36702 34.3537L7.36779 34.1164V34.1164C7.36828 34.2078 7.44912 34.2778 7.53962 34.2653L8.89245 34.078C9.26963 33.984 9.64866 33.935 10.028 33.9311C10.2813 33.9579 10.5303 34.1542 10.7825 34.2634C10.8954 34.3124 11.0222 34.316 11.1405 34.282C11.2692 34.2451 11.3968 34.1903 11.5228 34.1181C11.864 33.9038 12.2197 33.8488 12.5694 33.955C12.6434 33.9774 12.7212 34.0322 12.7832 34.0783V34.0783C13.1959 34.3848 13.8424 34.8017 13.8425 35.3157L13.8431 37.2499Z" fill="#001B38" stroke="#001B38" stroke-width="0.5"></path>
    <path d="M29.0311 7.83237C28.9943 7.82953 28.9611 7.85153 28.9365 7.87897V7.87897C28.9256 7.89118 28.91 7.89796 28.8938 7.90015C28.8335 7.90825 28.7728 7.91237 28.712 7.91246V7.91246C28.6922 7.91171 28.6898 7.9356 28.7091 7.94048L29.1682 8.05664C29.2287 8.073 29.3014 8.09266 29.2107 8.09537C28.6986 8.11367 28.8166 8.18096 29.1061 8.26191C29.1304 8.26869 29.2252 8.28273 29.1822 8.28215C28.6341 8.2746 29.1413 8.34935 29.12 8.38276C29.1026 8.40987 28.9247 8.42439 28.8613 8.44802C28.8361 8.4577 28.8461 8.47242 28.9818 8.49159C29.4059 8.55163 29.3949 8.57612 29.1146 8.58435C28.9625 8.58881 29.0607 8.61718 29.0601 8.63587C29.059 8.68128 29.0627 8.72669 29.0711 8.77143C29.0727 8.78063 29.0788 8.79079 29.1216 8.80261C29.2451 8.83785 29.2589 8.86138 29.0255 8.87039C28.7804 8.88007 28.7509 8.91619 28.995 8.96315C29.2903 9.02018 28.8809 9.00943 28.6812 9.01999C28.6322 9.0226 28.4926 9.02183 28.5392 9.02744C29.0804 9.09261 28.7588 9.096 28.8183 9.1266C28.8449 9.13635 28.8712 9.14677 28.8972 9.15784C28.9933 9.19875 28.9898 9.23525 28.8858 9.24413C28.8616 9.24619 28.8439 9.24876 28.842 9.25257C28.8095 9.31909 28.6885 9.37951 28.8537 9.46065C28.9284 9.49735 28.771 9.51372 28.8243 9.54722C28.8619 9.57104 29.0916 9.60909 29.1143 9.63156C29.1452 9.66264 29.0707 9.68569 29.0203 9.71057C29.0082 9.71648 28.8408 9.71057 28.8693 9.71909C29.1515 9.80111 28.6365 9.81989 28.738 9.88796C28.8395 9.95603 28.7272 10.0086 28.7241 10.0691C28.7184 10.1756 28.6643 10.2783 28.7617 10.3925C28.7911 10.4276 28.8121 10.4608 28.7597 10.4894C28.7117 10.5156 29.0538 10.5729 29.0861 10.6061C29.1136 10.6343 28.9306 10.6465 28.866 10.6679C28.8053 10.6881 28.7503 10.7087 28.7404 10.7329V10.7329C28.6852 10.8701 28.5948 10.9769 28.4472 10.9845C28.4334 10.9853 28.4197 10.9858 28.4059 10.9861C28.3848 10.9885 28.329 10.9889 28.3569 10.9943C29.017 11.1218 28.5178 11.162 28.6455 11.2495C28.7008 11.2874 28.6964 11.3216 28.5866 11.3463C28.5011 11.3657 28.5417 11.3892 28.7215 11.4293C28.9289 11.4756 28.5554 11.4844 28.4322 11.5094C28.4048 11.5149 28.319 11.5162 28.3471 11.5255C28.4157 11.5486 28.5812 11.5784 28.6265 11.5996C28.7001 11.628 28.7698 11.6653 28.8341 11.7103C28.8806 11.7429 28.88 11.7762 28.8236 11.7823C28.7634 11.7887 28.6897 11.7941 28.6811 11.8046C28.6371 11.8594 28.647 11.9184 28.6278 11.9751C28.5919 12.081 28.5445 12.1861 28.5157 12.2926C28.5097 12.3151 28.6051 12.3455 28.5756 12.366C28.5554 12.38 28.3806 12.3817 28.315 12.3923C28.2856 12.3971 28.3462 12.4097 28.3783 12.4196C28.4213 12.4329 28.5343 12.4517 28.5156 12.4599C28.4587 12.4844 28.3023 12.501 28.2847 12.5286C28.2744 12.5444 28.5354 12.5814 28.5396 12.5985C28.5611 12.6777 28.6059 12.7589 28.4899 12.8272C28.4477 12.8521 28.4401 12.8778 28.4744 12.9087C28.5543 12.9806 28.3843 13.0337 28.3249 13.0952C28.3197 13.1005 28.3462 13.1097 28.4213 13.12C28.8161 13.1741 28.5502 13.1751 28.3723 13.1841C28.2961 13.1879 28.3257 13.2018 28.3403 13.2132C28.3581 13.2276 28.5446 13.2584 28.4235 13.2579C28.0268 13.2564 28.324 13.3057 28.6057 13.3502C28.8695 13.3917 28.974 13.415 28.6548 13.411C28.5214 13.4093 28.5161 13.4222 28.5092 13.433V13.433C28.4554 13.5147 28.3925 13.5769 28.2948 13.5811C28.2581 13.5827 28.2213 13.5834 28.1845 13.583C28.6968 13.6429 29.1113 13.6983 28.5276 13.6856C28.5037 13.6851 28.4876 13.6854 28.4768 13.6864C28.4535 13.6885 28.4637 13.7168 28.4642 13.7402V13.7402C28.4674 13.8801 28.3536 13.9902 28.2144 14.0056C28.1914 14.0082 28.1682 14.0101 28.145 14.0114C28.1164 14.0164 28.0772 14.0211 28.0948 14.029C28.1626 14.0616 28.2732 14.0973 28.3453 14.1301C28.3985 14.1542 28.4204 14.2086 28.4191 14.2669C28.4175 14.3408 28.4047 14.4141 28.3809 14.4845C28.3776 14.4944 28.3745 14.5043 28.3759 14.5147V14.5147C28.3812 14.5539 28.3531 14.5796 28.3138 14.5843C28.2854 14.5878 28.2567 14.5894 28.2281 14.5894C28.1898 14.592 28.0486 14.5887 28.0908 14.5949C28.756 14.6923 28.3556 14.7118 28.3899 14.7621C28.4618 14.8681 28.2201 14.9505 28.3921 15.0636C28.5044 15.1374 28.1736 15.1755 28.3403 15.253C28.3782 15.2706 28.1458 15.2684 28.0644 15.2777C28.0306 15.2815 28.0014 15.2898 28.0811 15.2989C28.3467 15.3291 28.3852 15.3409 28.3283 15.3442C28.2927 15.3463 28.3388 15.385 28.313 15.4095V15.4095C28.2609 15.4592 28.1332 15.503 28.0824 15.5527C28.0685 15.5665 28.3079 15.6004 28.2806 15.6129C28.2315 15.6354 28.0384 15.6462 27.9705 15.6672C27.944 15.6753 28.0899 15.6976 28.1647 15.7141C28.2137 15.7247 28.3706 15.747 28.3165 15.7457C27.6891 15.7299 28.5341 15.8285 28.2863 15.8419C27.9334 15.8612 28.4374 15.9463 28.2713 15.9798L27.9954 16.0083C27.9659 16.0133 28.0372 16.0269 28.0625 16.0366C28.1115 16.0554 28.216 16.0786 28.1967 16.0919C28.1698 16.1105 27.9824 16.1166 27.9901 16.1377C27.9977 16.1588 28.2002 16.1943 28.2419 16.2181C28.2656 16.2315 28.1404 16.234 28.077 16.241C28.0516 16.2438 27.9513 16.2422 27.9888 16.2481C28.5819 16.3427 28.1342 16.36 28.2616 16.4199C28.3303 16.4521 28.396 16.4841 28.4035 16.5116C28.4071 16.5253 28.2647 16.5278 28.2491 16.5398C28.2455 16.5426 28.2524 16.5457 28.2568 16.5468V16.5468C28.2589 16.5473 28.2611 16.5476 28.2632 16.5478L32.19 16.8526C32.2048 16.8538 32.2177 16.8428 32.2189 16.828V16.828C32.22 16.8135 32.2091 16.8007 32.1946 16.7991C31.6939 16.7432 31.7036 16.693 32.2183 16.7145C32.2235 16.7147 32.2281 16.7108 32.2286 16.7056V16.7056C32.229 16.7004 32.2248 16.6957 32.2196 16.6952C31.6246 16.634 31.903 16.6302 31.8395 16.604C31.787 16.5823 31.7006 16.5582 31.664 16.5377C31.6017 16.5029 31.5098 16.4656 31.5348 16.4376C31.5655 16.4033 31.9421 16.393 31.7277 16.3435C31.5176 16.2951 31.9788 16.3076 31.8705 16.2717C31.7946 16.2465 31.6896 16.2193 31.6371 16.1958C31.5937 16.1764 31.5863 16.1595 31.6026 16.1446C31.6214 16.1274 31.7889 16.1208 31.7058 16.0969C31.5145 16.0416 31.5993 16.0098 31.7657 15.9826C31.8868 15.9632 31.6991 15.9164 31.6456 15.8817C31.6185 15.8641 31.475 15.8361 31.5749 15.8302C31.7924 15.8173 31.6938 15.7823 31.5771 15.7438C31.4889 15.7147 31.685 15.7051 31.7561 15.6868C31.7928 15.6771 31.9252 15.6742 31.8542 15.6577C31.572 15.5925 31.8233 15.5683 31.7533 15.5202C31.6633 15.4582 31.6207 15.4 31.62 15.3451C31.6194 15.3005 31.8151 15.2713 31.8388 15.2284C31.8591 15.1918 31.7576 15.1457 31.7126 15.1039C31.7056 15.0975 31.6593 15.0863 31.7224 15.0869C32.1686 15.0909 31.8384 15.0354 31.7427 14.9973C31.6812 14.9729 31.769 14.9592 31.7871 14.9405V14.9405C31.8128 14.9065 31.8467 14.88 31.8819 14.8559L31.9106 14.8363C31.9261 14.8241 32.0443 14.8169 31.9195 14.7976C31.5192 14.7333 31.7662 14.7218 31.9391 14.7029C32.023 14.6937 31.975 14.6724 31.9305 14.6526C31.8251 14.6057 31.7133 14.5595 31.848 14.5296C31.9928 14.4976 31.7805 14.4358 31.7733 14.3907C31.7691 14.365 31.9057 14.3502 31.9021 14.3246C31.898 14.2961 31.7453 14.256 31.7649 14.2295C31.8095 14.1699 32.185 14.1341 31.9308 14.0542C31.6767 13.9743 32.1768 13.9552 31.8132 13.8684C31.7214 13.8465 32.0387 13.8524 32.0164 13.8341C31.9397 13.7721 31.769 13.7029 31.6929 13.6405C31.672 13.6235 31.8609 13.6223 31.9458 13.6132C32.0003 13.6074 32.089 13.604 32.0793 13.5931C32.0209 13.5287 31.8961 13.4592 31.8801 13.3979C31.8703 13.3613 32.0806 13.3416 32.0767 13.3053C32.0729 13.2691 31.9207 13.2243 31.8331 13.1831C31.8254 13.1795 31.7797 13.1721 31.8069 13.172C32.3023 13.171 32.0535 13.1148 31.8167 13.0558C31.6416 13.012 31.954 13.0005 32.0474 12.9745C32.0768 12.9664 32.119 12.9594 32.1228 12.9493C32.1252 12.9429 32.1281 12.9366 32.1313 12.9303C32.1783 12.8357 32.1125 12.7495 32.0213 12.6961C31.9721 12.6672 31.9213 12.6409 31.8692 12.6171C31.8513 12.6058 31.9476 12.6031 31.952 12.5935C31.9631 12.5692 31.9452 12.5425 31.952 12.5179C31.9564 12.5014 31.9804 12.4864 31.9998 12.4711C32.0322 12.4454 32.0978 12.4226 32.0908 12.3936C32.0868 12.3775 31.9161 12.3487 31.9035 12.3318C31.8536 12.2653 31.5829 12.1792 31.8793 12.1424C32.1682 12.1067 31.6219 12.0118 31.8025 11.9706C31.9097 11.9462 31.9799 11.9186 32.0639 11.8922C32.0747 11.8888 32.1034 11.8868 32.0922 11.8852V11.8852C31.5806 11.8102 32.3252 11.8367 32.2442 11.7961C32.2194 11.7838 32.2971 11.7767 32.1765 11.7601C31.5785 11.6785 32.0732 11.682 32.1066 11.6495C32.1273 11.6292 32.0203 11.5989 31.9609 11.5725C31.9502 11.5677 31.8536 11.5563 31.8629 11.5531C31.9485 11.5274 32.0698 11.5047 32.1385 11.4773C32.1947 11.4551 32.1936 11.4283 32.2169 11.4034C32.2387 11.3806 32.2958 11.3603 32.2712 11.334C32.2423 11.3028 32.1163 11.2643 32.0806 11.2326C32.0475 11.2036 32.0776 11.1789 32.0811 11.1524C32.0812 11.1521 32.0812 11.1517 32.0813 11.1513C32.0854 11.1259 32.0873 11.0991 32.0684 11.0817V11.0817L32.0253 11.0342C32.0013 11.0062 31.7855 10.9598 32.0012 10.9548C32.3112 10.9478 31.8542 10.8948 31.6939 10.8593C31.6299 10.845 31.5035 10.8253 31.5364 10.8192C31.6846 10.7919 31.8344 10.7733 31.9848 10.7634C32.1801 10.7493 31.9901 10.7065 31.982 10.6772C31.969 10.6288 32.1511 10.5957 32.1756 10.5503C32.1983 10.5081 32.0765 10.4546 32.1025 10.4127C32.1285 10.3707 32.3084 10.3417 32.3267 10.2997C32.3392 10.2711 32.1884 10.2298 32.1136 10.1944C32.1009 10.1885 32.0764 10.1812 32.1029 10.1786C32.3833 10.1504 32.4354 10.1059 32.0167 10.0237C31.8642 9.9937 32.1083 9.98866 32.1024 9.96688V9.96688C32.0762 9.87075 32.0392 9.86443 32.1383 9.85361C32.1854 9.84846 32.2328 9.84541 32.2803 9.84448V9.84448C32.3 9.8448 32.3041 9.82067 32.2858 9.81331C32.2208 9.78722 32.1518 9.76084 32.1081 9.73623C32.087 9.72451 32.1903 9.722 32.2087 9.71289C32.2418 9.69672 32.2743 9.68026 32.2696 9.66099C32.2631 9.63475 32.2794 9.60977 32.1795 9.57685C32.0701 9.54073 32.6207 9.55535 32.1193 9.4897C32.0507 9.4808 32.0172 9.47169 32.0318 9.46801C32.1316 9.44332 32.2682 9.42163 32.3521 9.39568C32.3576 9.39398 32.3624 9.39222 32.3665 9.3904C32.4097 9.37105 32.3319 9.33572 32.2878 9.31824C32.2744 9.31292 32.2611 9.30743 32.2479 9.30178C32.1156 9.24531 32.1979 9.2596 32.2463 9.12417V9.12417C32.2545 9.10152 32.0614 9.06327 32.0491 9.03897C32.0227 8.98697 31.9486 8.93061 32.0987 8.89304C32.2134 8.864 32.0797 8.81839 32.0728 8.7813C32.0689 8.76 32.2787 8.75516 32.2827 8.73444C32.2878 8.70742 32.1265 8.66734 32.1399 8.641C32.1643 8.59258 32.2618 8.55075 32.3342 8.5065C32.3807 8.47804 32.5008 8.45518 32.4689 8.42081C32.4424 8.39234 32.1933 8.34722 32.1367 8.31623C32.1036 8.29822 32.2806 8.2958 32.3171 8.28254C32.3917 8.25543 32.7035 8.24129 32.4321 8.19355V8.19355C32.3756 8.18361 31.9639 8.059 31.9066 8.05458L29.0311 7.83237Z" fill="#001B38" stroke="#001B38" stroke-width="0.5"></path>
    <path d="M39.2892 12.2952C39.2561 12.2785 39.2168 12.286 39.1834 12.302V12.302C39.1685 12.3092 39.1514 12.3095 39.1355 12.3054C39.0767 12.29 39.0192 12.2708 38.963 12.2478V12.2478C38.9448 12.2395 38.9335 12.2607 38.9496 12.2727L39.3281 12.5541C39.3771 12.5921 39.4371 12.6378 39.3522 12.6064C38.8718 12.429 38.9551 12.5359 39.1907 12.7205C39.2104 12.7359 39.2925 12.7849 39.2531 12.7681C38.7501 12.553 39.1893 12.8145 39.1565 12.8373C39.1299 12.8558 38.9605 12.8016 38.8918 12.7993C38.8651 12.7985 38.8685 12.8161 38.9862 12.8853C39.3544 13.1017 39.3347 13.1201 39.0726 13.0209C38.9307 12.9672 39.0102 13.0306 39.0023 13.0477C38.9837 13.0891 38.9695 13.1324 38.9599 13.1769C38.9577 13.1861 38.9599 13.1973 38.9943 13.2253C39.0947 13.3046 39.0983 13.3318 38.8791 13.2514C38.6495 13.1674 38.6079 13.1895 38.8148 13.3255C39.0654 13.4901 38.6916 13.3249 38.5028 13.2588C38.4566 13.2426 38.3279 13.1888 38.3688 13.2116C38.8429 13.4772 38.5453 13.3583 38.5878 13.4091C38.6074 13.4271 38.6265 13.4455 38.6452 13.4644C38.7204 13.5408 38.7027 13.5739 38.6003 13.5421C38.5793 13.5355 38.5637 13.5318 38.5607 13.5344C38.5049 13.5835 38.3696 13.5933 38.4905 13.7309C38.5453 13.7933 38.3935 13.7486 38.4295 13.7997C38.455 13.8359 38.6523 13.9583 38.6643 13.9876C38.6808 14.028 38.603 14.021 38.5466 14.0248C38.5331 14.0258 38.3807 13.957 38.4038 13.9754C38.6325 14.1582 38.1498 13.9802 38.2168 14.0819C38.2839 14.1837 38.1601 14.1892 38.1335 14.2439C38.0869 14.34 37.997 14.4143 38.0425 14.5567C38.0564 14.6005 38.0621 14.6389 38.0033 14.6456C37.9488 14.6517 38.2423 14.8344 38.2593 14.8773C38.2736 14.9138 38.1 14.8556 38.032 14.8508C37.9681 14.8463 37.9092 14.8445 37.8907 14.863V14.863C37.786 14.9685 37.6612 15.0331 37.521 14.9837C37.5084 14.9792 37.4959 14.9746 37.4834 14.9698C37.4629 14.964 37.4113 14.9432 37.4354 14.959C37.9952 15.327 37.5187 15.1749 37.602 15.304C37.6384 15.3602 37.621 15.39 37.5097 15.371C37.4233 15.3563 37.4515 15.3937 37.6018 15.4989C37.7754 15.6203 37.427 15.4867 37.3037 15.463C37.2761 15.4577 37.1964 15.4263 37.2188 15.4457C37.2735 15.4931 37.4149 15.5833 37.4479 15.62C37.5046 15.674 37.5542 15.7346 37.596 15.8003C37.6266 15.8485 37.6131 15.8793 37.5582 15.8633C37.5003 15.8465 37.4305 15.8237 37.4186 15.8302C37.3565 15.864 37.3428 15.9222 37.303 15.9672C37.2286 16.0513 37.144 16.1303 37.0759 16.2179C37.0616 16.2362 37.1379 16.3005 37.1027 16.3082C37.0786 16.3135 36.9164 16.2488 36.8518 16.2337C36.8224 16.2268 36.8739 16.2615 36.8997 16.2829C36.9343 16.312 37.0311 16.3717 37.0105 16.3721C36.9485 16.3732 36.7977 16.3291 36.7706 16.3478C36.7551 16.3585 36.9815 16.4917 36.9791 16.5093C36.9682 16.5907 36.9779 16.6827 36.8442 16.7016C36.7952 16.7085 36.7785 16.7294 36.7982 16.771C36.844 16.8678 36.6663 16.8521 36.5876 16.8864C36.5807 16.8894 36.6017 16.9079 36.667 16.9459C37.0102 17.1458 36.7645 17.0457 36.5969 16.9865C36.5252 16.961 36.547 16.9851 36.5558 17.0015C36.5667 17.0217 36.7268 17.1209 36.6153 17.0745C36.2496 16.9225 36.5048 17.0809 36.7477 17.2288C36.975 17.3672 37.0623 17.4283 36.7693 17.3036C36.6469 17.2515 36.637 17.2614 36.6263 17.2687V17.2687C36.5453 17.3242 36.4624 17.3572 36.37 17.3238C36.3357 17.3114 36.3018 17.2981 36.2682 17.284C36.7179 17.5338 37.0791 17.7422 36.545 17.5089C36.523 17.4993 36.5079 17.4935 36.4976 17.4903C36.4753 17.4835 36.4739 17.5134 36.4653 17.5352V17.5352C36.4136 17.6659 36.2657 17.7241 36.1305 17.6854C36.1085 17.6791 36.0866 17.6722 36.0649 17.6647C36.0366 17.6583 35.9988 17.6475 36.0116 17.6618C36.0884 17.7475 36.2553 17.8784 36.2497 17.9224C36.2352 18.0357 36.1453 18.111 36.0881 18.2027V18.2027C36.0618 18.2451 36.0303 18.2675 35.9825 18.2532C35.9602 18.2465 35.9383 18.2387 35.9167 18.2298C35.8803 18.2177 35.7513 18.1609 35.7882 18.1829C36.3644 18.5253 35.9872 18.3913 35.9992 18.4507C36.0244 18.5759 35.7692 18.5602 35.884 18.7299C35.9589 18.8408 35.6389 18.7503 35.7624 18.8848C35.7907 18.9156 35.5768 18.8254 35.4977 18.8029C35.465 18.7932 35.4349 18.7902 35.5049 18.8289C35.7391 18.9581 35.7695 18.9832 35.7149 18.9642C35.6809 18.9524 35.709 19.0059 35.6756 19.019V19.019C35.6082 19.0452 35.4733 19.037 35.407 19.0638C35.3888 19.0711 35.5963 19.1932 35.5664 19.1945C35.5127 19.1967 35.3301 19.1333 35.259 19.1267C35.2315 19.1242 35.357 19.2003 35.4202 19.2438C35.4609 19.2721 35.5974 19.3523 35.5476 19.3309C34.9744 19.0783 35.7161 19.4899 35.4823 19.4084C35.149 19.2922 35.581 19.5623 35.4147 19.53L35.1489 19.4516C35.1195 19.4451 35.1804 19.4847 35.1999 19.5032C35.2381 19.5393 35.3253 19.6 35.3022 19.6052C35.2702 19.6122 35.0948 19.5467 35.0936 19.569C35.0924 19.5914 35.2655 19.7011 35.2949 19.739C35.3115 19.7604 35.1949 19.715 35.1337 19.6975C35.1092 19.6904 35.0173 19.6507 35.0495 19.6705C35.5603 19.9831 35.1402 19.829 35.2346 19.9328C35.2851 19.9884 35.3336 20.043 35.3298 20.0713C35.3279 20.0853 35.1937 20.0328 35.176 20.0388C35.1719 20.0402 35.177 20.0454 35.1805 20.0479V20.0479C35.1822 20.0492 35.1839 20.0503 35.1858 20.0512L38.6926 21.8233C38.7057 21.8299 38.7218 21.8247 38.7286 21.8116V21.8116C38.7353 21.7986 38.73 21.7825 38.7172 21.7754C38.2771 21.5339 38.3056 21.4913 38.7724 21.7062C38.7772 21.7084 38.783 21.7065 38.7854 21.7019V21.7019C38.7879 21.6972 38.7858 21.6911 38.781 21.6886C38.2557 21.4064 38.5143 21.5091 38.4657 21.4603C38.4257 21.4205 38.3555 21.3654 38.3296 21.3325C38.2856 21.2767 38.2152 21.2074 38.2492 21.1911C38.2909 21.1711 38.6426 21.3045 38.4639 21.1774C38.2888 21.053 38.7097 21.2397 38.6237 21.1653C38.5634 21.1133 38.4766 21.0483 38.4374 21.0066C38.4049 20.9723 38.4047 20.9539 38.4256 20.9463C38.4496 20.9375 38.6064 20.9947 38.5393 20.9415C38.3842 20.8178 38.4749 20.8207 38.6392 20.8587C38.7586 20.8863 38.6033 20.7723 38.5674 20.7198C38.5493 20.6934 38.4277 20.6133 38.5223 20.6455C38.7282 20.7162 38.6506 20.6465 38.5579 20.5667C38.4874 20.5057 38.6728 20.5718 38.7454 20.5819C38.7829 20.5872 38.9062 20.6345 38.8472 20.5925C38.7128 20.4969 38.734 20.4797 38.7683 20.4693C38.8147 20.4552 38.7881 20.4103 38.7682 20.366C38.7627 20.3536 38.7581 20.3407 38.7547 20.3274C38.7523 20.3183 38.7505 20.3091 38.7492 20.2999C38.7414 20.2436 38.7757 20.1957 38.8325 20.197C38.8957 20.1985 38.9765 20.2088 39.0001 20.1903C39.0329 20.1641 38.9572 20.083 38.9314 20.0275C38.9275 20.0187 38.8891 19.9909 38.9468 20.0153C39.3572 20.1883 39.0743 20.0118 39.0005 19.9404C38.9533 19.8945 39.0397 19.9151 39.0636 19.9046V19.9046C39.1005 19.8832 39.1421 19.8717 39.1838 19.8629L39.2181 19.8557C39.2371 19.8503 39.3488 19.8889 39.2414 19.823C38.8969 19.6116 39.1295 19.6948 39.2965 19.7429C39.3776 19.7664 39.3415 19.7285 39.3082 19.6934C39.2291 19.61 39.1439 19.5249 39.28 19.5481C39.4261 19.5735 39.2541 19.4359 39.265 19.3915C39.2711 19.3663 39.4031 19.4044 39.4097 19.3793C39.4169 19.3514 39.292 19.2565 39.3203 19.2396C39.3847 19.2016 39.7453 19.3111 39.5418 19.1407C39.3384 18.9704 39.8074 19.1427 39.5053 18.9245C39.4291 18.8695 39.7201 18.9955 39.7062 18.97C39.6595 18.8836 39.5289 18.755 39.4827 18.6687C39.4701 18.6452 39.6449 18.7158 39.7267 18.7396C39.7793 18.7549 39.8625 18.7854 39.8578 18.7717C39.829 18.6901 39.7408 18.5781 39.75 18.516C39.7553 18.4784 39.957 18.5399 39.9675 18.5051C39.978 18.4702 39.8552 18.3711 39.7903 18.2998C39.7845 18.2934 39.7454 18.2693 39.7706 18.2797C40.2283 18.4668 40.0206 18.3203 39.8251 18.1758C39.6806 18.0692 39.9733 18.1768 40.0697 18.1883C40.0997 18.1918 40.1416 18.2015 40.1491 18.1937C40.1896 18.1512 40.2605 18.1239 40.2435 18.0525C40.229 17.9913 40.1026 17.8739 40.0442 17.7911C40.0322 17.7739 40.122 17.8079 40.13 17.8007C40.1496 17.7825 40.1434 17.7513 40.1594 17.7309C40.1699 17.7174 40.1978 17.7126 40.2217 17.7058C40.2616 17.6945 40.3313 17.6983 40.3358 17.6691C40.3383 17.6528 40.1919 17.5614 40.1868 17.541C40.1666 17.4607 39.9503 17.2783 40.2382 17.3571C40.5189 17.4338 40.0514 17.1387 40.2342 17.1693C40.3426 17.1875 40.4182 17.1886 40.5059 17.1961C40.5172 17.1971 40.5446 17.2061 40.5349 17.2003V17.2003C40.0917 16.937 40.7689 17.2437 40.7098 17.1757C40.6918 17.1551 40.7663 17.1778 40.6614 17.1169C40.141 16.8146 40.5964 17.0056 40.6399 16.9882C40.6669 16.9775 40.5799 16.9088 40.5354 16.8624C40.5273 16.8538 40.4426 16.8066 40.4525 16.8076C40.5415 16.8162 40.6624 16.8411 40.7368 16.8421C40.7972 16.843 40.8067 16.8178 40.8382 16.8034C40.8676 16.7905 40.9279 16.7937 40.9155 16.7598C40.9008 16.72 40.7996 16.6368 40.7788 16.5939C40.7598 16.5544 40.797 16.5431 40.8106 16.5201C40.8108 16.5196 40.8111 16.5192 40.8114 16.5188C40.8251 16.4971 40.8371 16.4731 40.8263 16.4498V16.4498L40.8051 16.3896C40.7938 16.3547 40.6126 16.2298 40.8138 16.3072C41.1026 16.4183 40.7012 16.196 40.5672 16.1023C40.5136 16.0649 40.4046 15.9987 40.4374 16.0054C40.5849 16.0364 40.7303 16.0761 40.8729 16.1241C41.0592 16.1852 40.9001 16.0736 40.9041 16.0435C40.9107 15.994 41.0918 16.0325 41.1321 15.9998C41.1695 15.9695 41.0779 15.8739 41.1182 15.8449C41.1585 15.8158 41.3356 15.8575 41.3692 15.8255C41.3918 15.8039 41.2687 15.7086 41.2133 15.6475C41.204 15.6372 41.1839 15.6212 41.2097 15.6288C41.4794 15.7092 41.5448 15.6879 41.1901 15.4528C41.0608 15.3671 41.2881 15.4552 41.2912 15.4328V15.4328C41.3047 15.3344 41.2725 15.3142 41.3679 15.3417C41.4135 15.3549 41.4586 15.3702 41.5029 15.3874V15.3874C41.5211 15.3952 41.5342 15.3743 41.52 15.3604C41.4703 15.3118 41.417 15.2613 41.3863 15.2222C41.3715 15.2028 41.4677 15.2402 41.4883 15.2388C41.5252 15.2363 41.5615 15.2335 41.5647 15.214C41.5689 15.1872 41.5941 15.1705 41.5143 15.102C41.4273 15.0271 41.9298 15.2496 41.4927 14.9987C41.4331 14.9644 41.4054 14.9432 41.4204 14.9455C41.522 14.9606 41.6566 14.9924 41.7439 15.0003C41.7908 15.0045 41.795 14.9864 41.7665 14.9525C41.7033 14.8771 41.5508 14.757 41.5425 14.7091C41.5355 14.6704 41.7299 14.7335 41.7519 14.7091C41.7682 14.6913 41.6049 14.5832 41.603 14.5555C41.5989 14.4974 41.5523 14.4174 41.7055 14.4398C41.8231 14.4568 41.717 14.3636 41.7251 14.3268C41.7298 14.3056 41.9254 14.3808 41.9371 14.3631C41.9401 14.3586 41.9374 14.3511 41.9312 14.3419C41.8744 14.2573 41.8883 14.1958 41.9889 14.1798C42.0168 14.1753 42.045 14.1728 42.0734 14.1723C42.1274 14.1637 42.2472 14.1882 42.231 14.1444C42.2177 14.108 42.0056 13.9717 41.9651 13.9217C41.9415 13.8926 42.1059 13.9574 42.1448 13.9591C42.2243 13.9623 42.5173 14.0677 42.2856 13.9203V13.9203C42.2377 13.89 41.9051 13.6182 41.8546 13.5926L39.2892 12.2952Z" fill="#001B38" stroke="#001B38" stroke-width="0.5"></path>
    <path d="M17.3288 14.5863C17.2967 14.6078 17.2838 14.6477 17.2816 14.6863V14.6863C17.2806 14.7035 17.2722 14.7192 17.2602 14.7315C17.2151 14.7781 17.1669 14.8217 17.1159 14.862V14.862C17.0989 14.8744 17.1125 14.8957 17.1318 14.887L17.5946 14.6786C17.6562 14.6521 17.7298 14.6204 17.6565 14.6825C17.2396 15.0359 17.3832 15.013 17.6803 14.8879C17.7051 14.8774 17.7939 14.8265 17.7574 14.8542C17.2929 15.2102 17.7681 14.9361 17.7725 14.9776C17.7761 15.0114 17.6368 15.1407 17.5995 15.202C17.5847 15.2262 17.603 15.2319 17.7296 15.1579C18.1252 14.9269 18.1322 14.9542 17.9033 15.146C17.779 15.25 17.88 15.2082 17.8921 15.2242C17.9216 15.2619 17.955 15.2966 17.9919 15.3276C17.9995 15.3341 18.011 15.3381 18.0551 15.3198C18.1821 15.267 18.2097 15.2771 18.0199 15.4388C17.8213 15.6083 17.8207 15.6576 18.0565 15.5348C18.3419 15.3864 17.9919 15.648 17.8313 15.7888C17.7921 15.8232 17.6745 15.9149 17.7173 15.8888C18.2143 15.5849 17.9472 15.7998 18.0174 15.7856C18.0517 15.7741 18.0862 15.7637 18.1211 15.7544C18.2183 15.7283 18.2388 15.7585 18.1644 15.8262C18.1394 15.8489 18.1204 15.8677 18.1216 15.8728C18.1389 15.9489 18.0779 16.0781 18.2705 16.0355C18.3577 16.0157 18.2369 16.1337 18.3036 16.1258C18.351 16.12 18.5693 16.0003 18.603 16.0034C18.6499 16.0086 18.6027 16.0764 18.5772 16.13C18.5706 16.1431 18.427 16.2488 18.4565 16.2372C18.7482 16.1177 18.3289 16.4734 18.4594 16.4621C18.5898 16.4507 18.5311 16.5678 18.569 16.6194C18.6354 16.7102 18.6588 16.83 18.8168 16.8592C18.8654 16.8681 18.9047 16.8817 18.88 16.9399C18.8575 16.9931 19.1824 16.8139 19.2317 16.8197C19.2735 16.8247 19.1284 16.9555 19.0886 17.0158C19.0644 17.0521 19.0424 17.0873 19.032 17.1147C19.023 17.1384 19.0331 17.163 19.0445 17.1857V17.1857C19.1019 17.2997 19.074 17.4369 18.9804 17.5236C18.9594 17.5429 18.9379 17.5618 18.9159 17.58C18.8993 17.5961 18.8533 17.6331 18.8806 17.6189C19.5191 17.2871 19.1277 17.6498 19.293 17.6365C19.3647 17.6309 19.3839 17.6618 19.3081 17.7549C19.2494 17.8271 19.2993 17.8196 19.4768 17.7337C19.6814 17.6345 19.3744 17.8885 19.2879 17.9903C19.2686 18.013 19.1976 18.0707 19.2274 18.0598C19.3006 18.033 19.4589 17.9483 19.5109 17.9357C19.5947 17.9094 19.6812 17.8936 19.7685 17.8886C19.823 17.8855 19.8434 17.9107 19.8045 17.949C19.7577 17.9952 19.6941 18.0526 19.694 18.0675C19.6937 18.1414 19.7415 18.1831 19.7632 18.2421C19.8041 18.3526 19.8347 18.4698 19.8818 18.576C19.8917 18.5983 19.992 18.5602 19.981 18.5964C19.9735 18.6213 19.8282 18.7381 19.7803 18.7902C19.7586 18.8137 19.8181 18.7838 19.8513 18.7708C19.8963 18.7532 20.0035 18.6939 19.993 18.7132C19.9619 18.7709 19.8419 18.8877 19.8455 18.9219C19.8475 18.9416 20.0909 18.7995 20.1066 18.8104C20.1777 18.8611 20.2694 18.8979 20.2181 19.0308C20.1994 19.0789 20.2107 19.1049 20.2596 19.1077C20.3746 19.1137 20.2677 19.2694 20.2587 19.359C20.258 19.3669 20.2864 19.3568 20.3562 19.3157C20.7231 19.0991 20.501 19.2757 20.3581 19.4004C20.297 19.4543 20.3309 19.4457 20.3511 19.4461C20.3757 19.4461 20.5525 19.3482 20.4508 19.4278C20.1174 19.6887 20.3993 19.5323 20.6653 19.3828C20.914 19.2426 21.0171 19.1925 20.7471 19.4001C20.6343 19.4867 20.6385 19.5008 20.6398 19.5143V19.5143C20.65 19.6166 20.6387 19.7087 20.5609 19.7758C20.5307 19.8018 20.4998 19.8271 20.4682 19.8515C20.9376 19.562 21.3218 19.3335 20.8241 19.7089C20.8218 19.7106 20.8196 19.7123 20.8175 19.7139C20.7735 19.7476 20.8031 19.787 20.8365 19.8312C20.8592 19.8613 20.8796 19.8931 20.8974 19.9262C20.9221 19.972 20.9225 20.0219 20.8871 20.0601C20.8401 20.1109 20.7661 20.1797 20.7217 20.2288C20.7011 20.2516 20.6713 20.281 20.6915 20.2764C20.7711 20.2579 20.8898 20.2133 20.9724 20.1928C21.0309 20.1783 21.0839 20.2075 21.1211 20.2549C21.1698 20.3169 21.2086 20.386 21.2361 20.46C21.2399 20.4702 21.2439 20.4803 21.2518 20.4878V20.4878C21.2824 20.5166 21.2763 20.5561 21.2466 20.5858C21.2251 20.6075 21.2022 20.6278 21.178 20.6467C21.1477 20.6742 21.0271 20.7644 21.0668 20.7418C21.6893 20.3819 21.367 20.6624 21.4292 20.681C21.5604 20.7201 21.4128 20.9471 21.6327 20.9262C21.7763 20.9124 21.5246 21.162 21.716 21.1153C21.7597 21.1047 21.5635 21.2564 21.5014 21.3178C21.4756 21.3433 21.4567 21.3694 21.5297 21.324C21.7717 21.1737 21.8123 21.1576 21.7674 21.1975C21.7393 21.2225 21.8028 21.2245 21.7977 21.2618V21.2618C21.7874 21.3367 21.7096 21.4569 21.7003 21.5312C21.6978 21.5516 21.9209 21.4215 21.9065 21.4495C21.8807 21.5002 21.7259 21.6367 21.6826 21.699C21.666 21.723 21.8032 21.6449 21.8769 21.6093C21.9244 21.5861 22.0715 21.5003 22.0253 21.5348C21.4891 21.9365 22.2631 21.4589 22.0644 21.6335C21.7816 21.882 22.2608 21.6187 22.144 21.7563L21.9319 21.9619C21.9106 21.9855 21.9794 21.9495 22.0071 21.9406C22.061 21.9235 22.1639 21.8736 22.1565 21.8974C22.1465 21.9303 21.9935 22.059 22.014 22.0712C22.0345 22.0834 22.228 21.9789 22.2789 21.9707C22.3078 21.9661 22.2044 22.0508 22.1561 22.0983C22.1367 22.1175 22.0514 22.1822 22.0869 22.1623C22.6471 21.848 22.2837 22.1582 22.4305 22.1227C22.5092 22.1039 22.5859 22.0865 22.6107 22.1041C22.6229 22.1128 22.5043 22.2097 22.5001 22.2294C22.4991 22.2339 22.5067 22.2318 22.5109 22.2299V22.2299C22.5131 22.229 22.5151 22.2278 22.5171 22.2265L26.0111 19.8819C26.0242 19.8731 26.0276 19.8553 26.0186 19.8423V19.8423C26.01 19.8298 25.9927 19.8266 25.9799 19.8346C25.5222 20.1202 25.4967 20.0728 25.9422 19.7499C25.9467 19.7466 25.948 19.7401 25.9448 19.7355V19.7355C25.9417 19.731 25.9352 19.73 25.9306 19.733C25.3909 20.0763 25.6218 19.8891 25.551 19.9097C25.4925 19.9266 25.404 19.9639 25.3596 19.9714C25.2841 19.9841 25.182 20.0143 25.1843 19.9749C25.1871 19.9265 25.4958 19.6692 25.283 19.7704C25.0747 19.8696 25.4695 19.5754 25.3547 19.6173C25.2743 19.6468 25.1679 19.6936 25.1083 19.7093C25.059 19.7223 25.0415 19.7132 25.0452 19.6902C25.0494 19.6638 25.1851 19.5479 25.0997 19.583C24.9025 19.6643 24.9523 19.5823 25.0735 19.45C25.1622 19.354 24.9734 19.4399 24.9056 19.4467C24.8711 19.4502 24.7319 19.5221 24.8119 19.4512C24.9856 19.297 24.8795 19.3336 24.7559 19.379C24.662 19.4137 24.8206 19.276 24.8678 19.2141C24.8923 19.1822 25.0009 19.0919 24.9307 19.1256C24.6505 19.2587 24.8454 19.0728 24.7539 19.0795C24.6371 19.088 24.5624 19.0688 24.5251 19.0243C24.4948 18.9883 24.6392 18.8349 24.6301 18.7844C24.6226 18.7411 24.5066 18.7704 24.4411 18.766C24.4307 18.7653 24.3845 18.7868 24.4376 18.7456C24.8141 18.4541 24.5001 18.6264 24.3946 18.6589C24.3268 18.6796 24.3911 18.6104 24.394 18.5835V18.5835C24.3928 18.5388 24.4037 18.495 24.4171 18.4523L24.4281 18.417C24.4328 18.3967 24.5272 18.3131 24.4093 18.3791C24.0309 18.5909 24.2302 18.4184 24.3624 18.2885C24.4267 18.2255 24.3722 18.24 24.3216 18.2532C24.2019 18.2843 24.0773 18.3204 24.1703 18.207C24.2703 18.0855 24.0509 18.1748 24.0144 18.1427C23.9938 18.1244 24.0983 18.0221 24.0781 18.0035C24.0556 17.9829 23.9009 18.051 23.8999 18.0161C23.8974 17.9379 24.1881 17.6604 23.9217 17.763C23.6553 17.8655 24.0615 17.5194 23.6987 17.6888C23.6072 17.7317 23.8772 17.5266 23.8459 17.5265C23.7401 17.5265 23.5509 17.5826 23.4455 17.5822C23.4167 17.5822 23.5742 17.4564 23.6392 17.3929C23.6806 17.3522 23.753 17.2907 23.7377 17.2883C23.6456 17.2741 23.4946 17.2996 23.4401 17.2602C23.4075 17.2366 23.5704 17.0816 23.5429 17.0546C23.5154 17.0276 23.3581 17.0913 23.257 17.1154C23.2481 17.1176 23.205 17.1417 23.2278 17.1236C23.6422 16.7956 23.3958 16.9134 23.1581 17.0218C22.982 17.1016 23.2362 16.8863 23.297 16.8029C23.3158 16.7772 23.3469 16.7433 23.3434 16.7326C23.3397 16.7214 23.3371 16.7095 23.3349 16.6973C23.3161 16.5969 23.207 16.576 23.1058 16.59C23.0395 16.5992 22.9736 16.612 22.9085 16.6283C22.8861 16.6308 22.9651 16.5652 22.9622 16.5541C22.9552 16.527 22.9224 16.5171 22.9115 16.4926C22.9041 16.4762 22.9142 16.4484 22.9203 16.4226C22.9304 16.3802 22.9702 16.3179 22.9449 16.2994C22.9308 16.2889 22.7685 16.378 22.7468 16.3726C22.6603 16.3511 22.3758 16.4594 22.5997 16.2337C22.8179 16.0135 22.2966 16.2967 22.4205 16.1438C22.4939 16.0529 22.5343 15.984 22.587 15.907C22.5938 15.8971 22.6162 15.8764 22.6059 15.8824V15.8824C22.1272 16.1592 22.7685 15.6886 22.6736 15.7092C22.6447 15.7154 22.705 15.6582 22.593 15.7244C22.0373 16.0528 22.4542 15.7288 22.4604 15.6801C22.4643 15.6499 22.3547 15.6956 22.2869 15.7134C22.2747 15.7166 22.1861 15.7711 22.1921 15.7624C22.2466 15.6847 22.3328 15.586 22.3723 15.5183C22.4045 15.4631 22.3857 15.4418 22.3885 15.4061C22.3913 15.3727 22.4257 15.3187 22.3875 15.3133C22.3426 15.3074 22.2111 15.3586 22.1599 15.3564C22.1202 15.3545 22.1202 15.326 22.1124 15.3027C22.1095 15.2941 22.1054 15.2859 22.1016 15.2776V15.2776C22.0939 15.2607 22.0798 15.2466 22.0616 15.2426C22.0574 15.2417 22.053 15.2411 22.0487 15.2408L21.9809 15.2304C21.942 15.2234 21.7301 15.328 21.908 15.1811C22.1629 14.9708 21.7445 15.2294 21.5866 15.3061C21.5233 15.3368 21.4042 15.4041 21.4277 15.3772C21.5337 15.2571 21.6467 15.1429 21.7661 15.0355C21.9204 14.895 21.7325 14.9854 21.7061 14.9668C21.6628 14.9359 21.7933 14.7885 21.7834 14.7351C21.7741 14.6856 21.6365 14.7223 21.6302 14.6708C21.624 14.6194 21.755 14.4769 21.7425 14.4301C21.7337 14.3986 21.5798 14.4644 21.4935 14.485C21.4789 14.4883 21.4539 14.4988 21.4738 14.479C21.6899 14.2708 21.7038 14.2 21.2978 14.4089C21.1499 14.4852 21.3511 14.3198 21.3317 14.3058V14.3058C21.2448 14.2438 21.2104 14.2632 21.2867 14.1886C21.3225 14.1536 21.3599 14.1201 21.3988 14.0882V14.0882C21.4154 14.0755 21.403 14.0529 21.383 14.0589C21.311 14.0805 21.2353 14.1046 21.1822 14.1134C21.1567 14.1176 21.2415 14.0473 21.2509 14.0278C21.2678 13.9926 21.2841 13.9577 21.2672 13.9451C21.2441 13.9278 21.2412 13.8967 21.1354 13.9357C21.0195 13.9783 21.4904 13.6268 21.0267 13.9041C20.9633 13.9418 20.9289 13.9568 20.9388 13.9441C21.0059 13.8581 21.1059 13.7501 21.1587 13.6734C21.1634 13.6666 21.167 13.6605 21.1694 13.6552C21.1888 13.6122 21.1033 13.637 21.0581 13.6509C21.04 13.6565 21.0218 13.6618 21.0035 13.6668C20.8581 13.7067 20.9036 13.6736 20.889 13.5235C20.8889 13.5227 20.8887 13.5219 20.8885 13.5211C20.8801 13.4973 20.6929 13.5935 20.6662 13.5816C20.6094 13.5566 20.5095 13.5595 20.6102 13.4296C20.6867 13.3305 20.5443 13.3811 20.5138 13.3553C20.4961 13.3399 20.6689 13.1979 20.6582 13.1782C20.6445 13.1527 20.4825 13.2264 20.4761 13.196C20.4644 13.1407 20.5179 13.0417 20.5489 12.9577C20.5689 12.9037 20.6543 12.8056 20.6044 12.7987C20.5631 12.7929 20.3246 12.9203 20.2561 12.9327C20.2163 12.9397 20.3629 12.8207 20.3847 12.7858C20.4291 12.7142 20.6809 12.4968 20.4216 12.6371V12.6371C20.368 12.6661 19.9389 12.8362 19.8883 12.8701L17.3288 14.5863Z" fill="#001B38" stroke="#001B38" stroke-width="0.5"></path>
    <path d="M18.2195 14.7561C17.7608 15.0637 17.1173 14.9401 16.9834 14.4043C16.9088 14.1058 16.8856 13.8008 16.918 13.5058C16.9847 12.8979 17.2822 12.3821 17.745 12.0718C18.2077 11.7615 18.7979 11.6821 19.3856 11.8511C19.6708 11.9331 19.9441 12.0704 20.192 12.2528C20.6369 12.5801 20.5068 13.2223 20.0481 13.5299L19.1338 14.143L18.2195 14.7561Z" fill="#001B38"></path>
    <path d="M24.8613 20.0752C25.32 19.7676 25.9635 19.8911 26.0974 20.427C26.172 20.7255 26.1953 21.0305 26.1628 21.3255C26.0961 21.9334 25.7986 22.4492 25.3358 22.7595C24.8731 23.0698 24.2829 23.1492 23.6953 22.9802C23.41 22.8982 23.1367 22.7609 22.8888 22.5785C22.4439 22.2512 22.574 21.609 23.0327 21.3014L23.947 20.6883L24.8613 20.0752Z" fill="#001B38"></path>
    <path d="M37.6779 20.7182C38.1502 21.0044 38.3095 21.64 37.8801 21.9873C37.6408 22.1809 37.374 22.3306 37.0928 22.4256C36.5135 22.6213 35.9204 22.569 35.4439 22.2802C34.9674 21.9914 34.6466 21.4898 34.5521 20.8856C34.5062 20.5924 34.5154 20.2867 34.5763 19.985C34.6855 19.4436 35.3227 19.2907 35.795 19.577L36.7364 20.1476L37.6779 20.7182Z" fill="#001B38"></path>
    <path d="M30.7054 15.5274C31.2401 15.3888 31.8065 15.7182 31.7557 16.2681C31.7274 16.5746 31.6485 16.8701 31.5203 17.1378C31.2563 17.6894 30.805 18.0778 30.2656 18.2176C29.7263 18.3574 29.1431 18.2371 28.6443 17.8833C28.4023 17.7115 28.1897 17.4916 28.0161 17.2375C27.7045 16.7815 28.0396 16.2184 28.5742 16.0798L29.6398 15.8036L30.7054 15.5274Z" fill="#001B38"></path>
    <path d="M29.2882 8.59352C28.7397 8.52899 28.3311 8.01673 28.5777 7.52257C28.7151 7.2472 28.8958 7.00037 29.1122 6.79728C29.5581 6.37885 30.1195 6.18035 30.6729 6.24545C31.2262 6.31056 31.7262 6.63394 32.0629 7.14445C32.2263 7.39223 32.3447 7.67424 32.4144 7.97399C32.5396 8.5119 32.0233 8.91532 31.4748 8.85079L30.3815 8.72215L29.2882 8.59352Z" fill="#001B38"></path>
    <path d="M39.9681 12.6034C39.4688 12.3675 39.2447 11.7517 39.636 11.3619C39.854 11.1447 40.1039 10.9683 40.3737 10.8448C40.9298 10.5903 41.5251 10.581 42.0289 10.8191C42.5327 11.0571 42.9035 11.523 43.0599 12.1142C43.1358 12.4011 43.1582 12.7061 43.1288 13.0125C43.0761 13.5622 42.4581 13.7801 41.9587 13.5441L40.9634 13.0738L39.9681 12.6034Z" fill="#001B38"></path>
  </g>
  <defs>
    <clipPath id="clip0_7638_62267">
      <rect width="50" height="50" fill="white" transform="translate(5 5)"></rect>
    </clipPath>
  </defs>
</svg>
