<?xml version="1.0" encoding="UTF-8"?>
<svg xmlns="http://www.w3.org/2000/svg" width="61" height="60" viewBox="0 0 61 60" fill="none">
  <g clip-path="url(#clip0_7638_62131)">
    <path d="M21.9999 44.18C21.4099 44.16 20.8199 44.15 20.2299 44.13C19.9299 44.13 19.8199 43.98 19.6399 43.9C19.5799 43.87 19.5299 43.76 19.4799 43.78C18.9599 43.9 18.3699 43.93 17.7699 43.78C17.5599 43.74 17.3099 43.64 17.2099 43.46C16.7499 42.4 16.2299 41.77 15.7199 40.8C15.6799 40.72 15.5699 40.62 15.5999 40.56C15.8399 40.22 15.8499 39.94 15.8099 39.63C15.7799 39.33 15.7199 39 15.8099 38.7C15.9099 38.48 16.0899 38.49 16.2099 38.37C16.2599 38.33 16.2699 38.27 16.1599 38.18C15.8199 37.88 15.8899 37.74 16.2199 37.77C16.3899 37.78 16.3499 37.65 16.3999 37.57C16.5299 37.4 16.6399 37.22 16.7799 37.06C16.8099 37.03 16.8299 36.99 16.8299 36.93C16.8199 36.75 16.9099 36.66 17.1599 36.75C17.4199 36.84 17.5699 36.78 17.5299 36.49C17.4799 36.14 17.8199 36.44 18.0099 36.56C18.0599 36.59 18.1599 36.69 18.1499 36.64C17.9699 36.1 18.2499 36.34 18.3199 36.23C18.3999 36.11 18.4799 35.96 18.5899 35.87C18.6499 35.83 18.7699 36 18.8299 36C19.1499 35.94 19.4599 36 19.7499 35.81C19.8899 35.72 20.0099 35.87 20.2199 35.81C20.3599 35.77 20.4899 35.53 20.6299 35.51C20.8199 35.48 21.0099 35.55 21.1899 35.6C21.2399 35.61 21.2799 35.78 21.3199 35.75C21.7099 35.46 22.0999 35.98 22.4899 35.87C22.8899 35.76 23.2899 35.87 23.6799 35.87C24.3799 35.87 25.0799 35.91 25.7799 35.81C25.9899 35.78 26.1999 35.75 26.4199 35.81C26.6199 35.86 26.8199 35.5 27.0199 35.47C27.1899 35.44 27.3599 35.62 27.5399 35.69C27.6999 35.75 27.8699 35.8 28.0299 35.81C28.5199 35.83 29.0199 35.81 29.5099 35.86C29.6299 35.86 29.7399 36.04 29.8599 36.13C29.8899 36.15 29.9199 36.21 29.9399 36.18C30.4399 35.5 30.9599 36 31.4599 35.87C31.6799 35.81 31.9099 35.81 32.1199 35.92C32.2899 36.01 32.4199 35.96 32.5999 35.78C32.7999 35.57 33.0499 35.94 33.2699 36.07C33.3199 36.1 33.3699 36.18 33.4199 36.16C33.5399 36.09 33.6499 35.92 33.7599 35.87C34.0699 35.74 34.3799 35.62 34.6899 35.58C34.8199 35.56 34.9499 35.79 35.0799 35.8C35.4599 35.84 35.8399 35.83 36.2199 35.84L38.3599 35.93C38.5099 35.93 38.6599 35.83 38.8099 35.86C38.9099 35.88 39.0099 36.06 39.1199 36.12C39.1699 36.15 39.2199 36.09 39.2699 36.05C39.3399 36.01 39.3999 35.89 39.4599 35.91C39.6499 35.97 39.8399 36.12 40.0299 36.14C40.1399 36.14 40.2499 35.88 40.3599 35.87C40.8699 35.84 41.3799 35.79 41.8799 35.9C42.0599 35.94 42.2399 35.95 42.4199 35.9C42.8499 35.81 43.2799 35.98 43.7199 36.04C43.7599 36.04 43.7999 36.02 43.8299 35.94C43.9799 35.53 44.1299 35.8 44.2699 35.98C44.3299 36.06 44.4099 36.03 44.4799 36.01C44.5699 35.99 44.6699 35.8 44.7299 35.92C44.9199 36.32 45.0899 36.02 45.2399 35.73C45.3799 35.46 45.4799 35.35 45.6099 35.68C45.6699 35.82 45.7499 35.82 45.8299 35.83H45.9499L46.0099 35.84L44.1599 33.99V34V34.04V34.27C44.1499 34.42 44.1399 34.58 44.1199 34.73C44.1199 34.8 43.9599 34.87 43.8599 34.95C44.3899 35.08 44.8099 35.23 44.2199 35.45C44.1199 35.49 44.1599 35.56 44.1599 35.61C44.1599 36.17 44.1899 36.74 44.1599 37.3C44.1599 37.46 43.9699 37.62 43.8699 37.77C43.8399 37.82 43.7999 37.86 43.8199 37.91C43.9299 38.18 44.1399 38.46 44.1599 38.73C44.1999 39.44 44.1599 40.14 44.1499 40.85C44.1499 41.01 44.1699 41.18 44.1499 41.34C44.1499 41.4 44.0599 41.46 43.9999 41.51C43.9599 41.55 43.8199 41.6 43.8599 41.62C44.5399 41.92 44.1399 42.25 44.1799 42.56C44.2599 43.22 44.0199 43.88 44.2099 44.53C44.3199 44.91 44.0599 45.29 44.1299 45.67C44.1299 45.67 44.1499 45.75 44.1699 45.8C44.1899 45.85 44.1399 45.9 44.0799 45.95L44.0599 45.97L46.0399 43.99V43.97L45.9999 43.92C45.9999 43.92 45.9499 43.86 45.9199 43.84C45.8799 43.81 45.8099 43.78 45.7899 43.86C45.6799 44.33 45.5899 44.11 45.5199 43.88C45.3899 43.97 45.2899 44.12 45.1799 44.1C44.8299 44.05 44.4799 43.92 44.1299 43.88C44.0299 43.87 43.9299 44.11 43.8399 44.09C43.6699 44.04 43.4999 43.85 43.3299 43.78C43.2599 43.75 43.1899 43.9 43.1199 43.98C43.0699 44.03 43.0099 44.19 42.9899 44.14C42.7699 43.5 42.5599 44.37 42.3399 44.12C42.0399 43.76 41.7299 44.28 41.4299 44.12C41.3199 44.06 41.2099 43.91 41.0999 43.84C41.0499 43.81 40.9999 43.88 40.9499 43.91C40.8499 43.96 40.7499 44.07 40.6599 44.05C40.5199 44.02 40.3899 43.83 40.2599 43.84C40.1299 43.84 39.9999 44.06 39.8599 44.1C39.7799 44.13 39.6999 44 39.6299 43.93C39.5999 43.9 39.5599 43.8 39.5399 43.84C39.3599 44.15 39.2499 44.18 39.0099 44.16C38.3899 44.14 37.7699 44.06 37.1699 44.13C36.5199 44.2 35.8599 44.27 35.2099 44.28C34.8399 44.28 34.4699 44.1 34.1099 44.13C34.0999 44.13 34.0799 44.13 34.0699 44.13V48.18H35.3599C35.7499 47.64 37.0399 47.64 37.4999 48.18H37.9599C38.1399 47.87 38.3899 47.78 38.6499 47.77C38.7799 47.77 38.9199 47.77 39.0599 47.78C39.1199 47.78 39.1399 47.79 39.1799 47.78C39.2999 47.72 39.4099 47.64 39.5199 47.6C39.7199 47.53 39.9099 47.44 40.1099 47.46C40.3499 47.49 40.6099 47.87 40.8199 47.65C41.0299 47.43 41.1799 47.9 41.3599 47.79C41.4899 47.71 41.6099 47.6 41.7399 47.55C41.8399 47.5 41.9499 47.5 42.0599 47.51C42.1799 47.53 42.3099 47.7 42.4199 47.61C42.6799 47.41 42.9399 47.49 43.1999 47.66C43.3899 47.78 43.5999 47.59 43.7999 47.53C43.8999 47.5 44.0099 47.35 44.0999 47.45C44.2899 47.67 44.4699 47.57 44.6699 47.45C44.8199 47.36 44.9799 47.56 45.1299 47.63C45.2099 47.67 45.2999 47.8 45.3699 47.73C45.5099 47.58 45.6499 47.57 45.7999 47.59L46.0099 47.62H46.0599L47.7099 45.97V45.95V45.92C47.7099 45.92 47.7099 45.85 47.6999 45.81C47.5999 45.45 47.5599 45.09 47.5499 44.73C47.5499 44.44 47.7399 44.15 47.7599 43.85C47.7799 43.6 47.6699 43.35 47.6199 43.1C47.6199 43.06 47.5599 43.01 47.6199 42.98C48.0699 42.78 47.7299 42.58 47.6299 42.38C47.5699 42.25 47.6499 42.12 47.6699 41.98L47.7099 41.64L47.7899 41.23C47.7999 41.14 47.9199 41.04 47.7899 40.97C47.3799 40.75 47.6299 40.55 47.7999 40.34C47.8799 40.24 47.8299 40.12 47.7899 40.02C47.6799 39.77 47.5599 39.52 47.6999 39.26C47.8399 38.98 47.6199 38.68 47.6099 38.39C47.6099 38.22 47.7399 38.06 47.7399 37.89C47.7399 37.71 47.5699 37.52 47.5899 37.34C47.6299 36.93 48.0099 36.5 47.7399 36.11C47.4799 35.72 47.9799 35.34 47.6099 34.95C47.5099 34.85 47.8399 34.73 47.8099 34.62C47.7699 34.44 47.6999 34.25 47.6399 34.07L47.6199 34V33.97H47.5999L46.0499 32.42H46.0299L45.8899 32.47C45.7999 32.5 45.7099 32.53 45.6099 32.55C45.5099 32.57 45.4099 32.38 45.2999 32.3C45.2299 32.25 45.1699 32.16 45.0999 32.17C44.7099 32.23 44.3199 32.37 43.9199 32.39C43.6799 32.4 43.4499 32.19 43.2099 32.2C42.9799 32.2 42.7599 32.37 42.5299 32.46C42.5099 32.46 42.4799 32.52 42.4699 32.49C42.2099 31.99 41.9699 32.24 41.6999 32.49C41.4999 32.67 41.2699 32.35 41.0499 32.26C40.9799 32.23 40.9099 32.19 40.8499 32.19C40.4799 32.17 40.1099 32.12 39.7499 32.17C39.4399 32.21 39.1199 32.38 38.8099 32.47C38.7499 32.49 38.6799 32.39 38.6099 32.39C38.4499 32.39 38.2799 32.4 38.1199 32.39C38.0099 32.39 37.8999 32.36 37.7899 32.35C37.6099 32.32 37.4199 32.25 37.2399 32.26C37.1399 32.26 37.0299 32.44 36.9299 32.46C36.5199 32.52 36.0899 32.8 35.6999 32.5C35.3199 32.21 34.9799 32.77 34.6099 32.59C34.3799 32.48 34.1499 32.41 33.9199 32.31C33.9199 32.31 33.8999 32.29 33.8999 32.3C33.6699 32.83 33.4599 32.07 33.2399 32.15C33.1699 32.18 33.0899 32.1 33.0399 32.22C32.8099 32.83 32.5799 32.33 32.3499 32.3C32.2099 32.28 32.0599 32.39 31.9199 32.45C31.8899 32.46 31.8699 32.56 31.8399 32.55C31.6299 32.47 31.4199 32.34 31.1999 32.28C31.0299 32.22 30.8499 32.23 30.6799 32.21C30.5199 32.19 30.3599 32.13 30.1999 32.16C30.0099 32.19 29.8199 32.32 29.6299 32.36C29.4599 32.4 29.2799 32.36 29.0999 32.36H28.8399C28.7699 32.36 28.7099 32.36 28.6399 32.38L28.3499 32.43C28.1799 32.46 27.9799 32.68 27.8399 32.46C27.6399 32.15 27.5199 32.61 27.3699 32.78C27.3099 32.85 27.2399 32.98 27.1899 32.94C26.9899 32.82 26.7899 32.69 26.5999 32.49C26.4099 32.29 26.2199 32.49 26.0399 32.49C25.7299 32.51 25.4199 32.32 25.1099 32.3C24.8199 32.28 24.5299 32.41 24.2499 32.39C23.9599 32.37 23.6799 32.19 23.3999 32.17C23.2099 32.16 23.0099 32.32 22.8199 32.4C22.7899 32.41 22.7499 32.44 22.7199 32.41C22.3899 32.13 22.0799 32.08 21.7499 32.51C21.6299 32.67 21.4699 32.42 21.3299 32.43C21.1499 32.43 20.9799 32.57 20.8099 32.56C20.6899 32.55 20.5699 32.37 20.4399 32.26C20.4199 32.24 20.3999 32.18 20.3799 32.19C20.1899 32.27 20.0199 32.38 19.7599 32.46C19.6799 32.49 19.5899 32.39 19.4999 32.37C19.3399 32.34 19.1799 32.32 19.0199 32.36C18.8099 32.4 18.5799 32.41 18.3999 32.56C18.2099 32.72 17.8299 32.24 17.7599 32.8C17.7599 32.88 17.7099 32.93 17.6699 32.93C17.3899 32.93 17.0799 32.88 16.7999 32.93C16.6499 32.95 16.5099 33.02 16.3999 33.13C16.1499 33.37 15.9799 33.7 15.7499 33.9C15.5699 34.07 15.2199 34.05 15.0299 34.23C14.8799 34.36 14.8699 34.63 14.7499 34.77C14.4899 35.09 14.2899 35.44 13.9399 35.67C13.6599 35.85 13.6399 36.19 13.4999 36.44C13.4299 36.59 13.1599 36.65 13.0899 36.81C12.9799 37.01 13.0699 37.29 12.9799 37.5L12.9199 37.64C12.8699 37.73 12.8099 37.98 12.7599 38.14C12.6399 38.5 12.5799 38.88 12.5199 39.25C12.4199 40 12.4199 40.78 12.5399 41.54C12.6899 42.52 12.9899 43.53 13.5899 44.34C14.0899 45.02 14.8399 45.43 15.4999 45.86C15.8899 46.12 16.1999 46.53 16.6399 46.78C17.4899 47.31 18.6599 47.91 19.5299 47.67C20.1299 47.53 20.4499 47.44 20.8599 47.43C21.2599 47.43 21.6399 47.47 22.0299 47.54V44.14L21.9999 44.18Z" fill="#001B38"></path>
    <path d="M15.8199 40C15.8399 39.41 15.8499 38.82 15.8699 38.23C15.8799 37.97 15.9999 37.71 16.0799 37.45C16.1099 37.36 16.1999 37.26 16.1799 37.18C15.9899 36.39 15.7899 35.58 15.5999 34.81C15.5399 34.53 15.4599 34.19 15.5499 33.94C16.0699 32.53 15.9399 31.12 15.6399 29.69C15.6099 29.57 15.5199 29.41 15.5599 29.34C16.1199 28.49 15.5999 27.63 15.6199 26.78C15.6399 26.41 15.8199 26.24 15.8799 25.96C15.8999 25.86 15.8899 25.73 15.7499 25.66C15.3099 25.42 15.3199 25.19 15.6099 24.93C15.7599 24.79 15.6599 24.6 15.6599 24.44L15.6399 23.25C15.6399 23.17 15.6399 23.09 15.5899 23.01C15.4599 22.78 15.4499 22.58 15.6799 22.34C15.9299 22.09 15.9599 21.75 15.6999 21.5C15.3999 21.2 15.8099 21.01 16.0099 20.78C16.0599 20.72 16.1999 20.63 16.1499 20.62C15.5899 20.41 15.9199 20.16 15.8599 19.93C15.7899 19.69 15.6599 19.44 15.6299 19.2C15.6099 19.08 15.8199 18.96 15.8299 18.83C15.8599 18.22 15.9799 17.6 15.7999 16.99C15.7199 16.72 15.8799 16.46 15.8199 16.2C15.7799 16.02 15.5399 15.84 15.5199 15.65C15.4899 15.4 15.5599 15.14 15.6099 14.89C15.6199 14.83 15.7899 14.76 15.7599 14.71C15.6199 14.46 15.6699 14.14 15.7599 13.96C15.8399 13.81 15.9599 13.69 15.9399 13.55C15.8999 13.24 16.1199 13 16.2899 12.78C16.5899 12.36 17.0299 12.11 17.4899 11.9C17.6299 11.83 17.7899 11.79 17.9499 11.83C18.1399 11.87 18.4699 11.52 18.7199 11.48C18.9499 11.45 19.1899 11.63 19.4199 11.7C19.6399 11.76 19.8599 11.81 20.0799 11.82C20.7499 11.84 21.4199 11.82 22.0899 11.87C22.2499 11.87 22.3999 12.05 22.5599 12.14C22.5999 12.16 22.6399 12.22 22.6699 12.19C23.3499 11.51 24.0499 12.01 24.7299 11.88C25.0299 11.82 25.3299 11.82 25.6299 11.93C25.8599 12.02 26.0399 11.97 26.2699 11.79C26.5399 11.58 26.8699 11.95 27.1799 12.08C27.2499 12.11 27.3199 12.19 27.3799 12.17C27.5399 12.1 27.6899 11.93 27.8399 11.88C28.2599 11.75 28.6699 11.63 29.0899 11.59C29.2599 11.57 29.4399 11.8 29.6199 11.81C30.1399 11.85 30.6499 11.84 31.1699 11.85L34.0599 11.94C34.2599 11.94 34.4699 11.84 34.6699 11.87C34.8099 11.89 34.9399 12.07 35.0799 12.13C35.1399 12.16 35.2099 12.1 35.2799 12.06C35.3699 12.02 35.4599 11.9 35.5399 11.92C35.7999 11.98 36.0499 12.13 36.3099 12.15C36.4599 12.15 36.6099 11.89 36.7499 11.88C37.4399 11.85 38.1299 11.8 38.8099 11.91C39.0599 11.95 39.2899 11.96 39.5399 11.91C40.1199 11.82 40.7099 11.99 41.2999 12.05C41.3499 12.05 41.4099 12.03 41.4499 11.95C41.6599 11.54 41.8499 11.81 42.0499 11.99C42.1399 12.07 42.2399 12.04 42.3299 12.02C42.4499 12 42.5899 11.81 42.6699 11.93C42.9299 12.33 43.1599 12.03 43.3599 11.74C43.5499 11.47 43.6799 11.36 43.8699 11.69C43.8999 11.76 43.9799 11.79 43.9799 11.81C43.9799 11.83 43.9899 11.83 43.9899 11.83C44.0199 11.86 44.0499 11.86 44.0399 11.91C44.0399 11.91 44.0199 11.95 43.9799 11.98C43.9399 12.02 43.9699 11.99 43.9599 12C43.9199 12.03 44.0499 11.93 44.1399 11.87C44.2299 11.81 44.2999 11.77 44.3499 11.76C44.4499 11.73 44.4299 11.8 44.1599 11.92C44.0699 11.96 44.1099 11.95 44.0999 11.96C44.0999 12 44.0999 11.93 44.0999 12.06V12.63C44.0999 13.01 44.0999 13.39 44.0899 13.78C44.0899 13.99 43.8999 14.21 43.7999 14.42C43.7699 14.48 43.7299 14.55 43.7499 14.61C43.8599 14.98 44.0699 15.35 44.0899 15.72C44.1299 16.67 44.0899 17.63 44.0799 18.58C44.0799 18.8 44.0999 19.02 44.0799 19.25C44.0799 19.33 43.9899 19.41 43.9299 19.48C43.8899 19.53 43.7499 19.6 43.7899 19.62C44.4699 20.03 44.0699 20.47 44.1099 20.9C44.1899 21.79 43.9499 22.69 44.1399 23.57C44.2599 24.15 43.9299 24.71 44.0999 25.28C44.1399 25.41 43.8999 25.55 43.8199 25.69C43.7899 25.75 43.7599 25.84 43.8399 25.87C44.3099 26.02 44.0899 26.14 43.8599 26.24C43.9499 26.42 44.0999 26.56 44.0799 26.7C44.0299 27.18 43.8999 27.65 43.8599 28.13C43.8499 28.26 44.0899 28.4 44.0699 28.53C44.0199 28.76 43.8299 28.99 43.7599 29.22C43.7299 29.31 43.8799 29.41 43.9599 29.5C44.0099 29.56 44.1699 29.65 44.1199 29.68C43.4799 29.97 44.3499 30.26 44.0999 30.55C43.7399 30.96 44.2599 31.37 44.0999 31.78C44.0399 31.93 43.8899 32.07 43.8199 32.22C43.7899 32.28 43.8599 32.36 43.8899 32.42C43.9399 32.55 44.0499 32.69 44.0299 32.82C43.9999 33 43.8099 33.19 43.8199 33.37C43.8199 33.55 44.0399 33.73 44.0799 33.91C44.1099 34.01 43.9799 34.12 43.9099 34.23C43.8799 34.27 43.7799 34.33 43.8199 34.35C44.1299 34.58 44.1599 34.76 44.1399 35.04C44.1199 35.66 44.0399 36.28 44.1099 36.88C44.1799 37.53 44.2499 38.19 44.2599 38.84C44.2599 39.21 44.0799 39.58 44.1099 39.94V39.98H48.1699V38.69C47.6299 38.3 47.6299 37.01 48.1699 36.55V36.09C47.8599 35.91 47.7699 35.66 47.7599 35.4C47.7599 35.27 47.7599 35.13 47.7699 34.99C47.7699 34.92 47.7799 34.89 47.7699 34.83C47.7099 34.67 47.6299 34.52 47.5899 34.36C47.5199 34.09 47.4299 33.83 47.4499 33.56C47.4799 33.23 47.8599 32.88 47.6399 32.59C47.4199 32.31 47.8899 32.1 47.7799 31.86C47.6999 31.69 47.5899 31.52 47.5399 31.35C47.4899 31.21 47.4899 31.06 47.4999 30.92C47.5199 30.75 47.6899 30.58 47.5999 30.43C47.3999 30.07 47.4799 29.73 47.6499 29.38C47.7699 29.12 47.5799 28.84 47.5199 28.57C47.4899 28.43 47.3399 28.28 47.4399 28.16C47.6599 27.9 47.5599 27.66 47.4399 27.39C47.3499 27.19 47.5499 26.97 47.6199 26.76C47.6599 26.65 47.7899 26.53 47.7199 26.44C47.4299 26.06 47.6799 25.67 47.6099 25.29C47.5099 24.8 47.4699 24.32 47.4599 23.83C47.4599 23.44 47.6499 23.04 47.6699 22.64C47.6899 22.3 47.5799 21.96 47.5299 21.62C47.5299 21.57 47.4699 21.5 47.5299 21.46C47.9799 21.19 47.6399 20.92 47.5399 20.65C47.4799 20.48 47.5599 20.29 47.5799 20.11L47.6199 19.65L47.6999 19.1C47.7099 18.98 47.8299 18.84 47.6999 18.75C47.2899 18.46 47.5399 18.18 47.7099 17.9C47.7899 17.76 47.7399 17.61 47.6999 17.46C47.5899 17.12 47.4699 16.78 47.6099 16.43C47.7499 16.05 47.5299 15.64 47.5199 15.25C47.5199 15.03 47.6499 14.8 47.6499 14.58C47.6499 14.33 47.4799 14.08 47.4999 13.83C47.5399 13.27 47.9199 12.7 47.6499 12.16C47.6199 12.09 47.5999 12.03 47.5799 11.96C47.5599 11.84 47.5599 11.72 47.5499 11.61C47.5299 11.37 47.5099 11.14 47.4599 10.9C47.3699 10.43 47.1499 9.96 46.7099 9.72C46.4999 9.61 46.5199 9.17 46.2699 9.01C45.8799 8.75 45.4299 8.6 44.9799 8.53C44.7599 8.5 44.5299 8.49 44.3099 8.49L43.9899 8.51C43.8899 8.52 43.8599 8.53 43.7899 8.54C43.6499 8.56 43.5099 8.37 43.3699 8.29C43.2799 8.24 43.1899 8.15 43.0999 8.16C42.5699 8.22 42.0399 8.36 41.5099 8.38C41.1899 8.39 40.8699 8.18 40.5499 8.19C40.2399 8.19 39.9399 8.36 39.6299 8.45C39.5999 8.45 39.5699 8.51 39.5499 8.48C39.1999 7.98 38.8699 8.23 38.5099 8.48C38.2399 8.66 37.9299 8.34 37.6299 8.25C37.5399 8.22 37.4499 8.18 37.3499 8.18C36.8499 8.16 36.3499 8.11 35.8499 8.16C35.4199 8.2 34.9999 8.37 34.5699 8.46C34.4799 8.48 34.3899 8.38 34.2999 8.38C34.0799 8.38 33.8499 8.39 33.6299 8.38C33.4799 8.38 33.3299 8.35 33.1799 8.34C32.9299 8.31 32.6799 8.24 32.4299 8.25C32.2899 8.25 32.1499 8.43 32.0099 8.45C31.4499 8.51 30.8799 8.79 30.3499 8.49C29.8299 8.2 29.3699 8.76 28.8799 8.58C28.5699 8.47 28.2599 8.4 27.9499 8.3C27.9499 8.3 27.9299 8.28 27.9199 8.29C27.6099 8.82 27.3299 8.06 27.0299 8.14C26.9399 8.17 26.8199 8.09 26.7599 8.21C26.4499 8.82 26.1399 8.32 25.8299 8.29C25.6399 8.27 25.4399 8.38 25.2499 8.44C25.2099 8.45 25.1799 8.55 25.1499 8.54C24.8599 8.46 24.5799 8.33 24.2899 8.27C24.0499 8.21 23.8199 8.22 23.5799 8.2C23.3599 8.18 23.1399 8.12 22.9299 8.15C22.6699 8.18 22.4199 8.31 22.1599 8.35C21.9199 8.39 21.6899 8.35 21.4499 8.35H21.0999C21.0099 8.35 20.9199 8.35 20.8299 8.37L20.4399 8.42C20.2099 8.45 19.9399 8.67 19.7499 8.45C19.4699 8.14 19.3199 8.6 19.1099 8.77C19.0299 8.84 18.9399 8.97 18.8599 8.93C18.5899 8.81 18.3199 8.68 18.0599 8.48C17.9499 8.38 17.7499 8.39 17.5799 8.42C17.4099 8.45 17.2399 8.52 17.0699 8.56C16.5199 8.66 15.8999 8.66 15.3499 8.92C14.8499 9.16 14.4599 9.57 14.0699 9.94C13.6799 10.29 13.1799 10.61 12.8899 11.1C12.6899 11.43 12.6799 11.84 12.6399 12.21C12.6399 12.27 12.6399 12.34 12.5899 12.39C12.3699 12.65 12.2199 12.94 12.1899 13.26C12.1599 13.55 12.2399 13.96 12.4599 14.14C12.6199 14.3 12.3699 14.51 12.3799 14.7C12.3799 14.94 12.5199 15.17 12.5099 15.41C12.4999 15.58 12.3199 15.74 12.2099 15.91C12.1899 15.94 12.1299 15.96 12.1399 15.99C12.2199 16.24 12.3299 16.5 12.3999 16.75C12.4199 16.84 12.3199 16.93 12.2999 17.03C12.2699 17.2 12.2399 17.36 12.2399 17.53C12.2399 17.76 12.2399 17.99 12.3399 18.21C12.4499 18.45 11.8899 18.7 12.4099 18.94C12.4799 18.97 12.5199 19.03 12.4999 19.07C12.3999 19.36 12.2599 19.64 12.1799 19.93C12.1399 20.08 12.1399 20.24 12.1799 20.4C12.2699 20.74 12.4699 21.09 12.4999 21.43C12.5199 21.71 12.3199 21.99 12.3099 22.26C12.3099 22.47 12.4999 22.67 12.5199 22.88C12.5499 23.32 12.6299 23.77 12.4799 24.21C12.3699 24.54 12.5099 24.86 12.5199 25.18C12.5199 25.37 12.3099 25.55 12.3099 25.74C12.3099 25.98 12.4699 26.23 12.4599 26.47C12.4399 26.97 12.4099 27.47 12.3899 27.97L12.2799 29.79C12.2299 30.57 12.1099 31.35 12.1499 32.13C12.1799 32.77 12.4399 33.4 12.4999 34.04C12.5399 34.42 12.3599 34.81 12.3199 35.2C12.2499 36 11.9299 36.93 12.2099 37.58C12.5699 38.42 12.4899 39.2 12.3599 39.97H15.7599L15.8199 40Z" fill="#001B38"></path>
    <path d="M20.2 45.61C20.26 46.11 20.34 46.6 20.38 47.1L20.43 47.74V47.9C20.45 48.03 20.46 48.16 20.49 48.29C20.54 48.55 20.63 48.81 20.76 49.05C21.3 50.01 22.37 50.52 23.43 50.34C23.75 50.29 24.07 50.17 24.35 50.01L24.83 49.7C25.06 49.56 25.29 49.42 25.52 49.29C25.97 49.01 26.39 48.72 26.68 48.34C26.96 47.97 27.31 47.77 27.64 47.59C27.81 47.5 27.98 47.42 28.14 47.32C28.22 47.27 28.3 47.22 28.37 47.16C28.42 47.12 28.59 46.98 28.45 47.06C28.24 47.15 28.02 47.14 27.85 47.06C27.77 47.02 27.69 46.96 27.63 46.9L27.61 46.87C27.61 46.87 27.64 46.89 27.65 46.89L27.74 46.94L27.91 47.05C28.29 47.3 28.65 47.58 29 47.88C29.42 48.25 29.76 48.76 30.23 48.99C30.46 49.1 30.68 49.22 30.9 49.36L31.21 49.58L31.59 49.87C32.08 50.23 32.75 50.41 33.37 50.34C33.99 50.27 34.59 50 35.05 49.51C35.47 49.1 35.72 48.4 35.7 47.86C35.7 47.63 35.7 47.39 35.68 47.15C35.64 46.67 35.57 46.19 35.54 45.71C35.51 45.27 35.36 44.8 35.46 44.41C35.6 43.89 35.61 43.4 35.57 42.9C35.55 42.64 35.5 42.37 35.46 42.1C35.44 42 35.44 41.88 35.45 41.73C35.49 40.77 34.7 39.98 33.73 39.98C32.82 39.98 32.07 40.69 32.01 41.6C31.98 42.04 31.96 42.53 31.94 42.9C31.92 43.46 31.9 43.89 31.89 44.24C31.88 44.66 32.12 45.09 32.1 45.5C32.05 46.24 31.86 46.97 31.79 47.71C31.79 47.75 31.79 47.78 31.79 47.82V47.85V47.86H32.91H32.93C32.93 47.86 32.99 47.86 33.01 47.87C33.03 47.87 33.01 47.87 33.01 47.86C32.98 47.83 32.99 47.83 32.99 47.84C33 47.86 32.99 47.93 33 47.87L33.03 47.82L33.67 47.02L33.6 46.97C33.5 46.91 33.4 46.85 33.29 46.8C32.86 46.59 32.41 46.42 32.13 46.03C31.74 45.48 31.2 45.1 30.65 44.73C30.38 44.55 30.1 44.37 29.83 44.18L29.62 44.03C29.52 43.97 29.42 43.91 29.32 43.85C29.11 43.74 28.89 43.66 28.67 43.6C28.22 43.49 27.75 43.48 27.29 43.57C26.95 43.64 26.63 43.76 26.33 43.94L26.12 44.07L26.04 44.11L25.88 44.19C25.67 44.3 25.45 44.4 25.24 44.52C25.06 44.63 24.93 44.83 24.78 44.99C24.48 45.3 24.22 45.65 23.89 45.9C23.42 46.25 22.85 46.47 22.41 46.84L22.33 46.91L22.29 46.95V46.96L22.95 47.78C22.95 47.78 22.99 47.85 22.99 47.86C23 47.89 22.99 47.89 22.99 47.86C22.99 47.81 23.01 47.81 22.97 47.85C22.95 47.87 22.94 47.86 22.99 47.85H23.04H23.07H23.98V47.81L24.04 47.56C24.07 47.43 24.17 47.25 24.13 47.17C23.67 46.13 23.82 45.04 23.86 43.96C23.87 43.66 23.88 43.36 23.84 43.07C23.81 42.84 23.81 42.37 23.81 41.86C23.81 40.81 22.96 39.96 21.91 39.96C20.86 39.96 19.97 40.86 20.02 41.94C20.05 42.59 20.01 43.2 19.79 43.39V43.85C20.41 44.23 20.13 44.98 20.19 45.58L20.2 45.61Z" fill="#001B38"></path>
    <path d="M40.7499 38.2001C40.3699 38.2601 39.9799 38.3401 39.5999 38.3801C38.9399 38.4501 38.2799 38.5401 37.6299 38.5201C36.8299 38.4901 35.9599 38.1101 35.2399 38.3301C34.5399 38.5501 34.0299 38.08 33.4199 38.19C32.9999 38.27 32.5799 38.38 32.1499 38.43C31.7999 38.48 31.4399 38.4801 31.0899 38.4701C30.6599 38.4501 30.1999 38.26 29.7999 38.39C29.0299 38.63 28.2299 38.6 27.4599 38.37C26.7699 38.16 25.9999 38.3901 25.2599 38.4501C24.9199 38.4801 24.5499 38.63 24.2499 38.53C23.8499 38.39 23.4699 38.38 23.0799 38.42C22.8199 38.44 22.5499 38.49 22.2799 38.53C22.1799 38.55 22.0599 38.5501 21.9099 38.5401C20.9499 38.5001 20.1599 39.29 20.1599 40.26C20.1599 41.17 20.8699 41.92 21.7799 41.98C22.2199 42.01 22.7099 42.03 23.0799 42.05C23.5099 42.07 23.8499 42.09 24.1199 42.1C24.4399 42.11 24.7799 41.87 25.0999 41.89C25.6799 41.94 26.2399 42.1301 26.8099 42.2001C27.0299 42.2301 27.2799 42.08 27.5099 42C27.6599 41.95 27.8799 41.79 27.9399 41.84C28.6599 42.48 29.3799 41.6101 30.0999 41.8601C31.1099 42.2201 32.1299 41.7001 33.1399 41.8601C33.5099 41.9201 33.8699 42.07 34.2299 42.14C34.3899 42.17 34.5699 42.1 34.7299 42.07C35.0599 42.02 35.3899 41.91 35.7099 41.93C36.1599 41.96 36.6099 42.15 37.0599 42.14C37.5099 42.14 37.9499 41.9201 38.3899 41.8801C38.6399 41.8501 38.9099 41.98 39.1699 42.05C39.2699 42.08 39.4099 42.18 39.4699 42.14C40.2699 41.68 41.1199 41.83 41.9599 41.87C42.2599 41.88 42.5599 41.89 42.8499 41.85C43.0799 41.82 43.5499 41.82 44.0599 41.82C45.1099 41.82 45.9599 40.97 45.9599 39.92C45.9599 38.87 45.0599 37.98 43.9799 38.03C43.3299 38.06 42.7199 38.02 42.5299 37.8H42.0699C42.0399 37.86 41.9999 37.91 41.9599 37.96C41.6299 38.38 41.1299 38.15 40.7099 38.21L40.7499 38.2001Z" fill="#001B38"></path>
    <path d="M23.8001 25.49C23.7401 25.35 23.6601 25.21 23.6201 25.06C23.5501 24.82 23.4601 24.57 23.4801 24.33C23.5101 24.03 23.8901 23.71 23.6701 23.45C23.4501 23.19 23.9201 23 23.8101 22.78C23.7301 22.62 23.6201 22.47 23.5701 22.31C23.5201 22.18 23.5201 22.05 23.5301 21.92C23.5501 21.76 23.7401 21.59 23.6101 21.45C23.3701 21.17 23.4001 20.87 23.6301 20.58C23.8401 20.32 23.6101 20.04 23.5501 19.77C23.5201 19.65 23.3701 19.51 23.4701 19.4C23.5801 19.28 23.6101 19.16 23.6001 19.05L23.5801 18.96L23.5501 18.7C23.5201 18.53 23.5001 18.35 23.4701 18.17C23.4501 18.07 23.4501 17.95 23.4601 17.8C23.5001 16.84 22.7101 16.05 21.7401 16.05C20.8301 16.05 20.0801 16.76 20.0201 17.67C20.0001 18.09 19.9701 18.54 19.9501 18.97C19.9301 19.11 19.9101 19.25 19.9001 19.35C19.8901 19.47 20.1301 19.59 20.1101 19.71C20.0601 19.92 19.8701 20.13 19.8001 20.34C19.7701 20.42 19.9201 20.51 20.0001 20.6C20.0501 20.66 20.2101 20.74 20.1601 20.76C19.5201 21.03 20.3901 21.29 20.1401 21.56C19.7801 21.93 20.3001 22.31 20.1401 22.68C20.0801 22.82 19.9301 22.95 19.8601 23.08C19.8301 23.14 19.9001 23.2 19.9301 23.27C19.9801 23.39 20.0901 23.51 20.0701 23.63C20.0401 23.8 19.8501 23.96 19.8601 24.13C19.8601 24.29 20.0801 24.46 20.1201 24.62C20.1501 24.71 20.0201 24.81 19.9501 24.91C19.9201 24.95 19.8201 25 19.8601 25.02C20.1701 25.22 20.2001 25.42 20.1801 25.62L20.1301 25.93C20.1201 26.2 20.1101 26.54 20.1501 26.83C20.1801 27.06 20.1801 27.53 20.1801 28.04C20.1801 29.09 21.0301 29.94 22.0801 29.94C23.1301 29.94 24.0201 29.04 23.9701 27.96C23.9401 27.31 23.9801 26.7 24.2001 26.51V26.05C24.0401 25.93 23.9501 25.9 23.8801 25.87C23.8201 25.83 23.7901 25.79 23.7901 25.74C23.7801 25.65 23.8301 25.56 23.7901 25.47L23.8001 25.49Z" fill="#001B38"></path>
  </g>
  <defs>
    <clipPath id="clip0_7638_62131">
      <rect width="50" height="50" fill="white" transform="translate(5 5)"></rect>
    </clipPath>
  </defs>
</svg>
