<?xml version="1.0" encoding="UTF-8"?>
<svg xmlns="http://www.w3.org/2000/svg" width="61" height="60" viewBox="0 0 61 60" fill="none">
  <path d="M29.52 42.31C28.97 42.3 28.41 42.27 27.86 42.21C27.62 42.18 27.38 42.05 27.15 41.95C27.07 41.91 26.98 41.81 26.91 41.83C26.16 41.94 25.41 42.06 24.64 42.09C24.37 42.1 24.04 42.11 23.83 41.97C23.67 41.87 23.56 41.79 23.35 41.69C23.13 41.59 22.9 41.52 22.67 41.46C22.2 41.35 21.7 41.32 21.2 41.38C20.7 41.43 20.2 41.58 19.74 41.8C19.22 42.05 18.99 42.27 18.69 42.48C18.59 42.55 18.49 42.71 18.41 42.7C17.4 42.57 16.85 43.41 16.08 43.77C15.66 43.96 15.29 43.93 14.91 44.05C14.76 44.09 14.6 44.19 14.56 44.36C14.43 44.91 14.12 45.05 13.64 44.97C13.38 44.93 13.17 45.14 12.95 45.25L12.35 45.55H12.34C12.29 45.45 12.41 45.69 12.39 45.66L12.41 45.7C12.41 45.72 12.43 45.74 12.44 45.77C12.49 45.93 12.45 45.92 12.48 45.87C12.48 45.85 12.5 45.84 12.5 45.83C12.52 45.81 12.43 45.9 12.35 45.9C12.33 45.9 12.3 45.89 12.43 45.93C12.43 45.93 12.51 45.96 12.53 45.98L12.58 46.01H12.59V46.02L12.91 46.24L12.92 46.2C12.96 46.1 12.98 45.99 12.98 45.87C12.98 45.32 13.49 45.33 13.85 45.16C13.94 45.12 14.13 45.09 14.11 45.04C13.83 44.47 14.31 44.35 14.46 44.03C14.61 43.69 14.71 43.31 14.89 42.99C14.98 42.83 15.26 42.8 15.37 42.65C15.84 42.03 16.18 41.1 16.15 40.26C16.15 39.41 15.83 38.59 15.31 38C15.08 37.73 14.85 37.47 14.63 37.23C14.52 37.09 14.41 36.96 14.26 36.86C14.05 36.72 13.72 36.71 13.52 36.56C13.26 36.33 13.08 36.03 12.9 35.73C12.86 35.66 12.93 35.48 12.86 35.45C12.18 35.07 12.23 34.2 11.81 33.67C11.38 33.12 11.2 32.43 11 31.79C10.65 30.65 10.52 29.47 10.54 28.29C10.53 27.92 10.52 27.56 10.67 27.22C10.8 26.91 10.48 26.48 10.57 26.13C10.64 25.83 10.92 25.6 11.08 25.35C11.21 25.1 11.42 24.88 11.55 24.63C11.75 24.25 11.94 23.87 12.21 23.52C12.45 23.16 12.68 22.79 13 22.48C13.14 22.33 13.4 22.28 13.6 22.19C13.65 22.17 13.72 22.17 13.72 22.12C13.83 21.01 14.88 20.7 15.52 20.05C15.79 19.74 16.15 19.52 16.54 19.39C16.85 19.29 17.02 19.12 17.2 18.79C17.42 18.43 18.01 18.54 18.43 18.45C18.52 18.43 18.65 18.46 18.71 18.39C18.86 18.22 18.99 18 19.16 17.86C19.64 17.52 20.11 17.14 20.66 16.92C20.89 16.82 21.19 16.95 21.43 16.88C22.11 16.65 22.82 16.51 23.51 16.32C24.17 16.18 24.84 16.1 25.5 15.98L27.51 15.79C27.79 15.79 28.07 15.67 28.36 15.69C28.56 15.7 28.75 15.87 28.95 15.93C29.04 15.96 29.13 15.89 29.23 15.85C29.35 15.8 29.48 15.67 29.6 15.7C29.96 15.77 30.31 15.94 30.66 15.97C30.86 15.99 31.08 15.73 31.29 15.73C31.77 15.73 32.25 15.79 32.73 15.84C33.21 15.88 33.69 15.96 34.14 16.12C34.47 16.22 34.79 16.29 35.14 16.32C35.94 16.43 36.71 16.78 37.45 17.1C37.52 17.13 37.61 17.13 37.68 17.08C38.08 16.79 38.25 17.14 38.45 17.4C38.53 17.51 38.68 17.52 38.81 17.56C38.96 17.61 39.22 17.51 39.27 17.67C39.44 18.19 39.84 18.03 40.22 17.88C40.58 17.73 40.79 17.74 40.87 18.15C40.9 18.32 41.04 18.4 41.16 18.47L41.9 18.9C42.13 19.06 42.37 19.22 42.59 19.4C42.69 19.48 42.71 19.67 42.78 19.84C43.29 19.53 43.77 19.38 43.71 20.1C43.7 20.22 43.82 20.27 43.9 20.33C44.32 20.64 44.68 20.99 45.05 21.35C45.44 21.69 45.75 22.09 46.06 22.48C46.24 22.7 46.28 23.02 46.33 23.31C46.35 23.39 46.36 23.48 46.42 23.54C46.59 23.7 46.79 23.86 46.99 24.02C47.17 24.19 47.31 24.38 47.43 24.59C48.05 25.65 48.32 26.85 48.45 28.03C48.47 28.31 48.51 28.58 48.51 28.86C48.51 28.96 48.43 29.06 48.36 29.15C48.32 29.21 48.17 29.29 48.21 29.32C48.53 29.58 48.58 29.86 48.56 30.13C48.54 30.4 48.35 30.65 48.33 30.91C48.21 32.05 47.5 32.99 47.12 34.07C46.96 34.41 46.71 34.7 46.47 34.98C46.22 35.26 45.93 35.5 45.76 35.85C45.68 36.01 45.4 36 45.2 36.07C45.12 36.1 45.01 36.16 45.05 36.24C45.25 36.71 44.96 36.67 44.72 36.59C44.62 36.82 44.58 37.05 44.44 37.17C43.9 37.53 43.35 37.86 42.79 38.17C42.64 38.26 42.62 38.56 42.46 38.64C42.16 38.77 41.82 38.79 41.51 38.88C41.39 38.91 41.35 39.11 41.27 39.24C41.22 39.32 41.19 39.52 41.13 39.49C40.48 39.11 40.54 40.09 40.05 40.02C39.38 39.91 39.09 40.65 38.48 40.68C38.26 40.69 38.02 40.62 37.81 40.62C37.72 40.62 37.65 40.72 37.57 40.78C37.41 40.89 37.27 41.05 37.1 41.1C36.85 41.14 36.55 41.02 36.31 41.1C36.07 41.17 35.89 41.44 35.65 41.55C35.52 41.61 35.35 41.53 35.19 41.49C35.13 41.48 35.03 41.39 35 41.43C34.76 41.78 34.49 41.88 34.13 41.92C33.56 42.02 32.98 42 32.42 42.13L31.52 42.33C31.21 42.37 30.91 42.4 30.6 42.42C30.25 42.44 29.9 42.27 29.56 42.31H29.52V46.37L30.9 46.32C31.31 45.79 32.64 45.66 33.2 46.13L33.69 46.07C33.84 45.74 34.09 45.63 34.36 45.55C34.5 45.52 34.64 45.5 34.79 45.48C34.88 45.48 34.95 45.46 35.03 45.43C35.27 45.33 35.49 45.2 35.73 45.11C36.13 44.98 36.52 44.75 36.93 44.68C37.43 44.57 38.09 44.82 38.46 44.44C38.82 44.08 39.28 44.42 39.62 44.18C39.85 44.01 40.08 43.83 40.3 43.66C40.49 43.53 40.7 43.42 40.91 43.35C41.16 43.26 41.48 43.3 41.68 43.12C42.12 42.7 42.61 42.5 43.21 42.37C43.65 42.29 43.93 41.87 44.26 41.57C44.43 41.42 44.55 41.17 44.77 41.14C45.26 41.1 45.5 40.76 45.76 40.4C45.95 40.13 46.36 40.06 46.67 39.9C46.83 39.81 47.06 39.77 47.12 39.61C47.36 38.95 48.03 38.72 48.36 38.17C48.58 37.83 48.81 37.5 49.05 37.17L49.69 36.14C50.07 35.61 50.51 35.09 50.84 34.5C51.13 34 51.17 33.39 51.33 32.84C51.35 32.75 51.34 32.63 51.43 32.59C52 32.27 51.75 31.71 51.75 31.25C51.75 30.95 51.9 30.66 51.92 30.35L52.01 29.57C52.05 29.26 52.12 28.94 52.1 28.62C52.1 28.42 52.2 28.16 52.06 28.01C51.62 27.54 51.83 27.07 51.88 26.54C51.91 26.29 51.81 26.03 51.71 25.8C51.49 25.24 51.14 24.77 51.08 24.14C50.99 23.46 50.44 22.97 50.14 22.38C49.95 22.06 49.84 21.68 49.63 21.36C49.39 21.01 49.04 20.75 48.78 20.44C48.5 20.08 48.29 19.64 48.02 19.25C47.74 18.88 47.42 18.53 47.02 18.33C46.63 18.11 46.32 17.82 46.02 17.51C45.71 17.22 45.41 16.9 44.95 16.83C44.72 16.79 44.68 16.38 44.46 16.26C43.75 15.86 42.95 15.65 42.21 15.34C42.01 15.26 41.9 14.97 41.73 14.81C41.62 14.7 41.53 14.56 41.39 14.51L40.17 14.11C39.76 14 39.34 13.9 38.94 13.77C38.46 13.61 38.04 13.24 37.54 13.13C37.06 13.01 36.55 13.04 36.06 13.01C36.02 13.01 35.95 13.05 35.93 13.01C35.49 12.42 34.91 12.57 34.31 12.71C33.87 12.8 33.42 12.45 32.96 12.3C32.82 12.26 32.68 12.2 32.53 12.18C31.75 12.04 30.96 11.99 30.16 12C29.48 12 28.81 12.22 28.14 12.33C28 12.35 27.86 12.26 27.71 12.26C27.36 12.26 27.01 12.31 26.65 12.35C26.41 12.37 26.18 12.38 25.94 12.38C25.54 12.4 25.14 12.35 24.75 12.45C24.53 12.5 24.34 12.71 24.13 12.76C23.7 12.87 23.28 13.02 22.86 13.16C22.44 13.31 22.02 13.42 21.58 13.38C20.69 13.29 20.18 14.12 19.39 14.19C18.88 14.23 18.41 14.4 17.92 14.51C17.91 14.51 17.88 14.51 17.88 14.51C17.64 15.19 16.91 14.68 16.52 15C16.4 15.09 16.2 15.12 16.17 15.27C16.03 16.05 15.35 15.83 14.91 16.1C14.64 16.26 14.43 16.52 14.21 16.75C14.17 16.79 14.18 16.9 14.13 16.92C13.7 17.1 13.27 17.32 12.86 17.56C12.52 17.76 12.22 18 11.93 18.27C11.66 18.51 11.36 18.72 11.12 18.99C10.82 19.3 10.68 19.74 10.43 20.08C10.21 20.41 9.91 20.67 9.71 21.01L9.38 21.5L9.15 21.89C9.04 22.08 8.93 22.27 8.86 22.47C8.7 22.83 8.71 23.32 8.37 23.52C7.86 23.8 8.24 24.26 8.27 24.62C8.29 24.77 8.36 24.95 8.29 25.06C8.01 25.43 7.79 25.83 7.51 26.23C7.24 26.63 7.29 27.07 7.3 27.5C7.27 28.21 7.01 28.91 7.04 29.64C7.07 30.31 7.27 30.96 7.39 31.61C7.5 32.26 7.53 32.94 7.74 33.58C7.89 34.01 8.21 34.36 8.48 34.72C8.52 34.78 8.58 34.84 8.59 34.92C8.68 35.71 9.04 36.39 9.82 36.74C10.11 36.86 10.11 37.29 10.32 37.53C10.58 37.83 10.93 38.04 11.18 38.33C11.35 38.54 11.42 38.85 11.53 39.12C11.55 39.16 11.53 39.24 11.57 39.26C11.75 39.38 11.94 39.48 12.12 39.59L12.39 39.75C12.39 39.75 12.47 39.77 12.51 39.79C12.56 39.81 12.51 39.92 12.52 39.97C12.54 40.06 12.54 40.14 12.56 40.21C12.59 40.31 12.58 40.38 12.67 40.48C12.71 40.54 12.6 40.56 12.52 40.55C12.49 40.55 12.46 40.55 12.47 40.58C12.44 40.66 12.44 40.77 12.49 40.92C12.52 41 12.5 41.09 12.45 41.13C12.12 41.43 11.77 41.7 11.45 42.01C11.28 42.18 11.15 42.37 11.05 42.59C10.83 43.07 10.7 43.6 10.43 44.04C10.32 44.23 10.19 44.28 9.9 44.74C9.67 45.13 9.51 45.63 9.55 46.14C9.62 46.9 10.16 47.43 10.62 47.84C11.12 48.29 11.82 48.54 12.51 48.52C12.85 48.52 13.19 48.44 13.49 48.33L13.81 48.22L14.05 48.15C14.55 48.04 14.91 47.7 15.35 47.48C15.6 47.35 15.94 47.42 16.2 47.3C16.53 47.14 16.79 46.83 17.12 46.68L18.58 46.05L20.26 45.36C20.43 45.29 20.64 45.21 20.79 45.15C20.9 45.12 21.01 45.09 21.13 45.07C21.36 45.03 21.59 45.02 21.82 44.99C22.24 44.94 22.56 44.76 23.35 44.87C23.74 44.92 24.12 45.17 24.52 45.28C25.34 45.5 26.29 45.93 27.01 45.7C27.93 45.41 28.72 45.52 29.54 45.65V42.25L29.52 42.31Z" fill="#001B38"></path>
  <path d="M36.53 28.52L30.15 35.86C29.81 36.25 29.2 36.25 28.86 35.86L22.48 28.52C21.71 27.19 21.84 25.79 22.5 24.71C23.8 22.57 26.92 22.53 28.52 24.45L29.51 25.64L30.48 24.47C32.2 22.39 35.63 22.66 36.74 25.12C37.19 26.13 37.21 27.34 36.54 28.51L36.53 28.52Z" fill="#001B38"></path>
  <path d="M38.11 29.43C38.54 28.71 38.84 27.85 38.91 26.96C38.95 26.56 39.05 26.16 39.06 25.75C39.06 25.6 39.12 25.43 39.08 25.31C38.62 24.13 37.74 23.15 36.69 22.58C36.33 22.36 35.87 22.2 35.58 21.98C34.75 21.34 33.65 21.09 32.61 21.25C31.57 21.41 30.6 21.96 29.92 22.73C29.8 22.86 29.7 23.08 29.61 23.12C29.46 23.18 29.31 23.26 29.18 23.34C29.06 23.42 28.99 23.47 28.9 23.55C28.74 23.7 28.61 23.87 28.5 24.05C28.45 24.14 28.39 24.23 28.34 24.33L28.22 24.54V24.56H28.21H30.82L30.79 24.53C30.62 24.39 30.47 24.24 30.33 24.08C30.26 23.99 30.27 24 30.27 23.98V23.94C30.27 23.94 30.27 23.87 30.27 23.84C30.28 23.77 30.3 23.69 30.29 23.63C30.29 23.58 30.24 23.55 30.12 23.62C29.72 23.83 29.68 23.75 29.83 23.49C29.92 23.36 29.77 23.34 29.71 23.28C29.55 23.12 29.41 22.95 29.23 22.83C29.19 22.8 29.15 22.78 29.09 22.78C28.91 22.8 28.83 22.74 28.86 22.47C28.89 22.19 28.73 22.05 28.48 22.19C28.19 22.36 28.3 21.96 28.27 21.71C28.27 21.65 28.27 21.5 28.25 21.54C27.9 21.99 27.92 21.62 27.76 21.64C27.6 21.65 27.43 21.73 27.29 21.71C27.22 21.71 27.22 21.48 27.15 21.46C26.83 21.34 26.48 21.15 26.12 21.29C25.96 21.34 25.83 21.19 25.67 21.24C25.56 21.28 25.46 21.51 25.37 21.54C25.23 21.58 25.09 21.52 24.94 21.49C24.91 21.49 24.85 21.32 24.82 21.35C24.57 21.69 24.18 21.22 23.89 21.43C23.62 21.62 23.29 21.64 23 21.79C22.5 22.05 21.99 22.37 21.67 22.86C21.58 23.01 21.48 23.15 21.33 23.25C21.2 23.35 21.39 23.69 21.33 23.83C21.28 23.95 21.06 23.96 20.94 24.05C20.82 24.13 20.72 24.22 20.66 24.33C20.48 24.67 20.36 25.04 20.24 25.42C20.21 25.51 20.03 25.56 19.92 25.64C19.9 25.66 19.83 25.67 19.86 25.7C20.47 26.2 19.95 26.54 20.11 26.97C20.18 27.14 20.2 27.32 20.11 27.51C20.04 27.66 20.11 27.76 20.32 27.85C20.56 27.95 20.25 28.22 20.19 28.44C20.18 28.49 20.11 28.56 20.15 28.58C20.25 28.65 20.44 28.67 20.52 28.73C20.73 28.9 20.93 29.05 21.08 29.22C21.1 29.24 21.1 29.26 21.09 29.29V29.31L21.27 29.56L21.26 29.62C21.24 29.68 21.22 29.75 21.23 29.78C21.33 29.96 21.47 30.1 21.59 30.26L22.26 31.17C22.31 31.23 22.44 31.23 22.47 31.31C22.49 31.36 22.39 31.52 22.38 31.6C22.38 31.64 22.44 31.62 22.48 31.61C22.54 31.61 22.65 31.56 22.65 31.59C22.67 31.7 22.62 31.88 22.67 31.97C22.7 32.02 22.94 31.89 22.98 31.93C23.18 32.11 23.39 32.28 23.48 32.56C23.51 32.66 23.57 32.73 23.66 32.78C23.87 32.89 23.9 33.18 24 33.39C24 33.41 24.05 33.41 24.11 33.37C24.47 33.17 24.31 33.4 24.23 33.58C24.19 33.66 24.24 33.67 24.28 33.68C24.32 33.7 24.51 33.62 24.43 33.72C24.19 34.06 24.48 33.93 24.75 33.8C25 33.68 25.12 33.65 24.92 33.91C24.84 34.02 24.86 34.06 24.88 34.09C24.97 34.23 25.08 34.35 25.16 34.49C25.18 34.52 25.09 34.65 25.04 34.75C25.48 34.46 25.86 34.24 25.48 34.71C25.42 34.79 25.47 34.79 25.48 34.82C25.67 35.05 25.89 35.25 26.06 35.5C26.11 35.57 26.02 35.75 26 35.88C26 35.92 25.98 35.96 26.01 35.97C26.19 36.01 26.44 35.97 26.55 36.07C26.82 36.32 27.03 36.64 27.27 36.92C27.3 36.95 27.33 36.98 27.36 37.01L27.53 37.2C27.59 37.27 27.61 37.4 27.65 37.51C27.68 37.58 27.66 37.75 27.72 37.74C28.15 37.62 28.38 37.66 28.63 37.76C28.87 37.85 29.12 37.99 29.38 37.98C29.92 37.96 30.47 37.86 30.96 37.57C31.19 37.45 31.44 37.22 31.57 37.07C31.62 37 31.67 36.92 31.69 36.83C31.75 36.58 32.14 36.63 32.16 36.35C32.16 36.29 32.38 36.4 32.47 36.41C32.51 36.41 32.56 36.41 32.5 36.35C32.18 36 32.38 36.11 32.58 36.23C32.56 36.12 32.48 35.98 32.53 35.95C32.69 35.84 32.91 35.79 33.06 35.68C33.1 35.65 32.95 35.45 33.01 35.43C33.11 35.39 33.31 35.45 33.42 35.43C33.46 35.43 33.37 35.29 33.34 35.22C33.32 35.17 33.22 35.04 33.27 35.07C33.83 35.4 33.25 34.75 33.51 34.83C33.88 34.94 33.6 34.48 33.83 34.47C33.91 34.47 34.06 34.52 34.15 34.52C34.19 34.52 34.15 34.45 34.15 34.41C34.15 34.34 34.1 34.23 34.15 34.2C34.22 34.16 34.41 34.23 34.45 34.17C34.49 34.11 34.38 33.92 34.39 33.84C34.39 33.79 34.52 33.84 34.6 33.86C34.63 33.86 34.72 33.92 34.7 33.88C34.54 33.6 34.52 33.56 34.65 33.44C35.07 32.99 35.54 32.57 35.88 32.07C36.25 31.53 36.63 30.99 37.05 30.49C37.29 30.21 37.67 30.05 37.89 29.76V29.74H37.9L38.11 29.44L34.6 27.42L34.85 27.08V27.11L34.81 27.14L34.76 27.2L34.65 27.32L34.44 27.56L34.02 28.05C34.17 28.7 33.33 29.68 32.62 29.67L32.32 30.02C32.44 30.36 32.34 30.6 32.18 30.81C32.1 30.92 32 31.01 31.9 31.11C31.87 31.14 31.86 31.14 31.86 31.16C31.86 31.24 31.89 31.35 31.88 31.42C31.86 31.54 31.87 31.68 31.78 31.75C31.68 31.83 31.3 31.68 31.39 31.91C31.48 32.14 31.07 31.89 31.1 32.03C31.12 32.13 31.16 32.25 31.15 32.34C31.15 32.41 31.12 32.46 31.07 32.49C31.01 32.53 30.84 32.47 30.87 32.57C30.93 32.81 30.78 32.85 30.56 32.85C30.4 32.85 30.48 33.06 30.45 33.17C30.44 33.23 30.51 33.37 30.4 33.34C30.17 33.27 30.18 33.41 30.21 33.57C30.23 33.69 30.02 33.62 29.92 33.64C29.86 33.64 29.73 33.59 29.76 33.67C29.88 33.97 29.59 33.92 29.55 34.08C29.5 34.29 29.41 34.46 29.29 34.61C29.24 34.67 29.15 34.7 29.07 34.72C28.99 34.73 28.84 34.81 28.93 34.71C29.01 34.6 29.2 34.63 29.31 34.64C29.33 34.64 29.36 34.68 29.36 34.62C29.37 34.15 29.57 34.48 29.62 34.59C29.66 34.66 29.74 34.59 29.81 34.59C29.87 34.59 29.92 34.62 29.97 34.63C30.04 34.65 30.12 34.67 30.18 34.71C30.19 34.71 30.22 34.56 30.11 34.62C29.72 34.8 29.84 34.56 29.9 34.36C29.93 34.26 29.85 34.25 29.78 34.24C29.61 34.21 29.43 34.19 29.45 34C29.46 33.79 29.19 33.82 29.08 33.71C29.02 33.65 29.06 33.49 29 33.43C28.93 33.36 28.75 33.39 28.7 33.31C28.59 33.12 28.73 32.7 28.39 32.72C28.05 32.74 28.31 32.25 27.89 32.35C27.78 32.37 27.99 32.11 27.93 32.09C27.74 32 27.48 31.97 27.29 31.88C27.24 31.85 27.35 31.69 27.38 31.59C27.4 31.53 27.44 31.44 27.41 31.42C27.23 31.31 26.99 31.24 26.84 31.09C26.75 31 26.83 30.77 26.74 30.68C26.66 30.59 26.46 30.61 26.31 30.58C26.3 30.58 26.25 30.6 26.27 30.58C26.56 30.15 26.28 30.22 26 30.27C25.79 30.31 25.95 30.01 25.95 29.86C25.95 29.81 25.95 29.76 25.94 29.73C25.83 29.57 25.74 29.39 25.57 29.28C25.43 29.18 25.19 29.17 25.01 29.1C24.97 29.09 25.02 29 25.01 28.97C24.96 28.9 24.89 28.85 24.83 28.78C24.79 28.73 24.77 28.67 24.75 28.62C24.71 28.53 24.7 28.41 24.62 28.34C24.58 28.3 24.41 28.38 24.37 28.34C24.19 28.21 23.83 28.23 23.92 27.88C23.96 27.71 23.85 27.68 23.73 27.66C23.67 27.66 23.6 27.65 23.56 27.62H23.54L23.69 27.83L23.68 27.81C23.68 27.79 23.68 27.78 23.68 27.75C23.74 27.63 23.77 27.53 23.83 27.43C23.83 27.43 23.85 27.42 23.83 27.42C23.31 27.55 24 27.21 23.9 27.19C23.87 27.18 23.94 27.13 23.82 27.16C23.21 27.26 23.68 27.05 23.7 26.99C23.71 26.95 23.6 26.93 23.53 26.89C23.52 26.89 23.42 26.89 23.43 26.88C23.51 26.8 23.62 26.73 23.69 26.67C23.75 26.62 23.74 26.58 23.77 26.53C23.79 26.49 23.85 26.45 23.83 26.41C23.8 26.36 23.68 26.29 23.66 26.22C23.63 26.16 23.68 26.12 23.69 26.07C23.69 26.05 23.71 26.02 23.72 26C23.72 25.98 23.72 25.96 23.72 25.94V25.84C23.7 25.78 23.53 25.63 23.75 25.68C24.05 25.77 23.66 25.52 23.54 25.39C23.49 25.34 23.39 25.25 23.43 25.25C23.57 25.25 23.73 25.27 23.92 25.34C24.1 25.41 23.99 25.25 24.02 25.2C24.07 25.12 24.26 25.18 24.34 25.15C24.4 25.11 24.39 24.96 24.48 24.94C24.56 24.91 24.71 25.04 24.79 25.02C24.84 25.01 24.82 24.84 24.85 24.75C24.85 24.73 24.85 24.71 24.87 24.73C25.05 24.96 25.11 25 25.13 24.56C25.14 24.4 25.23 24.62 25.27 24.62C25.32 24.61 25.37 24.47 25.43 24.48C25.47 24.48 25.52 24.66 25.55 24.77C25.55 24.79 25.56 24.85 25.57 24.84C25.62 24.76 25.69 24.65 25.75 24.59C25.77 24.57 25.79 24.68 25.8 24.7C25.83 24.74 25.87 24.77 25.9 24.77C25.95 24.77 26 24.79 26.07 24.7C26.16 24.61 26.06 25.16 26.26 24.67C26.29 24.6 26.31 24.58 26.32 24.59C26.36 24.71 26.37 24.86 26.4 24.96C26.42 25.01 26.44 25.02 26.49 25C26.59 24.95 26.76 24.8 26.85 24.83C26.92 24.85 26.86 25.06 26.91 25.1C26.94 25.13 27.1 25.01 27.15 25.03C27.26 25.07 27.4 25.1 27.36 25.28C27.35 25.35 27.38 25.37 27.42 25.38C27.48 25.41 27.54 25.44 27.59 25.48C27.64 25.53 27.52 25.72 27.57 25.78C27.63 25.85 27.82 25.82 27.87 25.9L27.9 25.96L28.15 26.29L28.36 26.56L28.38 26.58H30.72V26.57L30.76 26.53L31.69 25.54C31.87 25.38 31.96 25.29 32.12 25.19C32.5 24.94 32.95 24.92 33.36 24.86C33.69 24.81 34.1 24.61 34.49 24.73C34.71 24.81 34.8 25.08 34.91 25.25C35.17 25.61 35.04 26.13 35.34 26.4C35.76 26.82 35.55 27.37 35.19 27.71L38.13 29.41L38.11 29.43Z" fill="#001B38"></path>
</svg>
