<?xml version="1.0" encoding="UTF-8"?>
<svg xmlns="http://www.w3.org/2000/svg" width="211" height="70" viewBox="0 0 211 70" fill="none">
  <path d="M114.14 24.0895L122.368 45.5991L130.596 24.0895H137.19L123.587 57.941C121.659 62.8139 118.276 64.36 113.889 64.4182C112.732 64.3981 111.578 64.2576 110.448 64.0026L111.387 58.4189C112.128 58.722 112.919 58.8827 113.722 58.8927C115.646 58.8927 116.931 58.2984 117.746 56.4091L119.149 53.1424L107.592 24.0895H114.138H114.14ZM198.861 23.3526C205.105 23.3526 210.591 26.027 210.591 33.753V52.7709H204.463V49.695C202.363 52.1304 199.094 53.4957 195.36 53.4957C190.75 53.4957 185.557 50.3475 185.557 43.9908C185.557 37.3932 190.75 34.6605 195.36 34.6605C199.154 34.6605 202.419 35.9034 204.463 38.3429V34.0502C204.463 30.7233 201.778 28.7034 197.869 28.7034C194.717 28.7034 191.976 29.892 189.525 32.3275L187.015 27.9906C190.282 24.8404 194.368 23.3546 198.861 23.3546V23.3526ZM166.415 13.1369V52.7709H160.287V48.8517C158.131 51.7048 154.86 53.4857 151.244 53.4857C144.006 53.4857 138.695 47.902 138.695 38.4533C138.695 29.1833 143.95 23.3606 151.244 23.3606C154.744 23.3606 158.012 25.0251 160.287 28.0529V13.1369H166.417H166.415ZM92.3031 13.1369V46.6632H109.458V52.7729H85.4766V13.1369H92.3031ZM179.895 24.0714V52.7709H173.768V24.0714H179.895ZM197.751 38.9171C194.307 38.9171 191.739 40.9369 191.739 44.0872C191.739 47.1772 194.307 49.195 197.751 49.195C200.435 49.195 203.063 48.2032 204.463 46.2355V41.8987C203.063 39.935 200.435 38.9171 197.751 38.9171ZM152.993 28.8861C148.15 28.8861 145.058 32.8596 145.058 38.4513C145.058 43.9788 148.15 47.9582 152.993 47.9582C155.904 47.9542 158.888 46.2958 160.287 44.1554V32.7471C158.888 30.6068 155.912 28.8861 152.993 28.8861ZM176.85 12.9863C178.936 13.0124 180.608 14.715 180.596 16.7991C180.582 18.8832 178.89 20.5638 176.801 20.5658C174.693 20.5276 173.007 18.809 173.009 16.7028C173.049 14.6207 174.766 12.9602 176.85 12.9883V12.9863Z" fill="#001B38"></path>
  <path fill-rule="evenodd" clip-rule="evenodd" d="M70.0843 35C70.0843 54.33 54.3954 70 35.0422 70C15.6889 70 0 54.33 0 35C0 15.67 15.6889 0 35.0422 0C54.3954 0 70.0843 15.67 70.0843 35ZM52.9219 50.4353L37.8935 15.9834C37.5984 15.3048 36.9278 14.8671 36.1849 14.8711H33.9482C33.2113 14.8711 32.5448 15.3068 32.2496 15.9814L17.163 50.4172C17.0666 50.6461 17.0907 50.9051 17.2252 51.1139C17.3617 51.3208 17.5906 51.4472 17.8396 51.4492H21.3974C21.9235 51.4492 22.4013 51.132 22.6021 50.6461L35.0826 20.6516L47.5571 50.6622C47.7619 51.1481 48.2377 51.4653 48.7658 51.4653H52.2453C52.4923 51.4613 52.7211 51.3348 52.8577 51.128C52.9922 50.9232 53.0163 50.6622 52.9219 50.4353Z" fill="#001B38"></path>
</svg>
