<?xml version="1.0" encoding="UTF-8"?>
<svg xmlns="http://www.w3.org/2000/svg" width="61" height="60" viewBox="0 0 61 60" fill="none">
  <path d="M39.9999 25.6801C39.2699 25.6801 38.5299 25.7401 37.8099 25.9001C37.4899 25.9701 37.1399 25.9301 36.8099 25.9801C36.6899 25.9901 36.5399 25.9501 36.4499 26.0001C35.5699 26.5501 34.8199 27.2501 34.1899 27.9901C33.9799 28.2701 33.7199 28.5801 33.4599 28.7501C31.8799 29.6301 31.0599 31.4701 31.0299 33.2201C31.0299 33.3701 31.0999 33.5801 31.0399 33.6501C30.3399 34.6201 30.8599 35.7601 31.0399 36.7401C31.0599 36.8801 31.0599 36.8601 31.0499 36.8801C31.0499 36.9001 31.0499 36.9101 31.0399 36.9301C31.0299 36.9601 31.0099 37.0001 30.9899 37.0401C30.9499 37.1101 30.9099 37.1901 30.8899 37.2601C30.8799 37.3201 30.9099 37.3701 31.0499 37.3801C31.4999 37.3801 31.5199 37.4801 31.2799 37.6901C31.1499 37.8001 31.2799 37.8601 31.3099 37.9401C31.3799 38.1201 31.4499 38.3101 31.5299 38.4901C31.5499 38.5301 31.5699 38.5601 31.6199 38.5801C31.7899 38.6301 31.8399 38.7101 31.6799 38.9201C31.5099 39.1401 31.5599 39.3101 31.8399 39.3101C32.1699 39.3101 31.8599 39.5701 31.7399 39.7801C31.7099 39.8301 31.6099 39.9401 31.6599 39.9301C32.1899 39.7401 31.9799 40.0101 32.0899 40.0801C32.2099 40.1501 32.3899 40.1801 32.4899 40.2501C32.5399 40.2901 32.3999 40.4601 32.4399 40.5101C32.5999 40.7701 32.6999 41.1001 33.0399 41.2101C33.1899 41.2601 33.1599 41.4601 33.2899 41.5201C33.3799 41.5601 33.6099 41.4601 33.6999 41.5001C33.8099 41.5601 33.8599 41.7001 33.9199 41.8201C33.9299 41.8501 33.8499 42.0001 33.8799 41.9901C34.2599 41.9501 34.1399 42.5001 34.4299 42.5801C34.7099 42.6601 34.8699 42.9001 35.1099 43.0301C35.5099 43.2901 35.9399 43.5301 36.4099 43.6301C36.5599 43.6501 36.6999 43.6801 36.8199 43.7801C36.9299 43.8701 37.1699 43.5801 37.3099 43.5901C37.4299 43.5901 37.4799 43.8001 37.5799 43.8901C37.6699 43.9801 37.7699 44.0601 37.8699 44.0901C38.1899 44.2101 38.5299 44.2201 38.8599 44.3101C38.9399 44.3301 38.9999 44.5101 39.0699 44.6101C39.0899 44.6301 39.0999 44.6901 39.1199 44.6601C39.5199 43.9901 39.8299 44.5401 40.1899 44.3801C40.3399 44.3101 40.4899 44.3101 40.6499 44.4101C40.7699 44.4901 40.8599 44.4401 40.9599 44.2501C41.0699 44.0201 41.2799 44.3701 41.4499 44.4701C41.4899 44.4901 41.5399 44.5701 41.5699 44.5401C41.6399 44.4601 41.6899 44.2801 41.7499 44.2201C41.9299 44.0601 42.1099 43.8801 42.2899 43.7901C42.3699 43.7501 42.5099 43.9501 42.5999 43.9401C42.8599 43.9101 43.0999 43.8001 43.3499 43.7201C43.8099 43.5701 44.2699 43.4001 44.7099 43.1601C44.7999 43.1101 44.8399 42.9701 44.9399 42.9401C45.0099 42.9201 45.1599 43.0301 45.2599 43.0501C45.2999 43.0501 45.2999 42.9901 45.3099 42.9401C45.3199 42.8801 45.2899 42.7501 45.3399 42.7401C45.4799 42.7101 45.6699 42.7601 45.7899 42.6901C45.8599 42.6501 45.7499 42.3901 45.8099 42.3401C46.0699 42.1101 46.2799 41.8201 46.6099 41.6701C46.7299 41.6101 46.8099 41.5201 46.8699 41.4001C46.9999 41.1201 47.3299 41.0201 47.5499 40.8001C47.5699 40.7801 47.5699 40.7401 47.5199 40.6801C47.2599 40.3501 47.5199 40.4401 47.7399 40.4601C47.8299 40.4601 47.8399 40.4101 47.8499 40.3601C47.8699 40.3001 47.7499 40.1301 47.8699 40.1601C48.2799 40.2701 48.0899 39.9901 47.8899 39.7601C47.7099 39.5401 47.6399 39.4301 47.9699 39.5201C48.1099 39.5501 48.1399 39.5001 48.1699 39.4601C48.2899 39.2801 48.3699 39.0901 48.4999 38.9101C48.5299 38.8701 48.6899 38.8901 48.8099 38.8801C48.3699 38.5801 48.0099 38.3401 48.6099 38.4201C48.7099 38.4301 48.6999 38.3801 48.7099 38.3401C48.8499 37.9801 48.9499 37.6001 49.0599 37.2401C49.0999 37.1401 49.2999 37.0701 49.4199 36.9801C49.4599 36.9501 49.4999 36.9301 49.4899 36.8901C49.4099 36.6801 49.2299 36.4501 49.2399 36.2701C49.2799 35.7901 49.3299 35.3101 49.3399 34.8301C49.3399 34.7201 49.3099 34.6101 49.3199 34.4901C49.3199 34.4501 49.3999 34.4101 49.4599 34.3601C49.4999 34.3301 49.6399 34.2901 49.5899 34.2801C48.8999 34.1301 49.2799 33.8801 49.1999 33.6601C49.0699 33.2301 49.1899 32.7401 48.8899 32.3501C48.6999 32.1101 48.8999 31.7301 48.6399 31.5201C48.5799 31.4701 48.7799 31.3201 48.8199 31.2201C48.8399 31.1801 48.8399 31.1201 48.7599 31.1401C48.2899 31.2601 48.4799 31.1201 48.6599 30.9801C48.5399 30.9401 48.3799 30.9301 48.3599 30.8601C48.2999 30.6201 48.2999 30.3401 48.2099 30.1101C48.1899 30.0401 47.9399 30.1101 47.9299 30.0401C47.9099 29.9101 48.0099 29.7101 47.9999 29.5701C47.9999 29.5201 47.8399 29.5601 47.7499 29.5701C47.6899 29.5701 47.5299 29.6301 47.5699 29.5901C47.9999 29.0901 47.2099 29.4901 47.3199 29.2201C47.4799 28.8201 46.9299 29.0001 46.9199 28.7401C46.9199 28.6401 46.9799 28.4901 46.9699 28.3801C46.9699 28.3301 46.8899 28.3601 46.8499 28.3501C46.7699 28.3401 46.6399 28.3601 46.6099 28.3001C46.5599 28.2201 46.6199 28.0201 46.5499 27.9601C46.4699 27.9001 46.2599 28.0001 46.1699 27.9601C46.1199 27.9401 46.1599 27.8101 46.1599 27.7301C46.1599 27.7001 46.2099 27.6001 46.1699 27.6201C45.8699 27.7601 45.8199 27.7801 45.6599 27.6201C45.0799 27.1301 44.4299 26.6701 43.7099 26.4201C42.9299 26.1701 42.1399 25.9901 41.3399 25.8901C40.8999 25.8101 40.4499 25.6201 39.9999 25.6201C39.9899 25.6201 39.9599 25.6201 39.9499 25.6201V29.6701C40.2499 29.6901 40.5599 29.6901 40.8499 29.7601C41.2099 29.2401 42.2499 29.5501 42.2699 30.2201C42.3699 30.2701 42.4699 30.3101 42.5599 30.3701C42.8199 30.1701 43.0399 30.1801 43.2099 30.2901C43.2899 30.3501 43.3699 30.4201 43.4499 30.4801C43.4699 30.5101 43.4699 30.5101 43.4999 30.5101C43.5699 30.4901 43.6699 30.4501 43.7299 30.4601C43.8299 30.4601 43.9599 30.4601 44.0099 30.5301C44.0699 30.6301 43.8899 30.9601 44.0999 30.8801C44.3199 30.8001 44.0199 31.1701 44.1499 31.1501C44.2399 31.1401 44.3599 31.1001 44.4399 31.1101C44.4999 31.1101 44.5499 31.1401 44.5599 31.1901C44.5799 31.2401 44.4799 31.3901 44.5699 31.3801C44.7999 31.3501 44.7999 31.4901 44.7299 31.6801C44.6799 31.8101 44.8799 31.7801 44.9799 31.8301C45.0299 31.8501 45.1799 31.8201 45.1099 31.9001C44.9599 32.0901 45.0899 32.0901 45.2399 32.1101C45.3499 32.1301 45.1999 32.2801 45.1699 32.3701C45.1499 32.4201 45.0499 32.5101 45.1299 32.5001C45.4499 32.4901 45.2799 32.7001 45.3799 32.7801C45.5199 32.8901 45.6199 33.0201 45.6799 33.1701C45.7099 33.2901 45.5599 33.4701 45.5699 33.5901C45.5699 33.7001 45.7199 33.7701 45.7699 33.8701C45.7799 33.8901 45.8299 33.9001 45.7699 33.9201C45.3299 34.0801 45.6799 34.1001 45.7999 34.1801C45.8699 34.2301 45.7999 34.3001 45.7899 34.3501C45.7799 34.4001 45.7699 34.4501 45.7599 34.5001L45.6899 34.6801C45.6899 34.6801 45.5599 34.7701 45.6899 34.7901C46.1099 34.8701 45.8699 34.9701 45.6899 35.0601C45.5999 35.1001 45.6499 35.1501 45.6899 35.2001C45.7999 35.3101 45.9099 35.4301 45.7699 35.5301C45.6099 35.6301 45.8099 35.7801 45.7999 35.9101C45.7999 35.9801 45.6499 36.0301 45.6499 36.1001C45.6499 36.1801 45.7699 36.2901 45.7399 36.3601C45.6499 36.5301 45.2599 36.5901 45.4499 36.8201C45.6299 37.0701 45.1199 37.0401 45.3999 37.3301C45.4699 37.4101 45.1499 37.3301 45.1499 37.3701C45.1499 37.5401 45.2599 37.7701 45.2399 37.9501C45.2399 38.0001 45.0499 37.9501 44.9499 37.9401C44.8899 37.9401 44.7999 37.9101 44.7899 37.9401C44.7699 38.1201 44.7799 38.3301 44.6899 38.4701C44.6399 38.5601 44.4099 38.5101 44.3599 38.5901C44.2999 38.6601 44.3599 38.8401 44.3599 38.9701C44.3599 38.9801 44.3899 39.0201 44.3599 39.0101C43.9099 38.7501 44.0499 39.0101 44.1299 39.2501C44.1899 39.4401 43.8999 39.2801 43.7699 39.2701C43.7299 39.2701 43.6799 39.2501 43.6599 39.2701C43.5399 39.3701 43.3699 39.4001 43.2899 39.5401C43.2099 39.6601 43.1999 39.8701 43.1299 40.0201C43.1199 40.0501 43.0399 39.9801 43.0099 39.9901C42.9399 40.0201 42.8899 40.0701 42.8299 40.1101C42.7899 40.1301 42.7299 40.1301 42.6799 40.1401C42.5899 40.1401 42.4999 40.1201 42.4299 40.1601C42.3899 40.1801 42.4299 40.3601 42.3899 40.4001C42.2599 40.5401 42.1599 40.8501 41.9099 40.6301C41.6699 40.4201 41.6899 40.9801 41.4799 40.8501C41.3499 40.7601 41.2399 40.7201 41.1299 40.6601C41.1299 40.6601 41.1199 40.6401 41.1199 40.6501C41.1199 41.1801 40.8899 40.4501 40.8199 40.5401C40.7999 40.5701 40.7499 40.5001 40.7499 40.6201C40.7299 41.2401 40.5699 40.7701 40.4699 40.7301C40.4099 40.7101 40.3499 40.8301 40.2899 40.8901C40.2799 40.9001 40.2699 41.0001 40.2599 40.9901C40.1599 40.9101 40.0699 40.7901 39.9799 40.7301C39.9099 40.6701 39.8299 40.6701 39.7599 40.6401C39.6899 40.6201 39.6299 40.5601 39.5599 40.5801C39.4799 40.6101 39.3899 40.7401 39.2999 40.7601C39.2199 40.7801 39.1499 40.7401 39.0799 40.7301C39.0399 40.7301 39.0099 40.7101 38.9699 40.7101C38.9399 40.7101 38.9099 40.7101 38.8799 40.7201C38.8399 40.7201 38.7899 40.7401 38.7499 40.7501C38.6699 40.7501 38.5399 40.9501 38.5299 40.7201C38.5299 40.3901 38.3599 40.8401 38.2399 40.9801C38.1999 41.0401 38.1299 41.1501 38.1099 41.1201C38.0499 40.9901 38.0099 40.8201 37.9899 40.6001C37.9799 40.3801 37.8399 40.5401 37.7499 40.5201C37.6099 40.5001 37.5599 40.2601 37.4599 40.1901C37.3599 40.1201 37.1899 40.1901 37.0899 40.1001C36.9899 40.0101 36.9799 39.8001 36.8899 39.7201C36.8299 39.6701 36.6699 39.7601 36.5599 39.7701C36.5399 39.7701 36.5099 39.7801 36.5199 39.7501C36.5699 39.4301 36.5099 39.3301 36.1199 39.5801C35.9799 39.6601 36.0899 39.4301 36.0399 39.3901C35.9799 39.3501 35.8299 39.3901 35.7799 39.3301C35.7499 39.2801 35.8299 39.1201 35.8699 39.0101C35.8699 38.9901 35.9199 38.9401 35.9099 38.9401C35.7999 38.9401 35.6599 38.9601 35.5599 38.9401C35.5199 38.9401 35.5799 38.8401 35.5799 38.8101C35.5699 38.7501 35.5599 38.6901 35.5199 38.6601C35.4599 38.6201 35.4399 38.5401 35.3099 38.5501C35.1699 38.5501 35.5799 38.1601 35.1099 38.4001C35.0499 38.4301 35.0099 38.4401 35.0099 38.4201C35.0299 38.2901 35.0999 38.1401 35.1199 38.0101C35.1299 37.9401 35.0999 37.9101 35.0399 37.8901C34.9099 37.8501 34.6699 37.8501 34.5999 37.7601C34.5399 37.6901 34.6799 37.5101 34.6499 37.4301C34.6299 37.3701 34.4199 37.3901 34.3699 37.3401C34.2799 37.2201 34.1599 37.1001 34.2499 36.9201C34.3199 36.7801 34.1499 36.7301 34.1199 36.6301C34.0999 36.5701 34.2899 36.4601 34.2799 36.4001C34.2599 36.3301 34.0799 36.2901 34.0699 36.2101L34.0299 35.8201C33.9899 35.5801 33.9999 35.3401 34.0099 35.0901C34.0299 34.6101 34.1199 34.1301 34.2499 33.6801C34.4199 33.0901 34.7599 32.5901 35.0199 32.0601C35.2199 31.6201 35.3399 31.0901 35.6499 30.6601C35.8499 30.4301 36.1999 30.3401 36.4699 30.2001C37.0399 29.8701 37.7799 29.8501 38.1499 29.4501C38.6599 28.9001 39.3499 28.8901 39.9599 29.0001V25.6001L39.9999 25.6801Z" fill="#001B38"></path>
  <path d="M20.77 10.8698C19.69 10.5598 18.46 10.7798 17.52 11.4198C17.11 11.6998 16.67 11.9898 16.32 12.3998C16.2 12.5498 16.02 12.6898 15.97 12.8398C15.9 13.0398 15.86 13.2398 15.83 13.4398C15.81 13.5898 15.83 13.6598 15.82 13.7698V14.3798C15.8 14.7898 15.79 15.2098 15.78 15.5998C15.77 15.8898 15.75 16.2398 15.6 16.4498C14.73 17.6798 14.49 19.0798 14.41 20.5298C14.41 20.6498 14.46 20.8298 14.4 20.8898C14.02 21.2298 13.9 21.6398 13.85 22.0698C13.82 22.2798 13.81 22.4998 13.79 22.7198C13.78 22.8298 13.76 22.9398 13.75 23.0398C13.74 23.0898 13.73 23.1498 13.72 23.1998L13.67 23.4198C13.62 23.6298 13.63 23.5998 13.61 23.6298L13.57 23.7098C13.54 23.7598 13.51 23.8098 13.48 23.8698C13.41 23.9798 13.35 24.0898 13.32 24.2098C13.29 24.2998 13.31 24.4298 13.46 24.4798C13.91 24.6598 13.93 24.7998 13.7 25.0998C13.59 25.2598 13.73 25.3998 13.78 25.5298C13.9 25.8598 14.09 26.1598 14.31 26.4298C14.36 26.4798 14.41 26.5398 14.48 26.5598C14.71 26.6198 14.82 26.7198 14.83 27.0298C14.83 27.3698 15.12 27.5898 15.44 27.4698C15.81 27.3198 15.77 27.7598 15.93 28.0198C15.97 28.0798 16.01 28.2498 16.04 28.2098C16.36 27.7298 16.33 28.0498 16.47 28.0298C16.6 27.9998 16.75 27.8998 16.87 27.8998C16.93 27.8998 16.93 28.1198 16.99 28.1398C17.27 28.2398 17.52 28.4298 17.85 28.3398C18 28.2998 18.07 28.4798 18.21 28.4598C18.31 28.4398 18.45 28.2398 18.54 28.2398C18.67 28.2398 18.77 28.3398 18.87 28.4198C18.9 28.4398 18.88 28.6098 18.91 28.5898C19.23 28.3698 19.34 28.9398 19.62 28.8998C19.9 28.8598 20.12 29.0398 20.37 29.0998C20.81 29.2198 21.24 29.3798 21.71 29.3898C21.85 29.3898 21.99 29.4098 22.11 29.4898C22.22 29.5698 22.44 29.2598 22.58 29.2598C22.7 29.2598 22.76 29.4698 22.85 29.5598C22.94 29.6498 23.03 29.7298 23.13 29.7598C23.43 29.8698 23.75 29.9298 24.05 30.0598C24.12 30.0898 24.15 30.2698 24.2 30.3798C24.21 30.4098 24.22 30.4698 24.24 30.4398C24.73 29.8698 24.93 30.4398 25.28 30.3898C25.43 30.3698 25.58 30.4098 25.69 30.5498C25.73 30.6098 25.78 30.6298 25.83 30.6198C25.93 30.6198 26.04 30.5898 26.16 30.5198C26.42 30.3498 26.67 30.7598 26.99 30.8698C27.06 30.8998 27.13 30.9798 27.2 30.9398C27.35 30.8598 27.47 30.6698 27.6 30.5898C27.96 30.3898 28.26 30.1498 28.55 29.9398C28.67 29.8598 28.92 29.9598 29.06 29.8798C29.47 29.6398 29.79 29.2798 30.06 28.8798C30.18 28.6898 30.3 28.4998 30.39 28.2998C30.44 28.1998 30.48 28.0998 30.52 27.9898L30.61 27.7398L30.83 27.0798C30.86 26.9898 30.79 26.8698 30.84 26.7798C30.88 26.7198 31.06 26.6998 31.15 26.6598C31.19 26.6398 31.13 26.5898 31.11 26.5498C31.08 26.4998 30.98 26.4298 31.01 26.3898C31.1 26.2898 31.28 26.2098 31.33 26.0898C31.36 26.0198 31.12 25.8898 31.13 25.8098C31.19 25.4798 31.22 25.1498 31.42 24.8598C31.49 24.7498 31.53 24.6498 31.52 24.5198C31.51 24.2298 31.74 23.9998 31.87 23.7398C31.88 23.7198 31.87 23.6798 31.79 23.6398C31.42 23.4398 31.71 23.4198 31.91 23.3698C32 23.3498 31.98 23.2898 31.97 23.2498C31.97 23.1898 31.8 23.0698 31.93 23.0698C32.35 23.0498 32.09 22.8698 31.83 22.6998C31.59 22.5398 31.5 22.4498 31.84 22.4498C31.98 22.4498 32 22.3998 32.02 22.3498C32.1 22.1598 32.14 21.9698 32.23 21.7798C32.25 21.7398 32.41 21.7298 32.52 21.7098C32.03 21.4898 31.65 21.2898 32.26 21.2998C32.36 21.2998 32.34 21.2498 32.35 21.2198C32.45 20.8598 32.52 20.4998 32.64 20.1498C32.68 20.0498 32.88 19.9998 33 19.9298C33.04 19.9098 33.08 19.8898 33.07 19.8498C33.01 19.6498 32.85 19.4198 32.88 19.2498C32.92 19.0198 32.98 18.7998 33.05 18.5798C33.11 18.3398 33.19 18.2298 33.28 17.6998C33.31 17.4898 33.3 17.2898 33.31 17.0798C33.31 17.0098 33.39 16.9298 33.45 16.8498C33.48 16.7998 33.62 16.7198 33.58 16.6998C32.86 16.3998 33.16 15.9698 32.96 15.5998C32.57 14.9098 32.15 14.0798 31.31 13.8198C31.05 13.7398 30.84 13.5898 30.6 13.4698C30.46 13.3998 30.39 13.3598 30.34 13.3398C30.28 13.3198 30.21 13.3098 30.13 13.3398C30.06 13.3598 30.05 13.1198 30.01 13.0198C29.99 12.9798 29.96 12.9398 29.92 13.0198C29.73 13.4598 29.73 13.2198 29.74 12.9998C29.63 13.0698 29.53 13.1898 29.47 13.1598C29.26 13.0498 29.07 12.8698 28.86 12.7698C28.8 12.7398 28.68 12.9598 28.62 12.9198C28.52 12.8398 28.47 12.6298 28.38 12.5298C28.34 12.4898 28.26 12.6298 28.2 12.6898C28.16 12.7298 28.08 12.8798 28.08 12.8198C28.11 12.1698 27.75 12.9698 27.68 12.6898C27.58 12.2898 27.26 12.7398 27.11 12.5298C27.06 12.4498 27.03 12.2898 26.98 12.2098C26.96 12.1698 26.91 12.2398 26.87 12.2498C26.79 12.2798 26.7 12.3698 26.65 12.3398C26.57 12.2898 26.54 12.0898 26.45 12.0698C26.36 12.0598 26.23 12.2398 26.13 12.2598C26.08 12.2698 26.06 12.1398 26.03 12.0598C26.02 12.0298 26.02 11.9198 26 11.9598C25.8 12.2198 25.75 12.2498 25.57 12.1798C24.98 11.9998 24.4 11.7598 23.8 11.6698C23.15 11.5698 22.5 11.4698 21.87 11.3098C21.51 11.2198 21.2 10.9398 20.84 10.8798C20.83 10.8798 20.81 10.8798 20.8 10.8798L19.75 14.7898L20.99 15.1198C21.51 14.6998 22.75 15.0298 23.06 15.6698L23.5 15.7898C23.76 15.5398 24.01 15.5198 24.27 15.5698C24.4 15.5998 24.53 15.6398 24.66 15.6898C24.7 15.7098 24.71 15.7198 24.74 15.7098C24.83 15.6798 24.92 15.6098 25 15.5898C25.14 15.5598 25.29 15.4998 25.41 15.5498C25.55 15.6198 25.62 16.0298 25.81 15.8498C26 15.6798 25.97 16.1598 26.12 16.0798C26.22 16.0198 26.33 15.9398 26.42 15.9098C26.5 15.8798 26.57 15.8898 26.63 15.9298C26.7 15.9698 26.74 16.1498 26.83 16.0898C27.05 15.9398 27.18 16.0698 27.31 16.2698C27.4 16.4198 27.58 16.2698 27.72 16.2498C27.79 16.2398 27.9 16.1098 27.93 16.2298C28 16.4798 28.13 16.4098 28.29 16.3198C28.41 16.2598 28.46 16.4798 28.54 16.5698C28.58 16.6198 28.6 16.7598 28.67 16.6998C28.92 16.4698 29.04 16.7598 29.23 16.7298C29.35 16.7098 29.49 16.7098 29.58 16.7098C29.61 16.6998 29.65 16.6898 29.68 16.7098C29.73 16.7298 29.66 16.9198 29.66 16.9498C29.66 16.9798 29.76 16.9198 29.82 16.9298C29.82 16.9298 29.87 16.9098 29.82 16.9498C29.44 17.1998 29.74 17.0298 29.85 17.0298C29.92 17.0298 29.84 17.0698 29.83 17.0898C29.81 17.1098 29.82 17.1198 29.8 17.1298C29.78 17.1498 29.75 17.1598 29.72 17.1698C29.71 17.1698 29.59 17.1698 29.72 17.1898C29.92 17.2198 29.96 17.2498 29.93 17.2598C29.89 17.2698 29.8 17.2398 29.69 17.3098C29.59 17.3498 29.62 17.4398 29.65 17.5198C29.71 17.7098 29.79 17.8898 29.61 18.0198C29.42 18.1598 29.59 18.4098 29.55 18.5898C29.53 18.6998 29.37 18.7698 29.34 18.8698C29.32 18.9898 29.44 19.1498 29.39 19.2598C29.28 19.5098 28.84 19.6798 29.03 19.9998C29.22 20.3198 28.67 20.4198 28.97 20.7598C29.05 20.8498 28.71 20.8398 28.72 20.9098C28.74 21.1598 28.85 21.4398 28.87 21.6898C28.87 21.7598 28.67 21.7698 28.57 21.8198C28.51 21.8498 28.41 21.8698 28.41 21.9098C28.41 22.1698 28.47 22.4498 28.42 22.7098C28.39 22.8598 28.15 22.9598 28.11 23.1098C28.08 23.2498 28.19 23.4398 28.24 23.5998C28.24 23.6098 28.29 23.6398 28.26 23.6398C27.73 23.6698 27.94 23.8898 28.13 24.1198C28.27 24.2898 27.93 24.3598 27.8 24.4698C27.76 24.5098 27.71 24.5398 27.69 24.5798C27.61 24.8098 27.5 25.0298 27.48 25.2698C27.47 25.4798 27.58 25.7198 27.61 25.9398C27.61 25.9898 27.51 25.9998 27.5 26.0398C27.46 26.1398 27.46 26.2498 27.42 26.3498C27.4 26.4198 27.36 26.4798 27.32 26.5498C27.26 26.6598 27.17 26.7598 27.14 26.8798C27.14 26.9198 27.3 26.9598 27.31 26.9898C27.35 27.0498 27.52 27.3198 27.24 27.1698C27.02 26.9898 27.31 27.4698 27.13 27.3598C27.04 27.2798 26.98 27.2198 26.94 27.1398C26.94 27.1398 26.94 27.1198 26.94 27.1298C27 27.6498 26.85 26.9098 26.87 26.9898C26.87 27.0098 26.87 26.9398 26.86 27.0598C26.78 27.6698 26.79 27.1598 26.76 27.1198C26.68 27.0798 26.56 27.1598 26.45 27.1998C26.43 27.1998 26.39 27.2998 26.38 27.2798C26.27 27.1598 26.17 27.0098 26.05 26.9098C25.95 26.8298 25.84 26.7998 25.74 26.7498C25.64 26.6998 25.56 26.6198 25.45 26.6198C25.32 26.6198 25.17 26.7098 25.04 26.7198C24.92 26.7198 24.82 26.6698 24.71 26.6398L24.55 26.5898C24.55 26.5898 24.46 26.5898 24.42 26.5798H24.23C24.12 26.5798 23.93 26.7598 23.9 26.5198C23.85 26.1798 23.66 26.6198 23.52 26.7498C23.46 26.7998 23.39 26.9198 23.36 26.8798C23.26 26.7298 23.17 26.5698 23.1 26.3398C23.03 26.1198 22.86 26.2798 22.74 26.2498C22.54 26.2098 22.39 25.9898 22.2 25.9098C22.02 25.8398 21.81 25.9098 21.63 25.8498C21.46 25.7798 21.32 25.5598 21.15 25.4898C21.03 25.4498 20.87 25.5698 20.73 25.6098C20.71 25.6098 20.68 25.6398 20.66 25.6098C20.53 25.2798 20.34 25.1798 20.02 25.5398C19.9 25.6698 19.87 25.4098 19.78 25.3898C19.67 25.3698 19.52 25.4698 19.42 25.4198C19.35 25.3898 19.31 25.1998 19.27 25.0698C19.27 25.0498 19.27 24.9798 19.25 24.9898C19.11 25.0398 18.96 25.1098 18.83 25.1398C18.78 25.1498 18.77 25.0398 18.73 25.0098C18.66 24.9598 18.59 24.9098 18.51 24.8898C18.4 24.8698 18.3 24.8298 18.17 24.8898C18.03 24.9698 18.06 24.3998 17.81 24.8598C17.78 24.9198 17.74 24.9498 17.73 24.9298C17.62 24.7998 17.52 24.6298 17.41 24.5098C17.35 24.4498 17.27 24.4298 17.19 24.4498C17.07 24.5098 17.02 24.6998 16.94 24.6998C16.89 24.6998 16.98 24.5098 16.97 24.4898C16.97 24.4798 16.81 24.6098 16.77 24.5898C16.71 24.5698 16.59 24.5298 16.7 24.4198C16.79 24.3398 16.64 24.3498 16.63 24.2998C16.61 24.2698 16.83 24.2298 16.83 24.2098C16.83 24.1898 16.67 24.1598 16.68 24.1298C16.99 23.1898 17.32 22.2098 17.64 21.2498C17.89 20.5098 18.2 19.7898 18.37 19.0298C18.51 18.3998 18.42 17.7298 18.53 17.0898C18.59 16.7198 18.87 16.3798 19 16.0198C19.14 15.6398 19.35 15.2498 19.5 14.8598C19.7 14.3098 19.65 14.5498 19.57 14.3798C19.45 14.2198 19.52 14.0798 19.62 14.0398C19.72 13.9998 19.83 14.0498 19.9 14.1298L20.78 10.8498L20.77 10.8698Z" fill="#001B38"></path>
  <path d="M14.27 34.23C14.11 34.8 13.95 35.36 13.79 35.94C13.71 36.19 13.53 36.41 13.39 36.64C13.34 36.72 13.23 36.8 13.22 36.88C13.22 37.68 13.2 38.54 13.19 39.32C13.19 39.61 13.17 39.96 13.02 40.18C12.17 41.42 11.94 42.82 11.88 44.27C11.88 44.39 11.93 44.57 11.88 44.63C11.69 44.8 11.57 44.99 11.49 45.19C11.46 45.24 11.39 45.53 11.37 45.7C11.34 45.9 11.35 46.11 11.37 46.31C11.45 47.14 11.87 47.86 12.33 48.46C12.47 48.62 12.45 48.6 12.46 48.63L12.49 48.7C12.49 48.7 12.52 48.8 12.53 48.85C12.56 48.95 12.59 49.06 12.64 49.15C12.68 49.22 12.76 49.27 12.89 49.2C13.3 48.95 13.38 49.03 13.41 49.37C13.43 49.55 13.6 49.53 13.71 49.58C13.98 49.69 14.26 49.77 14.55 49.81C14.61 49.81 14.67 49.82 14.73 49.78C14.91 49.67 15.03 49.67 15.21 49.9C15.4 50.14 15.69 50.15 15.82 49.86C15.97 49.52 16.2 49.89 16.32 50.07C16.35 50.11 16.43 50.24 16.42 50.19C16.35 49.63 16.54 49.92 16.61 49.84C16.69 49.75 16.74 49.6 16.83 49.54C16.87 49.51 16.97 49.7 17.02 49.69C17.26 49.65 17.53 49.7 17.72 49.47C17.8 49.37 17.94 49.49 18.03 49.41C18.09 49.35 18.1 49.11 18.16 49.06C18.25 49 18.37 49.05 18.48 49.06C18.51 49.06 18.58 49.22 18.59 49.19C18.72 48.85 19.05 49.3 19.23 49.14C19.41 48.98 19.64 49.03 19.85 48.97C20.21 48.87 20.59 48.82 20.92 48.62C21.02 48.56 21.12 48.51 21.25 48.53C21.36 48.55 21.38 48.18 21.47 48.12C21.55 48.07 21.69 48.22 21.79 48.26C21.89 48.3 21.99 48.33 22.08 48.31C22.34 48.26 22.59 48.18 22.86 48.15C22.92 48.15 23.03 48.29 23.11 48.37C23.13 48.39 23.16 48.44 23.16 48.41C23.24 47.68 23.64 48.1 23.87 47.9C23.97 47.81 24.09 47.78 24.23 47.86C24.34 47.92 24.4 47.86 24.44 47.66C24.49 47.43 24.71 47.76 24.86 47.84C24.89 47.86 24.94 47.94 24.96 47.9C25 47.81 25.01 47.63 25.06 47.57C25.19 47.4 25.32 47.25 25.46 47.16C25.52 47.12 25.65 47.32 25.72 47.32C25.93 47.31 26.12 47.24 26.32 47.2L26.89 47.1C26.95 47.1 27.19 47.03 27.35 46.98C27.53 46.93 27.7 46.84 27.87 46.76C28.02 46.69 28.09 46.51 28.23 46.45C28.33 46.41 28.52 46.48 28.65 46.45C28.71 46.44 28.71 46.35 28.73 46.29C28.75 46.21 28.73 46.08 28.78 46.04C28.95 45.93 29.21 45.88 29.35 45.71C29.43 45.61 29.27 45.37 29.32 45.27C29.56 44.79 29.67 44.3 29.85 43.8C29.91 43.61 29.94 43.43 29.89 43.24C29.8 42.8 29.87 42.33 29.76 41.85C29.75 41.81 29.7 41.77 29.62 41.77C29.18 41.79 29.38 41.56 29.45 41.32C29.48 41.22 29.41 41.17 29.36 41.11C29.29 41.04 29.08 41.06 29.14 40.94C29.33 40.54 28.95 40.56 28.66 40.68C28.41 40.82 28.3 40.85 28.48 40.58C28.56 40.46 28.53 40.43 28.5 40.39C28.4 40.25 28.28 40.14 28.19 40C28.17 39.97 28.25 39.84 28.3 39.73C27.87 40.05 27.51 40.29 27.86 39.79C27.92 39.7 27.86 39.7 27.85 39.68C27.64 39.46 27.41 39.26 27.22 39.02C27.17 38.95 27.24 38.76 27.25 38.64C27.25 38.6 27.26 38.56 27.23 38.55C27.05 38.52 26.79 38.57 26.68 38.47C26.39 38.23 26.16 37.92 25.9 37.65C25.84 37.59 25.76 37.54 25.71 37.46C25.69 37.43 25.73 37.35 25.75 37.29C25.76 37.25 25.85 37.13 25.81 37.15C25.21 37.51 25.37 37.1 25.23 37.01C24.93 36.82 24.85 36.39 24.47 36.27C24.22 36.19 24.31 35.8 24.02 35.76C23.96 35.76 24.09 35.55 24.11 35.45C24.11 35.41 24.11 35.36 24.05 35.41C23.67 35.7 23.8 35.5 23.93 35.32C23.82 35.33 23.67 35.39 23.65 35.35C23.55 35.18 23.51 34.96 23.41 34.79C23.38 34.74 23.17 34.88 23.15 34.82C23.12 34.72 23.2 34.52 23.18 34.41C23.18 34.37 23.04 34.44 22.96 34.47C22.91 34.49 22.77 34.58 22.8 34.53C23.18 34 22.48 34.53 22.57 34.27C22.71 33.9 22.23 34.15 22.23 33.92C22.23 33.84 22.3 33.69 22.31 33.6C22.31 33.56 22.24 33.6 22.2 33.6C22.13 33.6 22.01 33.64 21.99 33.59C21.96 33.52 22.04 33.34 21.99 33.29C21.93 33.25 21.73 33.34 21.65 33.32C21.6 33.31 21.66 33.19 21.68 33.11C21.68 33.08 21.74 32.99 21.71 33.01C21.42 33.15 21.37 33.16 21.26 33.01C21.16 32.9 21.06 32.78 20.95 32.66L20.8 32.48C20.73 32.4 20.6 32.28 20.5 32.19C20.06 31.8 19.5 31.51 18.92 31.41C17.66 31.19 16.42 31.61 15.53 32.44C15.04 32.89 14.49 33.45 14.34 34.12C14.34 34.14 14.34 34.17 14.33 34.2L18.25 35.2C18.25 35.2 18.22 35.29 18.17 35.32C17.97 35.13 17.96 34.97 18.02 34.96C18.08 34.95 18.1 35.11 17.96 35.35C17.94 35.35 17.92 35.33 17.91 35.32C18 35.18 18.06 35.12 18.12 35.08C18.21 35.08 18.34 35.18 18.43 35.26C18.53 35.35 18.62 35.46 18.71 35.56C18.73 35.6 18.73 35.6 18.76 35.61C18.84 35.61 18.95 35.6 19.02 35.61C19.14 35.64 19.28 35.65 19.34 35.74C19.41 35.85 19.23 36.22 19.47 36.15C19.7 36.08 19.43 36.47 19.57 36.46C19.67 36.46 19.8 36.42 19.89 36.43C19.96 36.43 20.01 36.47 20.04 36.52C20.07 36.58 20 36.75 20.1 36.73C20.34 36.69 20.38 36.85 20.36 37.06C20.34 37.22 20.56 37.16 20.68 37.2C20.74 37.22 20.89 37.16 20.85 37.26C20.77 37.49 20.91 37.48 21.07 37.47C21.19 37.47 21.11 37.66 21.12 37.77C21.12 37.83 21.06 37.95 21.14 37.93C21.46 37.83 21.38 38.12 21.54 38.18C21.74 38.25 21.91 38.35 22.05 38.49C22.16 38.6 22.13 38.85 22.23 38.97C22.31 39.08 22.48 39.1 22.61 39.16C22.63 39.16 22.68 39.16 22.65 39.21C22.4 39.6 22.72 39.44 22.86 39.45C22.95 39.45 22.94 39.57 22.98 39.63C23.01 39.68 23.05 39.73 23.08 39.79L23.18 40C23.18 40 23.16 40.17 23.27 40.1C23.65 39.9 23.54 40.15 23.5 40.35C23.48 40.45 23.56 40.46 23.63 40.47C23.8 40.49 23.98 40.5 23.98 40.7C23.98 40.91 24.25 40.87 24.37 40.97C24.44 41.03 24.4 41.19 24.47 41.25C24.54 41.32 24.73 41.28 24.78 41.36C24.91 41.55 24.79 41.97 25.13 41.94C25.47 41.91 25.25 42.41 25.66 42.29C25.76 42.26 25.58 42.53 25.64 42.56C25.84 42.64 26.1 42.66 26.3 42.74C26.35 42.76 26.26 42.94 26.23 43.04C26.23 43.11 26.14 43.16 26.16 43.16C26.22 43.14 26.36 43.09 26.39 43.12C26.42 43.14 26.21 43.23 26.23 43.23C26.23 43.23 26.4 43.23 26.49 43.25C26.49 43.25 26.55 43.25 26.52 43.25C26.02 43.29 26.27 43.26 26.52 43.36C26.69 43.43 26.38 43.4 26.28 43.37C26.25 43.37 26.21 43.36 26.21 43.36C26.18 43.37 26.14 43.36 26.16 43.4C26.19 43.44 26.29 43.57 26.31 43.67C26.31 43.69 26.25 43.61 26.25 43.61C26.24 43.61 26.22 43.63 26.21 43.64C26.21 43.64 26.18 43.63 26.16 43.61L26.12 43.57C26.12 43.57 26.03 43.57 25.99 43.57C25.94 43.59 25.93 43.77 25.88 43.8C25.68 43.91 25.53 44.24 25.25 44.01C24.98 43.78 24.94 44.37 24.71 44.25C24.56 44.17 24.42 44.14 24.28 44.08C24.28 44.08 24.27 44.06 24.27 44.08C24.29 44.62 23.98 43.92 23.89 44.03C23.86 44.06 23.8 44 23.8 44.13C23.84 44.76 23.59 44.3 23.46 44.3C23.38 44.3 23.34 44.43 23.28 44.51C23.27 44.52 23.28 44.62 23.27 44.62C23.14 44.57 23 44.48 22.87 44.44C22.77 44.41 22.68 44.44 22.58 44.44C22.49 44.44 22.39 44.41 22.32 44.46C22.23 44.52 22.17 44.67 22.08 44.73C22 44.79 21.9 44.79 21.81 44.81C21.77 44.82 21.72 44.83 21.67 44.84C21.64 44.85 21.6 44.87 21.57 44.89L21.43 44.98C21.35 45.03 21.31 45.27 21.17 45.08C20.98 44.8 21.05 45.27 21.01 45.45C21 45.52 21 45.66 20.96 45.63C20.83 45.55 20.69 45.44 20.54 45.28C20.39 45.12 20.35 45.33 20.25 45.37C20.09 45.43 19.89 45.3 19.72 45.32C19.57 45.34 19.45 45.5 19.29 45.52C19.14 45.54 18.94 45.4 18.79 45.43C18.69 45.45 18.63 45.63 18.55 45.73C18.54 45.75 18.52 45.78 18.5 45.76C18.26 45.53 18.08 45.53 18.02 45.99C18 46.16 17.85 45.94 17.78 45.97C17.69 46 17.64 46.16 17.54 46.16C17.47 46.16 17.36 46.01 17.27 45.92C17.26 45.91 17.23 45.85 17.22 45.86C17.14 45.97 17.08 46.1 16.99 46.19C16.96 46.22 16.9 46.13 16.86 46.12C16.79 46.11 16.72 46.09 16.65 46.12C16.56 46.15 16.47 46.16 16.41 46.29C16.35 46.43 16.11 45.91 16.15 46.43C16.15 46.5 16.15 46.54 16.12 46.53C15.98 46.46 15.84 46.36 15.71 46.31C15.64 46.28 15.58 46.31 15.53 46.36C15.48 46.42 15.43 46.51 15.38 46.59C15.32 46.67 15.36 46.71 15.32 46.74C15.29 46.78 15.24 46.56 15.22 46.56C15.21 46.56 15.18 46.75 15.16 46.76C15.11 46.79 15.02 46.85 15.03 46.69C15.04 46.57 14.96 46.69 14.92 46.67C14.9 46.66 15 46.48 15 46.47C15 46.45 14.85 46.57 14.85 46.53V46.51C14.85 46.51 14.81 46.44 14.8 46.41C14.77 46.34 14.77 46.27 14.79 46.2C14.93 45.77 15.07 45.34 15.21 44.92C15.45 44.18 15.76 43.45 15.92 42.69C16.05 42.06 15.96 41.39 16.06 40.75C16.12 40.38 16.39 40.04 16.52 39.67C16.79 38.91 17.33 38.09 17.22 37.39C17.08 36.48 17.35 35.75 17.66 35.04L14.37 34.2L14.27 34.23Z" fill="#001B38"></path>
</svg>
