<?xml version="1.0" encoding="UTF-8"?>
<svg xmlns="http://www.w3.org/2000/svg" width="290" height="73" viewBox="0 0 290 73" fill="none">
  <path d="M277.767 42.6026V48.4508C277.767 49.8524 277.429 50.9158 276.752 51.6408C276.076 52.3657 275.157 52.7524 274.191 52.7041C273.224 52.7524 272.354 52.3174 271.726 51.6408C271.097 50.9158 270.759 49.8524 270.759 48.4508V28.9728C270.759 25.8312 271.919 24.2362 274.191 24.2362C275.351 24.2362 276.172 24.6229 276.704 25.3478C277.236 26.0728 277.477 27.1845 277.526 28.5861C278.202 27.3778 279.072 26.2662 280.087 25.3478C280.957 24.6229 282.117 24.2362 283.616 24.2362C285.114 24.2362 286.564 24.6229 287.917 25.3478C289.319 26.0728 289.995 27.0395 289.995 28.2961C290.044 29.1178 289.705 29.8911 289.125 30.4228C288.642 30.9544 287.917 31.2444 287.192 31.2444C286.564 31.1478 285.936 31.0028 285.356 30.7611C284.534 30.4711 283.616 30.3261 282.746 30.2778C281.827 30.2294 280.957 30.5194 280.232 31.0994C279.507 31.7277 278.976 32.5977 278.734 33.516C278.347 34.7244 278.106 35.981 278.009 37.286C277.816 38.736 277.767 40.5243 277.767 42.6026ZM260.368 40.2343H246.689C246.689 41.6842 247.028 43.1342 247.656 44.4392C248.719 46.7108 251.039 48.1608 253.553 48.1125C254.326 48.1125 255.099 48.0158 255.873 47.8225C256.598 47.6292 257.274 47.2908 257.903 46.9042C258.531 46.5175 259.111 46.0342 259.691 45.5508C260.223 45.0675 260.948 44.4392 261.818 43.6175C262.253 43.2792 262.784 43.1342 263.364 43.1342C263.993 43.0859 264.621 43.3276 265.104 43.7142C265.587 44.1492 265.829 44.7775 265.781 45.4059C265.732 46.1792 265.491 46.9525 265.056 47.6292C264.476 48.5958 263.703 49.4175 262.833 50.0458C261.673 50.9158 260.416 51.5441 259.063 51.9791C257.371 52.5107 255.631 52.8007 253.843 52.7524C249.348 52.7524 245.868 51.4474 243.355 48.8858C240.841 46.3242 239.633 42.8442 239.633 38.446C239.585 36.4643 239.923 34.531 240.551 32.6944C241.131 31.0028 242.05 29.4561 243.258 28.1511C244.466 26.8461 245.964 25.8795 247.608 25.2512C249.444 24.5745 251.378 24.2362 253.359 24.2362C256.114 24.2362 258.434 24.8162 260.416 25.9762C262.253 27.0395 263.799 28.5861 264.814 30.4711C265.781 32.1627 266.264 34.096 266.264 36.0777C266.264 37.8176 265.781 38.9776 264.766 39.5093C263.557 39.9443 262.156 40.2343 260.368 40.2343ZM246.641 36.2227H259.353C259.159 33.806 258.531 32.0177 257.419 30.8577C256.308 29.6494 254.809 29.0695 252.973 29.0695C251.329 29.0211 249.783 29.6978 248.671 30.9061C247.559 32.1144 246.883 33.9027 246.641 36.2227ZM228.13 48.7408V48.0641C227.308 49.0308 226.39 49.9008 225.326 50.6741C224.408 51.3508 223.441 51.8824 222.33 52.2208C221.218 52.5591 220.01 52.7524 218.85 52.7524C217.255 52.7524 215.66 52.4141 214.21 51.6891C212.76 50.9641 211.503 49.9491 210.488 48.6441C209.425 47.2425 208.603 45.6959 208.12 44.0042C207.588 42.1192 207.298 40.1859 207.298 38.2526C207.298 33.8544 208.362 30.4711 210.488 28.0061C212.615 25.5412 215.418 24.3329 218.947 24.3329C220.977 24.3329 222.668 24.6712 224.07 25.3478C225.616 26.1695 226.97 27.2328 228.13 28.5378V18.1946C228.13 16.7446 228.42 15.6813 229 14.9563C229.58 14.2313 230.498 13.7964 231.465 13.8447C232.528 13.8447 233.35 14.183 233.93 14.8597C234.51 15.5363 234.8 16.5513 234.8 17.8563V48.7408C234.8 50.0941 234.51 51.0608 233.881 51.7374C233.253 52.4141 232.383 52.7524 231.513 52.7524C230.595 52.7524 229.725 52.4141 229.145 51.7374C228.42 51.0124 228.13 49.9974 228.13 48.7408ZM214.355 38.446C214.307 40.0893 214.597 41.7809 215.225 43.3276C215.708 44.5359 216.578 45.5992 217.642 46.3242C218.657 47.0008 219.817 47.3392 221.025 47.3392C222.233 47.3392 223.393 47.0008 224.408 46.3725C225.471 45.6475 226.341 44.6325 226.825 43.4242C227.453 42.1192 227.743 40.4276 227.743 38.446C227.791 36.8027 227.453 35.1594 226.825 33.661C226.293 32.4044 225.471 31.3411 224.36 30.5678C223.345 29.8911 222.185 29.5044 220.977 29.5044C219.768 29.5044 218.56 29.8911 217.545 30.6161C216.482 31.4377 215.66 32.5011 215.177 33.7577C214.597 35.2077 214.307 36.851 214.355 38.446ZM193.04 29.9394L196.085 26.8945L192.605 23.4145L193.089 23.5112L193.282 23.5595C194.635 23.8979 195.94 24.4295 197.149 25.1545C198.792 26.1695 200.145 27.5711 201.208 29.2144C201.933 30.3744 203.142 32.6461 203.142 35.2077V49.9008C203.045 51.5441 201.692 52.8491 200 52.8491C198.164 52.8491 196.714 51.5441 196.714 49.9008V35.2077C196.714 33.516 195.07 31.2927 193.089 30.3261L192.895 30.2294L192.799 30.1811L193.04 29.9394ZM179.556 29.2144C180.57 27.6195 181.924 26.2662 183.519 25.2512C184.775 24.4779 186.129 23.8979 187.579 23.5112V20.9496L193.475 26.8462L187.579 32.7427V30.1811C185.839 31.0994 184.34 32.9361 184.002 34.8694C184.002 34.966 183.954 35.111 183.954 35.2077C183.905 35.4977 183.905 35.7877 183.905 36.0293V49.8525C183.905 51.4474 182.407 52.8491 180.667 52.8491C178.637 52.8491 177.622 51.3024 177.574 49.8525V35.1593C177.526 33.3227 178.202 31.3411 179.556 29.2144ZM170.324 29.3594C169.309 27.7645 167.956 26.3628 166.361 25.3478C165.104 24.5745 163.751 23.9945 162.301 23.6079V21.0946L156.404 26.9911L162.301 32.8877V30.3261C164.041 31.2444 165.539 33.0811 165.877 35.0144C165.877 35.111 165.926 35.256 165.926 35.3527C165.974 35.6427 165.974 35.9327 165.974 36.1743V49.9975C165.974 51.5924 167.472 52.9941 169.212 52.9941C171.242 52.9941 172.257 51.4474 172.306 49.9975V35.3044C172.306 33.4677 171.677 31.4861 170.324 29.3594ZM156.791 30.0844L153.746 27.0395L157.226 23.5595L156.743 23.6562L156.549 23.7045C155.196 24.0429 153.891 24.5745 152.731 25.2995C151.088 26.3145 149.734 27.7161 148.671 29.3594C147.946 30.5194 146.738 32.7911 146.738 35.3527V50.0458C146.834 51.6891 148.188 52.9941 149.879 52.9941C151.716 52.9941 153.166 51.6891 153.166 50.0458V35.3527C153.166 33.661 154.809 31.4377 156.791 30.4711L156.984 30.3744L157.081 30.3261C157.033 30.3261 156.791 30.0844 156.791 30.0844ZM136.346 40.2343H122.62C122.62 41.6842 122.958 43.1342 123.586 44.4392C124.65 46.7108 126.97 48.1608 129.483 48.1125C130.256 48.1125 131.03 48.0158 131.803 47.8225C132.528 47.6292 133.205 47.2908 133.833 46.9042C134.461 46.5175 135.041 46.0342 135.621 45.5508C136.153 45.0675 136.878 44.4392 137.748 43.6175C138.183 43.2792 138.714 43.1342 139.294 43.1342C139.923 43.0859 140.551 43.3276 141.034 43.7142C141.518 44.1492 141.759 44.7775 141.711 45.4059C141.663 46.1792 141.421 46.9525 140.986 47.6292C140.406 48.5958 139.633 49.4175 138.763 50.0458C137.603 50.9158 136.346 51.5441 134.993 51.9791C133.301 52.5107 131.561 52.8007 129.773 52.7524C125.278 52.7524 121.798 51.4474 119.285 48.8858C116.771 46.3242 115.563 42.8442 115.563 38.446C115.515 36.4643 115.853 34.531 116.481 32.6944C117.061 31.0028 117.98 29.4561 119.188 28.1511C120.396 26.8461 121.895 25.8795 123.538 25.2512C125.375 24.5745 127.308 24.2362 129.29 24.2362C132.045 24.2362 134.365 24.8162 136.346 25.9762C138.183 27.0395 139.729 28.5861 140.744 30.4711C141.711 32.1627 142.194 34.096 142.194 36.0777C142.194 37.8176 141.711 38.9776 140.696 39.5093C139.584 39.9443 138.183 40.2343 136.346 40.2343ZM122.62 36.2227H135.331C135.138 33.806 134.51 32.0177 133.398 30.8577C132.286 29.6494 130.788 29.0695 128.951 29.0695C127.308 29.0211 125.761 29.6978 124.65 30.9061C123.538 32.1144 122.861 33.9027 122.62 36.2227ZM112.47 43.5692C112.518 45.3092 112.035 47.0492 111.068 48.5475C110.15 49.9008 108.748 50.9641 106.912 51.6891C105.075 52.4141 102.852 52.7524 100.193 52.7524C97.6801 52.7524 95.5052 52.3657 93.7169 51.5924C91.9286 50.8191 90.5752 49.8524 89.7536 48.6925C88.8836 47.5325 88.4486 46.3725 88.4486 45.2125C88.4486 44.4875 88.7386 43.7626 89.2703 43.2309C89.8019 42.6992 90.5752 42.4092 91.3486 42.4092C91.9769 42.3609 92.5569 42.5542 93.0402 42.9409C93.4752 43.3759 93.8618 43.9075 94.1518 44.4392C94.7802 45.5509 95.6502 46.5175 96.7135 47.2425C97.7285 47.8708 99.0818 48.1608 100.822 48.1608C102.223 48.1608 103.383 47.8708 104.253 47.2425C105.172 46.6142 105.607 45.8892 105.607 45.1159C105.607 43.9075 105.123 42.9892 104.205 42.4092C103.287 41.8292 101.74 41.2976 99.6134 40.7659C97.5835 40.2826 95.6502 39.6543 93.7169 38.881C92.3152 38.301 91.0586 37.431 90.0919 36.271C89.1736 35.1594 88.6903 33.7577 88.7386 32.3077C88.7386 30.9061 89.1736 29.5044 89.9952 28.3445C90.9136 27.0395 92.2185 25.9762 93.7169 25.3478C95.3602 24.6229 97.3418 24.2362 99.6134 24.2362C101.257 24.2362 102.9 24.4295 104.495 24.8162C105.752 25.1062 107.008 25.6378 108.12 26.3145C108.99 26.8461 109.763 27.5711 110.343 28.3928C110.827 29.0694 111.068 29.8428 111.068 30.6644C111.117 31.3894 110.778 32.1144 110.247 32.6461C109.715 33.1777 108.942 33.4194 107.975 33.4194C107.298 33.4194 106.67 33.226 106.138 32.7911C105.51 32.2594 104.93 31.6311 104.398 30.9544C103.867 30.2778 103.238 29.7461 102.513 29.3111C101.788 28.9245 100.822 28.6828 99.5651 28.6828C98.4534 28.6345 97.3418 28.9245 96.4235 29.5044C95.6018 30.0361 95.1668 30.7127 95.1668 31.5344C95.1668 32.2594 95.5052 32.9361 96.0851 33.371C96.8585 33.9027 97.6801 34.2894 98.5501 34.531C99.6134 34.821 101.015 35.2077 102.852 35.6427C104.688 36.0777 106.477 36.706 108.168 37.5277C109.377 38.156 110.488 39.026 111.31 40.1376C112.083 41.1526 112.47 42.3609 112.47 43.5692ZM35.8628 0.601562C16.0464 0.601562 0 16.648 0 36.4643C0 56.2807 16.0464 72.3271 35.8628 72.3271C55.6791 72.3271 71.6772 56.2807 71.6772 36.4643C71.6772 16.648 55.6308 0.601562 35.8628 0.601562ZM28.0329 31.6794C28.1296 31.7761 28.1779 31.8727 28.2746 31.9694C28.4679 32.2111 28.6612 32.4527 28.9029 32.6944L39.4877 43.2792C40.5994 44.3909 40.4544 46.4208 39.2944 47.5808C38.1827 48.7408 36.3461 48.8375 35.1861 47.7258C35.1378 47.6775 35.1378 47.6775 35.0894 47.6292L23.828 36.3677C22.1846 34.7244 21.363 32.5494 20.8797 30.3744C20.058 26.8945 20.6863 23.2212 22.5713 20.1763L20.348 17.953H29.4345V26.9911L27.2112 24.7679V24.8162C26.3896 27.1361 26.6796 29.6978 28.0329 31.6794ZM44.7076 57.054C43.451 57.8273 42.0493 58.4073 40.6477 58.7457C38.6661 59.1806 36.5878 59.1806 34.6061 58.7457C32.5278 58.2623 30.2562 57.2957 28.7095 55.7007L17.4481 44.4392C16.3847 43.2309 16.4331 41.3942 17.5931 40.2343C18.8497 38.9776 20.783 38.881 21.8947 39.9926L33.1561 51.2541C34.6061 52.7041 37.7477 53.0424 40.0194 52.3174L40.261 52.2208V56.909H44.9976L44.7076 57.054ZM42.2427 54.9274V45.8408L44.466 48.0641V48.0158C45.336 45.7925 45.046 43.2309 43.6443 41.2493C43.5476 41.1526 43.4993 41.0559 43.4026 40.9593C43.2093 40.7176 43.016 40.4759 42.7743 40.2343L32.1895 29.6494C31.0778 28.5378 31.2228 26.5078 32.3828 25.3478C33.4945 24.1879 35.3311 24.0912 36.4911 25.2028C36.5394 25.2512 36.5394 25.2512 36.5878 25.2995L47.8492 36.561C49.4926 38.2043 50.3142 40.3793 50.7975 42.5542C51.6192 46.0342 50.9909 49.7075 49.1059 52.7524L51.3292 54.9757H42.2427V54.9274ZM54.1325 32.6461C52.8758 33.9027 50.9425 33.9994 49.8309 32.8877L38.5694 21.6262C37.1194 20.1763 33.9778 19.8379 31.7062 20.5629L31.4645 20.6596V15.9713H26.7279L26.9696 15.8263C30.0145 13.9414 33.6395 13.3614 37.1194 14.1347C39.1977 14.618 41.4693 15.5847 43.016 17.1796L54.2775 28.4411C55.3891 29.6494 55.2925 31.5344 54.1325 32.6461Z" fill="#001B38"></path>
</svg>
