<?xml version="1.0" encoding="UTF-8"?>
<svg xmlns="http://www.w3.org/2000/svg" width="61" height="60" viewBox="0 0 61 60" fill="none">
  <path d="M28.7001 9.01006C28.7201 8.23006 28.3401 7.31006 27.6701 6.80006C27.0201 6.27006 26.1901 6.04006 25.3301 6.19006C24.9501 6.25006 24.5801 6.38006 24.2301 6.56006C24.0701 6.65006 23.8901 6.76006 23.7501 6.88006L23.5401 7.07006L23.4401 7.17006L23.4001 7.20006C23.3201 7.26006 23.1901 7.28006 23.1601 7.35006C22.8401 8.08006 22.5001 8.88006 22.1901 9.59006C22.0701 9.85006 21.9301 10.1701 21.7001 10.3101C21.0701 10.7201 20.5601 11.2201 20.1401 11.7901L20.0601 11.9001L20.0401 11.9301L20.7601 12.4901V11.6701H20.7401L20.6701 11.6801L20.5401 11.7001C20.4501 11.7101 20.3601 11.7301 20.2701 11.7401C20.1001 11.7701 19.9201 11.8101 19.7401 11.8401C19.6201 11.8601 19.4601 11.9601 19.3901 11.9201C18.5401 11.3601 17.6801 11.8801 16.8301 11.8601C16.7101 11.8601 16.7301 11.8601 16.7101 11.8501C16.7001 11.8501 16.6801 11.8301 16.6701 11.8201C16.6401 11.8001 16.6201 11.7701 16.5901 11.7501C16.5401 11.7001 16.4901 11.6301 16.4401 11.6001C16.4001 11.5801 16.3501 11.5901 16.3201 11.7301C16.2201 12.1701 16.1301 12.1601 16.0201 11.8701C15.9601 11.7201 15.8901 11.8201 15.8201 11.8201C15.6601 11.8201 15.5001 11.8201 15.3301 11.8401C15.3001 11.8401 15.2601 11.8401 15.2301 11.8901C15.1401 12.0201 15.0601 12.0301 14.9601 11.8001C14.9201 11.7401 14.9301 11.6901 14.8601 11.6601C14.7801 11.6301 14.7001 11.6201 14.6101 11.6201C14.4501 11.6201 14.2801 11.7201 14.1801 11.8701C13.9601 12.2501 13.6401 11.9401 13.2701 11.9301C13.1801 11.9301 13.0001 11.8801 13.0101 11.9301C13.1401 12.5201 12.7301 12.4601 12.6101 12.7301C12.4901 13.0001 12.4801 13.3001 12.4201 13.5501C12.3901 13.6701 12.1601 13.7401 12.1201 13.8801C11.9301 14.5201 11.9501 15.3901 12.4801 15.9301C12.7101 16.1501 12.7801 16.4801 13.0401 16.6301C13.2701 16.7701 13.3901 16.5501 13.4801 16.6001C13.5801 16.6401 13.6201 16.7601 13.6801 16.8601C13.6901 16.8801 13.6101 17.0401 13.6501 17.0301C14.0001 16.9301 13.8601 17.4701 14.0901 17.5201C14.3301 17.5601 14.4401 17.7901 14.6201 17.9201C14.9301 18.1501 15.2101 18.4201 15.5801 18.5701C15.6901 18.6101 15.8001 18.6701 15.8601 18.7801C15.9201 18.8801 16.2201 18.6701 16.3301 18.7101C16.4201 18.7401 16.3901 18.9501 16.4301 19.0601C16.4701 19.1601 16.5001 19.2601 16.5701 19.3201C16.7701 19.5001 17.0001 19.6501 17.1901 19.8501C17.2401 19.9001 17.1901 20.0701 17.1801 20.1801C17.1801 20.2101 17.1601 20.2601 17.1801 20.2501C17.8101 19.8701 17.7401 20.4501 18.0401 20.5101C18.1701 20.5401 18.2701 20.6101 18.3001 20.7701C18.3201 20.8901 18.4101 20.9001 18.6001 20.8101C18.8201 20.7001 18.7001 21.0901 18.7201 21.2601C18.7201 21.3001 18.7001 21.3901 18.7301 21.3801C18.8201 21.3601 18.9801 21.2601 19.0601 21.2601C19.2701 21.2601 19.4801 21.2601 19.6401 21.3301C19.7101 21.3601 19.6301 21.5801 19.6801 21.6401C19.8201 21.8001 20.0001 21.9101 20.1601 22.0501L21.0501 22.8301C21.1101 22.8801 21.2401 22.8501 21.2901 22.9301C21.3201 22.9801 21.2601 23.1501 21.2701 23.2401C21.2701 23.2801 21.3301 23.2401 21.3701 23.2401C21.4301 23.2301 21.5201 23.1601 21.5401 23.1901C21.5901 23.3001 21.5801 23.4901 21.6501 23.5601C21.6901 23.6001 21.9001 23.4301 21.9501 23.4601C22.1901 23.6101 22.4501 23.7301 22.6001 23.9901C22.6601 24.0801 22.7301 24.1501 22.8301 24.1801C23.0701 24.2501 23.1601 24.5301 23.3201 24.7201C23.3301 24.7401 23.3701 24.7201 23.4301 24.6801C23.7401 24.4101 23.6401 24.6801 23.6001 24.8601C23.5801 24.9401 23.6301 24.9401 23.6701 24.9501C23.7201 24.9601 23.8801 24.8501 23.8301 24.9601C23.6901 25.3601 23.9001 25.1401 24.2101 25.0001C24.5401 24.9001 24.6601 24.8501 24.7101 25.2301C24.7301 25.3901 24.8601 25.4501 24.9701 25.4901C25.4301 25.6601 25.9501 25.6701 26.4301 25.6001C26.5401 25.5801 26.6801 25.7001 26.8601 25.7501C26.9101 25.1601 26.8201 24.7501 27.4101 25.0701C27.5101 25.1201 27.5801 25.0201 27.6501 24.9701C27.9901 24.6901 28.2601 24.3101 28.4401 23.8901C28.5301 23.6801 28.5901 23.4601 28.6301 23.2401C28.6601 23.0501 28.6801 22.7301 28.6801 22.7201C28.6801 22.6301 28.8701 22.5501 28.9701 22.4601C29.0001 22.4301 29.0401 22.4101 29.0201 22.3801C28.9101 22.2301 28.7001 22.0801 28.6801 21.9301C28.6401 21.5401 28.6801 21.1501 28.7001 20.7601C28.7001 20.6701 28.6801 20.5801 28.7001 20.4901C28.7001 20.4601 28.7901 20.4301 28.8501 20.3901C28.8901 20.3701 29.0301 20.3401 28.9901 20.3301C28.3101 20.1601 28.7101 19.9801 28.6701 19.8101C28.5901 19.4501 28.8301 19.0801 28.6501 18.7201C28.5301 18.4801 28.8601 18.2501 28.6901 18.0201C28.6501 17.9701 28.8901 17.9101 28.9701 17.8501C29.0001 17.8301 29.0301 17.7901 28.9501 17.7801C28.4801 17.7201 28.7001 17.6701 28.9301 17.6301C28.8401 17.5601 28.6901 17.5001 28.7101 17.4401C28.7601 17.2501 28.8901 17.0501 28.9301 16.8601C28.9401 16.8101 28.7001 16.7501 28.7201 16.7001C28.7701 16.6101 28.9601 16.5101 29.0301 16.4201C29.0601 16.3801 28.9101 16.3401 28.8301 16.3001C28.7801 16.2701 28.6201 16.2401 28.6701 16.2301C29.3101 16.1101 28.4401 15.9901 28.6901 15.8701C29.0501 15.7001 28.5301 15.5301 28.6901 15.3701C28.7501 15.3101 28.9001 15.2501 28.9701 15.1901C29.0001 15.1601 28.9301 15.1301 28.9001 15.1101C28.8501 15.0601 28.7401 15.0001 28.7601 14.9501C28.7901 14.8801 28.9801 14.8001 28.9701 14.7301C28.9701 14.6601 28.7501 14.5801 28.7101 14.5101C28.6801 14.4701 28.8101 14.4201 28.8801 14.3801C28.9101 14.3601 29.0101 14.3401 28.9701 14.3301C28.6601 14.2201 28.6301 14.1901 28.6501 14.0201C28.6701 13.4001 28.7501 12.7801 28.6901 12.1801C28.6201 11.5301 28.5501 10.8701 28.5501 10.2201C28.5501 9.85006 28.7301 9.48006 28.7101 9.12006C28.7101 9.12006 28.7101 9.09006 28.7101 9.08006H24.6601V10.3501C25.2001 10.7501 25.2001 12.0301 24.6601 12.4901V12.9501C24.9701 13.1301 25.0501 13.3801 25.0701 13.6401C25.0701 13.7701 25.0701 13.9101 25.0601 14.0501C25.0601 14.0901 25.0501 14.1001 25.0601 14.1201C25.1101 14.1801 25.2001 14.2501 25.2401 14.3101C25.3101 14.4201 25.4001 14.5301 25.3801 14.6401C25.3501 14.7701 24.9701 14.9101 25.1901 15.0301C25.4101 15.1501 24.9401 15.2301 25.0501 15.3301C25.1301 15.4001 25.2401 15.4701 25.2901 15.5401C25.3401 15.6001 25.3401 15.6601 25.3301 15.7201C25.3101 15.7901 25.1401 15.8601 25.2301 15.9201C25.4301 16.0701 25.3401 16.2101 25.1801 16.3501C25.0601 16.4601 25.2501 16.5701 25.3101 16.6801C25.3401 16.7401 25.4901 16.8001 25.3901 16.8501C25.1701 16.9601 25.2701 17.0601 25.3901 17.1601C25.4801 17.2401 25.2801 17.3301 25.2101 17.4201C25.1701 17.4601 25.0401 17.5101 25.1101 17.5501C25.4001 17.7101 25.1501 17.8601 25.2201 18.0201C25.3201 18.2201 25.3601 18.4201 25.3701 18.6201C25.3701 18.7801 25.1801 18.9401 25.1601 19.1001C25.1401 19.2401 25.2501 19.3801 25.3001 19.5201C25.3001 19.5401 25.3601 19.5701 25.3001 19.5801C24.8501 19.6901 25.1901 19.8001 25.2901 19.9101C25.3501 19.9801 25.2701 20.0601 25.2501 20.1301C25.2401 20.1901 25.2301 20.2501 25.2101 20.3201L25.1301 20.5401C25.1301 20.5401 25.0001 20.6501 25.1301 20.6801C25.5401 20.8001 25.2901 20.9101 25.1201 21.0301C25.0401 21.0901 25.0901 21.1501 25.1301 21.2101C25.2401 21.3501 25.3601 21.4901 25.2201 21.6301C25.0701 21.7901 25.3001 21.9501 25.3101 22.1101C25.3101 22.2001 25.1801 22.2901 25.1801 22.3901C25.1801 22.4901 25.3401 22.5901 25.3301 22.7001C25.3101 22.8901 25.2001 22.7101 25.1601 22.6401C25.1201 22.5501 25.1401 22.4201 25.3001 22.4201C25.4501 22.4201 25.4401 22.3601 25.4701 22.2701C25.4901 22.2001 25.5601 22.1201 25.6801 22.2701C25.7301 22.3501 25.6801 22.0301 25.7401 22.0401C25.9101 22.0901 26.0301 22.3001 26.0701 22.4101C26.0701 22.4401 26.1901 22.2801 26.2701 22.2301C26.3401 22.2201 26.3501 22.1101 26.3101 22.1001C26.1001 22.0201 25.8501 22.0001 25.6601 21.8801C25.5501 21.8101 25.5701 21.5601 25.4601 21.4901C25.3601 21.4201 25.1601 21.4701 25.0101 21.4701C25.0001 21.4701 24.9601 21.5001 24.9701 21.4701C25.1601 20.9801 24.9001 21.1101 24.6301 21.2101C24.4301 21.2901 24.5201 20.9601 24.4801 20.8101C24.4701 20.7601 24.4601 20.7101 24.4401 20.6801C24.2901 20.5401 24.1601 20.3801 23.9601 20.3001C23.8001 20.2301 23.5601 20.2601 23.3601 20.2301C23.3201 20.2301 23.3501 20.1201 23.3201 20.1001C23.2501 20.0401 23.1701 20.0001 23.1001 19.9401C23.0501 19.9001 23.0201 19.8501 22.9801 19.7901C22.9201 19.7001 22.8801 19.5901 22.7901 19.5401C22.7401 19.5101 22.5901 19.6201 22.5401 19.5901C22.3301 19.5001 21.9701 19.5901 21.9701 19.2101C21.9701 18.8501 21.4901 19.1901 21.4401 18.9201C21.4101 18.7501 21.3501 18.6201 21.3001 18.4701V18.4501C20.8801 18.7901 21.2501 18.1201 21.1001 18.1101C21.0501 18.1101 21.0601 18.0201 20.9701 18.1101C20.5001 18.5201 20.7001 18.0501 20.6201 17.9401C20.5701 17.8801 20.4401 17.9201 20.3401 17.9201C20.3201 17.9201 20.2501 17.9901 20.2501 17.9801C20.2101 17.8401 20.1901 17.6701 20.1301 17.5501C20.0901 17.4501 20.0101 17.3901 19.9401 17.3201C19.8801 17.2501 19.8401 17.1501 19.7601 17.1201C19.6601 17.0801 19.5001 17.1201 19.3901 17.0901C19.2901 17.0601 19.2301 16.9801 19.1501 16.9201C19.1101 16.8901 19.0801 16.8601 19.0401 16.8301C19.0101 16.8101 18.9701 16.8001 18.9401 16.7801L18.7801 16.7201C18.6901 16.6801 18.4701 16.8001 18.5401 16.5801C18.6401 16.2601 18.3101 16.6001 18.1401 16.6801C18.0701 16.7101 17.9701 16.7901 17.9601 16.7501C17.9401 16.5901 17.9401 16.4201 17.9701 16.1901C18.0001 15.9701 17.8001 16.0601 17.7201 16.0101C17.5701 15.9201 17.5501 15.6701 17.4201 15.5501C17.3101 15.4401 17.1001 15.4401 16.9901 15.3301C16.8801 15.2201 16.8601 14.9801 16.7501 14.8701C16.6701 14.8001 16.4901 14.8601 16.3601 14.8601C16.3401 14.8601 16.3101 14.8601 16.3101 14.8401C16.3401 14.5101 16.2301 14.3601 15.8201 14.6001C15.6701 14.6901 15.7501 14.4401 15.6901 14.4001C15.6101 14.3501 15.4501 14.4001 15.3801 14.3301C15.3301 14.2801 15.3801 14.1001 15.4001 13.9701C15.4001 13.9501 15.4301 13.8901 15.4201 13.8901C15.4001 13.9901 15.3801 14.0901 15.3601 14.1901C15.3501 14.2201 15.4501 14.1801 15.4801 14.1901C15.5301 14.2201 15.5801 14.2501 15.5901 14.3101C15.6001 14.3801 15.6301 14.4501 15.5201 14.5101C15.4101 14.5301 15.9501 14.7101 15.4301 14.6501C15.3601 14.6401 15.3201 14.6301 15.3301 14.6501C15.4201 14.7201 15.5101 14.8401 15.5201 14.9701C15.5201 15.0301 15.4801 15.0701 15.4201 15.0801C15.2701 15.0801 15.0901 14.9501 15.0301 14.9301C15.0001 14.9301 14.9901 14.9701 14.9701 15.0301C14.9701 15.0801 14.8801 15.1301 14.9701 15.1401C15.0501 15.1401 15.1401 14.9501 15.2201 14.9301C15.4001 14.9001 15.5801 14.8201 15.7601 14.9701C15.9001 15.0801 16.0301 14.9501 16.1601 14.9401C16.2401 14.9401 16.3101 15.1501 16.3901 15.1501C16.4901 15.1501 16.5901 14.9901 16.6901 15.0001C17.7401 15.0601 18.8201 15.1301 19.9001 15.2001C20.0901 15.2201 20.2901 15.2301 20.4801 15.2501L20.7701 15.2801C21.0001 15.2901 21.3001 15.2601 21.5501 15.2001C22.0701 15.0701 22.5501 14.7701 22.9101 14.3701L23.1601 14.0601L23.3301 13.8201C23.6901 13.2901 23.8701 12.6301 24.2101 12.0801C24.4101 11.7601 24.7901 11.5501 25.0501 11.2601C25.3201 10.9601 25.6601 10.6801 25.9501 10.3801C26.1001 10.2301 26.2301 10.0801 26.3401 9.92006C26.3901 9.84006 26.4401 9.76006 26.4801 9.68006C26.5001 9.64006 26.5101 9.60006 26.5301 9.56006C26.5301 9.54006 26.4901 9.58006 26.4601 9.57006C26.1201 9.66006 25.8501 9.58006 25.7401 9.51006C25.6001 9.46006 25.3901 9.25006 25.3501 9.07006H28.7501L28.7001 9.01006Z" fill="#001B38"></path>
  <path d="M35.63 50.4502C35.61 51.2302 35.99 52.1502 36.66 52.6602C37.31 53.1902 38.14 53.4202 39 53.2702C39.38 53.2102 39.75 53.0802 40.1 52.9002C40.26 52.8102 40.44 52.7002 40.58 52.5802L40.79 52.3902L40.89 52.2902L40.93 52.2602C41.01 52.2002 41.14 52.1802 41.17 52.1102C41.49 51.3802 41.83 50.5802 42.14 49.8702C42.26 49.6102 42.4 49.2902 42.63 49.1502C43.26 48.7402 43.77 48.2402 44.19 47.6702L44.27 47.5602L44.29 47.5302L43.57 46.9702V47.7902H43.58H43.65L43.78 47.7602C43.87 47.7502 43.96 47.7302 44.05 47.7202C44.22 47.6902 44.4 47.6502 44.58 47.6202C44.7 47.6002 44.86 47.5002 44.93 47.5402C45.78 48.1002 46.64 47.5802 47.49 47.6002C47.61 47.6002 47.59 47.6002 47.61 47.6102C47.62 47.6102 47.64 47.6302 47.65 47.6402C47.68 47.6602 47.7 47.6902 47.73 47.7102C47.78 47.7602 47.83 47.8302 47.88 47.8602C47.92 47.8902 47.97 47.8702 48 47.7302C48.1 47.2902 48.19 47.3002 48.3 47.5902C48.36 47.7402 48.43 47.6402 48.5 47.6402C48.66 47.6402 48.82 47.6402 48.99 47.6202C49.02 47.6202 49.06 47.6202 49.09 47.5702C49.18 47.4402 49.26 47.4302 49.36 47.6602C49.4 47.7202 49.39 47.7702 49.46 47.8002C49.54 47.8302 49.62 47.8402 49.71 47.8402C49.87 47.8402 50.04 47.7402 50.14 47.5902C50.36 47.2102 50.68 47.5202 51.05 47.5302C51.14 47.5302 51.32 47.5802 51.31 47.5302C51.18 46.9402 51.59 47.0002 51.71 46.7302C51.83 46.4602 51.84 46.1602 51.9 45.9102C51.93 45.7902 52.16 45.7202 52.2 45.5802C52.39 44.9402 52.37 44.0702 51.84 43.5302C51.61 43.3102 51.54 42.9802 51.28 42.8302C51.05 42.6902 50.93 42.9102 50.84 42.8602C50.74 42.8202 50.7 42.7002 50.64 42.6002C50.63 42.5802 50.71 42.4202 50.67 42.4302C50.32 42.5302 50.46 41.9902 50.23 41.9402C49.99 41.9002 49.88 41.6702 49.7 41.5402C49.39 41.3102 49.11 41.0402 48.74 40.8902C48.63 40.8502 48.52 40.7902 48.46 40.6802C48.4 40.5802 48.1 40.7902 47.99 40.7502C47.9 40.7202 47.93 40.5102 47.89 40.4002C47.85 40.3002 47.82 40.2002 47.75 40.1402C47.55 39.9602 47.32 39.8102 47.13 39.6102C47.08 39.5602 47.13 39.3902 47.14 39.2802C47.14 39.2502 47.16 39.2002 47.14 39.2202C46.51 39.6002 46.58 39.0202 46.28 38.9602C46.15 38.9302 46.05 38.8602 46.02 38.7002C46 38.5802 45.91 38.5602 45.72 38.6602C45.5 38.7702 45.62 38.3802 45.6 38.2102C45.6 38.1702 45.62 38.0802 45.59 38.0902C45.5 38.1102 45.34 38.2102 45.26 38.2102C45.05 38.2102 44.84 38.2102 44.68 38.1402C44.61 38.1102 44.69 37.8902 44.64 37.8302C44.5 37.6702 44.32 37.5602 44.16 37.4202L43.27 36.6402C43.21 36.5902 43.08 36.6202 43.03 36.5402C43 36.4902 43.06 36.3202 43.05 36.2302C43.05 36.1902 42.99 36.2302 42.95 36.2302C42.89 36.2402 42.8 36.3102 42.78 36.2802C42.73 36.1702 42.74 35.9802 42.67 35.9102C42.63 35.8702 42.42 36.0402 42.37 36.0102C42.13 35.8602 41.87 35.7402 41.72 35.4802C41.66 35.3902 41.59 35.3202 41.49 35.2902C41.25 35.2202 41.16 34.9402 41 34.7502C40.99 34.7302 40.95 34.7502 40.89 34.7902C40.58 35.0602 40.68 34.7902 40.72 34.6102C40.74 34.5302 40.69 34.5302 40.65 34.5202C40.6 34.5102 40.44 34.6202 40.49 34.5102C40.63 34.1102 40.42 34.3302 40.11 34.4702C39.78 34.5702 39.66 34.6202 39.6 34.2402C39.58 34.0802 39.45 34.0202 39.34 33.9802C38.88 33.8102 38.36 33.8002 37.88 33.8702C37.77 33.8902 37.63 33.7702 37.45 33.7202C37.4 34.3102 37.49 34.7202 36.9 34.4002C36.8 34.3502 36.73 34.4502 36.66 34.5002C36.32 34.7802 36.05 35.1602 35.87 35.5802C35.78 35.7902 35.72 36.0102 35.68 36.2302C35.65 36.4202 35.63 36.7402 35.63 36.7502C35.63 36.8402 35.44 36.9202 35.34 37.0102C35.31 37.0402 35.27 37.0602 35.29 37.0902C35.4 37.2402 35.61 37.3902 35.63 37.5402C35.67 37.9302 35.63 38.3202 35.61 38.7102C35.61 38.8002 35.63 38.8902 35.61 38.9802C35.61 39.0102 35.52 39.0402 35.46 39.0802C35.42 39.1002 35.28 39.1302 35.32 39.1402C36 39.3102 35.6 39.4902 35.64 39.6602C35.72 40.0202 35.48 40.3902 35.66 40.7502C35.78 40.9902 35.45 41.2202 35.62 41.4502C35.66 41.5002 35.42 41.5602 35.34 41.6202C35.31 41.6402 35.28 41.6802 35.36 41.6902C35.83 41.7502 35.61 41.8002 35.38 41.8402C35.47 41.9102 35.61 41.9702 35.6 42.0302C35.55 42.2202 35.42 42.4202 35.38 42.6102C35.37 42.6602 35.61 42.7202 35.59 42.7702C35.54 42.8602 35.35 42.9602 35.28 43.0502C35.25 43.0902 35.4 43.1302 35.48 43.1702C35.53 43.2002 35.69 43.2302 35.64 43.2402C35 43.3602 35.87 43.4802 35.62 43.6002C35.26 43.7702 35.78 43.9402 35.62 44.1002C35.56 44.1602 35.41 44.2202 35.34 44.2802C35.31 44.3102 35.38 44.3402 35.41 44.3602C35.46 44.4102 35.57 44.4702 35.55 44.5202C35.52 44.5902 35.33 44.6702 35.34 44.7402C35.34 44.8102 35.56 44.8902 35.6 44.9602C35.62 45.0002 35.5 45.0502 35.43 45.0902C35.4 45.1102 35.3 45.1302 35.34 45.1402C35.65 45.2502 35.68 45.2802 35.66 45.4502C35.64 46.0702 35.56 46.6902 35.62 47.2902C35.69 47.9402 35.76 48.6002 35.76 49.2502C35.76 49.6202 35.58 49.9902 35.6 50.3502C35.6 50.3502 35.6 50.3802 35.6 50.3902H39.65V49.1202C39.11 48.7202 39.11 47.4402 39.65 46.9802V46.5202C39.34 46.3402 39.26 46.0902 39.24 45.8302C39.24 45.7002 39.24 45.5602 39.25 45.4202C39.25 45.3802 39.26 45.3702 39.25 45.3502C39.2 45.2902 39.11 45.2202 39.07 45.1602C39 45.0502 38.91 44.9402 38.93 44.8302C38.96 44.7002 39.34 44.5602 39.12 44.4402C38.9 44.3202 39.37 44.2402 39.26 44.1402C39.18 44.0702 39.07 44.0002 39.02 43.9302C38.97 43.8702 38.97 43.8102 38.98 43.7502C39 43.6802 39.17 43.6102 39.08 43.5502C38.88 43.4002 38.97 43.2602 39.13 43.1202C39.25 43.0102 39.06 42.9002 39 42.7902C38.97 42.7302 38.82 42.6702 38.92 42.6202C39.14 42.5102 39.04 42.4102 38.92 42.3102C38.83 42.2302 39.03 42.1402 39.1 42.0502C39.14 42.0102 39.27 41.9602 39.2 41.9202C38.91 41.7602 39.16 41.6102 39.09 41.4502C38.99 41.2502 38.95 41.0502 38.94 40.8502C38.94 40.6902 39.13 40.5302 39.15 40.3702C39.17 40.2302 39.06 40.0902 39.01 39.9502C39.01 39.9302 38.95 39.9002 39.01 39.8902C39.46 39.7802 39.12 39.6702 39.02 39.5602C38.96 39.4902 39.04 39.4102 39.06 39.3402C39.07 39.2802 39.08 39.2202 39.1 39.1502L39.18 38.9302C39.18 38.9302 39.31 38.8202 39.18 38.7902C38.77 38.6702 39.02 38.5602 39.19 38.4402C39.27 38.3802 39.22 38.3202 39.18 38.2602C39.07 38.1202 38.95 37.9802 39.09 37.8402C39.24 37.6802 39.01 37.5202 39 37.3602C39 37.2702 39.13 37.1802 39.13 37.0802C39.13 36.9802 38.97 36.8802 38.98 36.7702C39 36.5802 39.11 36.7602 39.15 36.8302C39.19 36.9202 39.17 37.0502 39.01 37.0502C38.86 37.0502 38.87 37.1102 38.84 37.2002C38.82 37.2702 38.75 37.3502 38.63 37.2002C38.58 37.1202 38.63 37.4402 38.57 37.4302C38.4 37.3802 38.28 37.1702 38.24 37.0602C38.24 37.0302 38.12 37.1902 38.04 37.2402C37.97 37.2502 37.96 37.3602 38 37.3702C38.21 37.4502 38.46 37.4702 38.65 37.5902C38.76 37.6602 38.74 37.9102 38.85 37.9802C38.95 38.0502 39.15 38.0002 39.3 38.0002C39.31 38.0002 39.35 37.9702 39.34 38.0002C39.15 38.4902 39.41 38.3602 39.68 38.2602C39.88 38.1802 39.79 38.5102 39.83 38.6602C39.84 38.7102 39.85 38.7602 39.87 38.7902C40.02 38.9302 40.15 39.0902 40.35 39.1702C40.51 39.2402 40.75 39.2102 40.95 39.2402C40.99 39.2402 40.96 39.3502 40.99 39.3702C41.06 39.4302 41.14 39.4702 41.21 39.5302C41.26 39.5702 41.29 39.6202 41.33 39.6802C41.39 39.7702 41.43 39.8802 41.52 39.9302C41.57 39.9602 41.72 39.8502 41.77 39.8802C41.98 39.9702 42.34 39.8802 42.34 40.2602C42.34 40.6202 42.82 40.2802 42.87 40.5502C42.9 40.7202 42.96 40.8502 43.01 41.0002V41.0202C43.43 40.6802 43.06 41.3502 43.21 41.3602C43.26 41.3602 43.25 41.4502 43.34 41.3602C43.81 40.9502 43.61 41.4202 43.69 41.5302C43.74 41.5902 43.87 41.5502 43.97 41.5502C43.99 41.5502 44.06 41.4802 44.06 41.4902C44.1 41.6302 44.12 41.8002 44.18 41.9202C44.22 42.0202 44.3 42.0802 44.37 42.1502C44.43 42.2202 44.47 42.3202 44.55 42.3502C44.65 42.3902 44.81 42.3502 44.92 42.3802C45.02 42.4102 45.08 42.4902 45.16 42.5502C45.2 42.5802 45.23 42.6102 45.27 42.6402C45.3 42.6602 45.34 42.6702 45.37 42.6902L45.53 42.7502C45.62 42.7902 45.84 42.6702 45.77 42.8902C45.67 43.2102 46 42.8702 46.17 42.7902C46.24 42.7602 46.34 42.6802 46.35 42.7202C46.37 42.8802 46.37 43.0502 46.34 43.2802C46.31 43.5002 46.51 43.4102 46.59 43.4602C46.74 43.5502 46.76 43.8002 46.89 43.9202C47 44.0302 47.21 44.0302 47.32 44.1402C47.43 44.2502 47.45 44.4902 47.56 44.6002C47.64 44.6702 47.82 44.6102 47.95 44.6102C47.97 44.6102 48 44.6102 48 44.6302C47.97 44.9602 48.08 45.1102 48.49 44.8702C48.64 44.7802 48.56 45.0302 48.62 45.0702C48.7 45.1202 48.86 45.0702 48.93 45.1402C48.98 45.1902 48.93 45.3702 48.91 45.5002C48.91 45.5202 48.88 45.5802 48.89 45.5802C48.91 45.4802 48.93 45.3802 48.95 45.2802C48.96 45.2502 48.86 45.2902 48.83 45.2802C48.78 45.2502 48.73 45.2202 48.72 45.1602C48.71 45.0902 48.68 45.0202 48.79 44.9602C48.9 44.9402 48.36 44.7602 48.88 44.8202C48.95 44.8302 48.99 44.8402 48.98 44.8202C48.89 44.7502 48.8 44.6302 48.79 44.5002C48.79 44.4402 48.83 44.4002 48.89 44.3902C49.04 44.3902 49.22 44.5202 49.28 44.5402C49.31 44.5402 49.32 44.5002 49.34 44.4402C49.34 44.3902 49.43 44.3402 49.34 44.3302C49.26 44.3302 49.17 44.5202 49.09 44.5402C48.91 44.5702 48.73 44.6502 48.55 44.5002C48.41 44.3902 48.29 44.5202 48.15 44.5302C48.07 44.5302 48 44.3202 47.92 44.3202C47.82 44.3202 47.72 44.4802 47.62 44.4702C46.57 44.4102 45.49 44.3402 44.41 44.2702C44.22 44.2502 44.02 44.2402 43.83 44.2202L43.54 44.1902C43.31 44.1802 43.01 44.2102 42.76 44.2702C42.24 44.4002 41.76 44.7002 41.4 45.1002L41.15 45.4102L40.98 45.6502C40.62 46.1802 40.44 46.8402 40.1 47.3902C39.9 47.7102 39.52 47.9202 39.26 48.2102C38.99 48.5102 38.65 48.7902 38.36 49.0902C38.21 49.2402 38.08 49.3902 37.97 49.5502C37.92 49.6302 37.87 49.7102 37.83 49.7902C37.81 49.8302 37.8 49.8702 37.78 49.9102C37.78 49.9302 37.82 49.8902 37.85 49.9002C38.19 49.8102 38.45 49.8902 38.57 49.9602C38.71 50.0102 38.92 50.2202 38.96 50.4002H35.56L35.63 50.4502Z" fill="#001B38"></path>
  <path d="M51.8701 35.7298C51.8401 34.6998 51.7901 33.6698 51.9001 32.6498C51.9401 32.2798 51.9501 31.9298 51.9001 31.5498C51.8101 30.6798 51.9801 29.7998 52.0401 28.9298C52.0401 28.8498 52.0201 28.7598 51.9401 28.6998C51.5301 28.3898 51.8001 28.0998 51.9801 27.7998C52.0601 27.6698 52.0301 27.5198 52.0101 27.3798C51.9901 27.2098 51.8001 26.9898 51.9201 26.8698C52.3201 26.4798 52.0201 26.1298 51.7301 25.8398C51.4601 25.5598 51.3501 25.3598 51.6801 25.0798C51.8201 24.9598 51.8201 24.7898 51.8301 24.6398C51.8601 24.0198 51.8501 23.3898 51.8801 22.7698C51.8801 22.6298 52.0401 22.4898 52.1401 22.3198C51.6101 22.0498 51.1901 21.7498 51.7801 21.3098C51.8801 21.2398 51.8401 21.0898 51.8401 20.9798V20.1198C51.8401 20.0398 51.8401 19.6698 51.7901 19.4198C51.7501 19.1498 51.6801 18.8798 51.5801 18.6198C51.1901 17.5798 50.3501 16.7498 49.3101 16.3498C49.0201 16.2398 48.7301 16.1198 48.4201 16.0198L47.9601 15.8998L47.7201 15.8098C47.6301 15.7798 47.5301 15.7398 47.4401 15.7598C46.8901 15.8698 46.3301 16.0798 45.7801 16.0998C44.3501 16.1398 42.9301 16.0998 41.5001 16.0898C41.1701 16.0898 40.8401 16.1098 40.5101 16.0898C40.3901 16.0898 40.2801 15.9998 40.1601 15.9398C40.0901 15.8998 39.9801 15.7598 39.9501 15.7998C39.3401 16.4798 38.6701 16.0798 38.0401 16.1198C36.7101 16.1998 35.3701 15.9598 34.0501 16.1498C33.1901 16.2698 32.3401 15.9398 31.4901 16.1098C31.3001 16.1498 31.0901 15.9098 30.8801 15.8298C30.7901 15.7998 30.6501 15.7698 30.6201 15.8498C30.4001 16.3198 30.2101 16.0998 30.0701 15.8698C29.8101 15.9598 29.6001 16.1098 29.3901 16.0898C28.6801 16.0398 27.9701 15.9098 27.2601 15.8698C27.1201 15.8698 26.9801 15.9698 26.8501 16.0398V19.4498C26.9601 19.4098 27.0801 19.3898 27.1901 19.4498C27.5801 19.6698 27.9401 19.5698 28.3401 19.4498C28.6401 19.3598 28.9601 19.5598 29.2801 19.6298C29.4401 19.6698 29.6201 19.7998 29.7601 19.7298C30.3301 19.4398 30.9101 19.6898 31.4801 19.6198C32.2101 19.5198 32.9301 19.4798 33.6601 19.4698C34.2501 19.4698 34.8401 19.6598 35.4301 19.6798C35.9401 19.6998 36.4401 19.5898 36.9501 19.5398C37.0301 19.5398 37.1301 19.4798 37.1901 19.5398C37.6001 19.9898 37.9901 19.6498 38.4001 19.5498C38.6601 19.4898 38.9301 19.5698 39.2001 19.5898L39.8801 19.6298L40.7001 19.7098C40.8801 19.7198 41.0901 19.8398 41.2301 19.7098C41.6701 19.2998 42.0801 19.5498 42.5101 19.7198C42.7201 19.7998 42.9501 19.7498 43.1701 19.7098C43.6801 19.5998 44.1801 19.4798 44.7101 19.6198C45.2301 19.7498 45.7601 19.5898 46.3001 19.5498C45.9101 20.1398 45.5001 20.7598 45.1201 21.3298C44.9601 21.5698 44.7601 21.8498 44.5101 21.9598C43.1201 22.5398 42.1701 23.5898 41.3301 24.7698C41.2601 24.8698 41.2101 25.0498 41.1301 25.0598C40.1301 25.2298 39.8501 26.1998 39.2101 26.7598C39.1201 26.8398 39.1301 26.8298 39.1101 26.8298H39.0601C39.0601 26.8298 38.9901 26.8498 38.9501 26.8498C38.8701 26.8498 38.7901 26.8498 38.7201 26.8598C38.6701 26.8698 38.6301 26.9198 38.7001 27.0498C38.9101 27.4498 38.8301 27.5098 38.5501 27.3898C38.4001 27.3198 38.4001 27.4598 38.3501 27.5098L37.9501 27.9098C37.9501 27.9098 37.9001 27.9698 37.9001 28.0298C37.9001 28.1998 37.8501 28.2698 37.6101 28.1698C37.3501 28.0698 37.2201 28.1598 37.3001 28.4198C37.4001 28.7398 37.0601 28.4898 36.8401 28.4198C36.7901 28.3998 36.6601 28.3298 36.6901 28.3698C37.0001 28.8398 36.6901 28.6798 36.6501 28.7998C36.6101 28.9298 36.6201 29.0998 36.5601 29.1998C36.5301 29.2498 36.3501 29.1398 36.3001 29.1698C36.0701 29.3398 35.7801 29.4498 35.6901 29.7798C35.6501 29.9298 35.4501 29.8898 35.4001 30.0098C35.3601 30.0998 35.4601 30.3298 35.4201 30.4098C35.3601 30.5198 35.2201 30.5398 35.1001 30.5898C35.0701 30.5998 34.9301 30.4998 34.9301 30.5398C34.9501 30.9198 34.4101 30.7098 34.3001 30.9598C34.1801 31.2298 33.9901 31.2198 33.8301 31.3598C33.5601 31.5698 33.2701 31.7298 33.0201 31.9798C32.9401 32.0598 32.8701 32.1298 32.7501 32.1398C32.6401 32.1398 32.7001 32.4898 32.6201 32.5698C32.5501 32.6298 32.4001 32.4998 32.3001 32.4698C32.2001 32.4398 32.1101 32.4098 32.0301 32.4298C31.8001 32.4898 31.5701 32.5698 31.3201 32.5798C31.2601 32.5798 31.1801 32.4298 31.1101 32.3498C31.0901 32.3298 31.0701 32.2798 31.0701 32.3098C30.9501 32.9998 30.6101 32.5698 30.3901 32.6998C30.2901 32.7598 30.1701 32.7698 30.0701 32.6598C29.9901 32.5798 29.9301 32.6098 29.8401 32.7898C29.7301 32.9998 29.6301 32.6198 29.5301 32.4898C29.5101 32.4598 29.4901 32.3698 29.4701 32.3998C29.4101 32.4598 29.3401 32.6298 29.2801 32.6598C29.1201 32.7598 28.9401 32.8698 28.7801 32.8798C28.7101 32.8798 28.7001 32.6498 28.6401 32.6198C28.4701 32.5498 28.2801 32.5098 28.1101 32.4298C27.7901 32.2998 27.4901 32.1198 27.1901 31.9398C27.1301 31.8998 27.0201 31.9498 26.9701 31.8898C26.9401 31.8498 26.9801 31.6698 26.9701 31.5898C26.9701 31.5598 26.9101 31.5898 26.8801 31.6098C26.8301 31.6298 26.7401 31.7098 26.7301 31.6798C26.6801 31.5798 26.7001 31.3998 26.6401 31.3398C26.6001 31.2998 26.4001 31.4898 26.3501 31.4698C26.1301 31.3198 25.9401 31.2398 25.7801 30.9398C25.7201 30.8298 25.6501 30.7498 25.5301 30.6998C25.2701 30.5798 25.1801 30.2698 25.0201 30.0398C25.0101 30.0198 24.9701 30.0198 24.9001 30.0598C24.5501 30.2898 24.6701 30.0298 24.7201 29.8398C24.7401 29.7598 24.6901 29.7498 24.6401 29.7298C24.5901 29.7098 24.4101 29.7998 24.4601 29.6898C24.6401 29.3098 24.3601 29.4598 24.0901 29.6098C23.8401 29.7498 23.7201 29.7898 23.8801 29.4898C23.9501 29.3698 23.9101 29.3298 23.8801 29.2898C23.7501 29.1398 23.6001 29.0098 23.4901 28.8498C23.4601 28.8098 23.5301 28.6698 23.5701 28.5598C23.1501 28.8898 22.7901 29.1398 23.1001 28.6098C23.1501 28.5198 23.1001 28.5198 23.0701 28.4898C22.8101 28.2498 22.5301 28.0198 22.2901 27.7498C22.2201 27.6698 22.2701 27.4698 22.2701 27.3298C22.2701 27.2898 22.2701 27.2398 22.2401 27.2298C22.0401 27.1898 21.7701 27.2298 21.6301 27.1298C21.2701 26.8598 20.9801 26.5198 20.6601 26.2098C20.5901 26.1398 20.4901 26.0798 20.4301 25.9998C20.4101 25.9698 20.4301 25.8898 20.4501 25.8198C20.4501 25.7798 20.5301 25.6498 20.4901 25.6698C19.8901 26.0398 20.0101 25.5998 19.8401 25.4998C19.4801 25.2798 19.3301 24.8198 18.9001 24.6698C18.6201 24.5698 18.6501 24.1498 18.3401 24.0998C18.2701 24.0898 18.3801 23.8698 18.3901 23.7698C18.3901 23.7298 18.3901 23.6798 18.3201 23.7298C17.9501 24.0298 18.0601 23.8198 18.1801 23.6298C18.0601 23.6398 17.9101 23.6998 17.8701 23.6498C17.7401 23.4598 17.6601 23.2198 17.5301 23.0298C17.4901 22.9798 17.2801 23.1198 17.2501 23.0598C17.2001 22.9498 17.2501 22.7298 17.2201 22.6098C17.2101 22.5598 17.0701 22.6398 16.9901 22.6698C16.9301 22.6898 16.7901 22.7798 16.8201 22.7298C17.1501 22.1698 16.4601 22.7098 16.5401 22.4398C16.6401 22.0498 16.1501 22.2998 16.1201 22.0398C16.1101 21.9498 16.1601 21.7898 16.1601 21.6898C16.1601 21.6498 16.0801 21.6798 16.0401 21.6798C15.9601 21.6798 15.8401 21.7098 15.8101 21.6598C15.7601 21.5798 15.8301 21.3898 15.7601 21.3298C15.6901 21.2798 15.4901 21.3798 15.4001 21.3498C15.3501 21.3398 15.4001 21.2098 15.4001 21.1298C15.4001 21.0998 15.4501 21.0098 15.4201 21.0298C15.1301 21.1698 15.0701 21.1698 14.9401 21.0298C14.5601 20.6498 14.2001 20.2498 13.7901 19.9098C14.3401 19.6998 15.1601 19.7998 15.5101 20.2098H15.9701C16.1501 19.8998 16.4001 19.8098 16.6601 19.7998C16.7901 19.7998 16.9301 19.7998 17.0701 19.8098C17.1601 19.8098 17.2201 19.8198 17.3001 19.8098C17.5301 19.7498 17.7601 19.6698 18.0001 19.6298C18.4001 19.5598 18.8001 19.4698 19.1901 19.4898C19.5601 19.5098 19.9501 19.7298 20.3001 19.7498L15.5501 16.1598C15.4301 16.1598 15.3101 16.1598 15.1901 16.1598C14.5401 16.2298 13.8801 16.2998 13.2301 16.3098C12.8601 16.3098 12.4901 16.1298 12.1301 16.1598H12.0901V16.1898C10.9601 16.1698 9.83009 16.6998 9.10009 17.5598C8.77009 17.9398 8.43009 18.3298 8.20009 18.8198C8.12009 18.9898 7.98009 19.1798 7.98009 19.3398C7.97009 19.5498 7.98009 19.7498 8.00009 19.9598C8.02009 20.1098 8.05009 20.1698 8.07009 20.2798L8.22009 20.8698C8.32009 21.2698 8.41009 21.6598 8.51009 22.0598C8.57009 22.3398 8.65009 22.6798 8.56009 22.9298C8.04009 24.3398 8.17009 25.7498 8.47009 27.1798C8.50009 27.2998 8.59009 27.4598 8.55009 27.5298C7.99009 28.3798 8.51009 29.2398 8.49009 30.0898C8.47009 30.5498 8.29009 30.8698 8.23009 31.2598C8.21009 31.4098 8.22009 31.5998 8.36009 31.7098C8.80009 32.0698 8.79009 32.4098 8.50009 32.7998C8.35009 33.0198 8.45009 33.2898 8.45009 33.5398L8.47009 35.3198C8.47009 35.4398 8.47009 35.5598 8.52009 35.6798C8.65009 36.0198 8.66009 36.3198 8.43009 36.6798C8.18009 37.0598 8.15009 37.5698 8.41009 37.9398C8.71009 38.3898 8.30009 38.6698 8.10009 39.0198C8.05009 39.0998 7.91009 39.2398 7.96009 39.2598C8.24009 39.4098 8.29009 39.5798 8.29009 39.7598C8.29009 39.8598 8.27009 39.9198 8.26009 40.0398C8.26009 40.2098 8.25009 40.3798 8.29009 40.5398C8.45009 41.2398 8.87009 41.8198 9.31009 42.3098C9.53009 42.5398 9.63009 42.9298 9.93009 43.1398C10.2901 43.3998 10.6901 43.5998 11.1101 43.7198C11.3201 43.7898 11.5401 43.8298 11.7601 43.8598L12.0901 43.8798H12.2701C12.7301 43.8998 13.1901 43.8798 13.6401 43.7998C14.0501 43.7198 14.4301 43.8798 14.8201 43.8198C15.1001 43.7798 15.3601 43.5398 15.6401 43.5198C16.0201 43.4898 16.4001 43.5598 16.7801 43.6098C16.8701 43.6198 16.9701 43.7898 17.0501 43.7598C17.8501 43.4698 18.6201 43.9898 19.4201 43.8798C20.2201 43.7698 21.0301 43.8798 21.8301 43.8798C23.2401 43.8798 24.6601 43.9198 26.0701 43.8198C26.5001 43.7898 26.9201 43.7598 27.3601 43.8198C27.7601 43.8698 28.1601 43.5098 28.5701 43.4798C28.9201 43.4498 29.2701 43.6298 29.6101 43.6998C29.9401 43.7598 30.2701 43.8098 30.6001 43.8198C31.6001 43.8398 32.6001 43.8198 33.6001 43.8698C33.8301 43.8698 34.0701 44.0498 34.3001 44.1398C34.3501 44.1598 34.4201 44.2198 34.4601 44.1898C35.4701 43.5098 36.5201 44.0098 37.5401 43.8798C37.5501 43.8798 37.5701 43.8798 37.5801 43.8798V40.4398C37.3901 40.3898 37.1901 40.3498 36.9801 40.3198C36.6301 40.2598 36.2701 40.2698 35.9201 40.2498C35.5901 40.2298 35.2701 40.1698 34.9401 40.1998C34.5601 40.2298 34.1801 40.3598 33.7901 40.3998C33.4401 40.4398 33.0801 40.3998 32.7301 40.3998H32.2101C32.0801 40.3998 31.9401 40.3998 31.8101 40.4198L31.2301 40.4698C30.8801 40.4998 30.4901 40.7198 30.2001 40.4998C29.7901 40.1898 29.5601 40.6498 29.2501 40.8198C29.1301 40.8898 29.0001 41.0198 28.8801 40.9798C28.4801 40.8598 28.0701 40.7298 27.6801 40.5298C27.2901 40.3298 26.9201 40.5298 26.5401 40.5298C25.9101 40.5498 25.2901 40.3598 24.6601 40.3398C24.0801 40.3198 23.4901 40.4498 22.9101 40.4298C22.3301 40.4098 21.7601 40.2298 21.1801 40.2098C20.7901 40.1998 20.4001 40.3598 20.0101 40.4398C19.9401 40.4498 19.8701 40.4798 19.8101 40.4498C19.1501 40.1698 18.5101 40.1198 17.8401 40.5498C17.6001 40.7098 17.2801 40.4598 17.0001 40.4698C16.6501 40.4698 16.2901 40.6098 15.9401 40.5998C15.6901 40.5898 15.4401 40.4098 15.2001 40.2998C15.1601 40.2798 15.1201 40.2198 15.0801 40.2298C14.7001 40.3098 14.3201 40.4198 13.9401 40.4898C13.8101 40.5098 13.6701 40.4098 13.5301 40.3898C13.2801 40.3598 13.0301 40.3298 12.7801 40.3298C12.4601 40.3298 11.9801 40.3298 12.0201 40.4198C11.9701 40.4698 11.9601 40.3498 11.9601 40.2798C11.9601 40.2098 11.9701 40.2098 11.7701 40.3798C11.7201 40.4198 11.6701 40.4398 11.6701 40.4098C11.6501 40.2498 11.7601 40.0998 11.8401 40.0498C11.8801 40.1098 11.8801 39.7498 11.8401 39.5398C11.7501 39.0298 11.5501 38.5098 11.5201 37.9998C11.5001 37.5898 11.7001 37.1698 11.7101 36.7498C11.7101 36.4398 11.5201 36.1298 11.5001 35.8198C11.4701 35.1598 11.3901 34.4898 11.5401 33.8398C11.6501 33.3398 11.5101 32.8698 11.5001 32.3898C11.5001 32.1098 11.7101 31.8298 11.7101 31.5498C11.7101 31.1898 11.5501 30.8198 11.5601 30.4598L11.6301 28.8698L11.7401 27.0498C11.7901 26.2698 11.9101 25.4898 11.8701 24.7098C11.8501 24.2198 11.6901 23.7298 11.5901 23.2398C11.8501 23.2098 12.0501 23.2998 12.2201 23.4398C12.3201 23.5198 12.4201 23.6298 12.5101 23.7198C12.5401 23.7598 12.5401 23.7698 12.5701 23.7698C12.6601 23.7698 12.7801 23.7698 12.8601 23.7798C13.0001 23.8198 13.1501 23.8298 13.2301 23.9298C13.3201 24.0498 13.1801 24.4498 13.4301 24.3798C13.6801 24.3098 13.4301 24.7198 13.5901 24.7198C13.7001 24.7198 13.8301 24.6898 13.9301 24.6998C14.0101 24.7098 14.0701 24.7498 14.1001 24.8098C14.1401 24.8798 14.0901 25.0598 14.2001 25.0398C14.4601 25.0098 14.5201 25.1798 14.5301 25.4098C14.5301 25.5798 14.7701 25.5298 14.9001 25.5698C14.9701 25.5898 15.1201 25.5298 15.0901 25.6398C15.0301 25.8898 15.1801 25.8898 15.3601 25.8798C15.4901 25.8798 15.4301 26.0898 15.4601 26.2098C15.4701 26.2698 15.4201 26.4098 15.5101 26.3798C15.8401 26.2898 15.8001 26.5998 15.9801 26.6598C16.2101 26.7398 16.4101 26.8598 16.5801 27.0098C16.7201 27.1298 16.7201 27.3998 16.8401 27.5398C16.9401 27.6598 17.1301 27.6898 17.2801 27.7598C17.3001 27.7698 17.3601 27.7598 17.3301 27.8198C17.1201 28.2398 17.4401 28.0698 17.6001 28.0898C17.7001 28.0898 17.7101 28.2198 17.7601 28.2898L17.8901 28.4598L18.0301 28.6898C18.0301 28.6898 18.0301 28.8698 18.1501 28.8098C18.5301 28.5998 18.4501 28.8698 18.4401 29.0898C18.4401 29.1998 18.5201 29.2098 18.6001 29.2198C18.7901 29.2498 18.9901 29.2698 19.0201 29.4798C19.0501 29.7098 19.3401 29.6698 19.4801 29.7898C19.5601 29.8598 19.5501 30.0298 19.6301 30.0998C19.7201 30.1698 19.9101 30.1398 19.9901 30.2298C20.1501 30.4398 20.1001 30.8998 20.4601 30.8698C20.8201 30.8498 20.6601 31.3798 21.0901 31.2698C21.2001 31.2398 21.0401 31.5298 21.1001 31.5598C21.3301 31.6598 21.6201 31.6798 21.8501 31.7798C21.9101 31.8098 21.8301 31.9898 21.8201 32.0998C21.8201 32.1698 21.7801 32.2598 21.8201 32.2798C22.0501 32.3998 22.3201 32.4698 22.5201 32.6298C22.6401 32.7198 22.6001 32.9798 22.7201 33.0798C22.8301 33.1698 23.0401 33.1498 23.2101 33.1798C23.2201 33.1798 23.2701 33.1598 23.2601 33.1798C23.0401 33.6598 23.3301 33.5798 23.6201 33.5098C23.8401 33.4598 23.7701 33.8198 23.8401 33.9898C23.8601 34.0498 23.8701 34.1098 23.9101 34.1498C24.1101 34.3498 24.3201 34.5598 24.5901 34.6798C24.8201 34.7898 25.1101 34.7798 25.3601 34.8098C25.4101 34.8098 25.4101 34.9298 25.4501 34.9498C25.5601 35.0198 25.6701 35.0598 25.7801 35.1298C25.8501 35.1798 25.9201 35.2298 25.9901 35.2798C26.1001 35.3698 26.2101 35.4798 26.3401 35.5298C26.4201 35.5598 26.5501 35.4298 26.6301 35.4398C26.9501 35.4998 27.3301 35.3198 27.5201 35.6998C27.7301 36.0498 28.1101 35.5598 28.3301 35.7998C28.4801 35.9498 28.6401 36.0298 28.8001 36.1498C28.8001 36.1498 28.8001 36.1698 28.8101 36.1598C29.0501 35.6598 29.1101 36.4398 29.3001 36.3698C29.3501 36.3498 29.4201 36.4298 29.4601 36.3098C29.6701 35.6998 29.8101 36.2098 29.9901 36.2498C30.1001 36.2798 30.2101 36.1598 30.3201 36.0898C30.3401 36.0798 30.3601 35.9798 30.3701 35.9898C30.5301 36.0698 30.7001 36.1798 30.8701 36.2398C31.0101 36.2898 31.1401 36.2598 31.2801 36.2698C31.4101 36.2698 31.5401 36.3098 31.6601 36.2698C31.8001 36.2198 31.9201 36.0698 32.0501 35.9898C32.1701 35.9298 32.3101 35.9198 32.4401 35.8898L32.6301 35.8498C32.6301 35.8498 32.7201 35.8098 32.7701 35.7898L32.9601 35.6798C33.0801 35.6098 33.1401 35.3598 33.3101 35.5298C33.5701 35.7798 33.4901 35.3098 33.5201 35.1098C33.5401 35.0298 33.5201 34.8898 33.5801 34.9098C33.7601 34.9598 33.9401 35.0298 34.1601 35.1498C34.3801 35.2698 34.4201 35.0298 34.5301 34.9498C34.7201 34.8198 35.0201 34.8698 35.2401 34.7598C35.4301 34.6498 35.5401 34.4198 35.7301 34.3198C35.9301 34.2198 36.1901 34.2098 36.3801 34.0898C36.5001 33.9998 36.5101 33.7898 36.5701 33.6298C36.5801 33.5998 36.5701 33.5698 36.6101 33.5798C36.9501 33.6498 37.1401 33.5498 36.9901 33.0898C36.9401 32.9198 37.1801 33.0398 37.2401 32.9698C37.3101 32.8898 37.3101 32.7098 37.4001 32.6498C37.4701 32.6098 37.6401 32.6798 37.7701 32.7098C37.7901 32.7098 37.8401 32.7498 37.8501 32.7398C37.8801 32.5998 37.8901 32.4398 37.9401 32.3098C37.9601 32.2598 38.0601 32.3098 38.1001 32.2998C38.1801 32.2698 38.2601 32.2398 38.3101 32.1798C38.3801 32.0998 38.4701 32.0398 38.4801 31.8898C38.4801 31.7298 38.9501 32.0598 38.6901 31.6098C38.6501 31.5498 38.6501 31.4998 38.6701 31.4998C38.8401 31.4798 39.0301 31.4998 39.1801 31.4598C39.2601 31.4398 39.3101 31.3898 39.3401 31.3098C39.4001 31.1298 39.3801 30.8798 39.4801 30.7498C39.5601 30.6398 39.7901 30.7098 39.9001 30.6198C39.9801 30.5598 39.9101 30.3498 39.9701 30.2698C40.1001 30.1098 40.2001 29.9098 40.4501 29.8798C40.6401 29.8598 40.6601 29.6498 40.7601 29.5398C40.8201 29.4798 41.0301 29.5698 41.1001 29.5198C41.1901 29.4398 41.1601 29.2398 41.2501 29.1798C42.0601 28.5098 42.9101 27.8198 43.7401 27.1298C44.3401 26.6298 45.0001 26.1898 45.5401 25.6398C45.9901 25.1798 46.2801 24.5698 46.7101 24.0898C46.9601 23.8098 47.3701 23.6698 47.6801 23.4298C47.8801 23.2798 48.1001 23.1298 48.3201 22.9898C48.4101 23.7198 48.5801 24.4398 48.6601 25.1598C48.6801 25.3598 48.4901 25.5698 48.4001 25.7798C48.3501 25.9098 48.2601 26.0498 48.2701 26.1798C48.3301 26.9698 48.4701 27.7698 48.4901 28.5598C48.5001 29.0398 48.2901 29.5098 48.3001 29.9898C48.3001 30.4498 48.4701 30.8998 48.5601 31.3598C48.5601 31.3998 48.6201 31.4498 48.5901 31.4798C48.0901 31.9998 48.3401 32.4898 48.5901 33.0298C48.7701 33.4298 48.4501 33.8998 48.3601 34.3398C48.3301 34.4798 48.2901 34.6098 48.2901 34.7498C48.2701 35.4898 48.2201 36.2398 48.2701 36.9798C48.3101 37.6198 48.4801 38.2498 48.5701 38.8898C48.5901 39.0198 48.4901 39.1598 48.4901 39.2898V39.7898V39.9998C48.4901 40.0198 48.4901 40.0398 48.4901 40.0498C48.4801 40.0898 48.4501 40.1298 48.4101 40.1598C48.3501 40.2098 48.2601 40.1998 48.2301 40.2298C48.2101 40.2398 48.2501 40.4298 48.2001 40.4498C48.2501 40.4898 47.6601 40.5698 47.2701 40.6098C46.8501 40.6498 46.4401 40.6498 46.0401 40.4998C45.7501 40.3898 45.4701 40.3998 45.2001 40.4498L49.4001 43.6298C49.7301 43.5198 50.0401 43.3598 50.3201 43.1698C50.9001 42.7798 51.3601 42.2198 51.6501 41.5798C51.7901 41.2598 51.9001 40.9198 51.9501 40.5698C51.9801 40.3998 51.9901 40.2198 52.0001 40.0498V39.7598C52.0001 39.4598 51.9101 39.1498 51.9401 38.8498C51.9601 38.6398 52.1401 38.4398 52.2001 38.2298C52.2301 38.1398 52.1701 38.0298 52.1301 37.9298C52.0901 37.7998 51.9701 37.6698 51.9901 37.5398C52.0501 37.1598 52.2001 36.7798 52.2201 36.3898C52.2201 36.1698 51.9601 35.9498 51.9501 35.7298H51.8701Z" fill="#001B38"></path>
</svg>
