<?xml version="1.0" encoding="UTF-8"?>
<svg xmlns="http://www.w3.org/2000/svg" width="61" height="60" viewBox="0 0 61 60" fill="none">
  <path d="M20 8.18014C19.3 8.19014 18.61 8.22014 17.91 8.33014C17.6 8.35014 17.28 8.33014 16.96 8.33014C16.84 8.33014 16.7 8.27014 16.62 8.31014C16.18 8.52014 15.77 8.81014 15.37 9.06014C14.99 9.36014 14.6 9.62014 14.25 9.94014C14 10.1701 13.7 10.4201 13.42 10.5201C11.77 11.0301 10.6 12.4601 10.02 14.0301C9.97003 14.1601 9.96003 14.3701 9.88003 14.4201C8.92003 15.0501 8.97003 16.2301 8.75003 17.1601C8.71003 17.2901 8.71003 17.2801 8.70003 17.3101L8.66003 17.3701C8.66003 17.3701 8.59003 17.4501 8.55003 17.4901C8.47003 17.5701 8.39003 17.6501 8.35003 17.7301C8.31003 17.8001 8.31003 17.8901 8.44003 17.9701C8.84003 18.2201 8.81003 18.3601 8.50003 18.5201C8.33003 18.6001 8.41003 18.7501 8.40003 18.8701C8.39003 19.1601 8.38003 19.4501 8.38003 19.7401C8.38003 19.8001 8.38003 19.8601 8.43003 19.9201C8.55003 20.0901 8.58003 20.2201 8.35003 20.4101C8.11003 20.6001 8.10003 20.8701 8.35003 21.0301C8.66003 21.2201 8.28003 21.3901 8.10003 21.5901C8.06003 21.6401 7.93003 21.7201 7.98003 21.7301C8.55003 21.8001 8.26003 22.0301 8.35003 22.1901C8.44003 22.3601 8.61003 22.5001 8.69003 22.6701C8.73003 22.7501 8.55003 22.8901 8.56003 22.9801C8.63003 23.4301 8.68003 23.9101 9.00003 24.2701C9.14003 24.4301 9.06003 24.6701 9.20003 24.8201C9.30003 24.9301 9.57003 24.9501 9.65003 25.0501C9.76003 25.2001 9.77003 25.4001 9.82003 25.5901C9.83003 25.6301 9.71003 25.7601 9.75003 25.7801C10.21 25.9601 9.94003 26.5701 10.27 26.8401C10.6 27.0901 10.73 27.4901 11.01 27.7901C11.47 28.3201 11.95 28.8401 12.56 29.2101C12.75 29.3101 12.93 29.4201 13.07 29.5901C13.2 29.7401 13.56 29.5901 13.75 29.6501C13.91 29.7101 13.95 29.9601 14.07 30.1001C14.18 30.2301 14.29 30.3701 14.43 30.4501C14.87 30.6801 15.31 30.9101 15.76 31.1001C15.87 31.1501 15.92 31.3501 16 31.4801C16.02 31.5101 16.03 31.5701 16.06 31.5501C16.75 31.0901 17.1 31.6601 17.64 31.6601C17.87 31.6401 18.09 31.6701 18.29 31.8101C18.45 31.9201 18.59 31.9001 18.78 31.7401C18.99 31.5401 19.21 31.9301 19.43 32.0701C19.48 32.1001 19.53 32.1901 19.58 32.1601C19.7 32.0901 19.82 31.9301 19.93 31.8901C20.24 31.7601 20.54 31.6201 20.84 31.5601C20.96 31.5301 21.11 31.7601 21.24 31.7601C21.62 31.7501 22 31.6701 22.38 31.6301L23.43 31.4101C23.78 31.3201 24.12 31.2001 24.46 31.0901C24.61 31.0501 24.7 30.8901 24.85 30.8501C24.95 30.8201 25.12 30.9401 25.24 30.9501C25.3 30.9501 25.32 30.8801 25.35 30.8201C25.39 30.7501 25.4 30.6201 25.46 30.6101C25.66 30.5801 25.9 30.6201 26.08 30.5301C26.18 30.4801 26.14 30.1901 26.23 30.1301C26.66 29.8501 27.02 29.4901 27.5 29.2801C27.67 29.2001 27.8 29.0801 27.92 28.9301C28.19 28.5801 28.62 28.4001 28.95 28.1001C28.98 28.0701 28.99 28.0201 28.95 27.9501C28.75 27.5701 29.05 27.6501 29.28 27.6401C29.38 27.6401 29.4 27.5601 29.43 27.4901C29.47 27.4101 29.38 27.2101 29.51 27.2301C29.95 27.3201 29.81 26.9901 29.66 26.7101C29.52 26.4501 29.47 26.3101 29.82 26.3701C29.96 26.4001 30.01 26.3201 30.06 26.2601C30.24 26.0101 30.41 25.7501 30.57 25.4801C30.61 25.4201 30.77 25.4301 30.91 25.3901C30.5 25.0301 30.17 24.7301 30.8 24.7801C30.91 24.7801 30.9 24.7101 30.93 24.6601C31.13 24.1301 31.32 23.5901 31.48 23.0501C31.53 22.9001 31.75 22.7901 31.88 22.6501C31.92 22.6101 31.97 22.5701 31.96 22.5201C31.9 22.2201 31.73 21.9101 31.76 21.6401C31.81 21.2901 31.82 20.9401 31.84 20.5801C31.87 20.2301 31.89 19.8701 31.87 19.5201C31.87 19.3601 31.83 19.1901 31.84 19.0301C31.84 18.9701 31.92 18.9101 31.98 18.8401C32.02 18.8001 32.15 18.7301 32.11 18.7201C31.39 18.5001 31.74 18.1301 31.65 17.8201C31.43 17.2001 31.51 16.4801 31.09 15.9201C30.85 15.5601 30.97 15.0501 30.62 14.7401C30.54 14.6701 30.71 14.4701 30.73 14.3401C30.74 14.2801 30.73 14.2101 30.65 14.2301C30.18 14.3601 30.33 14.1801 30.49 14.0001C30.34 13.9301 30.16 13.9201 30.12 13.8201C29.99 13.4901 29.89 13.1201 29.7 12.8101C29.65 12.7201 29.39 12.7901 29.36 12.7001C29.3 12.5301 29.34 12.2701 29.27 12.1001C29.24 12.0301 29.08 12.0701 28.98 12.0701C28.91 12.0701 28.75 12.1301 28.78 12.0701C29.1 11.4701 28.33 11.9001 28.35 11.5801C28.37 11.1101 27.79 11.2901 27.68 10.9601C27.64 10.8401 27.65 10.6601 27.6 10.5301C27.58 10.4801 27.49 10.5001 27.43 10.4901C27.32 10.4701 27.17 10.4901 27.11 10.4201C27.02 10.3201 27.02 10.0801 26.9 10.0101C26.79 9.93014 26.55 10.0401 26.41 10.0101C26.33 9.99014 26.33 9.84014 26.3 9.75014C26.29 9.71014 26.3 9.60014 26.27 9.63014C25.96 9.80014 25.86 9.78014 25.64 9.63014C25.32 9.46014 24.99 9.28014 24.67 9.11014C24.34 8.96014 23.99 8.84014 23.64 8.75014C22.88 8.59014 22.11 8.50014 21.35 8.41014C20.93 8.37014 20.49 8.17014 20.06 8.18014C20.05 8.18014 20.03 8.18014 20.01 8.18014V12.2301C20.34 12.2601 20.68 12.2401 21.01 12.3001C21.38 11.7901 22.49 12.0201 22.62 12.6901L22.96 12.8101C23.21 12.5701 23.43 12.5901 23.63 12.6701C23.73 12.7101 23.83 12.7701 23.93 12.8201C23.96 12.8501 23.97 12.8601 24 12.8601C24.09 12.8601 24.21 12.8201 24.3 12.8301C24.45 12.8501 24.63 12.8301 24.74 12.9301C24.87 13.0501 24.79 13.4801 25.04 13.3901C25.29 13.3101 25.09 13.7401 25.26 13.7301C25.37 13.7301 25.51 13.7101 25.62 13.7301C25.71 13.7501 25.77 13.7901 25.82 13.8501C25.87 13.9201 25.82 14.1001 25.94 14.1001C26.21 14.1001 26.27 14.3001 26.27 14.5401C26.27 14.7201 26.52 14.7001 26.64 14.7801C26.71 14.8201 26.87 14.7901 26.83 14.9101C26.74 15.1501 26.89 15.1901 27.08 15.2301C27.22 15.2701 27.11 15.4801 27.1 15.6101C27.1 15.6801 27.02 15.8001 27.1 15.8001C27.46 15.8201 27.34 16.1201 27.49 16.2701C27.68 16.4601 27.86 16.6601 27.94 16.9101C28.01 17.1101 27.91 17.3701 27.95 17.5701C27.97 17.7401 28.12 17.8901 28.21 18.0501C28.22 18.0801 28.28 18.1001 28.22 18.1301C27.82 18.3601 28.17 18.4201 28.29 18.5501C28.37 18.6301 28.29 18.7401 28.29 18.8301V19.0701C28.29 19.1701 28.25 19.2701 28.23 19.3601C28.22 19.4201 28.1 19.5001 28.23 19.5401C28.65 19.6701 28.41 19.8401 28.24 19.9801C28.16 20.0501 28.2 20.1301 28.24 20.2101C28.34 20.3901 28.45 20.5801 28.31 20.7501C28.16 20.9401 28.33 21.1601 28.31 21.3701C28.3 21.4901 28.15 21.5801 28.13 21.7001C28.1 21.8301 28.22 21.9901 28.17 22.1101C28.07 22.4001 27.61 22.5501 27.76 22.9001C27.92 23.2701 27.34 23.3101 27.56 23.7001C27.61 23.8101 27.29 23.7401 27.28 23.8201C27.24 24.0901 27.24 24.3901 27.18 24.6701C27.16 24.7401 26.97 24.7101 26.85 24.7101C26.78 24.7101 26.67 24.7101 26.66 24.7401C26.54 24.9901 26.5 25.3101 26.32 25.5201C26.22 25.6501 25.95 25.6301 25.84 25.7601C25.74 25.8801 25.72 26.0901 25.67 26.2701C25.67 26.2901 25.68 26.3301 25.66 26.3201C25.19 26.0701 25.25 26.3701 25.24 26.6801C25.24 26.9101 24.91 26.7601 24.73 26.7701C24.68 26.7701 24.61 26.7701 24.57 26.7901C24.34 26.9101 24.1 26.9901 23.9 27.1701C23.73 27.3001 23.6 27.5501 23.44 27.7301C23.41 27.7701 23.32 27.7001 23.28 27.7201L22.95 27.8501C22.88 27.8701 22.79 27.8801 22.71 27.8901C22.58 27.9001 22.44 27.8901 22.32 27.9301C22.25 27.9501 22.23 28.1401 22.16 28.1701C21.9 28.3001 21.64 28.6501 21.31 28.3901C21 28.1501 20.82 28.7401 20.54 28.5701C20.37 28.4601 20.2 28.4001 20.04 28.3201C20.04 28.3201 20.03 28.3001 20.03 28.3101C19.86 28.8301 19.72 28.0601 19.57 28.1401C19.52 28.1601 19.47 28.0801 19.43 28.2001C19.22 28.8101 19.09 28.3001 18.94 28.2301C18.84 28.2001 18.73 28.2901 18.62 28.3401C18.6 28.3401 18.57 28.4401 18.55 28.4301C18.41 28.3201 18.29 28.1901 18.16 28.0801C18.05 28.0001 17.94 27.9701 17.82 27.9201C17.72 27.8701 17.62 27.8001 17.51 27.7801C17.38 27.7601 17.21 27.8401 17.07 27.8301C16.94 27.8301 16.83 27.7501 16.72 27.7101L16.56 27.6201C16.56 27.6201 16.47 27.5901 16.42 27.5801L16.21 27.5301C16.09 27.5001 15.85 27.6401 15.87 27.3901C15.9 27.0401 15.6 27.4101 15.42 27.4901C15.35 27.5201 15.24 27.6101 15.22 27.5601C15.15 27.3901 15.1 27.2001 15.11 26.9401C15.11 26.7001 14.9 26.7801 14.78 26.7001C14.58 26.5901 14.54 26.2901 14.39 26.1301C14.25 25.9801 14.01 25.9401 13.89 25.7601C13.77 25.5901 13.77 25.3301 13.65 25.1701C13.58 25.0601 13.38 25.0401 13.23 24.9801C13.21 24.9701 13.17 24.9601 13.18 24.9301C13.26 24.5801 13.2 24.3801 12.71 24.4001C12.53 24.4001 12.68 24.1801 12.62 24.1001C12.54 24.0001 12.38 23.9401 12.34 23.8201C12.31 23.7301 12.43 23.5801 12.49 23.4501C12.49 23.4301 12.55 23.3901 12.54 23.3801C12.41 23.3001 12.24 23.2201 12.14 23.1201C12.1 23.0801 12.18 23.0001 12.18 22.9501C12.18 22.8601 12.18 22.7601 12.14 22.6801C12.09 22.5701 12.05 22.4601 11.93 22.3701C11.79 22.2701 12.3 22.0101 11.77 22.0101C11.7 22.0101 11.66 21.9901 11.66 21.9601C11.72 21.7901 11.81 21.6201 11.88 21.4501C11.91 21.3601 11.9 21.2801 11.84 21.2101C11.73 21.0501 11.49 20.8901 11.45 20.7101C11.42 20.5601 11.62 20.4001 11.62 20.2601C11.62 20.1501 11.41 20.0501 11.4 19.9301C11.38 19.6901 11.32 19.4401 11.48 19.2201C11.59 19.0501 11.5 18.8701 11.51 18.7001C11.51 18.6001 11.74 18.5401 11.76 18.4401C11.78 18.3101 11.64 18.1501 11.69 18.0301L11.72 17.9501L11.82 17.6101C11.88 17.3601 12.02 17.1301 12.11 16.9001C12.33 16.4401 12.59 15.9901 12.89 15.5901C13.26 15.0501 13.78 14.6401 14.18 14.1501C14.37 13.9601 14.51 13.7401 14.66 13.5001C14.83 13.2801 15 13.0601 15.2 12.8701C15.46 12.6801 15.83 12.6401 16.14 12.5301C16.78 12.2801 17.58 12.3201 18.03 11.9401C18.63 11.4101 19.34 11.4401 19.99 11.5401V8.14014L20 8.18014Z" fill="#001B38"></path>
  <path d="M20 8.18014C19.3 8.19014 18.61 8.22014 17.91 8.33014C17.6 8.35014 17.28 8.33014 16.96 8.33014C16.84 8.33014 16.7 8.27014 16.62 8.31014C16.18 8.52014 15.77 8.81014 15.37 9.06014C14.99 9.36014 14.6 9.62014 14.25 9.94014C14 10.1701 13.7 10.4201 13.42 10.5201C11.77 11.0301 10.6 12.4601 10.02 14.0301C9.97003 14.1601 9.96003 14.3701 9.88003 14.4201C8.92003 15.0501 8.97003 16.2301 8.75003 17.1601C8.71003 17.2901 8.71003 17.2801 8.70003 17.3101L8.66003 17.3701C8.66003 17.3701 8.59003 17.4501 8.55003 17.4901C8.47003 17.5701 8.39003 17.6501 8.35003 17.7301C8.31003 17.8001 8.31003 17.8901 8.44003 17.9701C8.84003 18.2201 8.81003 18.3601 8.50003 18.5201C8.33003 18.6001 8.41003 18.7501 8.40003 18.8701C8.39003 19.1601 8.38003 19.4501 8.38003 19.7401C8.38003 19.8001 8.38003 19.8601 8.43003 19.9201C8.55003 20.0901 8.58003 20.2201 8.35003 20.4101C8.11003 20.6001 8.10003 20.8701 8.35003 21.0301C8.66003 21.2201 8.28003 21.3901 8.10003 21.5901C8.06003 21.6401 7.93003 21.7201 7.98003 21.7301C8.55003 21.8001 8.26003 22.0301 8.35003 22.1901C8.44003 22.3601 8.61003 22.5001 8.69003 22.6701C8.73003 22.7501 8.55003 22.8901 8.56003 22.9801C8.63003 23.4301 8.68003 23.9101 9.00003 24.2701C9.14003 24.4301 9.06003 24.6701 9.20003 24.8201C9.30003 24.9301 9.57003 24.9501 9.65003 25.0501C9.76003 25.2001 9.77003 25.4001 9.82003 25.5901C9.83003 25.6301 9.71003 25.7601 9.75003 25.7801C10.21 25.9601 9.94003 26.5701 10.27 26.8401C10.6 27.0901 10.73 27.4901 11.01 27.7901C11.47 28.3201 11.95 28.8401 12.56 29.2101C12.75 29.3101 12.93 29.4201 13.07 29.5901C13.2 29.7401 13.56 29.5901 13.75 29.6501C13.91 29.7101 13.95 29.9601 14.07 30.1001C14.18 30.2301 14.29 30.3701 14.43 30.4501C14.87 30.6801 15.31 30.9101 15.76 31.1001C15.87 31.1501 15.92 31.3501 16 31.4801C16.02 31.5101 16.03 31.5701 16.06 31.5501C16.75 31.0901 17.1 31.6601 17.64 31.6601C17.87 31.6401 18.09 31.6701 18.29 31.8101C18.45 31.9201 18.59 31.9001 18.78 31.7401C18.99 31.5401 19.21 31.9301 19.43 32.0701C19.48 32.1001 19.53 32.1901 19.58 32.1601C19.7 32.0901 19.82 31.9301 19.93 31.8901C20.24 31.7601 20.54 31.6201 20.84 31.5601C20.96 31.5301 21.11 31.7601 21.24 31.7601C21.62 31.7501 22 31.6701 22.38 31.6301L23.43 31.4101C23.78 31.3201 24.12 31.2001 24.46 31.0901C24.61 31.0501 24.7 30.8901 24.85 30.8501C24.95 30.8201 25.12 30.9401 25.24 30.9501C25.3 30.9501 25.32 30.8801 25.35 30.8201C25.39 30.7501 25.4 30.6201 25.46 30.6101C25.66 30.5801 25.9 30.6201 26.08 30.5301C26.18 30.4801 26.14 30.1901 26.23 30.1301C26.66 29.8501 27.02 29.4901 27.5 29.2801C27.67 29.2001 27.8 29.0801 27.92 28.9301C28.19 28.5801 28.62 28.4001 28.95 28.1001C28.98 28.0701 28.99 28.0201 28.95 27.9501C28.75 27.5701 29.05 27.6501 29.28 27.6401C29.38 27.6401 29.4 27.5601 29.43 27.4901C29.47 27.4101 29.38 27.2101 29.51 27.2301C29.95 27.3201 29.81 26.9901 29.66 26.7101C29.52 26.4501 29.47 26.3101 29.82 26.3701C29.96 26.4001 30.01 26.3201 30.06 26.2601C30.24 26.0101 30.41 25.7501 30.57 25.4801C30.61 25.4201 30.77 25.4301 30.91 25.3901C30.5 25.0301 30.17 24.7301 30.8 24.7801C30.91 24.7801 30.9 24.7101 30.93 24.6601C31.13 24.1301 31.32 23.5901 31.48 23.0501C31.53 22.9001 31.75 22.7901 31.88 22.6501C31.92 22.6101 31.97 22.5701 31.96 22.5201C31.9 22.2201 31.73 21.9101 31.76 21.6401C31.81 21.2901 31.82 20.9401 31.84 20.5801C31.87 20.2301 31.89 19.8701 31.87 19.5201C31.87 19.3601 31.83 19.1901 31.84 19.0301C31.84 18.9701 31.92 18.9101 31.98 18.8401C32.02 18.8001 32.15 18.7301 32.11 18.7201C31.39 18.5001 31.74 18.1301 31.65 17.8201C31.43 17.2001 31.51 16.4801 31.09 15.9201C30.85 15.5601 30.97 15.0501 30.62 14.7401C30.54 14.6701 30.71 14.4701 30.73 14.3401C30.74 14.2801 30.73 14.2101 30.65 14.2301C30.18 14.3601 30.33 14.1801 30.49 14.0001C30.34 13.9301 30.16 13.9201 30.12 13.8201C29.99 13.4901 29.89 13.1201 29.7 12.8101C29.65 12.7201 29.39 12.7901 29.36 12.7001C29.3 12.5301 29.34 12.2701 29.27 12.1001C29.24 12.0301 29.08 12.0701 28.98 12.0701C28.91 12.0701 28.75 12.1301 28.78 12.0701C29.1 11.4701 28.33 11.9001 28.35 11.5801C28.37 11.1101 27.79 11.2901 27.68 10.9601C27.64 10.8401 27.65 10.6601 27.6 10.5301C27.58 10.4801 27.49 10.5001 27.43 10.4901C27.32 10.4701 27.17 10.4901 27.11 10.4201C27.02 10.3201 27.02 10.0801 26.9 10.0101C26.79 9.93014 26.55 10.0401 26.41 10.0101C26.33 9.99014 26.33 9.84014 26.3 9.75014C26.29 9.71014 26.3 9.60014 26.27 9.63014C25.96 9.80014 25.86 9.78014 25.64 9.63014C25.32 9.46014 24.99 9.28014 24.67 9.11014C24.34 8.96014 23.99 8.84014 23.64 8.75014C22.88 8.59014 22.11 8.50014 21.35 8.41014C20.93 8.37014 20.49 8.17014 20.06 8.18014C20.05 8.18014 20.03 8.18014 20.01 8.18014V12.2301C20.34 12.2601 20.68 12.2401 21.01 12.3001C21.38 11.7901 22.49 12.0201 22.62 12.6901L22.96 12.8101C23.21 12.5701 23.43 12.5901 23.63 12.6701C23.73 12.7101 23.83 12.7701 23.93 12.8201C23.96 12.8501 23.97 12.8601 24 12.8601C24.09 12.8601 24.21 12.8201 24.3 12.8301C24.45 12.8501 24.63 12.8301 24.74 12.9301C24.87 13.0501 24.79 13.4801 25.04 13.3901C25.29 13.3101 25.09 13.7401 25.26 13.7301C25.37 13.7301 25.51 13.7101 25.62 13.7301C25.71 13.7501 25.77 13.7901 25.82 13.8501C25.87 13.9201 25.82 14.1001 25.94 14.1001C26.21 14.1001 26.27 14.3001 26.27 14.5401C26.27 14.7201 26.52 14.7001 26.64 14.7801C26.71 14.8201 26.87 14.7901 26.83 14.9101C26.74 15.1501 26.89 15.1901 27.08 15.2301C27.22 15.2701 27.11 15.4801 27.1 15.6101C27.1 15.6801 27.02 15.8001 27.1 15.8001C27.46 15.8201 27.34 16.1201 27.49 16.2701C27.68 16.4601 27.86 16.6601 27.94 16.9101C28.01 17.1101 27.91 17.3701 27.95 17.5701C27.97 17.7401 28.12 17.8901 28.21 18.0501C28.22 18.0801 28.28 18.1001 28.22 18.1301C27.82 18.3601 28.17 18.4201 28.29 18.5501C28.37 18.6301 28.29 18.7401 28.29 18.8301V19.0701C28.29 19.1701 28.25 19.2701 28.23 19.3601C28.22 19.4201 28.1 19.5001 28.23 19.5401C28.65 19.6701 28.41 19.8401 28.24 19.9801C28.16 20.0501 28.2 20.1301 28.24 20.2101C28.34 20.3901 28.45 20.5801 28.31 20.7501C28.16 20.9401 28.33 21.1601 28.31 21.3701C28.3 21.4901 28.15 21.5801 28.13 21.7001C28.1 21.8301 28.22 21.9901 28.17 22.1101C28.07 22.4001 27.61 22.5501 27.76 22.9001C27.92 23.2701 27.34 23.3101 27.56 23.7001C27.61 23.8101 27.29 23.7401 27.28 23.8201C27.24 24.0901 27.24 24.3901 27.18 24.6701C27.16 24.7401 26.97 24.7101 26.85 24.7101C26.78 24.7101 26.67 24.7101 26.66 24.7401C26.54 24.9901 26.5 25.3101 26.32 25.5201C26.22 25.6501 25.95 25.6301 25.84 25.7601C25.74 25.8801 25.72 26.0901 25.67 26.2701C25.67 26.2901 25.68 26.3301 25.66 26.3201C25.19 26.0701 25.25 26.3701 25.24 26.6801C25.24 26.9101 24.91 26.7601 24.73 26.7701C24.68 26.7701 24.61 26.7701 24.57 26.7901C24.34 26.9101 24.1 26.9901 23.9 27.1701C23.73 27.3001 23.6 27.5501 23.44 27.7301C23.41 27.7701 23.32 27.7001 23.28 27.7201L22.95 27.8501C22.88 27.8701 22.79 27.8801 22.71 27.8901C22.58 27.9001 22.44 27.8901 22.32 27.9301C22.25 27.9501 22.23 28.1401 22.16 28.1701C21.9 28.3001 21.64 28.6501 21.31 28.3901C21 28.1501 20.82 28.7401 20.54 28.5701C20.37 28.4601 20.2 28.4001 20.04 28.3201C20.04 28.3201 20.03 28.3001 20.03 28.3101C19.86 28.8301 19.72 28.0601 19.57 28.1401C19.52 28.1601 19.47 28.0801 19.43 28.2001C19.22 28.8101 19.09 28.3001 18.94 28.2301C18.84 28.2001 18.73 28.2901 18.62 28.3401C18.6 28.3401 18.57 28.4401 18.55 28.4301C18.41 28.3201 18.29 28.1901 18.16 28.0801C18.05 28.0001 17.94 27.9701 17.82 27.9201C17.72 27.8701 17.62 27.8001 17.51 27.7801C17.38 27.7601 17.21 27.8401 17.07 27.8301C16.94 27.8301 16.83 27.7501 16.72 27.7101L16.56 27.6201C16.56 27.6201 16.47 27.5901 16.42 27.5801L16.21 27.5301C16.09 27.5001 15.85 27.6401 15.87 27.3901C15.9 27.0401 15.6 27.4101 15.42 27.4901C15.35 27.5201 15.24 27.6101 15.22 27.5601C15.15 27.3901 15.1 27.2001 15.11 26.9401C15.11 26.7001 14.9 26.7801 14.78 26.7001C14.58 26.5901 14.54 26.2901 14.39 26.1301C14.25 25.9801 14.01 25.9401 13.89 25.7601C13.77 25.5901 13.77 25.3301 13.65 25.1701C13.58 25.0601 13.38 25.0401 13.23 24.9801C13.21 24.9701 13.17 24.9601 13.18 24.9301C13.26 24.5801 13.2 24.3801 12.71 24.4001C12.53 24.4001 12.68 24.1801 12.62 24.1001C12.54 24.0001 12.38 23.9401 12.34 23.8201C12.31 23.7301 12.43 23.5801 12.49 23.4501C12.49 23.4301 12.55 23.3901 12.54 23.3801C12.41 23.3001 12.24 23.2201 12.14 23.1201C12.1 23.0801 12.18 23.0001 12.18 22.9501C12.18 22.8601 12.18 22.7601 12.14 22.6801C12.09 22.5701 12.05 22.4601 11.93 22.3701C11.79 22.2701 12.3 22.0101 11.77 22.0101C11.7 22.0101 11.66 21.9901 11.66 21.9601C11.72 21.7901 11.81 21.6201 11.88 21.4501C11.91 21.3601 11.9 21.2801 11.84 21.2101C11.73 21.0501 11.49 20.8901 11.45 20.7101C11.42 20.5601 11.62 20.4001 11.62 20.2601C11.62 20.1501 11.41 20.0501 11.4 19.9301C11.38 19.6901 11.32 19.4401 11.48 19.2201C11.59 19.0501 11.5 18.8701 11.51 18.7001C11.51 18.6001 11.74 18.5401 11.76 18.4401C11.78 18.3101 11.64 18.1501 11.69 18.0301L11.72 17.9501L11.82 17.6101C11.88 17.3601 12.02 17.1301 12.11 16.9001C12.33 16.4401 12.59 15.9901 12.89 15.5901C13.26 15.0501 13.78 14.6401 14.18 14.1501C14.37 13.9601 14.51 13.7401 14.66 13.5001C14.83 13.2801 15 13.0601 15.2 12.8701C15.46 12.6801 15.83 12.6401 16.14 12.5301C16.78 12.2801 17.58 12.3201 18.03 11.9401C18.63 11.4101 19.34 11.4401 19.99 11.5401V8.14014L20 8.18014Z" fill="#001B38"></path>
  <path d="M40 28.1801C39.3 28.1901 38.61 28.2201 37.91 28.3301C37.6 28.3501 37.28 28.3301 36.96 28.3301C36.84 28.3301 36.7 28.2701 36.62 28.3101C36.18 28.5201 35.77 28.8101 35.37 29.0601C34.99 29.3601 34.6 29.6201 34.25 29.9401C34 30.1701 33.7 30.4201 33.42 30.5201C31.77 31.0301 30.6 32.4601 30.02 34.0301C29.97 34.1601 29.96 34.3701 29.88 34.4201C28.92 35.0501 28.97 36.2301 28.75 37.1601C28.71 37.2901 28.71 37.2801 28.7 37.3101L28.66 37.3701C28.66 37.3701 28.59 37.4501 28.55 37.4901C28.47 37.5701 28.39 37.6501 28.35 37.7301C28.31 37.8001 28.31 37.8901 28.44 37.9701C28.84 38.2201 28.81 38.3601 28.5 38.5201C28.33 38.6001 28.41 38.7501 28.4 38.8701C28.39 39.1601 28.38 39.4501 28.38 39.7401C28.38 39.8001 28.38 39.8601 28.43 39.9201C28.55 40.0901 28.58 40.2201 28.35 40.4101C28.11 40.6001 28.1 40.8701 28.35 41.0301C28.66 41.2201 28.28 41.3901 28.1 41.5901C28.06 41.6401 27.93 41.7201 27.98 41.7301C28.55 41.8001 28.26 42.0301 28.35 42.1901C28.44 42.3601 28.61 42.5001 28.69 42.6701C28.73 42.7501 28.55 42.8901 28.56 42.9801C28.63 43.4301 28.68 43.9101 29 44.2701C29.14 44.4301 29.06 44.6701 29.2 44.8201C29.3 44.9301 29.57 44.9501 29.65 45.0501C29.76 45.2001 29.77 45.4001 29.82 45.5901C29.83 45.6301 29.71 45.7601 29.75 45.7801C30.21 45.9601 29.94 46.5701 30.27 46.8401C30.6 47.0901 30.73 47.4901 31.01 47.7901C31.47 48.3201 31.95 48.8401 32.56 49.2101C32.75 49.3101 32.93 49.4201 33.07 49.5901C33.2 49.7401 33.56 49.5901 33.75 49.6501C33.91 49.7101 33.95 49.9601 34.07 50.1001C34.18 50.2301 34.29 50.3701 34.43 50.4501C34.87 50.6801 35.31 50.9101 35.76 51.1001C35.87 51.1501 35.92 51.3501 36 51.4801C36.02 51.5101 36.03 51.5701 36.06 51.5501C36.75 51.0901 37.1 51.6601 37.64 51.6601C37.87 51.6401 38.09 51.6701 38.29 51.8101C38.45 51.9201 38.59 51.9001 38.78 51.7401C38.99 51.5401 39.21 51.9301 39.43 52.0701C39.48 52.1001 39.53 52.1901 39.58 52.1601C39.7 52.0901 39.82 51.9301 39.93 51.8901C40.24 51.7601 40.54 51.6201 40.84 51.5601C40.96 51.5301 41.11 51.7601 41.24 51.7601C41.62 51.7501 42 51.6701 42.38 51.6301L43.43 51.4101C43.78 51.3201 44.12 51.2001 44.46 51.0901C44.61 51.0501 44.7 50.8901 44.85 50.8501C44.95 50.8201 45.12 50.9401 45.24 50.9501C45.3 50.9501 45.32 50.8801 45.35 50.8201C45.39 50.7501 45.4 50.6201 45.46 50.6101C45.66 50.5801 45.9 50.6201 46.08 50.5301C46.18 50.4801 46.14 50.1901 46.23 50.1301C46.66 49.8501 47.02 49.4901 47.5 49.2801C47.67 49.2001 47.8 49.0801 47.92 48.9301C48.19 48.5801 48.62 48.4001 48.95 48.1001C48.98 48.0701 48.99 48.0201 48.95 47.9501C48.75 47.5701 49.05 47.6501 49.28 47.6401C49.38 47.6401 49.4 47.5601 49.43 47.4901C49.47 47.4101 49.38 47.2101 49.51 47.2301C49.95 47.3201 49.81 46.9901 49.66 46.7101C49.52 46.4501 49.47 46.3101 49.82 46.3701C49.96 46.4001 50.01 46.3201 50.06 46.2601C50.24 46.0101 50.41 45.7501 50.57 45.4801C50.61 45.4201 50.77 45.4301 50.91 45.3901C50.5 45.0301 50.17 44.7301 50.8 44.7801C50.91 44.7801 50.9 44.7101 50.93 44.6601C51.13 44.1301 51.32 43.5901 51.48 43.0501C51.53 42.9001 51.75 42.7901 51.88 42.6501C51.92 42.6101 51.97 42.5701 51.96 42.5201C51.9 42.2201 51.73 41.9101 51.76 41.6401C51.81 41.2901 51.82 40.9401 51.84 40.5801C51.87 40.2301 51.89 39.8701 51.87 39.5201C51.87 39.3601 51.83 39.1901 51.84 39.0301C51.84 38.9701 51.92 38.9101 51.98 38.8401C52.02 38.8001 52.15 38.7301 52.11 38.7201C51.39 38.5001 51.74 38.1301 51.65 37.8201C51.43 37.2001 51.51 36.4801 51.09 35.9201C50.85 35.5601 50.97 35.0501 50.62 34.7401C50.54 34.6701 50.71 34.4701 50.73 34.3401C50.74 34.2801 50.73 34.2101 50.65 34.2301C50.18 34.3601 50.33 34.1801 50.49 34.0001C50.34 33.9301 50.16 33.9201 50.12 33.8201C49.99 33.4901 49.89 33.1201 49.7 32.8101C49.65 32.7201 49.39 32.7901 49.36 32.7001C49.3 32.5301 49.34 32.2701 49.27 32.1001C49.24 32.0301 49.08 32.0701 48.98 32.0701C48.91 32.0701 48.75 32.1301 48.78 32.0701C49.1 31.4701 48.33 31.9001 48.35 31.5801C48.37 31.1101 47.79 31.2901 47.68 30.9601C47.64 30.8401 47.65 30.6601 47.6 30.5301C47.58 30.4801 47.49 30.5001 47.43 30.4901C47.32 30.4701 47.17 30.4901 47.11 30.4201C47.02 30.3201 47.02 30.0801 46.9 30.0101C46.79 29.9301 46.55 30.0401 46.41 30.0101C46.33 29.9901 46.33 29.8401 46.3 29.7501C46.29 29.7101 46.3 29.6001 46.27 29.6301C45.96 29.8001 45.86 29.7801 45.64 29.6301C45.32 29.4601 44.99 29.2801 44.67 29.1101C44.34 28.9601 43.99 28.8401 43.64 28.7501C42.88 28.5901 42.11 28.5001 41.35 28.4101C40.93 28.3701 40.49 28.1701 40.06 28.1801C40.05 28.1801 40.03 28.1801 40.01 28.1801V32.2301C40.34 32.2601 40.68 32.2401 41.01 32.3001C41.38 31.7901 42.49 32.0201 42.62 32.6901L42.96 32.8101C43.21 32.5701 43.43 32.5901 43.63 32.6701C43.73 32.7101 43.83 32.7701 43.93 32.8201C43.96 32.8501 43.97 32.8601 44 32.8601C44.09 32.8601 44.21 32.8201 44.3 32.8301C44.45 32.8501 44.63 32.8301 44.74 32.9301C44.87 33.0501 44.79 33.4801 45.04 33.3901C45.29 33.3101 45.09 33.7401 45.26 33.7301C45.37 33.7301 45.51 33.7101 45.62 33.7301C45.71 33.7501 45.77 33.7901 45.82 33.8501C45.87 33.9201 45.82 34.1001 45.94 34.1001C46.21 34.1001 46.27 34.3001 46.27 34.5401C46.27 34.7201 46.52 34.7001 46.64 34.7801C46.71 34.8201 46.87 34.7901 46.83 34.9101C46.74 35.1501 46.89 35.1901 47.08 35.2301C47.22 35.2701 47.11 35.4801 47.1 35.6101C47.1 35.6801 47.02 35.8001 47.1 35.8001C47.46 35.8201 47.34 36.1201 47.49 36.2701C47.68 36.4601 47.86 36.6601 47.94 36.9101C48.01 37.1101 47.91 37.3701 47.95 37.5701C47.97 37.7401 48.12 37.8901 48.21 38.0501C48.22 38.0801 48.28 38.1001 48.22 38.1301C47.82 38.3601 48.17 38.4201 48.29 38.5501C48.37 38.6301 48.29 38.7401 48.29 38.8301V39.0701C48.29 39.1701 48.25 39.2701 48.23 39.3601C48.22 39.4201 48.1 39.5001 48.23 39.5401C48.65 39.6701 48.41 39.8401 48.24 39.9801C48.16 40.0501 48.2 40.1301 48.24 40.2101C48.34 40.3901 48.45 40.5801 48.31 40.7501C48.16 40.9401 48.33 41.1601 48.31 41.3701C48.3 41.4901 48.15 41.5801 48.13 41.7001C48.1 41.8301 48.22 41.9901 48.17 42.1101C48.07 42.4001 47.61 42.5501 47.76 42.9001C47.92 43.2701 47.34 43.3101 47.56 43.7001C47.61 43.8101 47.29 43.7401 47.28 43.8201C47.24 44.0901 47.24 44.3901 47.18 44.6701C47.16 44.7401 46.97 44.7101 46.85 44.7101C46.78 44.7101 46.67 44.7101 46.66 44.7401C46.54 44.9901 46.5 45.3101 46.32 45.5201C46.22 45.6501 45.95 45.6301 45.84 45.7601C45.74 45.8801 45.72 46.0901 45.67 46.2701C45.67 46.2901 45.68 46.3301 45.66 46.3201C45.19 46.0701 45.25 46.3701 45.24 46.6801C45.24 46.9101 44.91 46.7601 44.73 46.7701C44.68 46.7701 44.61 46.7701 44.57 46.7901C44.34 46.9101 44.1 46.9901 43.9 47.1701C43.73 47.3001 43.6 47.5501 43.44 47.7301C43.41 47.7701 43.32 47.7001 43.28 47.7201L42.95 47.8501C42.88 47.8701 42.79 47.8801 42.71 47.8901C42.58 47.9001 42.44 47.8901 42.32 47.9301C42.25 47.9501 42.23 48.1401 42.16 48.1701C41.9 48.3001 41.64 48.6501 41.31 48.3901C41 48.1501 40.82 48.7401 40.54 48.5701C40.37 48.4601 40.2 48.4001 40.04 48.3201C40.04 48.3201 40.03 48.3001 40.03 48.3101C39.86 48.8301 39.72 48.0601 39.57 48.1401C39.52 48.1601 39.47 48.0801 39.43 48.2001C39.22 48.8101 39.09 48.3001 38.94 48.2301C38.84 48.2001 38.73 48.2901 38.62 48.3401C38.6 48.3401 38.57 48.4401 38.55 48.4301C38.41 48.3201 38.29 48.1901 38.16 48.0801C38.05 48.0001 37.94 47.9701 37.82 47.9201C37.72 47.8701 37.62 47.8001 37.51 47.7801C37.38 47.7601 37.21 47.8401 37.07 47.8301C36.94 47.8301 36.83 47.7501 36.72 47.7101L36.56 47.6201C36.56 47.6201 36.47 47.5901 36.42 47.5801L36.21 47.5301C36.09 47.5001 35.85 47.6401 35.87 47.3901C35.9 47.0401 35.6 47.4101 35.42 47.4901C35.35 47.5201 35.24 47.6101 35.22 47.5601C35.15 47.3901 35.1 47.2001 35.11 46.9401C35.11 46.7001 34.9 46.7801 34.78 46.7001C34.58 46.5901 34.54 46.2901 34.39 46.1301C34.25 45.9801 34.01 45.9401 33.89 45.7601C33.77 45.5901 33.77 45.3301 33.65 45.1701C33.58 45.0601 33.38 45.0401 33.23 44.9801C33.21 44.9701 33.17 44.9601 33.18 44.9301C33.26 44.5801 33.2 44.3801 32.71 44.4001C32.53 44.4001 32.68 44.1801 32.62 44.1001C32.54 44.0001 32.38 43.9401 32.34 43.8201C32.31 43.7301 32.43 43.5801 32.49 43.4501C32.49 43.4301 32.55 43.3901 32.54 43.3801C32.41 43.3001 32.24 43.2201 32.14 43.1201C32.1 43.0801 32.18 43.0001 32.18 42.9501C32.18 42.8601 32.18 42.7601 32.14 42.6801C32.09 42.5701 32.05 42.4601 31.93 42.3701C31.79 42.2701 32.3 42.0101 31.77 42.0101C31.7 42.0101 31.66 41.9901 31.66 41.9601C31.72 41.7901 31.81 41.6201 31.88 41.4501C31.91 41.3601 31.9 41.2801 31.84 41.2101C31.73 41.0501 31.49 40.8901 31.45 40.7101C31.42 40.5601 31.62 40.4001 31.62 40.2601C31.62 40.1501 31.41 40.0501 31.4 39.9301C31.38 39.6901 31.32 39.4401 31.48 39.2201C31.59 39.0501 31.5 38.8701 31.51 38.7001C31.51 38.6001 31.74 38.5401 31.76 38.4401C31.78 38.3101 31.64 38.1501 31.69 38.0301L31.72 37.9501L31.82 37.6101C31.88 37.3601 32.02 37.1301 32.11 36.9001C32.33 36.4401 32.59 35.9901 32.89 35.5901C33.26 35.0501 33.78 34.6401 34.18 34.1501C34.37 33.9601 34.51 33.7401 34.66 33.5001C34.83 33.2801 35 33.0601 35.2 32.8701C35.46 32.6801 35.83 32.6401 36.14 32.5301C36.78 32.2801 37.58 32.3201 38.03 31.9401C38.63 31.4101 39.34 31.4401 39.99 31.5401V28.1401L40 28.1801Z" fill="#001B38"></path>
  <path d="M20 20C21.1046 20 22 19.1046 22 18C22 16.8954 21.1046 16 20 16C18.8954 16 18 16.8954 18 18C18 19.1046 18.8954 20 20 20Z" fill="#001B38"></path>
  <path d="M19.9999 14.1798C19.9299 14.1798 19.8699 14.1598 19.7999 14.1398C19.7699 14.1298 19.7299 14.0098 19.6999 13.9398C19.6899 13.9098 19.6699 13.8198 19.6599 13.8398C19.5799 14.0298 19.5099 14.2598 19.4599 14.4498C19.4399 14.5198 19.4199 14.5998 19.3799 14.5098C19.1399 14.0198 18.9699 14.1998 18.9199 14.5298C18.9199 14.5598 18.9199 14.6598 18.9099 14.6198C18.6399 14.1198 18.7199 14.6498 18.6399 14.6598C18.5699 14.6698 18.4299 14.5398 18.3299 14.5198C18.2899 14.5198 18.2599 14.5398 18.2999 14.6698C18.4299 15.0898 18.3899 15.0998 18.1799 14.8998C18.0599 14.7898 18.0699 14.8998 18.0299 14.9298C17.9299 14.9898 17.8399 15.0698 17.7599 15.1498C17.7399 15.1698 17.7299 15.1898 17.7399 15.2398C17.7699 15.3798 17.7399 15.4298 17.5299 15.2998C17.3099 15.1698 17.1999 15.2298 17.3299 15.4598C17.4899 15.7298 17.1499 15.4898 16.9499 15.4198C16.8999 15.3998 16.7699 15.3298 16.7999 15.3698C17.1899 15.7698 16.8899 15.6298 16.8999 15.7298C16.8999 15.8298 16.9799 15.9698 16.9699 16.0398C16.9699 16.0798 16.7699 15.9998 16.7399 16.0298C16.6199 16.1698 16.4199 16.3098 16.5099 16.5498C16.5499 16.6598 16.3799 16.6698 16.3999 16.7698C16.4199 16.8398 16.6299 16.9598 16.6399 17.0198C16.6499 17.0998 16.5599 17.1498 16.4999 17.2098C16.4799 17.2198 16.3099 17.2098 16.3399 17.2298C16.5999 17.4398 16.0599 17.5098 16.1499 17.6998C16.2499 17.8698 16.1299 18.0298 16.1499 18.1998C16.1599 18.4898 16.1699 18.8098 16.3499 19.0598C16.3999 19.1398 16.4599 19.2098 16.4399 19.3098C16.4299 19.4098 16.7799 19.3498 16.8399 19.4098C16.8899 19.4598 16.7599 19.5898 16.7299 19.6898C16.6999 19.7798 16.6899 19.8598 16.7199 19.9298C16.7999 20.1198 16.9299 20.2798 17.0299 20.4698C17.0499 20.5098 16.9599 20.6598 16.9199 20.7598C16.9199 20.7798 16.8799 20.8298 16.9099 20.8198C17.5499 20.5198 17.3399 21.0098 17.6099 21.0498C17.7199 21.0598 17.7899 21.1198 17.8099 21.2598C17.8199 21.3698 17.8999 21.3698 18.0599 21.2498C18.2399 21.1098 18.1299 21.4898 18.1699 21.6398C18.1699 21.6698 18.1599 21.7598 18.1899 21.7498C18.2699 21.7098 18.3899 21.5798 18.4499 21.5498C18.6199 21.4898 18.7799 21.4198 18.9099 21.4098C18.9599 21.4098 18.9499 21.6398 18.9999 21.6698C19.1399 21.7498 19.2999 21.7698 19.4599 21.8098C19.7499 21.8898 20.0499 21.9298 20.3599 21.9298C20.4199 21.9298 20.4799 21.8198 20.5399 21.8398C20.5799 21.8498 20.6499 22.0198 20.7099 22.0798C20.7399 22.1098 20.7499 22.0398 20.7599 21.9998C20.7799 21.9498 20.7899 21.8298 20.8199 21.8498C20.9099 21.8898 21.0299 22.0198 21.1199 22.0098C21.1699 22.0098 21.1399 21.7398 21.1899 21.7198C21.3899 21.6198 21.5599 21.4998 21.7999 21.5098C21.8899 21.5098 21.9599 21.4798 22.0099 21.4098C22.1199 21.2498 22.3699 21.2798 22.5499 21.2098C22.5699 21.2098 22.5699 21.1698 22.5299 21.0998C22.3299 20.7498 22.5299 20.9198 22.6999 21.0098C22.7699 21.0498 22.7799 21.0098 22.7899 20.9698C22.8099 20.9298 22.6999 20.7598 22.8099 20.8298C23.1499 21.0598 22.9899 20.7798 22.8099 20.5398C22.6499 20.3198 22.5799 20.2198 22.8699 20.3898C22.9899 20.4598 23.0199 20.4298 23.0399 20.4098C23.1399 20.3198 23.2099 20.2198 23.3099 20.1198C23.3299 20.0998 23.4799 20.1598 23.5899 20.1798C23.1699 19.8498 22.8299 19.6098 23.3899 19.8198C23.4899 19.8498 23.4699 19.8198 23.4799 19.7898C23.5899 19.5798 23.6499 19.3498 23.7599 19.1298C23.7899 19.0698 23.9799 19.0498 24.0899 18.9998C24.1199 18.9898 24.1699 18.9698 24.1499 18.9498C24.0699 18.7998 23.8799 18.6498 23.8799 18.5298C23.8799 18.2298 23.9299 17.9398 23.9099 17.6398C23.9099 17.5698 23.8699 17.4998 23.8799 17.4298C23.8799 17.3998 23.9599 17.3698 24.0099 17.3298C24.0499 17.3098 24.1799 17.2598 24.1399 17.2598C23.4499 17.2598 23.8099 17.0598 23.7399 16.9298C23.5899 16.6998 23.6999 16.3398 23.3999 16.1798C23.2099 16.0898 23.3999 15.7598 23.1399 15.7098C23.0799 15.7098 23.2499 15.5198 23.2799 15.4298C23.2999 15.3898 23.2999 15.3498 23.2299 15.3998C22.8299 15.6598 22.9899 15.4898 23.1299 15.3198C23.0199 15.3398 22.8899 15.3998 22.8699 15.3598C22.8099 15.2198 22.7799 15.0198 22.6899 14.8798C22.6699 14.8398 22.4799 14.9998 22.4599 14.9598C22.4299 14.8798 22.4899 14.6798 22.4599 14.5798C22.4499 14.5398 22.3399 14.6398 22.2699 14.6898C22.2199 14.7198 22.1099 14.8398 22.1399 14.7898C22.3999 14.1998 21.8599 14.8898 21.9199 14.6298C21.9699 14.2498 21.6199 14.6598 21.5799 14.4598C21.5599 14.3798 21.5799 14.2298 21.5499 14.1498C21.5499 14.1098 21.4899 14.1798 21.4599 14.1898C21.3999 14.2198 21.3199 14.3098 21.2899 14.2798C21.2399 14.2398 21.2399 14.0398 21.1799 14.0298C21.1199 14.0298 21.0099 14.2098 20.9399 14.2398C20.8999 14.2598 20.8999 14.1198 20.8799 14.0498C20.8799 14.0198 20.8799 13.9198 20.8599 13.9498C20.6099 14.5298 20.5499 14.0598 20.3899 14.1798C20.3099 14.2498 20.2399 14.3098 20.1599 14.3198C20.1199 14.3198 20.0799 14.1398 20.0399 14.1598V18.2198C20.0599 17.6798 20.0899 17.6798 20.0299 18.2198C20.0999 17.5998 20.0699 17.8898 20.0799 17.8198C20.0899 17.7598 20.1099 17.6798 20.1199 17.6398C20.1399 17.5798 20.1699 17.4898 20.1799 17.5098C20.1899 17.5398 20.0799 17.9098 20.1499 17.6998C20.2299 17.4998 20.0699 17.9398 20.1099 17.8298C20.1399 17.7598 20.1899 17.6598 20.2199 17.6098C20.2399 17.5698 20.2499 17.5698 20.2499 17.5798C20.2499 17.5998 20.1699 17.7498 20.2199 17.6798C20.3299 17.5098 20.3099 17.5998 20.2199 17.7398C20.1499 17.8398 20.2699 17.6898 20.3199 17.6498C20.3399 17.6298 20.4399 17.5198 20.3799 17.5998C20.2399 17.7798 20.3099 17.6998 20.4099 17.6198C20.4799 17.5598 20.3499 17.7098 20.2999 17.7598C20.2799 17.7898 20.1799 17.8798 20.2299 17.8298C20.4599 17.6398 20.2699 17.8198 20.3399 17.7798C20.4299 17.7298 20.4799 17.7298 20.4899 17.7398C20.5099 17.7498 20.3299 17.8598 20.3199 17.8698C20.3199 17.8798 20.4099 17.8498 20.4599 17.8498C20.0299 17.9998 20.3599 17.8898 20.4599 17.8798C20.5199 17.8698 20.4399 17.8998 20.4299 17.9098C20.4199 17.9098 20.4099 17.9198 20.3999 17.9298C20.3799 17.9298 20.3499 17.9498 20.3199 17.9598C20.3099 17.9598 20.1899 17.9798 20.3199 17.9598C20.7299 17.9198 20.4799 17.9598 20.3099 17.9798C20.2299 17.9798 20.2799 17.9798 20.3199 17.9798C20.4299 17.9798 20.5399 18.0098 20.4099 18.0098C20.2699 18.0098 20.4799 18.0398 20.4899 18.0598C20.4899 18.0698 20.3599 18.0598 20.3599 18.0598C20.3599 18.0598 20.5199 18.1098 20.4999 18.1198C20.4499 18.1398 20.0999 17.9998 20.3399 18.1198C20.5699 18.2498 20.1199 18.0298 20.4399 18.2198C20.5199 18.2798 20.2399 18.1098 20.2599 18.1198C20.3199 18.1698 20.4599 18.2898 20.5099 18.3698C20.5199 18.3898 20.3699 18.2698 20.3099 18.2098C20.2699 18.1798 20.2199 18.1298 20.2099 18.1198C20.2599 18.1698 20.3299 18.2698 20.3299 18.3098C20.3299 18.3298 20.1899 18.1598 20.1899 18.1698C20.1899 18.1798 20.2699 18.3098 20.3099 18.3998C20.3099 18.3998 20.3399 18.4498 20.3199 18.4298C20.0599 17.9998 20.1899 18.2198 20.2799 18.4498C20.3499 18.6198 20.1999 18.3398 20.1699 18.2498C20.1599 18.2198 20.1399 18.1898 20.1399 18.1798C20.1299 18.1798 20.1099 18.1198 20.1099 18.1698C20.1099 18.2198 20.1399 18.3798 20.1299 18.4698C20.1299 18.4898 20.1099 18.3898 20.1099 18.3898C20.1099 18.3898 20.0999 18.3898 20.0899 18.3898C20.0899 18.3898 20.0799 18.3598 20.0699 18.3498C20.0699 18.3198 20.0599 18.2498 20.0499 18.2598C20.0499 18.2598 20.0299 18.4398 20.0199 18.4598C19.9999 18.5198 19.9199 18.7898 19.9499 18.4898C20.0099 18.1998 19.8399 18.7498 19.8599 18.5598C19.8799 18.4498 19.8999 18.3798 19.9299 18.2898C19.9299 18.2898 19.9299 18.2698 19.9299 18.2798C19.6999 18.7498 20.0099 18.0598 19.9799 18.1398C19.9699 18.1598 19.9999 18.0898 19.9399 18.1998C19.6299 18.7298 19.8599 18.2798 19.8799 18.2598C19.8799 18.2398 19.8199 18.3298 19.7799 18.3798C19.7799 18.3798 19.7199 18.4498 19.7199 18.4598C19.7599 18.3798 19.8199 18.2798 19.8699 18.2298C19.8999 18.1798 19.8999 18.1798 19.9099 18.1598C19.9099 18.1398 19.9599 18.0998 19.9399 18.1198C19.9199 18.1398 19.8099 18.2198 19.7799 18.2398C19.7499 18.2598 19.7699 18.2398 19.7599 18.2198C19.7599 18.2198 19.7399 18.2198 19.7299 18.2198H19.6799C19.6799 18.2198 19.4499 18.3398 19.6399 18.2198C19.9099 18.0598 19.4999 18.2798 19.3399 18.3398C19.2799 18.3598 19.1599 18.4098 19.1799 18.3898C19.2699 18.3198 19.3899 18.2498 19.5799 18.1698C19.7599 18.0898 19.5799 18.1498 19.5599 18.1398C19.5399 18.1298 19.7099 18.0598 19.7299 18.0498C19.7499 18.0398 19.6199 18.0498 19.6399 18.0298C19.6599 18.0098 19.8399 17.9898 19.8599 17.9898C19.8199 17.9898 19.7099 17.9698 19.6399 17.9598C19.6299 17.9598 19.5999 17.9598 19.6299 17.9598C19.9099 17.9598 19.9599 17.9798 19.5399 17.8998C19.3899 17.8698 19.6299 17.8998 19.6199 17.8998C19.6199 17.8998 19.4899 17.8498 19.5099 17.8398C19.5299 17.8398 19.6899 17.8798 19.7999 17.9098C19.8199 17.9098 19.8599 17.9298 19.8699 17.9298C19.7899 17.8998 19.6899 17.8598 19.6399 17.8198C19.6199 17.8098 19.7199 17.8398 19.7299 17.8498C19.7599 17.8498 19.7899 17.8698 19.7899 17.8598C19.7899 17.8598 19.7899 17.8598 19.7099 17.7998C19.6199 17.7298 20.0999 18.0198 19.6699 17.7398C19.6099 17.6998 19.5799 17.6798 19.5999 17.6898C19.6899 17.7298 19.8099 17.7998 19.8799 17.8498C19.9199 17.8698 19.9099 17.8698 19.8799 17.8498C19.8099 17.7898 19.6799 17.6498 19.6599 17.6198C19.6599 17.5898 19.8099 17.7298 19.8199 17.7298C19.8199 17.7298 19.6999 17.5798 19.6999 17.5598C19.6999 17.5198 19.6699 17.4398 19.7699 17.5598C19.8499 17.6498 19.7799 17.5298 19.7899 17.5098C19.7899 17.4998 19.9099 17.6898 19.9099 17.6898C19.9099 17.6898 19.8499 17.5298 19.8699 17.5398C19.8999 17.5498 19.9499 17.6398 19.9799 17.6998C19.9999 17.7398 20.0399 17.8598 20.0299 17.8198C20.0299 17.7898 19.9799 17.5398 19.9799 17.4798C19.9799 17.4398 20.0199 17.6198 20.0199 17.6598C20.0399 17.7298 20.0699 18.0398 20.0499 17.7698C20.0299 17.4098 20.0599 17.4898 20.0699 17.6098V14.2098L19.9999 14.1798Z" fill="#001B38"></path>
  <path d="M40 40C41.1046 40 42 39.1046 42 38C42 36.8954 41.1046 36 40 36C38.8954 36 38 36.8954 38 38C38 39.1046 38.8954 40 40 40Z" fill="#001B38"></path>
  <path d="M39.9999 34.1798C39.9299 34.1798 39.8699 34.1598 39.7999 34.1398C39.7699 34.1298 39.7299 34.0098 39.6999 33.9398C39.6899 33.9098 39.6699 33.8198 39.6599 33.8398C39.5799 34.0298 39.5099 34.2598 39.4599 34.4498C39.4399 34.5198 39.4199 34.5998 39.3799 34.5098C39.1399 34.0198 38.9699 34.1998 38.9199 34.5298C38.9199 34.5598 38.9199 34.6598 38.9099 34.6198C38.6399 34.1198 38.7199 34.6498 38.6399 34.6598C38.5699 34.6698 38.4299 34.5398 38.3299 34.5198C38.2899 34.5198 38.2599 34.5398 38.2999 34.6698C38.4299 35.0898 38.3899 35.0998 38.1799 34.8998C38.0599 34.7898 38.0699 34.8998 38.0299 34.9298C37.9299 34.9898 37.8399 35.0698 37.7599 35.1498C37.7399 35.1698 37.7299 35.1898 37.7399 35.2398C37.7699 35.3798 37.7399 35.4298 37.5299 35.2998C37.3099 35.1698 37.1999 35.2298 37.3299 35.4598C37.4899 35.7298 37.1499 35.4898 36.9499 35.4198C36.8999 35.3998 36.7699 35.3298 36.7999 35.3698C37.1899 35.7698 36.8899 35.6298 36.8999 35.7298C36.8999 35.8298 36.9799 35.9698 36.9699 36.0398C36.9699 36.0798 36.7699 35.9998 36.7399 36.0298C36.6199 36.1698 36.4199 36.3098 36.5099 36.5498C36.5499 36.6598 36.3799 36.6698 36.3999 36.7698C36.4199 36.8398 36.6299 36.9598 36.6399 37.0198C36.6499 37.0998 36.5599 37.1498 36.4999 37.2098C36.4799 37.2198 36.3099 37.2098 36.3399 37.2298C36.5999 37.4398 36.0599 37.5098 36.1499 37.6998C36.2499 37.8698 36.1299 38.0298 36.1499 38.1998C36.1599 38.4898 36.1699 38.8098 36.3499 39.0598C36.3999 39.1398 36.4599 39.2098 36.4399 39.3098C36.4299 39.4098 36.7799 39.3498 36.8399 39.4098C36.8899 39.4598 36.7599 39.5898 36.7299 39.6898C36.6999 39.7798 36.6899 39.8598 36.7199 39.9298C36.7999 40.1198 36.9299 40.2798 37.0299 40.4698C37.0499 40.5098 36.9599 40.6598 36.9199 40.7598C36.9199 40.7798 36.8799 40.8298 36.9099 40.8198C37.5499 40.5198 37.3399 41.0098 37.6099 41.0498C37.7199 41.0598 37.7899 41.1198 37.8099 41.2598C37.8199 41.3698 37.8999 41.3698 38.0599 41.2498C38.2399 41.1098 38.1299 41.4898 38.1699 41.6398C38.1699 41.6698 38.1599 41.7598 38.1899 41.7498C38.2699 41.7098 38.3899 41.5798 38.4499 41.5498C38.6199 41.4898 38.7799 41.4198 38.9099 41.4098C38.9599 41.4098 38.9499 41.6398 38.9999 41.6698C39.1399 41.7498 39.2999 41.7698 39.4599 41.8098C39.7499 41.8898 40.0499 41.9298 40.3599 41.9298C40.4199 41.9298 40.4799 41.8198 40.5399 41.8398C40.5799 41.8498 40.6499 42.0198 40.7099 42.0798C40.7399 42.1098 40.7499 42.0398 40.7599 41.9998C40.7799 41.9498 40.7899 41.8298 40.8199 41.8498C40.9099 41.8898 41.0299 42.0198 41.1199 42.0098C41.1699 42.0098 41.1399 41.7398 41.1899 41.7198C41.3899 41.6198 41.5599 41.4998 41.7999 41.5098C41.8899 41.5098 41.9599 41.4798 42.0099 41.4098C42.1199 41.2498 42.3699 41.2798 42.5499 41.2098C42.5699 41.2098 42.5699 41.1698 42.5299 41.0998C42.3299 40.7498 42.5299 40.9198 42.6999 41.0098C42.7699 41.0498 42.7799 41.0098 42.7899 40.9698C42.8099 40.9298 42.6999 40.7598 42.8099 40.8298C43.1499 41.0598 42.9899 40.7798 42.8099 40.5398C42.6499 40.3198 42.5799 40.2198 42.8699 40.3898C42.9899 40.4598 43.0199 40.4298 43.0399 40.4098C43.1399 40.3198 43.2099 40.2198 43.3099 40.1198C43.3299 40.0998 43.4799 40.1598 43.5899 40.1798C43.1699 39.8498 42.8299 39.6098 43.3899 39.8198C43.4899 39.8498 43.4699 39.8198 43.4799 39.7898C43.5899 39.5798 43.6499 39.3498 43.7599 39.1298C43.7899 39.0698 43.9799 39.0498 44.0899 38.9998C44.1199 38.9898 44.1699 38.9698 44.1499 38.9498C44.0699 38.7998 43.8799 38.6498 43.8799 38.5298C43.8799 38.2298 43.9299 37.9398 43.9099 37.6398C43.9099 37.5698 43.8699 37.4998 43.8799 37.4298C43.8799 37.3998 43.9599 37.3698 44.0099 37.3298C44.0499 37.3098 44.1799 37.2598 44.1399 37.2598C43.4499 37.2598 43.8099 37.0598 43.7399 36.9298C43.5899 36.6998 43.6999 36.3398 43.3999 36.1798C43.2099 36.0898 43.3999 35.7598 43.1399 35.7098C43.0799 35.7098 43.2499 35.5198 43.2799 35.4298C43.2999 35.3898 43.2999 35.3498 43.2299 35.3998C42.8299 35.6598 42.9899 35.4898 43.1299 35.3198C43.0199 35.3398 42.8899 35.3998 42.8699 35.3598C42.8099 35.2198 42.7799 35.0198 42.6899 34.8798C42.6699 34.8398 42.4799 34.9998 42.4599 34.9598C42.4299 34.8798 42.4899 34.6798 42.4599 34.5798C42.4499 34.5398 42.3399 34.6398 42.2699 34.6898C42.2199 34.7198 42.1099 34.8398 42.1399 34.7898C42.3999 34.1998 41.8599 34.8898 41.9199 34.6298C41.9699 34.2498 41.6199 34.6598 41.5799 34.4598C41.5599 34.3798 41.5799 34.2298 41.5499 34.1498C41.5499 34.1098 41.4899 34.1798 41.4599 34.1898C41.3999 34.2198 41.3199 34.3098 41.2899 34.2798C41.2399 34.2398 41.2399 34.0398 41.1799 34.0298C41.1199 34.0298 41.0099 34.2098 40.9399 34.2398C40.8999 34.2598 40.8999 34.1198 40.8799 34.0498C40.8799 34.0198 40.8799 33.9198 40.8599 33.9498C40.6099 34.5298 40.5499 34.0598 40.3899 34.1798C40.3099 34.2498 40.2399 34.3098 40.1599 34.3198C40.1199 34.3198 40.0799 34.1398 40.0399 34.1598V38.2198C40.0599 37.6798 40.0899 37.6798 40.0299 38.2198C40.0999 37.5998 40.0699 37.8898 40.0799 37.8198C40.0899 37.7598 40.1099 37.6798 40.1199 37.6398C40.1399 37.5798 40.1699 37.4898 40.1799 37.5098C40.1899 37.5398 40.0799 37.9098 40.1499 37.6998C40.2299 37.4998 40.0699 37.9398 40.1099 37.8298C40.1399 37.7598 40.1899 37.6598 40.2199 37.6098C40.2399 37.5698 40.2499 37.5698 40.2499 37.5798C40.2499 37.5998 40.1699 37.7498 40.2199 37.6798C40.3299 37.5098 40.3099 37.5998 40.2199 37.7398C40.1499 37.8398 40.2699 37.6898 40.3199 37.6498C40.3399 37.6298 40.4399 37.5198 40.3799 37.5998C40.2399 37.7798 40.3099 37.6998 40.4099 37.6198C40.4799 37.5598 40.3499 37.7098 40.2999 37.7598C40.2799 37.7898 40.1799 37.8798 40.2299 37.8298C40.4599 37.6398 40.2699 37.8198 40.3399 37.7798C40.4299 37.7298 40.4799 37.7298 40.4899 37.7398C40.5099 37.7498 40.3299 37.8598 40.3199 37.8698C40.3199 37.8798 40.4099 37.8498 40.4599 37.8498C40.0299 37.9998 40.3599 37.8898 40.4599 37.8798C40.5199 37.8698 40.4399 37.8998 40.4299 37.9098C40.4199 37.9098 40.4099 37.9198 40.3999 37.9298C40.3799 37.9298 40.3499 37.9498 40.3199 37.9598C40.3099 37.9598 40.1899 37.9798 40.3199 37.9598C40.7299 37.9198 40.4799 37.9598 40.3099 37.9798C40.2299 37.9798 40.2799 37.9798 40.3199 37.9798C40.4299 37.9798 40.5399 38.0098 40.4099 38.0098C40.2699 38.0098 40.4799 38.0398 40.4899 38.0598C40.4899 38.0698 40.3599 38.0598 40.3599 38.0598C40.3599 38.0598 40.5199 38.1098 40.4999 38.1198C40.4499 38.1398 40.0999 37.9998 40.3399 38.1198C40.5699 38.2498 40.1199 38.0298 40.4399 38.2198C40.5199 38.2798 40.2399 38.1098 40.2599 38.1198C40.3199 38.1698 40.4599 38.2898 40.5099 38.3698C40.5199 38.3898 40.3699 38.2698 40.3099 38.2098C40.2699 38.1798 40.2199 38.1298 40.2099 38.1198C40.2599 38.1698 40.3299 38.2698 40.3299 38.3098C40.3299 38.3298 40.1899 38.1598 40.1899 38.1698C40.1899 38.1798 40.2699 38.3098 40.3099 38.3998C40.3099 38.3998 40.3399 38.4498 40.3199 38.4298C40.0599 37.9998 40.1899 38.2198 40.2799 38.4498C40.3499 38.6198 40.1999 38.3398 40.1699 38.2498C40.1599 38.2198 40.1399 38.1898 40.1399 38.1798C40.1299 38.1798 40.1099 38.1198 40.1099 38.1698C40.1099 38.2198 40.1399 38.3798 40.1299 38.4698C40.1299 38.4898 40.1099 38.3898 40.1099 38.3898C40.1099 38.3898 40.0999 38.3898 40.0899 38.3898C40.0899 38.3898 40.0799 38.3598 40.0699 38.3498C40.0699 38.3198 40.0599 38.2498 40.0499 38.2598C40.0499 38.2598 40.0299 38.4398 40.0199 38.4598C39.9999 38.5198 39.9199 38.7898 39.9499 38.4898C40.0099 38.1998 39.8399 38.7498 39.8599 38.5598C39.8799 38.4498 39.8999 38.3798 39.9299 38.2898C39.9299 38.2898 39.9299 38.2698 39.9299 38.2798C39.6999 38.7498 40.0099 38.0598 39.9799 38.1398C39.9699 38.1598 39.9999 38.0898 39.9399 38.1998C39.6299 38.7298 39.8599 38.2798 39.8799 38.2598C39.8799 38.2398 39.8199 38.3298 39.7799 38.3798C39.7799 38.3798 39.7199 38.4498 39.7199 38.4598C39.7599 38.3798 39.8199 38.2798 39.8699 38.2298C39.8999 38.1798 39.8999 38.1798 39.9099 38.1598C39.9099 38.1398 39.9599 38.0998 39.9399 38.1198C39.9199 38.1398 39.8099 38.2198 39.7799 38.2398C39.7499 38.2598 39.7699 38.2398 39.7599 38.2198C39.7599 38.2198 39.7399 38.2198 39.7299 38.2198H39.6799C39.6799 38.2198 39.4499 38.3398 39.6399 38.2198C39.9099 38.0598 39.4999 38.2798 39.3399 38.3398C39.2799 38.3598 39.1599 38.4098 39.1799 38.3898C39.2699 38.3198 39.3899 38.2498 39.5799 38.1698C39.7599 38.0898 39.5799 38.1498 39.5599 38.1398C39.5399 38.1298 39.7099 38.0598 39.7299 38.0498C39.7499 38.0398 39.6199 38.0498 39.6399 38.0298C39.6599 38.0098 39.8399 37.9898 39.8599 37.9898C39.8199 37.9898 39.7099 37.9698 39.6399 37.9598C39.6299 37.9598 39.5999 37.9598 39.6299 37.9598C39.9099 37.9598 39.9599 37.9798 39.5399 37.8998C39.3899 37.8698 39.6299 37.8998 39.6199 37.8998C39.6199 37.8998 39.4899 37.8498 39.5099 37.8398C39.5299 37.8398 39.6899 37.8798 39.7999 37.9098C39.8199 37.9098 39.8599 37.9298 39.8699 37.9298C39.7899 37.8998 39.6899 37.8598 39.6399 37.8198C39.6199 37.8098 39.7199 37.8398 39.7299 37.8498C39.7599 37.8498 39.7899 37.8698 39.7899 37.8598C39.7899 37.8598 39.7899 37.8598 39.7099 37.7998C39.6199 37.7298 40.0999 38.0198 39.6699 37.7398C39.6099 37.6998 39.5799 37.6798 39.5999 37.6898C39.6899 37.7298 39.8099 37.7998 39.8799 37.8498C39.9199 37.8698 39.9099 37.8698 39.8799 37.8498C39.8099 37.7898 39.6799 37.6498 39.6599 37.6198C39.6599 37.5898 39.8099 37.7298 39.8199 37.7298C39.8199 37.7298 39.6999 37.5798 39.6999 37.5598C39.6999 37.5198 39.6699 37.4398 39.7699 37.5598C39.8499 37.6498 39.7799 37.5298 39.7899 37.5098C39.7899 37.4998 39.9099 37.6898 39.9099 37.6898C39.9099 37.6898 39.8499 37.5298 39.8699 37.5398C39.8999 37.5498 39.9499 37.6398 39.9799 37.6998C39.9999 37.7398 40.0399 37.8598 40.0299 37.8198C40.0299 37.7898 39.9799 37.5398 39.9799 37.4798C39.9799 37.4398 40.0199 37.6198 40.0199 37.6598C40.0399 37.7298 40.0699 38.0398 40.0499 37.7698C40.0299 37.4098 40.0599 37.4898 40.0699 37.6098V34.2098L39.9999 34.1798Z" fill="#001B38"></path>
  <path d="M20 23C18 23 16.2 23.48 14.93 24.24C13.1 25.34 14.28 27.54 16.24 28.38L17.91 29.09C19.25 29.67 20.77 29.67 22.11 29.09L23.78 28.38C25.74 27.54 26.92 25.34 25.09 24.24C23.81 23.47 22.01 23 20.02 23H20Z" fill="#001B38"></path>
  <path d="M20.0001 24.8198C20.5001 24.8298 21.0101 24.8798 21.4901 24.9798C21.7101 25.0198 21.8901 25.1798 22.0801 25.2998C22.1501 25.3398 22.2001 25.4498 22.2701 25.4498C22.9201 25.4198 23.5801 25.4398 24.1901 25.5898C24.3701 25.6298 24.4801 25.6298 24.4301 25.7098L24.3901 25.7398L24.4501 25.7098C24.4501 25.7098 24.4701 25.6998 24.4901 25.6898C24.4601 25.6898 24.4201 25.7098 24.2801 25.7098C24.2201 25.7098 24.1601 25.7098 24.1101 25.6998C24.1101 25.6998 24.0901 25.6998 24.0801 25.7198C24.0801 25.7298 24.0301 25.7798 24.0101 25.8298C23.9001 26.0498 23.6701 26.4198 23.3601 26.7698C23.3101 26.8298 23.2501 26.9598 23.2001 26.9398C22.7601 26.8298 22.3201 27.0098 21.9601 27.2198C21.7801 27.3298 21.5901 27.4598 21.4201 27.5698C21.3001 27.6598 21.1701 27.7398 21.0201 27.7698C20.8701 27.7998 20.8901 27.6098 20.8201 27.5598C20.8001 27.5398 20.7901 27.5598 20.8201 27.6898C20.9001 28.1198 20.8601 28.1198 20.7801 27.8498C20.7301 27.6998 20.7401 27.8098 20.7201 27.8098C20.6801 27.8098 20.6401 27.8298 20.6001 27.8498C20.6001 27.8498 20.5801 27.8598 20.5801 27.9098C20.5801 28.0398 20.5501 28.0598 20.4901 27.8298C20.4301 27.5898 20.4001 27.5598 20.4001 27.8198C20.4001 28.1298 20.3301 27.7098 20.3001 27.5098C20.2901 27.4598 20.2701 27.3198 20.2701 27.3698C20.3001 27.9198 20.2401 27.5998 20.2301 27.6698C20.2101 27.7398 20.1901 27.8798 20.1701 27.9098C20.1601 27.9298 20.1401 27.7198 20.1201 27.7098C20.0501 27.6798 20.0001 27.5698 19.9301 27.7398C19.9001 27.8198 19.8801 27.6598 19.8501 27.7198C19.8301 27.7598 19.8001 27.9898 19.7801 28.0198C19.7501 28.0498 19.7301 27.9798 19.7001 27.9198C19.7001 27.9098 19.7001 27.7398 19.7001 27.7698C19.6101 28.0598 19.6101 27.5298 19.5501 27.6298C19.4801 27.7298 19.4401 27.6098 19.3901 27.5998C19.2901 27.5898 19.2101 27.5198 19.0901 27.5998C19.0501 27.6198 19.0201 27.6398 19.0001 27.5798C18.9901 27.5298 18.8601 27.8598 18.8101 27.8798C18.7801 27.8998 18.8101 27.7198 18.8101 27.6498C18.8101 27.5898 18.8101 27.5298 18.7901 27.5098C18.7301 27.4598 18.6801 27.4598 18.6001 27.3798C18.5801 27.3598 18.6301 27.1998 18.6401 27.0998C18.6401 27.0798 18.6601 27.0198 18.6401 27.0498C18.2701 27.6298 18.3701 27.1298 18.2201 27.2098C18.1501 27.2498 18.1101 27.2298 18.1101 27.1098C18.1101 27.0198 18.0701 27.0498 17.9601 27.1998C17.8401 27.3798 17.9401 27.0098 17.9401 26.8798C17.9401 26.8498 17.9701 26.7698 17.9401 26.7898C17.8901 26.8498 17.8001 26.9898 17.7601 27.0298C17.6501 27.1198 17.5401 27.1998 17.4601 27.2198C17.4301 27.2198 17.4901 27.0098 17.4701 26.9798C17.4101 26.9098 17.3301 26.8898 17.2601 26.8498C17.1501 26.7698 16.9701 26.6498 16.9201 26.5998C16.9101 26.5898 16.8501 26.6698 16.8401 26.6398C16.8401 26.6198 16.9001 26.4498 16.9201 26.3898C16.9201 26.3598 16.9001 26.4198 16.8801 26.4398C16.8501 26.4798 16.7901 26.5798 16.7901 26.5598C16.7901 26.4998 16.8501 26.3498 16.8401 26.3298C16.8401 26.3198 16.6901 26.5398 16.6801 26.5398C16.6201 26.5398 16.5201 26.5398 16.5401 26.4198C16.5401 26.3698 16.5401 26.3598 16.4901 26.3698C16.4001 26.4098 16.4501 26.2498 16.4601 26.1698C16.4601 26.1698 16.4401 26.1798 16.3901 26.2398C16.1201 26.5398 16.2801 26.3198 16.3901 26.1698C16.4401 26.1098 16.4101 26.1298 16.3901 26.1298C16.3701 26.1298 16.2301 26.2698 16.3101 26.1798C16.5701 25.8698 16.3501 26.0898 16.1301 26.2798C15.9301 26.4598 15.8401 26.5298 16.0601 26.2798C16.1501 26.1798 16.1501 26.1698 16.1501 26.1598C16.1501 26.1198 16.1101 26.0998 16.1201 26.0498C16.1201 26.0398 16.2301 25.9398 16.3101 25.8598C15.9101 26.1998 15.5601 26.4398 16.0101 26.0498C16.0901 25.9798 16.0501 25.9998 16.0501 25.9998C16.0101 25.9598 15.9601 25.9298 15.9701 25.8698C15.9701 25.8498 16.1201 25.7498 16.2001 25.6898C16.2201 25.6698 16.2601 25.6498 16.2401 25.6598C16.1301 25.6998 15.9501 25.7898 15.9201 25.7798C15.8601 25.7498 15.9001 25.7098 15.9001 25.6898C15.8901 25.6898 16.0301 25.6598 15.9801 25.6698H15.9601C15.9101 25.6798 15.8801 25.6898 15.8501 25.6898C15.7901 25.6898 15.7801 25.6898 15.7801 25.6898C15.7801 25.6898 15.8301 25.6898 15.8101 25.6898H15.7601C15.7001 25.7098 15.5401 25.6898 15.5401 25.6898C15.5201 25.6898 15.4701 25.6698 15.5101 25.6898H15.5201C15.5201 25.6898 15.5201 25.6898 15.5401 25.6898C15.5901 25.7098 15.6301 25.7398 15.6601 25.7698C15.6601 25.7698 15.6801 25.7898 15.6901 25.7998C15.7101 25.8198 15.7601 25.8598 15.7901 25.8798C15.7901 25.8798 15.8101 25.8998 15.8301 25.9098C15.8801 25.9598 15.7501 25.8298 15.7901 25.8698C15.8501 25.9298 15.8701 25.9498 15.8801 25.9598C15.8801 25.9598 15.9101 25.9898 15.9001 25.9798C15.8301 25.8998 15.7201 25.7898 15.8101 25.8798C16.0301 26.1498 15.7301 25.7398 15.8401 25.8598C15.8801 25.9198 15.9601 26.0198 16.0101 26.0798C16.0301 26.0998 15.9901 26.0398 15.9701 26.0198C15.9401 25.9798 15.8901 25.8798 15.9001 25.8898C15.9201 25.9098 16.0101 26.0698 16.0301 26.0498C16.0401 26.0298 15.9501 25.8398 15.9501 25.7898C15.9501 25.7598 16.0201 25.8698 16.0601 25.9198C16.0801 25.9398 16.1301 26.0298 16.1201 25.9898C16.0001 25.7098 15.9601 25.6798 16.0601 25.6498C16.4801 25.4498 16.9601 25.3498 17.4101 25.1498C17.9001 24.9398 18.4401 24.7698 19.0001 24.7098C19.3201 24.6798 19.6401 24.8498 19.9501 24.8198C19.9501 24.8198 19.9801 24.8198 19.9801 24.8098V20.7598C19.4701 20.7598 18.9701 20.7898 18.4601 20.8398C18.0401 21.4098 16.6401 21.6798 15.9301 21.3598L15.3901 21.5498C15.2901 21.9198 15.0501 22.1098 14.7501 22.2598C14.5901 22.3398 14.4501 22.3998 14.2901 22.4798C14.2501 22.4898 14.2601 22.4798 14.2501 22.5098C14.2501 22.5698 14.2701 22.6698 14.2501 22.7198C14.2401 22.7998 14.2501 22.9098 14.1901 22.9198C14.1301 22.9198 13.8501 22.6498 13.9001 22.8798C13.9601 23.0998 13.6501 22.7498 13.6601 22.8798C13.6601 22.9698 13.7001 23.0898 13.6901 23.1598C13.6901 23.2198 13.6601 23.2498 13.6301 23.2598C13.5901 23.2598 13.4401 23.1798 13.4601 23.2698C13.5201 23.4898 13.4001 23.4898 13.2001 23.4498C13.0601 23.4198 13.1401 23.6198 13.1401 23.7098C13.1401 23.7598 13.2301 23.8898 13.1301 23.8598C12.9101 23.7898 12.9401 23.9198 13.0001 24.0498C13.0501 24.1498 12.8401 24.0998 12.7401 24.1198C12.6901 24.1298 12.5501 24.0998 12.6001 24.1598C12.8101 24.4098 12.5301 24.4098 12.5501 24.5598C12.5701 24.7398 12.5801 24.8998 12.5501 25.0498C12.5301 25.1698 12.3101 25.2598 12.2801 25.3898C12.2601 25.4998 12.3601 25.6098 12.4101 25.7098C12.4101 25.7298 12.4701 25.7498 12.4101 25.7598C11.9601 25.8598 12.2901 25.9398 12.4101 25.9998C12.4801 26.0398 12.4001 26.0998 12.3901 26.1598C12.3901 26.2098 12.3901 26.2498 12.3701 26.2998L12.3201 26.4798C12.3201 26.4798 12.2101 26.5898 12.3401 26.5798C12.7601 26.5598 12.5401 26.6798 12.4001 26.8098C12.3301 26.8698 12.4001 26.8998 12.4501 26.9198C12.5801 26.9798 12.7201 27.0098 12.6401 27.1398C12.5501 27.2898 12.7901 27.2898 12.8501 27.3698C12.8801 27.4198 12.7801 27.5298 12.8201 27.5798C12.8601 27.6298 13.0301 27.5998 13.0401 27.6598C13.0701 27.7898 12.8401 28.1298 13.1301 28.0698C13.4101 27.9998 13.0901 28.4198 13.4601 28.2698C13.5501 28.2298 13.3301 28.4698 13.3701 28.4798C13.5101 28.5098 13.7201 28.4698 13.8501 28.4798C13.8901 28.4798 13.7701 28.6398 13.7301 28.7298C13.7101 28.7798 13.6601 28.8598 13.6801 28.8698C13.8101 28.8998 13.9901 28.8798 14.0901 28.9398C14.1501 28.9698 14.0701 29.1898 14.1301 29.2198C14.1901 29.2598 14.3401 29.1698 14.4401 29.1298C14.4401 29.1298 14.4801 29.0898 14.4701 29.1198C14.2401 29.5698 14.4501 29.4098 14.6501 29.2498C14.8001 29.1298 14.6801 29.4298 14.6901 29.5398C14.6901 29.5698 14.6901 29.6198 14.7001 29.6298C14.7901 29.6998 14.8601 29.7998 14.9701 29.8098C15.0701 29.8098 15.2401 29.6998 15.3601 29.6598C15.3801 29.6598 15.3601 29.7498 15.3801 29.7598C15.4201 29.7898 15.4701 29.7898 15.5101 29.8198C15.5401 29.8398 15.5601 29.8698 15.5701 29.8998C15.5901 29.9398 15.6001 30.0198 15.6401 30.0298C15.6601 30.0298 15.7501 29.8798 15.7801 29.8798C15.8801 29.8598 16.0801 29.6398 16.0301 29.9498C15.9901 30.2498 16.2801 29.7598 16.2801 29.9498C16.2801 30.0698 16.3001 30.1598 16.3101 30.2598C16.3101 30.2598 16.3101 30.2798 16.3101 30.2698C16.5601 29.8098 16.3101 30.5198 16.3801 30.4598C16.4001 30.4398 16.3801 30.5198 16.4501 30.4098C16.7401 29.8598 16.5801 30.3498 16.6201 30.3898C16.6401 30.4198 16.7101 30.3298 16.7601 30.2798C16.7601 30.2798 16.8101 30.1798 16.8101 30.1898C16.8101 30.2898 16.8101 30.4198 16.8301 30.4898C16.8401 30.5598 16.8801 30.5698 16.9001 30.5998C16.9201 30.6298 16.9301 30.6998 16.9701 30.6898C17.0201 30.6798 17.1101 30.5698 17.1601 30.5498C17.2101 30.5298 17.2301 30.5698 17.2801 30.5898C17.3001 30.5898 17.3201 30.6198 17.3401 30.6198C17.3601 30.6198 17.3801 30.6198 17.4001 30.6198L17.4901 30.5998C17.5401 30.5998 17.6701 30.3998 17.6301 30.6198C17.5801 30.9298 17.7601 30.4998 17.8501 30.3598C17.8901 30.2998 17.9401 30.1798 17.9501 30.2198C17.9601 30.3398 17.9701 30.4898 17.9601 30.6998C17.9601 30.8998 18.0601 30.7298 18.1101 30.7298C18.1901 30.7298 18.2301 30.9398 18.3101 30.9798C18.3801 31.0198 18.4901 30.9098 18.5601 30.9498C18.6301 30.9898 18.6801 31.1798 18.7501 31.2098C18.8001 31.2298 18.8801 31.0898 18.9401 31.0098C18.9501 30.9998 18.9601 30.9698 18.9701 31.0098C19.0201 31.2998 19.1101 31.3598 19.2401 30.9398C19.2901 30.7898 19.3101 31.0398 19.3401 31.0298C19.3901 31.0298 19.4501 30.8898 19.4901 30.9198C19.5201 30.9398 19.5401 31.1098 19.5701 31.2198C19.5701 31.2398 19.5701 31.2998 19.5801 31.2898C19.6401 31.2098 19.6901 31.0998 19.7501 31.0398C19.7701 31.0198 19.7801 31.1198 19.8001 31.1398C19.8301 31.1698 19.8701 31.2098 19.9001 31.1998C19.9501 31.1998 20.0001 31.1998 20.0401 31.0998C20.0901 30.9798 20.1501 31.5398 20.1901 31.0298C20.1901 30.9598 20.2001 30.9198 20.2101 30.9398C20.2701 31.0398 20.3401 31.1698 20.4001 31.2498C20.4301 31.2898 20.4701 31.2798 20.5001 31.2498C20.5601 31.1498 20.6101 30.9498 20.6801 30.9098C20.7301 30.8798 20.8101 31.0798 20.8701 31.0798C20.9101 31.0798 20.9301 30.8798 20.9601 30.8598C21.0401 30.8098 21.1101 30.7198 21.2301 30.8598C21.3201 30.9598 21.3501 30.8098 21.4101 30.7898C21.4401 30.7798 21.5301 30.9798 21.5701 30.9698C21.6201 30.9698 21.6301 30.7898 21.6801 30.7898H21.7101C21.7901 30.7798 22.0601 30.6998 22.2201 30.6498C22.6201 30.5198 22.8801 30.4098 23.1701 30.3098C23.7701 30.0698 24.2201 29.9898 25.0601 29.5598C25.9901 29.0498 26.9301 28.3698 27.4301 27.1198C27.6201 26.5898 27.6801 25.9598 27.5301 25.3198C27.3801 24.6698 26.9901 24.1098 26.5901 23.6998C26.3501 23.4598 26.1301 23.2398 25.8901 23.0298C25.6701 22.8298 25.5101 22.6898 25.3001 22.5598C24.4701 22.0498 23.4801 21.4298 22.6701 21.5498C21.6501 21.7098 20.8201 21.5598 19.9401 21.4298V24.8298L20.0001 24.8198Z" fill="#001B38"></path>
  <path d="M40 43C38 43 36.2 43.48 34.93 44.24C33.1 45.34 34.28 47.54 36.24 48.38L37.91 49.09C39.25 49.66 40.77 49.66 42.11 49.09L43.78 48.38C45.74 47.54 46.91 45.34 45.09 44.24C43.81 43.47 42.01 43 40.02 43H40Z" fill="#001B38"></path>
  <path d="M40.0001 44.8198C40.5001 44.8298 41.0101 44.8798 41.4901 44.9798C41.7101 45.0198 41.8901 45.1798 42.0801 45.2998C42.1501 45.3398 42.2001 45.4498 42.2701 45.4498C42.9201 45.4198 43.5801 45.4398 44.1901 45.5898C44.3701 45.6298 44.4801 45.6298 44.4301 45.7098L44.3901 45.7398L44.4501 45.7098C44.4501 45.7098 44.4701 45.6998 44.4901 45.6898C44.4601 45.6898 44.4201 45.7098 44.2801 45.7098C44.2201 45.7098 44.1601 45.7098 44.1101 45.6998C44.1101 45.6998 44.0901 45.6998 44.0801 45.7198C44.0801 45.7298 44.0301 45.7798 44.0101 45.8298C43.9001 46.0498 43.6701 46.4198 43.3601 46.7698C43.3101 46.8298 43.2501 46.9598 43.2001 46.9398C42.7601 46.8298 42.3201 47.0098 41.9601 47.2198C41.7801 47.3298 41.5901 47.4598 41.4201 47.5698C41.3001 47.6598 41.1701 47.7398 41.0201 47.7698C40.8701 47.7998 40.8901 47.6098 40.8201 47.5598C40.8001 47.5398 40.7901 47.5598 40.8201 47.6898C40.9001 48.1198 40.8601 48.1198 40.7801 47.8498C40.7301 47.6998 40.7401 47.8098 40.7201 47.8098C40.6801 47.8098 40.6401 47.8298 40.6001 47.8498C40.6001 47.8498 40.5801 47.8598 40.5801 47.9098C40.5801 48.0398 40.5501 48.0598 40.4901 47.8298C40.4301 47.5898 40.4001 47.5598 40.4001 47.8198C40.4001 48.1298 40.3301 47.7098 40.3001 47.5098C40.2901 47.4598 40.2701 47.3198 40.2701 47.3698C40.3001 47.9198 40.2401 47.5998 40.2301 47.6698C40.2101 47.7398 40.1901 47.8798 40.1701 47.9098C40.1601 47.9298 40.1401 47.7198 40.1201 47.7098C40.0501 47.6798 40.0001 47.5698 39.9301 47.7398C39.9001 47.8198 39.8801 47.6598 39.8501 47.7198C39.8301 47.7598 39.8001 47.9898 39.7801 48.0198C39.7501 48.0498 39.7301 47.9798 39.7001 47.9198C39.7001 47.9098 39.7001 47.7398 39.7001 47.7698C39.6101 48.0598 39.6101 47.5298 39.5501 47.6298C39.4801 47.7298 39.4401 47.6098 39.3901 47.5998C39.2901 47.5898 39.2101 47.5198 39.0901 47.5998C39.0501 47.6198 39.0201 47.6398 39.0001 47.5798C38.9901 47.5298 38.8601 47.8598 38.8101 47.8798C38.7801 47.8998 38.8101 47.7198 38.8101 47.6498C38.8101 47.5898 38.8101 47.5298 38.7901 47.5098C38.7301 47.4598 38.6801 47.4598 38.6001 47.3798C38.5801 47.3598 38.6301 47.1998 38.6401 47.0998C38.6401 47.0798 38.6601 47.0198 38.6401 47.0498C38.2701 47.6298 38.3701 47.1298 38.2201 47.2098C38.1501 47.2498 38.1101 47.2298 38.1101 47.1098C38.1101 47.0198 38.0701 47.0498 37.9601 47.1998C37.8401 47.3798 37.9401 47.0098 37.9401 46.8798C37.9401 46.8498 37.9701 46.7698 37.9401 46.7898C37.8901 46.8498 37.8001 46.9898 37.7601 47.0298C37.6501 47.1198 37.5401 47.1998 37.4601 47.2198C37.4301 47.2198 37.4901 47.0098 37.4701 46.9798C37.4101 46.9098 37.3301 46.8898 37.2601 46.8498C37.1501 46.7698 36.9701 46.6498 36.9201 46.5998C36.9101 46.5898 36.8501 46.6698 36.8401 46.6398C36.8401 46.6198 36.9001 46.4498 36.9201 46.3898C36.9201 46.3598 36.9001 46.4198 36.8801 46.4398C36.8501 46.4798 36.7901 46.5798 36.7901 46.5598C36.7901 46.4998 36.8501 46.3498 36.8401 46.3298C36.8401 46.3198 36.6901 46.5398 36.6801 46.5398C36.6201 46.5398 36.5201 46.5398 36.5401 46.4198C36.5401 46.3698 36.5401 46.3598 36.4901 46.3698C36.4001 46.4098 36.4501 46.2498 36.4601 46.1698C36.4601 46.1698 36.4401 46.1798 36.3901 46.2398C36.1201 46.5398 36.2801 46.3198 36.3901 46.1698C36.4401 46.1098 36.4101 46.1298 36.3901 46.1298C36.3701 46.1298 36.2301 46.2698 36.3101 46.1798C36.5701 45.8698 36.3501 46.0898 36.1301 46.2798C35.9301 46.4598 35.8401 46.5298 36.0601 46.2798C36.1501 46.1798 36.1501 46.1698 36.1501 46.1598C36.1501 46.1198 36.1101 46.0998 36.1201 46.0498C36.1201 46.0398 36.2301 45.9398 36.3101 45.8598C35.9101 46.1998 35.5601 46.4398 36.0101 46.0498C36.0901 45.9798 36.0501 45.9998 36.0501 45.9998C36.0101 45.9598 35.9601 45.9298 35.9701 45.8698C35.9701 45.8498 36.1201 45.7498 36.2001 45.6898C36.2201 45.6698 36.2601 45.6498 36.2401 45.6598C36.1301 45.6998 35.9501 45.7898 35.9201 45.7798C35.8601 45.7498 35.9001 45.7098 35.9001 45.6898C35.8901 45.6898 36.0301 45.6598 35.9801 45.6698H35.9601C35.9101 45.6798 35.8801 45.6898 35.8501 45.6898C35.7901 45.6898 35.7801 45.6898 35.7801 45.6898C35.7801 45.6898 35.8301 45.6898 35.8101 45.6898H35.7601C35.7001 45.7098 35.5401 45.6898 35.5401 45.6898C35.5201 45.6898 35.4701 45.6698 35.5101 45.6898H35.5201C35.5201 45.6898 35.5201 45.6898 35.5401 45.6898C35.5901 45.7098 35.6301 45.7398 35.6601 45.7698C35.6601 45.7698 35.6801 45.7898 35.6901 45.7998C35.7101 45.8198 35.7601 45.8598 35.7901 45.8798C35.7901 45.8798 35.8101 45.8998 35.8301 45.9098C35.8801 45.9598 35.7501 45.8298 35.7901 45.8698C35.8501 45.9298 35.8701 45.9498 35.8801 45.9598C35.8801 45.9598 35.9101 45.9898 35.9001 45.9798C35.8301 45.8998 35.7201 45.7898 35.8101 45.8798C36.0301 46.1498 35.7301 45.7398 35.8401 45.8598C35.8801 45.9198 35.9601 46.0198 36.0101 46.0798C36.0301 46.0998 35.9901 46.0398 35.9701 46.0198C35.9401 45.9798 35.8901 45.8798 35.9001 45.8898C35.9201 45.9098 36.0101 46.0698 36.0301 46.0498C36.0401 46.0298 35.9501 45.8398 35.9501 45.7898C35.9501 45.7598 36.0201 45.8698 36.0601 45.9198C36.0801 45.9398 36.1301 46.0298 36.1201 45.9898C36.0001 45.7098 35.9601 45.6798 36.0601 45.6498C36.4801 45.4498 36.9601 45.3498 37.4101 45.1498C37.9001 44.9398 38.4401 44.7698 39.0001 44.7098C39.3201 44.6798 39.6401 44.8498 39.9501 44.8198C39.9501 44.8198 39.9801 44.8198 39.9801 44.8098V40.7598C39.4701 40.7598 38.9701 40.7898 38.4601 40.8398C38.0401 41.4098 36.6401 41.6798 35.9301 41.3598L35.3901 41.5498C35.2901 41.9198 35.0501 42.1098 34.7501 42.2598C34.5901 42.3398 34.4501 42.3998 34.2901 42.4798C34.2501 42.4898 34.2601 42.4798 34.2501 42.5098C34.2501 42.5698 34.2701 42.6698 34.2501 42.7198C34.2401 42.7998 34.2501 42.9098 34.1901 42.9198C34.1301 42.9198 33.8501 42.6498 33.9001 42.8798C33.9601 43.0998 33.6501 42.7498 33.6601 42.8798C33.6601 42.9698 33.7001 43.0898 33.6901 43.1598C33.6901 43.2198 33.6601 43.2498 33.6301 43.2598C33.5901 43.2598 33.4401 43.1798 33.4601 43.2698C33.5201 43.4898 33.4001 43.4898 33.2001 43.4498C33.0601 43.4198 33.1401 43.6198 33.1401 43.7098C33.1401 43.7598 33.2301 43.8898 33.1301 43.8598C32.9101 43.7898 32.9401 43.9198 33.0001 44.0498C33.0501 44.1498 32.8401 44.0998 32.7401 44.1198C32.6901 44.1298 32.5501 44.0998 32.6001 44.1598C32.8101 44.4098 32.5301 44.4098 32.5501 44.5598C32.5701 44.7398 32.5801 44.8998 32.5501 45.0498C32.5301 45.1698 32.3101 45.2598 32.2801 45.3898C32.2601 45.4998 32.3601 45.6098 32.4101 45.7098C32.4101 45.7298 32.4701 45.7498 32.4101 45.7598C31.9601 45.8598 32.2901 45.9398 32.4101 45.9998C32.4801 46.0398 32.4001 46.0998 32.3901 46.1598C32.3901 46.2098 32.3901 46.2498 32.3701 46.2998L32.3201 46.4798C32.3201 46.4798 32.2101 46.5898 32.3401 46.5798C32.7601 46.5598 32.5401 46.6798 32.4001 46.8098C32.3301 46.8698 32.4001 46.8998 32.4501 46.9198C32.5801 46.9798 32.7201 47.0098 32.6401 47.1398C32.5501 47.2898 32.7901 47.2898 32.8501 47.3698C32.8801 47.4198 32.7801 47.5298 32.8201 47.5798C32.8601 47.6298 33.0301 47.5998 33.0401 47.6598C33.0701 47.7898 32.8401 48.1298 33.1301 48.0698C33.4101 47.9998 33.0901 48.4198 33.4601 48.2698C33.5501 48.2298 33.3301 48.4698 33.3701 48.4798C33.5101 48.5098 33.7201 48.4698 33.8501 48.4798C33.8901 48.4798 33.7701 48.6398 33.7301 48.7298C33.7101 48.7798 33.6601 48.8598 33.6801 48.8698C33.8101 48.8998 33.9901 48.8798 34.0901 48.9398C34.1501 48.9698 34.0701 49.1898 34.1301 49.2198C34.1901 49.2598 34.3401 49.1698 34.4401 49.1298C34.4401 49.1298 34.4801 49.0898 34.4701 49.1198C34.2401 49.5698 34.4501 49.4098 34.6501 49.2498C34.8001 49.1298 34.6801 49.4298 34.6901 49.5398C34.6901 49.5698 34.6901 49.6198 34.7001 49.6298C34.7901 49.6998 34.8601 49.7998 34.9701 49.8098C35.0701 49.8098 35.2401 49.6998 35.3601 49.6598C35.3801 49.6598 35.3601 49.7498 35.3801 49.7598C35.4201 49.7898 35.4701 49.7898 35.5101 49.8198C35.5401 49.8398 35.5601 49.8698 35.5701 49.8998C35.5901 49.9398 35.6001 50.0198 35.6401 50.0298C35.6601 50.0298 35.7501 49.8798 35.7801 49.8798C35.8801 49.8598 36.0801 49.6398 36.0301 49.9498C35.9901 50.2498 36.2801 49.7598 36.2801 49.9498C36.2801 50.0698 36.3001 50.1598 36.3101 50.2598C36.3101 50.2598 36.3101 50.2798 36.3101 50.2698C36.5601 49.8098 36.3101 50.5198 36.3801 50.4598C36.4001 50.4398 36.3801 50.5198 36.4501 50.4098C36.7401 49.8598 36.5801 50.3498 36.6201 50.3898C36.6401 50.4198 36.7101 50.3298 36.7601 50.2798C36.7601 50.2798 36.8101 50.1798 36.8101 50.1898C36.8101 50.2898 36.8101 50.4198 36.8301 50.4898C36.8401 50.5598 36.8801 50.5698 36.9001 50.5998C36.9201 50.6298 36.9301 50.6998 36.9701 50.6898C37.0201 50.6798 37.1101 50.5698 37.1601 50.5498C37.2101 50.5298 37.2301 50.5698 37.2801 50.5898C37.3001 50.5898 37.3201 50.6198 37.3401 50.6198C37.3601 50.6198 37.3801 50.6198 37.4001 50.6198L37.4901 50.5998C37.5401 50.5998 37.6701 50.3998 37.6301 50.6198C37.5801 50.9298 37.7601 50.4998 37.8501 50.3598C37.8901 50.2998 37.9401 50.1798 37.9501 50.2198C37.9601 50.3398 37.9701 50.4898 37.9601 50.6998C37.9601 50.8998 38.0601 50.7298 38.1101 50.7298C38.1901 50.7298 38.2301 50.9398 38.3101 50.9798C38.3801 51.0198 38.4901 50.9098 38.5601 50.9498C38.6301 50.9898 38.6801 51.1798 38.7501 51.2098C38.8001 51.2298 38.8801 51.0898 38.9401 51.0098C38.9501 50.9998 38.9601 50.9698 38.9701 51.0098C39.0201 51.2998 39.1101 51.3598 39.2401 50.9398C39.2901 50.7898 39.3101 51.0398 39.3401 51.0298C39.3901 51.0298 39.4501 50.8898 39.4901 50.9198C39.5201 50.9398 39.5401 51.1098 39.5701 51.2198C39.5701 51.2398 39.5701 51.2998 39.5801 51.2898C39.6401 51.2098 39.6901 51.0998 39.7501 51.0398C39.7701 51.0198 39.7801 51.1198 39.8001 51.1398C39.8301 51.1698 39.8701 51.2098 39.9001 51.1998C39.9501 51.1998 40.0001 51.1998 40.0401 51.0998C40.0901 50.9798 40.1501 51.5398 40.1901 51.0298C40.1901 50.9598 40.2001 50.9198 40.2101 50.9398C40.2701 51.0398 40.3401 51.1698 40.4001 51.2498C40.4301 51.2898 40.4701 51.2798 40.5001 51.2498C40.5601 51.1498 40.6101 50.9498 40.6801 50.9098C40.7301 50.8798 40.8101 51.0798 40.8701 51.0798C40.9101 51.0798 40.9301 50.8798 40.9601 50.8598C41.0401 50.8098 41.1101 50.7198 41.2301 50.8598C41.3201 50.9598 41.3501 50.8098 41.4101 50.7898C41.4401 50.7798 41.5301 50.9798 41.5701 50.9698C41.6201 50.9698 41.6301 50.7898 41.6801 50.7898H41.7101C41.7901 50.7798 42.0601 50.6998 42.2201 50.6498C42.6201 50.5198 42.8801 50.4098 43.1701 50.3098C43.7701 50.0698 44.2201 49.9898 45.0601 49.5598C45.9901 49.0498 46.9301 48.3698 47.4301 47.1198C47.6201 46.5898 47.6801 45.9598 47.5301 45.3198C47.3801 44.6698 46.9901 44.1098 46.5901 43.6998C46.3501 43.4598 46.1301 43.2398 45.8901 43.0298C45.6701 42.8298 45.5101 42.6898 45.3001 42.5598C44.4701 42.0498 43.4801 41.4298 42.6701 41.5498C41.6501 41.7098 40.8201 41.5598 39.9401 41.4298V44.8298L40.0001 44.8198Z" fill="#001B38"></path>
  <path d="M38.7601 15.1399C38.7601 14.4999 38.7101 13.8599 38.7201 13.2199V12.8099V12.7099V12.6799V12.6699L38.7001 12.7999V12.8299C38.7001 12.8299 38.6701 12.8999 38.6501 12.9299C38.5701 13.0799 38.4101 13.1799 38.2901 13.1999C38.1701 13.2199 38.0201 13.1999 37.8901 13.1299C37.8301 13.0899 37.7701 13.0499 37.7501 13.0099L38.0001 13.3299C38.4101 13.8599 38.7601 14.4599 39.1301 15.0299L39.4101 15.4499L39.5501 15.6499L39.6201 15.7499L39.7501 15.9099C40.3301 16.5899 41.2501 16.8899 42.0401 16.7499C42.4101 16.6999 42.8501 16.4999 42.8801 16.4799C43.0001 16.4199 43.1301 16.3699 43.2501 16.3299C43.5001 16.2499 43.7401 16.1899 43.9801 16.1399C44.4601 16.0399 44.9201 15.9499 45.3701 15.7199L45.8401 15.4699L45.9601 15.4099C45.9601 15.4099 45.9101 15.4199 45.8801 15.4099C45.8201 15.4099 45.7601 15.4099 45.6901 15.3999C45.4201 15.3499 45.2701 15.1799 45.2101 14.9999C45.1401 14.8599 45.1601 14.6199 45.2101 14.5399C45.1101 14.8199 45.0001 15.0899 44.8901 15.3599C44.6101 16.0199 44.1601 16.6599 44.0401 17.3199L43.9901 17.5599L43.8901 17.9799C43.8101 18.3799 43.8301 18.7999 43.9401 19.1899C44.0501 19.5799 44.2501 19.9399 44.5201 20.2299C44.8701 20.5899 44.9301 20.5799 45.0701 20.7099C45.5701 21.1199 46.0401 21.5799 46.4701 22.0799C46.6601 22.2999 46.8801 22.5099 47.1101 22.6999L47.2801 22.8399C47.2801 22.8399 47.2201 22.7799 47.1901 22.7499C47.1301 22.6599 47.0701 22.5399 47.0601 22.4299C47.0401 22.1999 47.1101 22.0299 47.2601 21.8899C47.3401 21.8299 47.4301 21.7699 47.5201 21.7399C47.5601 21.7399 47.6201 21.7099 47.6801 21.7199C47.6701 21.7199 47.5501 21.7399 47.4901 21.7499C46.9401 21.8299 46.3501 22.0299 45.8401 21.9799C45.1601 21.9099 44.5401 21.9499 43.9101 22.0499C43.6501 22.0999 43.3901 22.1699 43.1301 22.2399C43.0301 22.2699 42.9101 22.2799 42.7701 22.2899C41.8201 22.3399 41.1101 23.1999 41.2001 24.1599C41.2801 25.0699 42.0701 25.7499 42.9901 25.7199C43.4401 25.6999 43.9301 25.6899 44.3101 25.6699C45.0301 25.6199 45.6001 25.5899 46.0501 25.5599C46.5901 25.5199 47.1201 25.2299 47.6601 25.1999H48.0201C48.0201 25.1999 48.5701 25.1499 48.8601 25.0199C49.5301 24.7899 50.1201 24.2799 50.4601 23.6599C50.8101 23.0399 50.9401 22.2999 50.7901 21.5599C50.7201 21.1899 50.5701 20.8299 50.3601 20.4999C50.2501 20.3499 50.1401 20.1799 50.0101 20.0499C49.9001 19.9299 49.7001 19.7499 49.7001 19.7499C49.4301 19.4999 49.0201 19.3599 48.6701 19.1799C48.4401 19.0599 48.0601 18.9599 48.0101 18.8499C47.8801 18.5399 47.6801 18.2999 47.4601 18.0999C47.3501 17.9999 47.2301 17.9099 47.1001 17.8299L47.0501 17.7999L47.0301 17.7799H47.0201V17.7699L46.3601 18.5899C46.3801 18.5899 46.3401 18.5899 46.3601 18.5899C45.6601 18.3199 47.3101 18.9599 47.1401 18.8899V18.8799L47.1501 18.8099L47.1801 18.6999L47.2501 18.4899C47.3101 18.3499 47.3701 18.2199 47.4501 18.0899C47.9201 17.3699 48.1901 16.5699 48.4301 15.7599C48.6301 15.2099 48.6701 14.5299 48.4801 13.9399C48.3001 13.3399 47.9401 12.8399 47.4801 12.4799C47.0201 12.1099 46.4301 11.8899 45.8101 11.8599C45.2201 11.7999 44.4901 12.0899 44.4401 12.0999C43.8501 12.2699 43.2401 12.3399 42.6501 12.4999C42.3901 12.5699 42.1501 12.7399 41.9001 12.8699L41.5401 13.0599L41.4501 13.1099L41.8101 14.0699L42.5401 13.4699H42.5301L42.5101 13.4299L42.4701 13.3699L42.3201 13.1299L42.0201 12.6499C41.8201 12.3299 41.6301 12.0099 41.3901 11.7199C41.1501 11.4299 40.8801 11.1799 40.6101 10.9299C40.5201 10.8399 40.5401 10.8799 40.3001 10.6299C40.1101 10.4499 39.8801 10.2799 39.6401 10.1499C39.1501 9.87989 38.5901 9.76989 38.0601 9.78989C37.4601 9.81989 36.8601 9.98989 36.3301 10.3599C35.8001 10.7199 35.3601 11.2999 35.1801 11.9199C35.1601 11.9799 35.1401 12.0399 35.1201 12.1099V12.1599L35.1001 12.1799V12.1999L35.0801 12.3699V12.3999L35.0201 12.5399C34.9901 12.6299 34.9701 12.7099 34.9801 12.7699C35.2201 13.6699 35.1901 14.5899 35.1001 15.4999L34.9501 16.8799C34.9101 17.2099 34.8901 17.4999 34.9001 17.8099C34.9001 18.0499 34.8801 18.5099 34.8501 19.0199C34.7701 20.0699 35.5601 20.9799 36.6001 21.0499C37.6801 21.1299 38.6001 20.2899 38.6301 19.2099C38.6501 18.5599 38.7301 17.9499 38.9701 17.7799L39.0001 17.3199C38.4101 16.8499 38.7701 15.8599 38.7601 15.0999V15.1399Z" fill="#001B38"></path>
  <path d="M21.25 46.4501V46.9201V47.1501C21.25 47.1801 21.29 47.0201 21.31 47.0001C21.42 46.7901 21.64 46.6601 21.81 46.6401C21.96 46.6101 22.13 46.6501 22.27 46.7501C22.33 46.7901 22.41 46.8801 22.39 46.8801L22.12 46.5801C21.76 46.1801 21.41 45.7801 21.09 45.3601C20.89 45.1001 20.71 44.8301 20.53 44.5401L20.4 44.3301L20.33 44.2201C20.27 44.1401 20.2 44.0501 20.13 43.9701C19.83 43.6501 19.45 43.4101 19.03 43.2701C18.61 43.1301 18.16 43.1001 17.73 43.1901C17.18 43.3201 17.2 43.3501 17.02 43.4101C16.72 43.5201 16.45 43.6501 16.19 43.8001C15.7 44.1101 15.22 44.2301 14.75 44.3301L14.4 44.4001L14.23 44.4401L14.14 44.4601C14.14 44.4601 14.16 44.4401 14.17 44.4301C14.32 44.3501 14.58 44.3601 14.75 44.4601C14.98 44.6101 15.09 44.8501 15.08 45.1101C15.08 45.2301 15.03 45.3701 14.99 45.4101L15.13 44.9101C15.29 44.3601 15.49 43.8201 15.72 43.2901C15.86 42.9701 16.03 42.6501 16.19 42.3301C16.21 42.3101 16.33 42.0101 16.37 41.8001C16.42 41.5701 16.43 41.3401 16.42 41.1201C16.39 40.6701 16.23 40.2401 15.97 39.9001C15.76 39.5901 15.3 39.2501 15.24 39.2401L14.84 38.9801C14.58 38.8001 14.32 38.6101 14.07 38.4101C13.82 38.2101 13.59 37.9901 13.36 37.7701L13.03 37.4301L12.87 37.2501C12.82 37.1901 12.73 37.1001 12.82 37.1501C12.98 37.2201 13.13 37.4901 13.1 37.6901C13.09 37.8301 13.03 37.9701 12.91 38.0901C12.79 38.2101 12.61 38.2701 12.49 38.2601C12.25 38.2901 12.42 38.2601 12.37 38.2701H12.38H12.4L12.44 38.2601H12.52L12.69 38.2201L13.02 38.1601L13.68 38.0601C14.22 37.9901 14.81 37.7901 15.3 37.8501C15.96 37.9301 16.58 37.9001 17.2 37.8101C17.46 37.7601 17.72 37.7001 17.99 37.6301C18.09 37.6101 18.21 37.5901 18.35 37.5901C19.31 37.5501 20.04 36.7001 19.96 35.7401C19.89 34.8301 19.12 34.1401 18.21 34.1601C17.76 34.1701 17.28 34.1801 16.91 34.1901C16.21 34.2301 15.66 34.2601 15.23 34.2801C14.71 34.3101 14.18 34.6001 13.66 34.6101C13.19 34.6201 12.73 34.6101 12.26 34.5701H12.09L12.07 34.5601L11.87 34.5801L11.74 34.6001L11.49 34.6501C11.15 34.7401 10.81 34.8901 10.5 35.1001C9.88998 35.5301 9.43998 36.1701 9.26998 36.8801C9.12998 37.4301 9.16998 38.0601 9.40998 38.6201C9.63998 39.1901 10.08 39.6601 10.51 39.9501C10.73 40.0601 11.11 40.1601 11.16 40.2701C11.42 40.8901 11.91 41.2101 12.43 41.4901C12.69 41.6301 12.96 41.7601 13.21 41.9201L13.26 41.9501L13.79 41.3001L12.9 40.9701L12.83 41.1101C12.74 41.2901 12.65 41.4801 12.58 41.6701C12.43 42.0501 12.3 42.4401 12.18 42.8401L11.82 44.0201L11.76 44.1901C11.72 44.3201 11.68 44.4601 11.65 44.6001C11.59 44.8901 11.58 45.1801 11.61 45.4801C11.67 46.0801 11.92 46.6401 12.28 47.0801C12.8 47.7301 13.64 48.1801 14.56 48.1901C14.78 48.1901 15.01 48.1701 15.22 48.1301C15.33 48.1101 15.43 48.0801 15.54 48.0501L15.66 48.0301L16.1 47.9301C16.35 47.8601 16.59 47.6901 16.84 47.5701C17.32 47.3301 17.78 47.0401 18.27 46.8601L18.53 46.7801L18.66 46.7401L18.32 45.8301L17.45 46.5301V46.5501L17.49 46.6101L17.57 46.7201L17.74 46.9401C18.2 47.5001 18.81 47.9201 19.3 48.4601C19.44 48.6101 19.55 48.7901 19.66 48.9801C19.66 49.0101 19.91 49.3601 20.13 49.5501C20.36 49.7701 20.64 49.9601 20.95 50.0801C21.43 50.3101 22.12 50.4301 22.45 50.3301C23.09 50.1601 23.67 49.8101 24.11 49.3201C24.55 48.8301 24.81 48.1701 24.85 47.5801C24.85 47.1301 24.88 46.6801 24.94 46.2301L25.12 44.8801C25.17 44.5501 25.2 44.2601 25.19 43.9401C25.19 43.7001 25.22 43.2301 25.27 42.7301C25.37 41.6801 24.6 40.7401 23.56 40.6501C22.48 40.5501 21.54 41.3601 21.49 42.4301C21.46 43.0801 21.36 43.6701 21.12 43.8301L21.08 44.2801C21.66 44.7701 21.28 45.7001 21.28 46.4401L21.25 46.4501Z" fill="#001B38"></path>
</svg>
