<?xml version="1.0" encoding="UTF-8"?>
<svg xmlns="http://www.w3.org/2000/svg" width="353" height="85" viewBox="0 0 353 85" fill="none">
  <path d="M10.6434 0.0803299C10.2135 0.201805 9.81173 0.575584 9.6155 1.00543C9.32582 1.66889 9.40992 2.22022 9.92387 3.04253C10.0921 3.30418 11.6152 5.07964 13.3066 6.98592C15.0073 8.90154 16.4931 10.6116 16.6145 10.7985C17.035 11.4152 17.2219 12.1067 17.1659 12.8823C17.1285 13.5645 16.9509 13.985 11.447 26.8617L5.76556 40.1402L5.30768 40.3084C2.96221 41.1494 2.02776 43.5977 3.17713 45.9245C3.43878 46.4478 4.177 47.2794 4.61619 47.5224C4.78439 47.6158 4.78439 47.6345 4.5975 48.4008C4.25175 49.7371 4.21437 50.4566 4.24241 54.4187C4.27044 57.8668 4.28913 58.3527 4.46668 59.2778L4.67225 60.315L3.10238 61.8943C2.24268 62.7726 1.2802 63.8192 0.962484 64.2397C0.401814 64.9779 0 65.576 0 65.6881C0 65.8657 1.60726 66.5011 3.16779 66.9403C4.18634 67.2206 5.97114 67.5944 7.01773 67.7346L7.8307 67.8467L8.48481 68.8372C10.3163 71.6032 12.2974 73.9393 15.2315 76.7333C17.9508 79.3405 21.455 82.1158 23.9219 83.6109L24.6788 84.0781L25.3049 83.695C26.8187 82.7792 29.0334 81.1533 31.0144 79.518C35.098 76.1259 38.7984 72.1078 40.9663 68.6971C41.4336 67.9588 41.555 67.828 41.8073 67.7906C45.2741 67.2674 49.0587 66.1927 49.0587 65.7442C49.0587 65.4639 47.6663 63.8099 46.1525 62.2867L44.592 60.7075L44.7695 59.8572C45.19 57.7827 45.2368 55.6334 44.9471 51.8489C44.8163 50.0735 44.7041 49.2324 44.5266 48.5316C44.3958 48.0177 44.293 47.5972 44.293 47.5878C44.293 47.5785 44.5079 47.429 44.7695 47.2608C46.0217 46.4665 46.6384 44.9059 46.3114 43.3734C46.0217 41.9718 45.2274 40.9158 44.078 40.3925L43.48 40.1216L39.9384 31.291C31.9115 11.2377 31.2854 9.69582 30.7995 8.96696C29.9398 7.68676 28.725 6.54673 27.557 5.96737C26.8748 5.62162 12.7833 0.211151 12.2413 0.0896683C11.7554 -0.0224609 10.9891 -0.0318069 10.6434 0.0803299ZM26.202 12.8075C26.23 13.0785 26.2581 13.4617 26.2581 13.6486C26.2581 13.985 26.2768 14.0036 27.0056 14.3961C27.4168 14.6204 27.7532 14.826 27.7532 14.8633C27.7532 14.8914 27.3981 15.0596 26.9683 15.2278L26.1833 15.5361L26.0712 16.237C25.8936 17.3583 25.9123 17.349 25.2956 16.6108C24.7069 15.9006 24.7256 15.9099 23.7257 16.0688C23.3613 16.1248 23.0529 16.1529 23.0342 16.1342C23.0155 16.1155 23.2024 15.7698 23.4547 15.3679L23.9126 14.6297L23.5388 13.8915C23.3332 13.4804 23.1837 13.1253 23.2024 13.1066C23.2304 13.0785 23.6136 13.1533 24.0621 13.2654L24.8751 13.471L25.4451 12.8916C25.7628 12.5833 26.0525 12.3216 26.0805 12.3216C26.1086 12.3216 26.1646 12.5459 26.202 12.8075ZM21.9222 24.1237C22.1185 24.2826 22.1745 24.2733 23.3052 23.9929C23.9593 23.8341 24.52 23.7219 24.548 23.7593C24.5854 23.7967 24.3705 24.32 24.0715 24.9274C23.5949 25.8805 23.5388 26.0487 23.6323 26.2263C23.6977 26.3477 23.9967 26.843 24.3051 27.3289C24.6134 27.8242 24.847 28.2447 24.8284 28.2727C24.8003 28.2914 24.3051 28.2447 23.7257 28.1699C23.1463 28.0858 22.5763 28.0204 22.4549 28.0204C22.3053 28.0204 22.025 28.2821 21.427 29.0016C20.9784 29.5342 20.6046 29.9641 20.586 29.9454C20.5766 29.936 20.4925 29.5716 20.4178 29.1324C20.3337 28.7026 20.2309 28.1325 20.1748 27.8616L20.0814 27.385L18.8666 26.8991C18.2031 26.6281 17.6611 26.3945 17.6611 26.3851C17.6611 26.3664 18.1844 26.0768 18.8198 25.7403L19.9786 25.1236L20.044 23.9836C20.072 23.3482 20.1281 22.7595 20.1561 22.6567C20.1935 22.5165 20.3337 22.6099 20.9691 23.2267C21.3802 23.6285 21.8194 24.0396 21.9222 24.1237ZM32.5936 32.1974C32.7618 33.1038 32.9207 33.8794 32.9487 33.9168C32.9674 33.9542 33.5374 34.2999 34.2102 34.7017C34.8831 35.0942 35.4157 35.4306 35.397 35.4493C35.3877 35.468 34.6962 35.7483 33.8738 36.0847L32.3787 36.6921L32.1638 37.8041C32.0517 38.4115 31.9022 39.1497 31.8367 39.4487L31.7246 39.9907L30.6687 38.7199C30.08 38.0284 29.5567 37.4584 29.5006 37.4584C29.4539 37.4584 28.7344 37.5518 27.9214 37.6546C27.1084 37.7667 26.4169 37.8321 26.3889 37.8041C26.3515 37.7761 26.716 37.1407 27.1832 36.3931L28.0335 35.0381L27.3327 33.571C26.9496 32.7581 26.6505 32.0853 26.6692 32.0666C26.6879 32.0479 27.3981 32.2068 28.2578 32.4217L29.809 32.8048L30.5285 32.1507C30.9303 31.7862 31.463 31.2816 31.7246 31.02C31.9769 30.7584 32.2105 30.5434 32.2386 30.5434C32.2666 30.5434 32.4254 31.291 32.5936 32.1974ZM41.4616 48.6251C41.9008 49.8679 42.0036 51.7555 41.7232 53.1104C41.4522 54.4 40.6766 56.0353 39.8824 57.0164L39.6674 57.2781L38.6863 56.8108C34.1729 54.6803 28.0896 53.858 25.2676 54.9887C24.7069 55.2129 24.6602 55.2129 24.3892 55.0728C23.8939 54.8205 22.7072 54.5588 21.5765 54.4654C18.4928 54.1944 13.6149 55.1849 10.1949 56.7735C9.70894 56.9977 9.28844 57.1472 9.26041 57.1099C7.3261 54.5214 6.72805 51.5592 7.58774 48.7839L7.76529 48.2046L24.548 48.2232L41.3308 48.2513L41.4616 48.6251ZM30.5379 55.7736C32.631 56.1194 34.9672 56.8202 36.5838 57.5958C39.0227 58.7638 42.0877 61.0346 44.2463 63.2492L45.0873 64.1183L44.7789 64.2491C43.8631 64.6229 40.6019 65.1461 38.1723 65.305C34.4999 65.548 31.4723 65.062 29.0334 63.8473C27.6224 63.1371 25.8189 61.6513 25.09 60.586L24.7443 60.0908L24.2023 60.7636C22.3614 63.081 19.0348 64.7724 15.3343 65.2583C13.4467 65.5106 9.62484 65.3985 7.43823 65.0247C6.34492 64.8378 4.78439 64.4547 4.61619 64.3332C4.45733 64.2117 4.48536 64.165 4.99931 63.5295C6.25148 61.997 8.74646 59.8478 10.6995 58.6237C13.2692 57.0071 16.6239 55.9512 20.1094 55.6615C21.6512 55.54 23.0809 55.6428 24.0247 55.9605C24.548 56.138 24.5667 56.138 24.9685 55.9698C25.3236 55.811 25.9404 55.6615 26.772 55.5493C27.3233 55.4652 29.4539 55.5961 30.5379 55.7736ZM25.1274 61.7074C27.0243 64.5294 30.7061 66.9029 34.3224 67.6505C34.8457 67.7533 35.8362 67.8934 36.5183 67.9495L37.7518 68.0616L37.1631 68.8092C34.3971 72.304 29.4165 76.425 25.2302 78.6863L24.5106 79.0788L23.5575 78.5368C22.268 77.808 19.53 75.9671 18.2685 74.9766C15.8296 73.0796 13.5402 70.865 11.9703 68.9026L11.2975 68.0616L11.8862 67.9869C14.9979 67.6224 16.3809 67.2487 18.4648 66.2488C20.913 65.0527 22.9501 63.4081 24.3051 61.5205C24.4733 61.2869 24.6321 61.1 24.6602 61.1C24.6882 61.1 24.9031 61.3803 25.1274 61.7074Z" fill="#001B38"></path>
  <path d="M17.7258 50.3908C16.8848 50.6992 16.455 51.4841 16.6419 52.3251C16.7633 52.8484 17.0343 53.2128 17.4735 53.4371C18.2678 53.8389 19.2677 53.5586 19.6975 52.8297C20.0059 52.2971 19.9592 51.4467 19.5947 50.9702C19.1368 50.3815 18.3893 50.1478 17.7258 50.3908Z" fill="#001B38"></path>
  <path d="M30.3794 50.3719C29.6973 50.5682 29.1553 51.2597 29.1553 51.9231C29.1553 52.5305 29.5758 53.2127 30.1084 53.493C30.4261 53.6612 31.127 53.6612 31.5194 53.493C32.1642 53.222 32.5847 52.4371 32.4726 51.6895C32.3885 51.1101 31.8371 50.5121 31.2578 50.3626C30.7906 50.2411 30.8093 50.2411 30.3794 50.3719Z" fill="#001B38"></path>
  <path d="M229.839 30.0253V40.2953L229.058 39.244C227.225 36.6833 225.499 35.8207 222.292 35.7938C220.405 35.7938 219.758 35.9016 218.518 36.4676C215.769 37.7615 213.774 40.484 212.696 44.3925C212.022 46.8185 211.86 54.2851 212.426 56.9267C213.343 61.3204 216.011 64.9325 219.111 65.9837C220.728 66.5228 223.882 66.6037 225.122 66.1185C226.47 65.5794 227.872 64.5012 228.896 63.1804L229.866 61.9404L229.678 63.8812L229.489 65.822H235.743H241.969V42.7752V19.7284H235.904H229.839V30.0253ZM228.896 45.4977C229.812 46.4681 230.19 48.5436 230.055 51.6974C229.947 54.7433 229.354 56.3068 228.141 56.8728C227.494 57.1963 227.252 57.1693 226.389 56.738C224.906 56.0102 224.421 54.4199 224.529 50.5922C224.583 48.301 224.718 47.3845 225.122 46.5489C226.012 44.7699 227.764 44.2577 228.896 45.4977Z" fill="#001B38"></path>
  <path d="M115.414 21.131C112.8 22.0745 110.967 24.5274 110.967 27.0612C110.967 32.9375 118.784 35.6599 123.124 31.3201C124.876 29.568 125.361 27.7081 124.687 25.2552C124.31 23.8266 122.018 21.5893 120.509 21.131C119.161 20.7537 116.52 20.7537 115.414 21.131Z" fill="#001B38"></path>
  <path d="M283.077 21.4554C276.23 24.6362 279.276 34.0975 286.932 33.3966C291.784 32.9654 294.533 28.4638 292.484 24.3666C291.784 22.9649 290.544 21.8867 288.792 21.132C287.498 20.5659 284.613 20.7276 283.077 21.4554Z" fill="#001B38"></path>
  <path d="M57.9729 24.2302C58.1616 24.8502 68.1081 65.5527 68.1081 65.7144C68.1081 65.7684 70.9114 65.8223 74.3078 65.8223C78.6476 65.8223 80.5075 65.7414 80.5075 65.5258C80.5075 65.364 81.1005 61.4016 81.8283 56.6844C82.5831 51.9942 83.3648 46.3605 83.6074 44.1232C83.85 41.9129 84.0926 40.053 84.1195 40.026C84.1465 39.9991 84.3891 41.5086 84.6586 43.3954C85.063 46.3605 88.3785 64.0432 88.7558 65.3371C88.8906 65.7684 89.4297 65.8223 94.9556 65.8223C98.2711 65.8223 100.994 65.7953 100.994 65.7414C100.994 65.7144 103.042 56.3879 105.576 45.0667C108.11 33.7454 110.158 24.3111 110.158 24.1224C110.158 23.8528 108.838 23.772 104.12 23.772H98.0824L97.7859 25.4432C96.2764 33.8802 95.0364 41.886 94.6591 45.471C94.2278 49.676 93.9852 50.9429 93.9852 49.083C93.9852 47.304 92.6374 39.1904 91.101 31.5082L89.5645 23.772H84.1195H78.6746L77.2998 30.8343C75.9251 37.9235 75.0625 43.4224 74.6852 47.2231C74.4426 49.8647 74.2269 49.2717 73.5261 43.7189C73.0679 40.0799 70.9923 27.4379 70.3723 24.4998L70.2106 23.772H64.0378C58.2424 23.772 57.8381 23.7989 57.9729 24.2302Z" fill="#001B38"></path>
  <path d="M246.552 44.7702V65.8223H252.886H259.221V59.0026V52.1559L262.536 51.9942C264.342 51.8864 266.553 51.6168 267.442 51.4012C273.884 49.7569 277.362 45.1206 277.389 38.1931C277.416 31.1847 273.723 26.4136 266.849 24.5267C264.935 23.9876 263.938 23.9337 255.663 23.8259L246.552 23.7181V44.7702ZM262.671 33.6646C264.342 34.9045 265.097 36.9531 264.612 38.9748C264.154 40.9964 262.725 42.2364 260.488 42.5329L259.221 42.7216V37.7887V32.8559L260.595 32.9907C261.35 33.0716 262.267 33.3681 262.671 33.6646Z" fill="#001B38"></path>
  <path d="M163.233 35.9836C159.594 37.0079 157.249 39.8113 155.928 44.7441C155.2 47.4666 155.146 53.9089 155.82 56.9279C156.817 61.4833 159.324 64.9875 162.236 65.9849C164.365 66.7127 166.926 66.6049 168.705 65.7153C170.403 64.8797 171.239 64.1519 172.559 62.4537L173.53 61.1599L173.341 63.478L173.152 65.8231H179.271H185.363V51.1325V36.4419H179.136H172.883L173.099 38.6522L173.287 40.8625L172.29 39.5687C171.751 38.8409 170.969 37.9783 170.592 37.6279C168.759 36.0106 165.632 35.3097 163.233 35.9836ZM171.859 45.3102C172.64 46.0919 172.964 47.6014 172.964 50.5125C172.964 53.9359 172.559 55.7419 171.616 56.7123C170.699 57.6018 169.783 57.6826 168.84 56.9279C167.815 56.1192 167.465 54.7176 167.492 51.6447C167.519 47.0892 168.57 44.798 170.565 44.798C170.996 44.798 171.589 45.0406 171.859 45.3102Z" fill="#001B38"></path>
  <path d="M207.171 36.0636C205.176 36.6566 203.424 38.0044 202.13 39.9452L200.944 41.6973L201.106 40.619C201.187 40.026 201.321 38.84 201.429 37.9774L201.591 36.441H195.499H189.407V51.1316V65.8223H195.445H201.483L201.591 58.3287C201.672 50.9429 201.672 50.8351 202.346 49.5143C203.505 47.277 205.904 46.4414 208.546 47.3579C209.165 47.5735 209.732 47.7622 209.785 47.7622C209.839 47.7622 209.893 45.0397 209.893 41.6973V35.6323L209.165 35.6593C208.734 35.6593 207.845 35.848 207.171 36.0636Z" fill="#001B38"></path>
  <path d="M314.75 35.9827C312.485 36.6297 310.356 38.3818 309.17 40.5382L308.685 41.4277L308.604 38.9209L308.523 36.441H302.62H296.689V51.1316V65.8223H302.593H308.496L308.604 57.3853C308.685 49.9995 308.738 48.8674 309.17 48.1126C309.978 46.6031 311.542 46.1988 312.485 47.2501C312.97 47.7892 312.997 48.4091 313.078 56.8192L313.159 65.8223H319.197H325.262V55.0941C325.262 43.7728 325.1 41.9938 323.941 39.7565C323.294 38.4626 321.569 36.8723 320.221 36.3062C318.82 35.7132 316.205 35.5515 314.75 35.9827Z" fill="#001B38"></path>
  <path d="M339.36 36.0382C333.861 37.0355 329.953 40.6745 329.629 45.0951C329.333 49.3271 331.705 52.1305 337.338 54.26C340.196 55.3112 340.842 55.7155 341.058 56.5781C341.678 59.058 336.799 58.7615 333.834 56.1468L332.864 55.3112L332.325 56.1738C331.246 57.9798 328.443 63.4248 328.551 63.5326C328.874 63.856 332.891 65.3925 334.67 65.8777C337.446 66.6055 342.271 66.6594 344.535 65.9855C350.708 64.1256 353.889 59.5702 352.784 54.1791C352.218 51.5105 350.25 49.7584 345.856 48.0333C343.134 46.9551 342.136 46.3351 341.759 45.4725C341.004 43.8282 342.864 42.9926 345.074 43.963C345.775 44.2595 346.8 44.8795 347.366 45.3377L348.417 46.1734L350.466 42.1301C352.757 37.5207 352.865 38.0329 349.495 36.8738C345.883 35.6608 342.864 35.3912 339.36 36.0382Z" fill="#001B38"></path>
  <path d="M111.775 51.1316V65.8223H117.84H123.905V51.1316V36.441H117.84H111.775V51.1316Z" fill="#001B38"></path>
  <path d="M128.488 40.7538V45.0667L133.071 45.1206L137.653 45.2014L136.683 46.8188C135.766 48.3283 126.871 65.4718 126.871 65.7144C126.871 65.7684 132.693 65.8223 139.81 65.8223H152.748V61.3746V56.927H148.301H143.88L145.039 54.9593C145.659 53.908 148.085 49.2987 150.43 44.7163L154.662 36.441H141.589H128.488V40.7538Z" fill="#001B38"></path>
  <path d="M280.246 51.1316V65.8223H286.311H292.376V51.1316V36.441H286.311H280.246V51.1316Z" fill="#001B38"></path>
</svg>
